# Blender v2.66 (sub 1) OBJ File: 'mesh_Disk_5sided.blend'
# www.blender.org
mtllib mesh_Disk_5sided.mtl
o Circle
v 0.000000 0.000000 0.000000
v 0.000000 0.000000 -1.000000
v -0.951057 0.000000 -0.309017
v -0.587785 0.000000 0.809017
v 0.587785 0.000000 0.809017
v 0.951056 0.000000 -0.309017
vt 0.500000 0.447214
vt 0.500000 1.000000
vt 0.000000 0.618034
vt 0.190983 0.000000
vt 0.809017 0.000000
vt 1.000000 0.618034
vn -0.000000 1.000000 0.000000
usemtl None
s off
f 1/1/1 2/2/1 3/3/1
f 1/1/1 3/3/1 4/4/1
f 1/1/1 4/4/1 5/5/1
f 1/1/1 5/5/1 6/6/1
f 1/1/1 6/6/1 2/2/1
