# Blender v2.66 (sub 1) OBJ File: 'mesh_HalfPipe.blend'
# www.blender.org
mtllib mesh_HalfPipe.mtl
o Cube
v -1.000000 0.000000 1.000000
v -1.000000 1.000000 1.000000
v -1.000000 1.000000 0.500000
v -1.000000 1.000000 -0.500000
v -1.000000 1.000000 -1.000000
v -1.000000 0.000000 -1.000000
v -1.000000 0.902455 0.490393
v -1.000000 1.000000 -0.500000
v -1.000000 0.808658 0.461940
v -1.000000 0.902455 -0.490393
v -1.000000 0.722215 0.415735
v -1.000000 0.646447 0.353553
v -1.000000 0.584265 0.277785
v -1.000000 0.538060 0.191342
v -1.000000 0.808658 -0.461940
v -1.000000 0.509607 0.097545
v -1.000000 0.500000 -0.000000
v -1.000000 0.509607 -0.097545
v -1.000000 0.538060 -0.191342
v -1.000000 0.584265 -0.277785
v -1.000000 0.646447 -0.353553
v -1.000000 0.722215 -0.415735
v 1.000000 1.000000 -1.000000
v 1.000000 0.000000 -1.000000
v 1.000000 0.000000 1.000000
v 1.000000 1.000000 1.000000
v 1.000000 1.000000 0.500000
v 0.400000 1.000000 -0.500000
v 1.000000 1.000000 -0.500000
v 1.000000 0.902455 -0.490393
v 1.000000 0.902455 0.490393
v 1.000000 0.808658 0.461940
v 1.000000 0.808658 -0.461940
v 1.000000 0.722215 -0.415735
v 1.000000 0.646447 -0.353553
v 1.000000 0.584265 -0.277785
v 1.000000 0.538060 -0.191342
v 1.000000 0.722215 0.415735
v 1.000000 0.509607 -0.097545
v 1.000000 0.500000 -0.000000
v 1.000000 0.509607 0.097545
v 1.000000 0.538060 0.191342
v 1.000000 0.584265 0.277785
v 1.000000 0.646447 0.353553
vt 0.000000 0.001020
vt 0.097894 0.240914
vt 0.090298 0.269687
vt 0.108156 0.215684
vt 0.120692 0.194965
vt 0.135020 0.179554
vt 0.150588 0.170044
vt 0.166799 0.166799
vt 0.183029 0.169944
vt 0.332577 0.000000
vt 0.085663 0.300896
vt 0.213077 0.194682
vt 0.198656 0.179359
vt 0.225740 0.215323
vt 0.236157 0.240490
vt 0.243929 0.269216
vt 0.084165 0.333342
vt 0.248756 0.300396
vt 0.001020 0.333598
vt 0.333598 0.332577
vt 0.250453 0.332832
vt 0.662846 0.333598
vt 0.986476 0.334590
vt 0.661825 0.666175
vt 0.441754 0.215684
vt 0.431491 0.240914
vt 0.333598 0.001020
vt 0.454290 0.194965
vt 0.468617 0.179554
vt 0.484185 0.170044
vt 0.500396 0.166799
vt 0.516627 0.169944
vt 0.666175 0.000000
vt 0.532253 0.179359
vt 0.423896 0.269687
vt 0.546675 0.194682
vt 0.559338 0.215323
vt 0.569755 0.240490
vt 0.577527 0.269216
vt 0.582354 0.300396
vt 0.419260 0.300896
vt 0.417762 0.333342
vt 0.334618 0.333598
vt 0.667195 0.332577
vt 0.333598 0.334601
vt 0.660805 0.333598
vt 0.332577 0.333598
vt 0.333598 0.666175
vt 0.001020 0.667195
vt 0.661825 0.667423
vt 0.744970 0.667168
vt 0.745684 0.899972
vt 0.745990 0.999745
vt 0.662846 1.000000
vt 0.830155 0.999745
vt 0.747010 1.000000
vt 0.745990 0.667423
vt 0.861742 0.000918
vt 0.862762 0.333496
vt 0.830252 0.233821
vt 0.830558 0.333595
vt 0.893279 0.000822
vt 0.894300 0.333399
vt 0.922939 0.000731
vt 0.949582 0.000649
vt 0.923960 0.333308
vt 0.972183 0.000580
vt 0.973203 0.333157
vt 0.989874 0.000525
vt 0.990895 0.333103
vt 0.845752 0.667315
vt 0.846772 0.999892
vt 0.830155 0.667363
vt 0.861973 0.667265
vt 0.862993 0.999842
vt 0.878193 0.667216
vt 0.879214 0.999793
vt 0.893790 0.667168
vt 0.894811 0.999745
vt 0.810253 0.333541
vt 0.811273 0.000964
vt 0.828518 0.333598
vt 0.787226 0.333471
vt 0.788247 0.000894
vt 0.760323 0.333388
vt 0.761343 0.000811
vt 0.730577 0.333297
vt 0.731597 0.000720
vt 0.699132 0.333201
vt 0.700152 0.000623
vt 0.667195 0.333103
vt 0.668215 0.000525
vt 0.829538 0.001017
vt 0.985456 0.667168
vt 0.584051 0.332832
vt 0.334618 0.667179
vt 0.000000 0.334618
vt 0.829134 0.667168
vt 0.950602 0.333226
vt 0.831175 0.999940
vt 0.829538 0.001020
vn -1.000000 -0.000000 0.000000
vn 0.000000 0.000000 -1.000000
vn 1.000000 0.000000 0.000000
vn 0.000000 -0.000000 1.000000
vn 0.000000 -1.000000 0.000000
vn 0.000000 1.000000 0.000000
vn -0.000000 0.098017 0.995185
vn -0.000000 0.290285 0.956940
vn -0.000000 0.471397 0.881921
vn -0.000000 0.634393 0.773011
vn -0.000000 0.773011 0.634393
vn -0.000000 0.881921 0.471397
vn -0.000000 0.956940 0.290285
vn -0.000000 0.995185 0.098018
vn -0.000000 0.995185 -0.098017
vn -0.000000 0.956940 -0.290285
vn -0.000000 0.881921 -0.471397
vn -0.000000 0.773011 -0.634393
vn -0.000000 0.634393 -0.773010
vn -0.000000 0.471397 -0.881921
vn -0.000000 0.290284 -0.956940
vn -0.000000 0.098017 -0.995185
vn -0.000000 0.634394 0.773010
vn -0.000000 0.773010 0.634394
vn -0.000000 0.995185 0.098017
vn -0.000000 0.881922 -0.471396
vn -0.000000 0.773010 -0.634394
usemtl None
s off
f 6/1/1 22/2/1 15/3/1
f 6/1/1 21/4/1 22/2/1
f 6/1/1 20/5/1 21/4/1
f 6/1/1 19/6/1 20/5/1
f 6/1/1 18/7/1 19/6/1
f 6/1/1 17/8/1 18/7/1
f 6/1/1 16/9/1 17/8/1
f 6/1/1 1/10/1 16/9/1
f 15/3/1 10/11/1 6/1/1
f 1/10/1 13/12/1 14/13/1
f 1/10/1 12/14/1 13/12/1
f 1/10/1 11/15/1 12/14/1
f 1/10/1 9/16/1 11/15/1
f 10/11/1 8/17/1 6/1/1
f 1/10/1 7/18/1 9/16/1
f 4/17/1 5/19/1 6/1/1
f 1/10/1 2/20/1 3/21/1
f 23/22/2 24/23/2 5/24/2
f 44/25/3 38/26/3 25/27/3
f 25/27/3 43/28/3 44/25/3
f 25/27/3 42/29/3 43/28/3
f 25/27/3 41/30/3 42/29/3
f 25/27/3 40/31/3 41/30/3
f 25/27/3 39/32/3 40/31/3
f 25/27/3 24/33/3 37/34/3
f 38/26/3 32/35/3 25/27/3
f 24/33/3 36/36/3 37/34/3
f 24/33/3 35/37/3 36/36/3
f 24/33/3 34/38/3 35/37/3
f 24/33/3 33/39/3 34/38/3
f 24/33/3 30/40/3 33/39/3
f 32/35/3 31/41/3 25/27/3
f 27/42/3 26/43/3 31/41/3
f 24/33/3 23/44/3 30/40/3
f 2/45/4 1/46/4 25/24/4
f 25/47/5 1/48/5 6/49/5
f 5/50/6 4/51/6 28/52/6
f 28/52/6 29/53/6 23/54/6
f 26/55/6 27/56/6 3/57/6
f 10/58/7 30/59/7 28/60/7
f 30/59/7 29/61/7 28/60/7
f 10/58/8 15/62/8 33/63/8
f 15/62/9 22/64/9 33/63/9
f 22/64/10 21/65/10 34/66/10
f 20/67/11 36/68/11 21/65/11
f 19/69/12 37/70/12 20/67/12
f 18/71/13 39/72/13 19/73/13
f 17/74/14 40/75/14 18/71/14
f 16/76/15 41/77/15 17/74/15
f 14/78/16 42/79/16 16/76/16
f 13/80/17 43/81/17 14/82/17
f 12/83/18 44/84/18 13/80/18
f 11/85/19 38/86/19 12/83/19
f 9/87/20 32/88/20 11/85/20
f 7/89/21 31/90/21 9/87/21
f 3/91/22 27/92/22 7/89/22
f 28/60/4 4/93/4 8/93/4
f 1/10/1 14/13/1 16/9/1
f 8/17/1 4/17/1 6/1/1
f 7/18/1 1/10/1 3/21/1
f 24/23/2 6/94/2 5/24/2
f 39/32/3 25/27/3 37/34/3
f 26/43/3 25/27/3 31/41/3
f 23/44/3 29/95/3 30/40/3
f 26/96/4 2/45/4 25/24/4
f 24/97/5 25/47/5 6/49/5
f 23/54/6 5/50/6 28/52/6
f 2/98/6 26/55/6 3/57/6
f 8/93/7 10/58/7 28/60/7
f 30/59/8 10/58/8 33/63/8
f 22/64/9 34/66/9 33/63/9
f 21/65/23 35/99/23 34/66/23
f 36/68/24 35/99/24 21/65/24
f 37/70/12 36/68/12 20/67/12
f 39/72/13 37/100/13 19/73/13
f 40/75/25 39/72/25 18/71/25
f 41/77/15 40/75/15 17/74/15
f 42/79/16 41/77/16 16/76/16
f 43/81/26 42/101/26 14/82/26
f 44/84/27 43/81/27 13/80/27
f 38/86/19 44/84/19 12/83/19
f 32/88/20 38/86/20 11/85/20
f 31/90/21 32/88/21 9/87/21
f 27/92/22 31/90/22 7/89/22
