# Blender v2.66 (sub 1) OBJ File: 'mesh_Frame1.blend'
# www.blender.org
mtllib mesh_Frame1.mtl
o Sqorus
v -1.000000 0.100000 1.000000
v -1.000000 -0.100000 1.000000
v 1.000000 0.100000 1.000000
v 1.000000 -0.100000 1.000000
v -0.750000 0.100000 0.750000
v -0.750000 -0.100000 0.750000
v 0.750000 0.100000 0.750000
v 0.750000 -0.100000 0.750000
v -1.000000 0.100000 -1.000000
v -1.000000 -0.100000 -1.000000
v -0.750000 0.100000 -0.750000
v -0.750000 -0.100000 -0.750000
v 0.750000 0.100000 -0.750000
v 0.750000 -0.100000 -0.750000
v 1.000000 0.100000 -1.000000
v 1.000000 -0.100000 -1.000000
vt 0.488570 0.539713
vt 0.488570 0.488570
vt 1.000000 0.488570
vt 0.488570 0.000000
vt 0.000000 0.000000
vt 0.061071 0.061071
vt 0.000000 0.488570
vt 1.000000 0.437427
vt 0.427499 0.549641
vt 0.488570 0.977140
vt 0.488570 0.051143
vt 1.000000 0.000000
vt 0.488570 0.388570
vt 0.488570 0.339713
vt 0.854997 0.339713
vt 0.488570 0.437427
vt 0.854997 0.388570
vt 0.488570 0.590856
vt 0.488570 0.639713
vt 0.854997 0.590856
vt 0.854997 0.051143
vt 0.854997 0.100000
vt 0.488570 0.100000
vt 0.061071 0.916068
vt 0.427499 0.916068
vt 0.061071 0.549641
vt 1.000000 0.590856
vt 1.000000 0.539713
vt 0.427499 0.427499
vt 0.061071 0.427499
vt 0.427499 0.061071
vt 1.000000 0.051143
vt 0.854997 0.437427
vt 0.854997 0.639713
vt 0.000000 0.977140
vn 0.000000 -0.000000 1.000000
vn 0.000000 -1.000000 0.000000
vn 0.000000 0.000000 -1.000000
vn 0.000000 1.000000 -0.000000
vn 1.000000 0.000000 0.000000
vn -1.000000 0.000000 0.000000
usemtl None
s off
f 1/1/1 2/2/1 4/3/1
f 4/4/2 2/5/2 6/6/2
f 6/6/2 2/5/2 10/7/2
f 15/3/3 16/8/3 9/2/3
f 7/9/4 3/2/4 15/10/4
f 3/11/5 4/4/5 16/12/5
f 1/7/4 3/2/4 7/9/4
f 5/13/5 6/14/5 12/15/5
f 6/13/3 5/16/3 8/17/3
f 8/18/6 7/19/6 14/20/6
f 14/21/1 13/22/1 11/23/1
f 11/24/4 13/25/4 15/10/4
f 1/7/4 5/26/4 11/24/4
f 9/27/6 10/28/6 1/18/6
f 14/29/2 12/30/2 10/7/2
f 4/4/2 8/31/2 14/29/2
f 3/28/1 1/1/1 4/3/1
f 8/31/2 4/4/2 6/6/2
f 12/30/2 6/6/2 10/7/2
f 16/8/3 10/16/3 9/2/3
f 13/25/4 7/9/4 15/10/4
f 15/32/5 3/11/5 16/12/5
f 5/26/4 1/7/4 7/9/4
f 11/17/5 5/13/5 12/15/5
f 5/16/3 7/33/3 8/17/3
f 7/19/6 13/34/6 14/20/6
f 12/11/1 14/21/1 11/23/1
f 9/35/4 11/24/4 15/10/4
f 9/35/4 1/7/4 11/24/4
f 10/28/6 2/1/6 1/18/6
f 16/2/2 14/29/2 10/7/2
f 16/2/2 4/4/2 14/29/2
