# Blender v2.68 (sub 0) OBJ File: 'mesh_RampRound10.blend'
# www.blender.org
mtllib mesh_RampRound10.mtl
o Cube.001_Cube.004
v -2.000000 0.000000 1.000000
v -2.000000 0.000000 -1.000000
v -1.609820 0.038429 1.000000
v -1.609820 0.038429 -0.609819
v -1.234633 0.152241 1.000000
v -1.234634 0.152241 -0.234633
v -0.038429 1.609820 1.000000
v -0.038429 1.609820 0.961570
v -0.888860 0.337061 1.000000
v -0.888860 0.337061 0.111140
v -0.152241 1.234633 1.000000
v -0.152241 1.234633 0.847759
v -0.585786 0.585786 1.000000
v -0.585786 0.585786 0.414213
v -0.337061 0.888860 1.000000
v -0.337061 0.888860 0.662939
v 0.000000 -0.000000 1.000000
v 2.000000 -0.000000 1.000000
v 2.000000 -0.000000 -1.000000
v -0.000000 -0.000000 -1.000000
v 1.609820 0.038429 1.000000
v 1.609820 0.038429 -0.609820
v 0.000000 0.038429 -0.609820
v 0.000000 2.000000 1.000000
v 0.000000 2.000000 1.000000
v 0.000000 0.152241 -0.234634
v 0.000000 1.609820 0.961570
v 0.000000 1.234633 0.847759
v 0.000000 0.337061 0.111140
v 0.000000 0.585786 0.414213
v 0.000000 0.888860 0.662939
v 1.234634 0.152241 1.000000
v 1.234634 0.152241 -0.234634
v 0.038430 1.609820 1.000000
v 0.038430 1.609820 0.961570
v 0.888860 0.337061 1.000000
v 0.888860 0.337061 0.111140
v 0.152241 1.234633 1.000000
v 0.152241 1.234633 0.847759
v 0.585787 0.585786 1.000000
v 0.585787 0.585786 0.414213
v 0.337061 0.888860 1.000000
v 0.337061 0.888860 0.662939
vt 0.728742 0.556579
vt 0.999822 0.556579
vt 0.728742 0.827659
vt 0.896083 0.535592
vt 0.728742 0.556226
vt 0.849218 0.510541
vt 0.808139 0.476829
vt 0.774427 0.435750
vt 0.749376 0.388884
vt 0.733950 0.338032
vt 0.946936 0.551019
vt 0.999825 0.556228
vt 0.728741 0.285149
vt 0.862610 0.284798
vt 0.806814 0.276995
vt 0.902415 0.000175
vt 0.751018 0.269192
vt 0.838853 0.047899
vt 0.695223 0.261389
vt 0.775590 0.093489
vt 0.639427 0.253586
vt 0.712912 0.134894
vt 0.583633 0.245785
vt 0.651084 0.170222
vt 0.527842 0.237985
vt 0.590338 0.197818
vt 0.472071 0.230199
vt 0.530867 0.216322
vt 0.416400 0.223647
vt 0.472818 0.224738
vt 0.228745 0.430893
vt 0.457311 0.576641
vt 0.200174 0.475700
vt 0.312700 0.610479
vt 0.171602 0.520507
vt 0.384149 0.593014
vt 0.244613 0.630088
vt 0.143031 0.565314
vt 0.181405 0.652808
vt 0.114460 0.610121
vt 0.124409 0.679490
vt 0.085889 0.654927
vt 0.074717 0.710828
vt 0.057318 0.699734
vt 0.033139 0.747342
vt 0.028747 0.744542
vt 0.000175 0.789349
vt 0.457662 0.556579
vt 0.561400 0.535592
vt 0.608266 0.510542
vt 0.649344 0.476829
vt 0.683056 0.435750
vt 0.708107 0.388884
vt 0.723533 0.338031
vt 0.510548 0.551019
vt 0.457662 0.556228
vt 0.019711 0.252971
vt 0.000175 0.000175
vt 0.069267 0.249142
vt 0.053543 0.045663
vt 0.118824 0.245312
vt 0.106765 0.089256
vt 0.168382 0.241484
vt 0.159700 0.129131
vt 0.217939 0.237655
vt 0.212218 0.163610
vt 0.267498 0.233828
vt 0.264208 0.191220
vt 0.317059 0.230006
vt 0.315577 0.210757
vt 0.366625 0.226211
vt 0.366267 0.221340
vt 0.000175 0.285149
vt 0.030504 0.430537
vt 0.016196 0.358389
vt 0.041449 0.500541
vt 0.047515 0.567433
vt 0.047369 0.630365
vt 0.039920 0.688640
vt 0.024355 0.741741
vt 0.999822 0.827659
vt 0.416434 0.222726
vt 0.457662 0.827659
vn -0.000000 -1.000000 -0.000000
vn 0.000000 -0.000000 1.000000
vn 0.000000 0.000001 1.000000
vn 0.000000 -0.000001 1.000000
vn -0.098017 0.995185 0.000000
vn -0.290285 0.956940 0.000000
vn -0.471396 0.881921 0.000000
vn -0.634393 0.773010 0.000000
vn -0.773010 0.634394 0.000000
vn -0.881921 0.471397 0.000000
vn -0.956940 0.290284 0.000000
vn -0.995185 0.098017 0.000000
vn 0.000000 0.995185 -0.098017
vn 0.000000 0.956940 -0.290285
vn -0.000000 0.881921 -0.471396
vn -0.000000 0.773010 -0.634394
vn -0.000000 0.634393 -0.773010
vn 0.000000 0.471397 -0.881921
vn 0.000000 0.290284 -0.956940
vn 0.000000 0.098017 -0.995185
vn 0.098017 0.995185 -0.000000
vn 0.290285 0.956940 -0.000000
vn 0.471396 0.881921 -0.000000
vn 0.634394 0.773010 -0.000000
vn 0.773010 0.634393 -0.000000
vn 0.881921 0.471397 -0.000000
vn 0.956940 0.290284 -0.000000
vn 0.995185 0.098017 -0.000000
vn 0.000000 0.773010 -0.634393
vn 0.000000 0.634394 -0.773010
vn -0.995185 0.098018 0.000000
vn 0.000000 0.881921 -0.471397
vn 0.000000 0.290284 -0.956941
usemtl None
s off
f 17/1/1 1/2/1 20/3/1
f 5/4/2 17/5/2 9/6/2
f 17/5/2 13/7/2 9/6/2
f 17/5/2 15/8/2 13/7/2
f 17/5/2 11/9/2 15/8/2
f 17/5/2 7/10/2 11/9/2
f 3/11/3 17/5/3 5/4/3
f 1/12/4 17/5/4 3/11/4
f 17/5/2 25/13/2 7/10/2
f 1/14/5 3/15/5 2/16/5
f 3/15/6 5/17/6 4/18/6
f 5/17/7 9/19/7 6/20/7
f 9/19/8 13/21/8 10/22/8
f 13/21/9 15/23/9 14/24/9
f 15/23/10 11/25/10 16/26/10
f 11/25/11 7/27/11 12/28/11
f 7/27/12 25/29/12 8/30/12
f 20/31/13 2/32/13 23/33/13
f 6/34/14 26/35/14 4/36/14
f 10/37/15 29/38/15 6/34/15
f 14/39/16 30/40/16 10/37/16
f 16/41/17 31/42/17 14/39/17
f 12/43/18 28/44/18 16/41/18
f 8/45/19 27/46/19 12/43/19
f 8/45/20 24/47/20 27/46/20
f 17/1/1 20/3/1 18/48/1
f 32/49/2 36/50/2 17/5/2
f 17/5/2 36/50/2 40/51/2
f 17/5/2 40/51/2 42/52/2
f 17/5/2 42/52/2 38/53/2
f 17/5/2 38/53/2 34/54/2
f 21/55/2 32/49/2 17/5/2
f 18/56/4 21/55/4 17/5/4
f 17/5/2 34/54/2 25/13/2
f 18/57/21 19/58/21 21/59/21
f 21/59/22 22/60/22 32/61/22
f 32/61/23 33/62/23 36/63/23
f 36/63/24 37/64/24 40/65/24
f 40/65/25 41/66/25 42/67/25
f 42/67/26 43/68/26 38/69/26
f 38/69/27 39/70/27 34/71/27
f 34/71/28 35/72/28 25/29/28
f 20/31/13 23/33/13 19/73/13
f 33/74/14 22/75/14 26/35/14
f 37/76/15 33/74/15 29/38/15
f 41/77/29 37/76/29 30/40/29
f 43/78/30 41/77/30 31/42/30
f 39/79/18 43/78/18 28/44/18
f 35/80/19 39/79/19 27/46/19
f 35/80/20 27/46/20 24/47/20
f 1/2/1 2/81/1 20/3/1
f 3/15/5 4/18/5 2/16/5
f 5/17/6 6/20/6 4/18/6
f 9/19/7 10/22/7 6/20/7
f 13/21/8 14/24/8 10/22/8
f 15/23/9 16/26/9 14/24/9
f 11/25/10 12/28/10 16/26/10
f 7/27/11 8/30/11 12/28/11
f 25/29/31 24/82/31 8/30/31
f 2/32/13 4/36/13 23/33/13
f 26/35/14 23/33/14 4/36/14
f 29/38/32 26/35/32 6/34/32
f 30/40/29 29/38/29 10/37/29
f 31/42/17 30/40/17 14/39/17
f 28/44/18 31/42/18 16/41/18
f 27/46/33 28/44/33 12/43/33
f 20/3/1 19/83/1 18/48/1
f 19/58/21 22/60/21 21/59/21
f 22/60/22 33/62/22 32/61/22
f 33/62/23 37/64/23 36/63/23
f 37/64/24 41/66/24 40/65/24
f 41/66/25 43/68/25 42/67/25
f 43/68/26 39/70/26 38/69/26
f 39/70/27 35/72/27 34/71/27
f 35/72/28 24/82/28 25/29/28
f 23/33/13 22/75/13 19/73/13
f 22/75/14 23/33/14 26/35/14
f 33/74/32 26/35/32 29/38/32
f 37/76/29 29/38/29 30/40/29
f 41/77/17 30/40/17 31/42/17
f 43/78/18 31/42/18 28/44/18
f 39/79/19 28/44/19 27/46/19
