# Blender v2.66 (sub 1) OBJ File: 'mesh_Cone_4sided.blend'
# www.blender.org
mtllib mesh_Cone_4sided.mtl
o Cone_Cone.006
v 0.000000 -1.000000 -1.000000
v 1.000000 -1.000000 0.000000
v -0.000000 -1.000000 1.000000
v 0.000000 1.000000 0.000000
v -1.000000 -1.000000 -0.000000
vt 0.600228 0.000186
vt 0.600420 0.499814
vt 0.300490 0.100227
vt 0.900723 0.100227
vt 0.600793 0.499814
vt 0.600985 0.000186
vt 0.900723 0.600227
vt 0.600793 0.999813
vt 0.600985 0.500186
vt 0.299924 0.000186
vt 0.300117 0.499814
vt 0.000186 0.100227
vt 0.316178 0.500187
vt 0.000186 0.816179
vt 0.000186 0.500187
vt 0.316178 0.816179
vn 0.666667 0.333333 -0.666667
vn 0.666667 0.333333 0.666667
vn -0.666667 0.333333 0.666667
vn -0.666667 0.333333 -0.666667
vn 0.000000 -1.000000 0.000000
usemtl None
s off
f 1/1/1 4/2/1 2/3/1
f 2/4/2 4/5/2 3/6/2
f 3/7/3 4/8/3 5/9/3
f 5/10/4 4/11/4 1/12/4
f 2/13/5 5/14/5 1/15/5
f 3/16/5 5/14/5 2/13/5
