# Blender v2.66 (sub 1) OBJ File: 'mesh_DomeQuarter_external.blend'
# www.blender.org
mtllib mesh_DomeQuarter_external.mtl
o Sphere.000_Sphere.007
v -0.098019 0.995185 -0.000000
v -0.195092 0.980785 0.000000
v -0.290286 0.956940 -0.000000
v -0.382685 0.923880 -0.000000
v -0.471398 0.881921 0.000000
v -0.555572 0.831470 0.000000
v -0.634395 0.773010 -0.000000
v -0.707108 0.707107 0.000000
v -0.773012 0.634393 0.000000
v -0.831470 0.555570 -0.000000
v -0.881922 0.471397 0.000000
v -0.923881 0.382683 -0.000000
v -0.956942 0.290285 0.000000
v -0.980786 0.195090 0.000000
v -0.995186 0.098017 0.000000
v -1.000001 -0.000000 0.000000
v -0.096135 0.995185 -0.019122
v -0.191343 0.980785 -0.038060
v -0.284708 0.956940 -0.056632
v -0.375332 0.923880 -0.074658
v -0.462340 0.881921 -0.091965
v -0.544897 0.831470 -0.108387
v -0.622205 0.773010 -0.123764
v -0.693521 0.707107 -0.137950
v -0.758158 0.634393 -0.150807
v -0.815494 0.555570 -0.162212
v -0.864976 0.471397 -0.172054
v -0.906129 0.382683 -0.180240
v -0.938554 0.290285 -0.186690
v -0.961941 0.195090 -0.191342
v -0.976064 0.098017 -0.194151
v -0.980787 -0.000000 -0.195090
v -0.090558 0.995185 -0.037510
v -0.180241 0.980785 -0.074658
v -0.268189 0.956940 -0.111087
v -0.353555 0.923880 -0.146447
v -0.435515 0.881921 -0.180396
v -0.513281 0.831470 -0.212608
v -0.586104 0.773010 -0.242772
v -0.653283 0.707107 -0.270598
v -0.714170 0.634393 -0.295818
v -0.768178 0.555570 -0.318190
v -0.814790 0.471397 -0.337497
v -0.853554 0.382683 -0.353554
v -0.884099 0.290285 -0.366205
v -0.906128 0.195090 -0.375330
v -0.919432 0.098017 -0.380841
v -0.923881 -0.000000 -0.382684
v -0.081500 0.995185 -0.054456
v -0.162213 0.980785 -0.108387
v -0.241364 0.956940 -0.161274
v -0.318191 0.923880 -0.212608
v -0.391953 0.881921 -0.261894
v -0.461941 0.831470 -0.308659
v -0.527480 0.773010 -0.352450
v -0.587939 0.707107 -0.392848
v -0.642736 0.634393 -0.429462
v -0.691342 0.555570 -0.461940
v -0.733292 0.471397 -0.489969
v -0.768179 0.382683 -0.513280
v -0.795668 0.290285 -0.531648
v -0.815494 0.195090 -0.544895
v -0.827467 0.098017 -0.552895
v -0.831471 -0.000000 -0.555570
v -0.069310 0.995185 -0.069309
v -0.137951 0.980785 -0.137950
v -0.205264 0.956940 -0.205263
v -0.270599 0.923880 -0.270599
v -0.333329 0.881921 -0.333328
v -0.392849 0.831470 -0.392848
v -0.448585 0.773010 -0.448584
v -0.500001 0.707107 -0.500000
v -0.546602 0.634393 -0.546601
v -0.587938 0.555570 -0.587938
v -0.623613 0.471397 -0.623613
v -0.653282 0.382683 -0.653282
v -0.676660 0.290285 -0.676659
v -0.693521 0.195090 -0.693520
v -0.703703 0.098017 -0.703702
v -0.707108 -0.000000 -0.707107
v -0.054457 0.995185 -0.081499
v -0.108388 0.980785 -0.162212
v -0.161275 0.956940 -0.241363
v -0.212609 0.923880 -0.318190
v -0.261895 0.881921 -0.391952
v -0.308659 0.831470 -0.461940
v -0.352451 0.773010 -0.527479
v -0.392848 0.707107 -0.587938
v -0.429463 0.634393 -0.642735
v -0.461940 0.555570 -0.691342
v -0.489970 0.471397 -0.733291
v -0.513281 0.382683 -0.768178
v -0.531649 0.290285 -0.795667
v -0.544896 0.195090 -0.815493
v -0.552896 0.098017 -0.827466
v -0.555571 -0.000000 -0.831470
v -0.037511 0.995185 -0.090557
v -0.074659 0.980785 -0.180241
v -0.111088 0.956940 -0.268189
v -0.146448 0.923880 -0.353554
v -0.180397 0.881921 -0.435514
v -0.212609 0.831470 -0.513281
v -0.242773 0.773010 -0.586103
v -0.270599 0.707107 -0.653282
v -0.295819 0.634393 -0.714169
v -0.318190 0.555570 -0.768178
v -0.337497 0.471397 -0.814789
v -0.353554 0.382683 -0.853554
v -0.366206 0.290285 -0.884098
v -0.375331 0.195090 -0.906127
v -0.380842 0.098017 -0.919431
v -0.382684 -0.000000 -0.923880
v -0.019123 0.995185 -0.096135
v -0.038061 0.980785 -0.191342
v -0.056633 0.956940 -0.284708
v -0.074659 0.923880 -0.375331
v -0.091966 0.881921 -0.462339
v -0.108387 0.831470 -0.544896
v -0.123765 0.773010 -0.622204
v -0.137951 0.707107 -0.693520
v -0.150808 0.634393 -0.758157
v -0.162212 0.555570 -0.815493
v -0.172055 0.471397 -0.864976
v -0.180241 0.382683 -0.906128
v -0.186691 0.290285 -0.938553
v -0.191343 0.195090 -0.961940
v -0.194152 0.098017 -0.976063
v -0.195091 -0.000000 -0.980786
v -0.000001 0.995185 -0.098018
v -0.000001 0.980785 -0.195091
v -0.000001 0.956940 -0.290285
v -0.000001 0.923880 -0.382684
v -0.000001 0.881921 -0.471397
v -0.000001 0.831470 -0.555571
v -0.000001 0.773010 -0.634394
v -0.000001 0.707107 -0.707107
v -0.000001 0.634393 -0.773011
v -0.000001 0.555570 -0.831469
v -0.000001 0.471397 -0.881921
v -0.000001 0.382683 -0.923880
v -0.000001 0.290285 -0.956941
v -0.000001 0.195090 -0.980785
v -0.000001 0.098017 -0.995185
v -0.000001 -0.000000 -1.000000
v -0.000000 1.000000 -0.000001
vt 0.847141 0.776517
vt 0.814284 0.749874
vt 0.758573 0.805857
vt 0.705212 0.660940
vt 0.681920 0.641819
vt 0.668860 0.697035
vt 0.598295 0.572646
vt 0.579036 0.556580
vt 0.565466 0.569851
vt 0.883098 0.805658
vt 0.815316 0.874225
vt 0.729829 0.681092
vt 0.618082 0.589096
vt 0.597415 0.609406
vt 0.756012 0.702470
vt 0.710606 0.747814
vt 0.638521 0.606031
vt 0.614156 0.630035
vt 0.541650 0.525228
vt 0.523310 0.509771
vt 0.534920 0.531783
vt 0.784049 0.725305
vt 0.659749 0.623563
vt 0.560190 0.540803
vt 0.550063 0.550686
vt 0.649742 0.673684
vt 0.689082 0.721666
vt 0.657067 0.783433
vt 0.585532 0.648814
vt 0.519949 0.513038
vt 0.527037 0.536897
vt 0.733674 0.775765
vt 0.674226 0.815449
vt 0.631556 0.651409
vt 0.538195 0.558400
vt 0.692775 0.849949
vt 0.611886 0.698648
vt 0.549555 0.580216
vt 0.785657 0.838509
vt 0.626064 0.725335
vt 0.581219 0.589387
vt 0.735174 0.928419
vt 0.573151 0.625286
vt 0.619329 0.880283
vt 0.598412 0.673208
vt 0.569816 0.715702
vt 0.531917 0.587268
vt 0.712988 0.887414
vt 0.578472 0.744686
vt 0.561184 0.602468
vt 0.645528 0.966089
vt 0.641074 0.753504
vt 0.587647 0.775299
vt 0.546229 0.636106
vt 0.597434 0.807846
vt 0.553757 0.661620
vt 0.516015 0.515586
vt 0.518305 0.540372
vt 0.525044 0.563645
vt 0.631764 0.921175
vt 0.549251 0.985595
vt 0.527953 0.754282
vt 0.538965 0.611374
vt 0.517697 0.641436
vt 0.534048 0.819978
vt 0.520070 0.667939
vt 0.511658 0.517317
vt 0.509062 0.542073
vt 0.607947 0.842691
vt 0.537422 0.856232
vt 0.561600 0.688087
vt 0.511120 0.566216
vt 0.541055 0.895342
vt 0.525180 0.724146
vt 0.513236 0.590730
vt 0.465645 0.855522
vt 0.522558 0.695441
vt 0.482825 0.694973
vt 0.496962 0.566013
vt 0.461422 0.894549
vt 0.479744 0.723634
vt 0.494238 0.590466
vt 0.544983 0.937865
vt 0.476524 0.753729
vt 0.515424 0.615753
vt 0.451250 0.983333
vt 0.530901 0.786121
vt 0.473131 0.785523
vt 0.488670 0.641062
vt 0.469523 0.819330
vt 0.485792 0.667516
vt 0.507047 0.518164
vt 0.499665 0.541935
vt 0.456744 0.936967
vt 0.383788 0.878155
vt 0.426227 0.743060
vt 0.491480 0.615432
vt 0.475662 0.586486
vt 0.357173 0.962386
vt 0.416643 0.773561
vt 0.460285 0.634998
vt 0.406457 0.805994
vt 0.452269 0.660367
vt 0.502360 0.518094
vt 0.490477 0.539962
vt 0.483119 0.563044
vt 0.435306 0.714191
vt 0.347258 0.780495
vt 0.420815 0.646774
vt 0.497777 0.517110
vt 0.481853 0.536233
vt 0.395553 0.840715
vt 0.443963 0.686700
vt 0.407501 0.670950
vt 0.470127 0.557425
vt 0.310882 0.846814
vt 0.393610 0.696190
vt 0.458230 0.578946
vt 0.370981 0.918839
vt 0.379028 0.722696
vt 0.468066 0.610423
vt 0.446096 0.600923
vt 0.268212 0.925295
vt 0.363628 0.750705
vt 0.433650 0.623485
vt 0.329744 0.812398
vt 0.245388 0.801523
vt 0.356296 0.670339
vt 0.442619 0.568145
vt 0.290444 0.884235
vt 0.336788 0.693430
vt 0.186810 0.870651
vt 0.316170 0.717828
vt 0.409808 0.606977
vt 0.294236 0.743773
vt 0.392663 0.627278
vt 0.493474 0.515250
vt 0.474127 0.530891
vt 0.458490 0.549375
vt 0.505056 0.494344
vt 0.489619 0.512586
vt 0.270740 0.771554
vt 0.374870 0.648347
vt 0.217825 0.834114
vt 0.426425 0.587307
vn -0.984515 0.146040 -0.096966
vn -0.800707 0.593842 -0.078863
vn -0.427177 0.903189 -0.042074
vn -0.993997 0.048833 -0.097901
vn -0.854683 0.512280 -0.084179
vn -0.513445 0.856631 -0.050570
vn -0.900428 0.425870 -0.088684
vn -0.594677 0.801829 -0.058571
vn -0.146715 0.989073 -0.014450
vn -0.937521 0.335451 -0.092338
vn -0.670095 0.739335 -0.065999
vn -0.242910 0.969754 -0.023925
vn -0.965635 0.241877 -0.095107
vn -0.738986 0.669777 -0.072784
vn -0.336706 0.941026 -0.033163
vn -0.865825 0.425870 -0.262645
vn -0.571824 0.801828 -0.173461
vn -0.141077 0.989073 -0.042795
vn -0.901493 0.335451 -0.273465
vn -0.644344 0.739335 -0.195459
vn -0.233575 0.969754 -0.070854
vn -0.928526 0.241877 -0.281665
vn -0.710587 0.669778 -0.215554
vn -0.323766 0.941026 -0.098213
vn -0.946681 0.146040 -0.287173
vn -0.769937 0.593842 -0.233558
vn -0.410760 0.903189 -0.124603
vn -0.955799 0.048833 -0.289938
vn -0.821838 0.512281 -0.249302
vn -0.493714 0.856631 -0.149766
vn -0.855734 0.241877 -0.457400
vn -0.654881 0.669778 -0.350041
vn -0.298385 0.941026 -0.159490
vn -0.872466 0.146041 -0.466343
vn -0.709578 0.593842 -0.379277
vn -0.378559 0.903189 -0.202344
vn -0.880869 0.048833 -0.470834
vn -0.757410 0.512280 -0.404845
vn -0.455009 0.856631 -0.243207
vn -0.797948 0.425870 -0.426513
vn -0.526996 0.801828 -0.281686
vn -0.130017 0.989073 -0.069496
vn -0.830821 0.335451 -0.444083
vn -0.593831 0.739335 -0.317409
vn -0.215264 0.969754 -0.115061
vn -0.772088 0.048833 -0.633637
vn -0.663875 0.512280 -0.544829
vn -0.398818 0.856631 -0.327302
vn -0.699408 0.425871 -0.573989
vn -0.461916 0.801828 -0.379085
vn -0.113961 0.989073 -0.093525
vn -0.728221 0.335451 -0.597635
vn -0.520497 0.739335 -0.427161
vn -0.188680 0.969754 -0.154846
vn -0.750057 0.241877 -0.615556
vn -0.574008 0.669778 -0.471076
vn -0.261536 0.941026 -0.214637
vn -0.764722 0.146041 -0.627592
vn -0.621950 0.593842 -0.510421
vn -0.331810 0.903189 -0.272309
vn -0.597635 0.335451 -0.728220
vn -0.427161 0.739335 -0.520497
vn -0.154846 0.969754 -0.188680
vn -0.615556 0.241876 -0.750058
vn -0.471076 0.669778 -0.574008
vn -0.214637 0.941026 -0.261536
vn -0.627592 0.146042 -0.764723
vn -0.510421 0.593842 -0.621950
vn -0.272309 0.903189 -0.331810
vn -0.633636 0.048833 -0.772088
vn -0.544829 0.512280 -0.663876
vn -0.327302 0.856631 -0.398819
vn -0.573989 0.425871 -0.699407
vn -0.379084 0.801828 -0.461916
vn -0.093525 0.989073 -0.113961
vn -0.466342 0.146042 -0.872466
vn -0.379277 0.593842 -0.709578
vn -0.202344 0.903189 -0.378559
vn -0.470834 0.048832 -0.880869
vn -0.404844 0.512280 -0.757410
vn -0.243207 0.856631 -0.455009
vn -0.426512 0.425871 -0.797948
vn -0.281685 0.801828 -0.526996
vn -0.069496 0.989073 -0.130017
vn -0.444083 0.335451 -0.830821
vn -0.317409 0.739335 -0.593831
vn -0.115061 0.969754 -0.215264
vn -0.457399 0.241876 -0.855735
vn -0.350041 0.669778 -0.654881
vn -0.159490 0.941026 -0.298385
vn -0.262645 0.425871 -0.865824
vn -0.173461 0.801828 -0.571824
vn -0.042795 0.989073 -0.141077
vn -0.273465 0.335451 -0.901493
vn -0.195460 0.739335 -0.644344
vn -0.070854 0.969754 -0.233575
vn -0.281665 0.241876 -0.928526
vn -0.215554 0.669778 -0.710587
vn -0.098214 0.941026 -0.323766
vn -0.287173 0.146042 -0.946680
vn -0.233558 0.593842 -0.769937
vn -0.124603 0.903189 -0.410760
vn -0.289938 0.048832 -0.955799
vn -0.249302 0.512280 -0.821838
vn -0.149766 0.856631 -0.493713
vn -0.095106 0.241877 -0.965635
vn -0.072784 0.669778 -0.738986
vn -0.033162 0.941026 -0.336706
vn -0.096966 0.146042 -0.984515
vn -0.078863 0.593842 -0.800708
vn -0.042073 0.903189 -0.427177
vn -0.097900 0.048831 -0.993998
vn -0.084179 0.512280 -0.854683
vn -0.050570 0.856631 -0.513445
vn -0.088684 0.425872 -0.900427
vn -0.058570 0.801828 -0.594677
vn -0.014450 0.989073 -0.146715
vn -0.092338 0.335450 -0.937522
vn -0.065998 0.739335 -0.670096
vn -0.023924 0.969754 -0.242910
vn -0.049067 0.998784 -0.004833
vn -0.047182 0.998784 -0.014312
vn -0.043483 0.998784 -0.023242
vn -0.038113 0.998784 -0.031279
vn -0.031279 0.998784 -0.038113
vn -0.023242 0.998784 -0.043483
vn -0.014312 0.998784 -0.047182
vn -0.004833 0.998784 -0.049068
vn -0.427177 0.903189 -0.042073
vn -0.993997 0.048833 -0.097900
vn -0.854683 0.512281 -0.084179
vn -0.900427 0.425870 -0.088684
vn -0.594677 0.801828 -0.058571
vn -0.738986 0.669778 -0.072784
vn -0.865824 0.425870 -0.262645
vn -0.946681 0.146041 -0.287172
vn -0.493713 0.856631 -0.149766
vn -0.880869 0.048833 -0.470835
vn -0.757410 0.512280 -0.404844
vn -0.797948 0.425871 -0.426513
vn -0.526996 0.801828 -0.281685
vn -0.772088 0.048832 -0.633636
vn -0.663876 0.512280 -0.544829
vn -0.398819 0.856631 -0.327302
vn -0.699407 0.425871 -0.573989
vn -0.728220 0.335451 -0.597635
vn -0.750058 0.241876 -0.615556
vn -0.764723 0.146042 -0.627591
vn -0.627592 0.146042 -0.764722
vn -0.633637 0.048832 -0.772088
vn -0.466343 0.146042 -0.872466
vn -0.379277 0.593841 -0.709578
vn -0.457400 0.241876 -0.855735
vn -0.350040 0.669778 -0.654881
vn -0.262645 0.425872 -0.865824
vn -0.281665 0.241877 -0.928526
vn -0.289939 0.048831 -0.955799
vn -0.095107 0.241876 -0.965635
vn -0.033163 0.941026 -0.336706
vn -0.096966 0.146043 -0.984515
vn -0.058571 0.801828 -0.594677
vn -0.092338 0.335451 -0.937522
usemtl None
s off
f 15/1/1 14/2/1 30/3/1
f 10/4/2 9/5/2 26/6/2
f 5/7/3 4/8/3 20/9/3
f 16/10/4 15/1/4 32/11/4
f 11/12/5 10/4/5 26/6/5
f 6/13/6 5/7/6 22/14/6
f 12/15/7 11/12/7 28/16/7
f 7/17/8 6/13/8 23/18/8
f 2/19/9 1/20/9 18/21/9
f 13/22/10 12/15/10 28/16/10
f 8/23/11 7/17/11 23/18/11
f 3/24/12 2/19/12 19/25/12
f 14/2/13 13/22/13 30/3/13
f 9/5/14 8/23/14 25/26/14
f 4/8/15 3/24/15 20/9/15
f 28/16/16 27/27/16 44/28/16
f 23/18/17 22/14/17 39/29/17
f 18/21/18 17/30/18 34/31/18
f 29/32/19 28/16/19 45/33/19
f 24/34/20 23/18/20 39/29/20
f 19/25/21 18/21/21 35/35/21
f 30/3/22 29/32/22 46/36/22
f 25/26/23 24/34/23 41/37/23
f 20/9/24 19/25/24 36/38/24
f 31/39/25 30/3/25 46/36/25
f 26/6/26 25/26/26 42/40/26
f 21/41/27 20/9/27 36/38/27
f 32/11/28 31/39/28 48/42/28
f 27/27/29 26/6/29 42/40/29
f 22/14/30 21/41/30 38/43/30
f 46/36/31 45/33/31 62/44/31
f 41/37/32 40/45/32 57/46/32
f 36/38/33 35/35/33 52/47/33
f 47/48/34 46/36/34 62/44/34
f 42/40/35 41/37/35 58/49/35
f 37/50/36 36/38/36 52/47/36
f 48/42/37 47/48/37 64/51/37
f 43/52/38 42/40/38 59/53/38
f 38/43/39 37/50/39 54/54/39
f 44/28/40 43/52/40 60/55/40
f 39/29/41 38/43/41 55/56/41
f 34/31/42 33/57/42 50/58/42
f 45/33/43 44/28/43 60/55/43
f 40/45/44 39/29/44 55/56/44
f 35/35/45 34/31/45 51/59/45
f 64/51/46 63/60/46 80/61/46
f 59/53/47 58/49/47 74/62/47
f 54/54/48 53/63/48 70/64/48
f 60/55/49 59/53/49 76/65/49
f 55/56/50 54/54/50 71/66/50
f 50/58/51 49/67/51 66/68/51
f 61/69/52 60/55/52 77/70/52
f 56/71/53 55/56/53 71/66/53
f 51/59/54 50/58/54 67/72/54
f 62/44/55 61/69/55 78/73/55
f 57/46/56 56/71/56 73/74/56
f 52/47/57 51/59/57 68/75/57
f 63/60/58 62/44/58 78/73/58
f 58/49/59 57/46/59 74/62/59
f 53/63/60 52/47/60 68/75/60
f 77/70/61 76/65/61 93/76/61
f 72/77/62 71/66/62 88/78/62
f 67/72/63 66/68/63 83/79/63
f 78/73/64 77/70/64 94/80/64
f 73/74/65 72/77/65 89/81/65
f 68/75/66 67/72/66 84/82/66
f 79/83/67 78/73/67 94/80/67
f 74/62/68 73/74/68 90/84/68
f 69/85/69 68/75/69 84/82/69
f 80/61/70 79/83/70 96/86/70
f 75/87/71 74/62/71 91/88/71
f 70/64/72 69/85/72 86/89/72
f 76/65/73 75/87/73 92/90/73
f 71/66/74 70/64/74 87/91/74
f 66/68/75 65/92/75 82/93/75
f 95/94/76 94/80/76 110/95/76
f 90/84/77 89/81/77 106/96/77
f 85/97/78 84/82/78 100/98/78
f 96/86/79 95/94/79 112/99/79
f 91/88/80 90/84/80 107/100/80
f 86/89/81 85/97/81 102/101/81
f 92/90/82 91/88/82 108/102/82
f 87/91/83 86/89/83 103/103/83
f 82/93/84 81/104/84 98/105/84
f 93/76/85 92/90/85 108/102/85
f 88/78/86 87/91/86 103/103/86
f 83/79/87 82/93/87 99/106/87
f 94/80/88 93/76/88 110/95/88
f 89/81/89 88/78/89 105/107/89
f 84/82/90 83/79/90 100/98/90
f 108/102/91 107/100/91 124/108/91
f 103/103/92 102/101/92 119/109/92
f 98/105/93 97/110/93 114/111/93
f 109/112/94 108/102/94 124/108/94
f 104/113/95 103/103/95 120/114/95
f 99/106/96 98/105/96 115/115/96
f 110/95/97 109/112/97 126/116/97
f 105/107/98 104/113/98 121/117/98
f 100/98/99 99/106/99 116/118/99
f 111/119/100 110/95/100 126/116/100
f 106/96/101 105/107/101 122/120/101
f 101/121/102 100/98/102 117/122/102
f 112/99/103 111/119/103 128/123/103
f 107/100/104 106/96/104 123/124/104
f 102/101/105 101/121/105 118/125/105
f 126/116/106 125/126/106 142/127/106
f 121/117/107 120/114/107 137/128/107
f 116/118/108 115/115/108 132/129/108
f 127/130/109 126/116/109 142/127/109
f 122/120/110 121/117/110 138/131/110
f 117/122/111 116/118/111 132/129/111
f 128/123/112 127/130/112 144/132/112
f 123/124/113 122/120/113 139/133/113
f 118/125/114 117/122/114 134/134/114
f 124/108/115 123/124/115 140/135/115
f 119/109/116 118/125/116 135/136/116
f 114/111/117 113/137/117 130/138/117
f 125/126/118 124/108/118 140/135/118
f 120/114/119 119/109/119 135/136/119
f 115/115/120 114/111/120 131/139/120
f 1/20/121 145/140/121 17/30/121
f 17/30/122 145/140/122 33/57/122
f 33/57/123 145/140/123 49/67/123
f 49/67/124 145/140/124 65/92/124
f 65/92/125 145/140/125 81/104/125
f 81/104/126 145/140/126 97/110/126
f 97/110/127 145/140/127 113/137/127
f 113/137/128 145/140/128 129/141/128
f 31/39/1 15/1/1 30/3/1
f 9/5/2 25/26/2 26/6/2
f 21/41/129 5/7/129 20/9/129
f 15/1/130 31/39/130 32/11/130
f 27/27/131 11/12/131 26/6/131
f 5/7/6 21/41/6 22/14/6
f 11/12/132 27/27/132 28/16/132
f 6/13/133 22/14/133 23/18/133
f 1/20/9 17/30/9 18/21/9
f 29/32/10 13/22/10 28/16/10
f 24/34/11 8/23/11 23/18/11
f 2/19/12 18/21/12 19/25/12
f 13/22/13 29/32/13 30/3/13
f 8/23/134 24/34/134 25/26/134
f 3/24/15 19/25/15 20/9/15
f 27/27/135 43/52/135 44/28/135
f 22/14/17 38/43/17 39/29/17
f 17/30/18 33/57/18 34/31/18
f 28/16/19 44/28/19 45/33/19
f 40/45/20 24/34/20 39/29/20
f 18/21/21 34/31/21 35/35/21
f 29/32/22 45/33/22 46/36/22
f 24/34/23 40/45/23 41/37/23
f 19/25/24 35/35/24 36/38/24
f 47/48/136 31/39/136 46/36/136
f 25/26/26 41/37/26 42/40/26
f 37/50/27 21/41/27 36/38/27
f 31/39/28 47/48/28 48/42/28
f 43/52/29 27/27/29 42/40/29
f 21/41/137 37/50/137 38/43/137
f 45/33/31 61/69/31 62/44/31
f 40/45/32 56/71/32 57/46/32
f 35/35/33 51/59/33 52/47/33
f 63/60/34 47/48/34 62/44/34
f 41/37/35 57/46/35 58/49/35
f 53/63/36 37/50/36 52/47/36
f 47/48/138 63/60/138 64/51/138
f 42/40/139 58/49/139 59/53/139
f 37/50/39 53/63/39 54/54/39
f 43/52/140 59/53/140 60/55/140
f 38/43/141 54/54/141 55/56/141
f 33/57/42 49/67/42 50/58/42
f 61/69/43 45/33/43 60/55/43
f 56/71/44 40/45/44 55/56/44
f 34/31/45 50/58/45 51/59/45
f 63/60/142 79/83/142 80/61/142
f 75/87/143 59/53/143 74/62/143
f 53/63/144 69/85/144 70/64/144
f 59/53/145 75/87/145 76/65/145
f 54/54/50 70/64/50 71/66/50
f 49/67/51 65/92/51 66/68/51
f 60/55/146 76/65/146 77/70/146
f 72/77/53 56/71/53 71/66/53
f 50/58/54 66/68/54 67/72/54
f 61/69/147 77/70/147 78/73/147
f 56/71/56 72/77/56 73/74/56
f 51/59/57 67/72/57 68/75/57
f 79/83/148 63/60/148 78/73/148
f 57/46/59 73/74/59 74/62/59
f 69/85/60 53/63/60 68/75/60
f 76/65/61 92/90/61 93/76/61
f 71/66/62 87/91/62 88/78/62
f 66/68/63 82/93/63 83/79/63
f 77/70/64 93/76/64 94/80/64
f 72/77/65 88/78/65 89/81/65
f 67/72/66 83/79/66 84/82/66
f 95/94/149 79/83/149 94/80/149
f 73/74/68 89/81/68 90/84/68
f 85/97/69 69/85/69 84/82/69
f 79/83/150 95/94/150 96/86/150
f 74/62/71 90/84/71 91/88/71
f 69/85/72 85/97/72 86/89/72
f 75/87/73 91/88/73 92/90/73
f 70/64/74 86/89/74 87/91/74
f 65/92/75 81/104/75 82/93/75
f 111/119/151 95/94/151 110/95/151
f 89/81/152 105/107/152 106/96/152
f 101/121/78 85/97/78 100/98/78
f 95/94/79 111/119/79 112/99/79
f 90/84/80 106/96/80 107/100/80
f 85/97/81 101/121/81 102/101/81
f 91/88/82 107/100/82 108/102/82
f 86/89/83 102/101/83 103/103/83
f 81/104/84 97/110/84 98/105/84
f 109/112/85 93/76/85 108/102/85
f 104/113/86 88/78/86 103/103/86
f 82/93/87 98/105/87 99/106/87
f 93/76/153 109/112/153 110/95/153
f 88/78/154 104/113/154 105/107/154
f 83/79/90 99/106/90 100/98/90
f 107/100/155 123/124/155 124/108/155
f 102/101/92 118/125/92 119/109/92
f 97/110/93 113/137/93 114/111/93
f 125/126/94 109/112/94 124/108/94
f 103/103/95 119/109/95 120/114/95
f 98/105/96 114/111/96 115/115/96
f 109/112/156 125/126/156 126/116/156
f 104/113/98 120/114/98 121/117/98
f 99/106/99 115/115/99 116/118/99
f 127/130/100 111/119/100 126/116/100
f 105/107/101 121/117/101 122/120/101
f 100/98/102 116/118/102 117/122/102
f 111/119/157 127/130/157 128/123/157
f 106/96/104 122/120/104 123/124/104
f 101/121/105 117/122/105 118/125/105
f 125/126/158 141/142/158 142/127/158
f 120/114/107 136/143/107 137/128/107
f 115/115/159 131/139/159 132/129/159
f 143/144/160 127/130/160 142/127/160
f 121/117/110 137/128/110 138/131/110
f 133/145/111 117/122/111 132/129/111
f 127/130/112 143/144/112 144/132/112
f 122/120/113 138/131/113 139/133/113
f 117/122/114 133/145/114 134/134/114
f 123/124/115 139/133/115 140/135/115
f 118/125/161 134/134/161 135/136/161
f 113/137/117 129/141/117 130/138/117
f 141/142/162 125/126/162 140/135/162
f 136/143/119 120/114/119 135/136/119
f 114/111/120 130/138/120 131/139/120
