# Blender v2.66 (sub 1) OBJ File: 'mesh_DiamondGem_6sided.blend'
# www.blender.org
mtllib mesh_DiamondGem_6sided.mtl
o Diamond.001
v 0.000000 0.350000 0.000000
v 0.000000 -0.800000 0.000000
v 0.600000 0.350000 0.000000
v 1.000000 0.000000 0.000000
v 0.300000 0.350000 0.519615
v 0.500000 0.000000 0.866025
v -0.300000 0.350000 0.519615
v -0.500000 0.000000 0.866026
v -0.600000 0.350000 0.000000
v -1.000000 0.000000 0.000000
v -0.300000 0.350000 -0.519615
v -0.500000 0.000000 -0.866026
v 0.300000 0.350000 -0.519615
v 0.500000 0.000000 -0.866025
vt 0.994348 0.690812
vt 0.702571 0.690812
vt 0.848460 0.438125
vt 0.848460 0.943498
vt 0.556682 0.943498
vt 0.410793 0.690812
vt 0.556682 0.438125
vt 0.481411 0.304306
vt 0.598122 0.304306
vt 0.452234 0.556993
vt 0.393878 0.152694
vt 0.452234 0.051619
vt 0.218812 0.152694
vt 0.160456 0.051619
vt 0.014567 0.304306
vt 0.131278 0.304306
vt 0.160456 0.556993
vt 0.218812 0.455918
vt 0.393878 0.455918
vt 0.306345 0.304306
vn 0.587643 -0.734553 -0.339276
vn 0.587643 -0.734553 0.339276
vn 0.000000 -0.734553 0.678551
vn -0.587642 -0.734553 0.339276
vn -0.587643 -0.734553 -0.339276
vn 0.000000 -0.734553 -0.678551
vn 0.615521 0.703452 -0.355371
vn 0.615521 0.703452 0.355371
vn 0.000000 0.703453 0.710742
vn -0.615521 0.703452 0.355371
vn -0.615521 0.703452 -0.355371
vn 0.000000 0.703453 -0.710742
vn 0.000000 1.000000 -0.000000
vn 0.615521 0.703453 0.355371
vn 0.000000 0.703452 0.710742
vn -0.615521 0.703453 -0.355371
vn 0.000000 0.703452 -0.710742
usemtl None
s off
f 4/1/1 2/2/1 14/3/1
f 2/2/2 4/1/2 6/4/2
f 2/2/3 6/4/3 8/5/3
f 2/2/4 8/5/4 10/6/4
f 2/2/5 10/6/5 12/7/5
f 2/2/6 12/7/6 14/3/6
f 3/8/7 4/9/7 14/10/7
f 4/9/8 3/8/8 5/11/8
f 6/12/9 5/11/9 7/13/9
f 8/14/10 7/13/10 10/15/10
f 10/15/11 9/16/11 12/17/11
f 12/17/12 11/18/12 13/19/12
f 1/20/13 3/8/13 13/19/13
f 3/8/13 1/20/13 5/11/13
f 5/11/13 1/20/13 7/13/13
f 7/13/13 1/20/13 9/16/13
f 9/16/13 1/20/13 11/18/13
f 11/18/13 1/20/13 13/19/13
f 13/19/7 3/8/7 14/10/7
f 6/12/14 4/9/14 5/11/14
f 8/14/15 6/12/15 7/13/15
f 7/13/10 9/16/10 10/15/10
f 9/16/16 11/18/16 12/17/16
f 14/10/17 12/17/17 13/19/17
