# Blender v2.66 (sub 1) OBJ File: 'mesh_Sphere16x8.blend'
# www.blender.org
mtllib mesh_Sphere16x8.mtl
o Sphere_Sphere.003
v -0.382683 0.923880 0.000000
v -0.707107 0.707107 0.000000
v -0.923880 0.382683 0.000000
v -1.000000 -0.000000 0.000000
v -0.923880 -0.382684 0.000000
v -0.707107 -0.707107 0.000000
v -0.382683 -0.923880 0.000000
v -0.353553 0.923880 -0.146447
v -0.653281 0.707107 -0.270598
v -0.853553 0.382683 -0.353553
v -0.923880 -0.000000 -0.382683
v -0.853553 -0.382684 -0.353553
v -0.653281 -0.707107 -0.270598
v -0.353553 -0.923880 -0.146447
v -0.270598 0.923880 -0.270598
v -0.500000 0.707107 -0.500000
v -0.653282 0.382683 -0.653281
v -0.707107 -0.000000 -0.707107
v -0.653282 -0.382684 -0.653281
v -0.500000 -0.707107 -0.500000
v -0.270598 -0.923880 -0.270598
v -0.146447 0.923880 -0.353553
v -0.270598 0.707107 -0.653281
v -0.353553 0.382683 -0.853553
v -0.382683 -0.000000 -0.923879
v -0.353553 -0.382684 -0.853553
v -0.270598 -0.707107 -0.653281
v -0.146447 -0.923880 -0.353553
v -0.000000 0.923880 -0.382683
v -0.000000 0.707107 -0.707106
v -0.000000 0.382683 -0.923879
v -0.000000 -0.000000 -1.000000
v -0.000000 -0.382684 -0.923879
v -0.000000 -0.707107 -0.707106
v -0.000000 -0.923880 -0.382683
v -0.000000 1.000000 0.000000
v 0.146446 0.923880 -0.353553
v 0.270598 0.707107 -0.653281
v 0.353553 0.382683 -0.853553
v 0.382683 -0.000000 -0.923879
v 0.353553 -0.382684 -0.853553
v 0.270598 -0.707107 -0.653281
v 0.146446 -0.923880 -0.353553
v 0.270598 0.923880 -0.270598
v 0.500000 0.707107 -0.500000
v 0.653281 0.382683 -0.653281
v 0.707106 -0.000000 -0.707106
v 0.653281 -0.382684 -0.653281
v 0.500000 -0.707107 -0.500000
v 0.270598 -0.923880 -0.270598
v 0.353553 0.923880 -0.146446
v 0.653281 0.707107 -0.270598
v 0.853553 0.382683 -0.353553
v 0.923879 -0.000000 -0.382683
v 0.853553 -0.382684 -0.353553
v 0.653281 -0.707107 -0.270598
v 0.353553 -0.923880 -0.146446
v 0.382683 0.923880 0.000000
v 0.707106 0.707107 0.000000
v 0.923879 0.382683 0.000000
v 0.999999 -0.000000 0.000000
v 0.923879 -0.382684 0.000000
v 0.707106 -0.707107 0.000000
v 0.382683 -0.923880 0.000000
v 0.353553 0.923880 0.146447
v 0.653281 0.707107 0.270598
v 0.853553 0.382683 0.353553
v 0.923879 -0.000000 0.382683
v 0.853553 -0.382684 0.353553
v 0.653281 -0.707107 0.270598
v 0.353553 -0.923880 0.146447
v 0.270598 0.923880 0.270598
v 0.500000 0.707107 0.500000
v 0.653281 0.382683 0.653281
v 0.707106 -0.000000 0.707106
v 0.653281 -0.382684 0.653281
v 0.500000 -0.707107 0.500000
v 0.270598 -0.923880 0.270598
v 0.146446 0.923880 0.353553
v 0.270598 0.707107 0.653281
v 0.353553 0.382683 0.853553
v 0.382683 -0.000000 0.923879
v 0.353553 -0.382684 0.853553
v 0.270598 -0.707107 0.653281
v 0.146446 -0.923880 0.353553
v -0.000000 0.923880 0.382683
v -0.000000 0.707107 0.707106
v -0.000000 0.382683 0.923879
v -0.000000 -0.000000 0.999999
v -0.000000 -0.382684 0.923879
v -0.000000 -0.707107 0.707106
v -0.000000 -0.923880 0.382683
v -0.146447 0.923880 0.353553
v -0.270598 0.707107 0.653281
v -0.353553 0.382683 0.853553
v -0.382683 -0.000000 0.923879
v -0.353553 -0.382684 0.853553
v -0.270598 -0.707107 0.653281
v -0.146447 -0.923880 0.353553
v -0.000000 -1.000000 0.000000
v -0.270598 0.923880 0.270598
v -0.500000 0.707107 0.500000
v -0.653281 0.382683 0.653281
v -0.707107 -0.000000 0.707106
v -0.653281 -0.382684 0.653281
v -0.500000 -0.707107 0.500000
v -0.270598 -0.923880 0.270598
v -0.353553 0.923880 0.146446
v -0.653281 0.707107 0.270598
v -0.853553 0.382683 0.353553
v -0.923879 -0.000000 0.382683
v -0.853553 -0.382684 0.353553
v -0.653281 -0.707107 0.270598
v -0.353553 -0.923880 0.146446
vt 0.838896 0.500000
vt 0.886803 0.573899
vt 0.808016 0.513503
vt 0.930659 0.832326
vt 0.901714 0.919892
vt 0.852805 0.822715
vt 0.921388 0.654401
vt 0.831583 0.594687
vt 0.854160 1.000000
vt 0.842009 0.901791
vt 0.937092 0.741930
vt 0.847140 0.670930
vt 0.854294 0.746299
vt 0.776307 0.602266
vt 0.821622 0.986620
vt 0.785513 0.897734
vt 0.778559 0.677826
vt 0.780910 0.749999
vt 0.774319 0.517803
vt 0.783261 0.822172
vt 0.719811 0.598208
vt 0.787500 0.982197
vt 0.730236 0.905312
vt 0.709015 0.677284
vt 0.707526 0.753700
vt 0.740198 0.513380
vt 0.714680 0.829069
vt 0.660107 0.580107
vt 0.753803 0.986496
vt 0.675016 0.926100
vt 0.631161 0.667673
vt 0.624728 0.758068
vt 0.707660 0.500000
vt 0.640432 0.845598
vt 0.574441 0.073901
vt 0.609025 0.154404
vt 0.534777 0.170932
vt 0.589348 0.419894
vt 0.541794 0.500000
vt 0.509257 0.486620
vt 0.624728 0.241933
vt 0.541930 0.246301
vt 0.618295 0.332329
vt 0.540440 0.322717
vt 0.526534 0.000001
vt 0.519221 0.094689
vt 0.529644 0.401792
vt 0.466196 0.177828
vt 0.475135 0.482198
vt 0.468546 0.250001
vt 0.470897 0.322174
vt 0.495655 0.013504
vt 0.463945 0.102267
vt 0.473148 0.397735
vt 0.396652 0.177284
vt 0.441439 0.486497
vt 0.395162 0.253701
vt 0.402316 0.329070
vt 0.461958 0.017803
vt 0.407448 0.098209
vt 0.417872 0.405313
vt 0.318797 0.167673
vt 0.410559 0.500000
vt 0.312364 0.258069
vt 0.328068 0.345598
vt 0.427836 0.013380
vt 0.347744 0.080108
vt 0.362652 0.426101
vt 0.262078 0.073901
vt 0.296661 0.154404
vt 0.222413 0.170932
vt 0.276984 0.419894
vt 0.229429 0.500001
vt 0.196892 0.486620
vt 0.312364 0.241933
vt 0.229566 0.246301
vt 0.305930 0.332329
vt 0.228076 0.322717
vt 0.214171 0.000001
vt 0.206857 0.094689
vt 0.217280 0.401792
vt 0.153832 0.177827
vt 0.162770 0.482198
vt 0.156182 0.250000
vt 0.158532 0.322173
vt 0.183292 0.013504
vt 0.151581 0.102266
vt 0.160783 0.397734
vt 0.084288 0.177283
vt 0.129073 0.486497
vt 0.082798 0.253700
vt 0.089951 0.329069
vt 0.149595 0.017803
vt 0.095085 0.098208
vt 0.105507 0.405312
vt 0.006434 0.167671
vt 0.098194 0.500000
vt 0.000000 0.258067
vt 0.015703 0.345597
vt 0.115473 0.013381
vt 0.035381 0.080107
vt 0.050286 0.426100
vt 0.886805 0.073900
vt 0.921388 0.154402
vt 0.831584 0.094688
vt 0.901712 0.419893
vt 0.854158 0.500000
vt 0.842008 0.401792
vt 0.937092 0.241932
vt 0.847140 0.170931
vt 0.930658 0.332328
vt 0.854293 0.246300
vt 0.838897 0.000000
vt 0.808018 0.013503
vt 0.852804 0.322716
vt 0.776308 0.102266
vt 0.821620 0.486620
vt 0.785511 0.397734
vt 0.778559 0.177827
vt 0.780910 0.250000
vt 0.774321 0.017802
vt 0.783260 0.322173
vt 0.719812 0.098208
vt 0.787498 0.482197
vt 0.730235 0.405312
vt 0.709016 0.177283
vt 0.707526 0.253699
vt 0.740199 0.013380
vt 0.714679 0.329068
vt 0.233462 0.578902
vt 0.154560 0.563208
vt 0.166572 0.534208
vt 0.312364 0.594597
vt 0.391266 0.578902
vt 0.324376 0.623597
vt 0.188768 0.512013
vt 0.346572 0.645792
vt 0.217768 0.500001
vt 0.375571 0.657804
vt 0.249157 0.500001
vt 0.406961 0.657804
vt 0.278156 0.512013
vt 0.435960 0.645792
vt 0.300352 0.534208
vt 0.458156 0.623596
vt 0.312364 0.563208
vt 0.470168 0.594597
vt 0.470168 0.563208
vt 0.300352 0.623597
vt 0.458156 0.534208
vt 0.278157 0.645792
vt 0.435960 0.512012
vt 0.249157 0.657804
vt 0.406961 0.500000
vt 0.217768 0.657804
vt 0.375571 0.500000
vt 0.188768 0.645792
vt 0.346572 0.512012
vt 0.166572 0.623597
vt 0.324376 0.534208
vt 0.154560 0.594597
vt 0.631162 0.167672
vt 0.753801 0.486496
vt 0.675014 0.426099
vt 0.624728 0.258067
vt 0.660108 0.080107
vt 0.640431 0.345596
vt 0.722924 1.000000
vt 0.395298 0.000000
vt 0.082936 0.000000
vt 0.722921 0.499999
vt 0.707661 0.000000
vn -0.552209 -0.826438 -0.109841
vn -0.820326 0.548124 -0.163173
vn -0.820326 -0.548124 -0.163173
vn -0.552209 0.826439 -0.109841
vn -0.962637 -0.191480 -0.191481
vn -0.962637 0.191481 -0.191481
vn -0.695439 -0.548124 -0.464677
vn -0.468140 0.826439 -0.312801
vn -0.816085 -0.191481 -0.545290
vn -0.816084 0.191481 -0.545290
vn -0.468140 -0.826438 -0.312801
vn -0.695439 0.548124 -0.464677
vn -0.464677 -0.548124 -0.695439
vn -0.312801 0.826439 -0.468140
vn -0.545290 -0.191480 -0.816085
vn -0.545290 0.191480 -0.816085
vn -0.312801 -0.826438 -0.468140
vn -0.464677 0.548124 -0.695439
vn -0.163173 -0.548124 -0.820326
vn -0.109841 0.826438 -0.552209
vn -0.191480 -0.191480 -0.962637
vn -0.191480 0.191480 -0.962637
vn -0.109841 -0.826438 -0.552209
vn -0.163173 0.548124 -0.820326
vn 0.163173 -0.548124 -0.820326
vn 0.109841 0.826438 -0.552209
vn 0.191481 -0.191480 -0.962637
vn 0.191481 0.191480 -0.962637
vn 0.109841 -0.826438 -0.552209
vn 0.163173 0.548124 -0.820326
vn 0.464677 -0.548124 -0.695438
vn 0.312801 0.826438 -0.468140
vn 0.545290 -0.191480 -0.816084
vn 0.545290 0.191480 -0.816084
vn 0.312801 -0.826438 -0.468140
vn 0.464677 0.548124 -0.695439
vn 0.695439 -0.548124 -0.464677
vn 0.468140 0.826438 -0.312801
vn 0.816085 -0.191480 -0.545290
vn 0.816085 0.191480 -0.545290
vn 0.468140 -0.826438 -0.312801
vn 0.695439 0.548124 -0.464677
vn 0.820326 -0.548124 -0.163173
vn 0.552209 0.826439 -0.109841
vn 0.962637 -0.191480 -0.191480
vn 0.962637 0.191480 -0.191480
vn 0.552209 -0.826438 -0.109841
vn 0.820326 0.548124 -0.163173
vn 0.820326 -0.548124 0.163173
vn 0.552209 0.826438 0.109841
vn 0.962637 -0.191480 0.191480
vn 0.962637 0.191480 0.191481
vn 0.552209 -0.826438 0.109841
vn 0.820326 0.548124 0.163173
vn 0.695439 -0.548124 0.464677
vn 0.468140 0.826438 0.312801
vn 0.816084 -0.191480 0.545290
vn 0.816084 0.191480 0.545290
vn 0.468140 -0.826438 0.312801
vn 0.695439 0.548124 0.464677
vn 0.464677 -0.548124 0.695439
vn 0.312801 0.826439 0.468140
vn 0.545290 -0.191480 0.816085
vn 0.545290 0.191480 0.816085
vn 0.312801 -0.826438 0.468140
vn 0.464677 0.548124 0.695439
vn 0.163173 -0.548124 0.820326
vn 0.109841 0.826439 0.552209
vn 0.191480 -0.191480 0.962637
vn 0.191480 0.191480 0.962637
vn 0.109841 -0.826438 0.552209
vn 0.163173 0.548124 0.820326
vn -0.163173 -0.548124 0.820326
vn -0.109841 0.826438 0.552209
vn -0.191481 -0.191480 0.962637
vn -0.191480 0.191480 0.962637
vn -0.109841 -0.826438 0.552209
vn -0.163173 0.548124 0.820326
vn -0.464677 -0.548124 0.695439
vn -0.312801 0.826439 0.468140
vn -0.545290 -0.191480 0.816084
vn -0.545290 0.191480 0.816084
vn -0.312801 -0.826438 0.468140
vn -0.464678 0.548124 0.695439
vn -0.695439 -0.548124 0.464677
vn -0.468140 0.826439 0.312801
vn -0.816085 -0.191480 0.545290
vn -0.816085 0.191480 0.545290
vn -0.468140 -0.826438 0.312801
vn -0.695439 0.548124 0.464677
vn -0.194944 -0.980048 -0.038777
vn -0.194944 0.980048 -0.038777
vn -0.165265 -0.980048 -0.110427
vn -0.165265 0.980048 -0.110427
vn -0.110427 -0.980048 -0.165265
vn -0.110427 0.980048 -0.165265
vn -0.038777 -0.980048 -0.194944
vn -0.038777 0.980048 -0.194944
vn 0.038777 -0.980048 -0.194944
vn 0.038777 0.980048 -0.194944
vn 0.110427 -0.980048 -0.165265
vn 0.110427 0.980048 -0.165265
vn 0.165265 -0.980048 -0.110427
vn 0.165265 0.980048 -0.110427
vn 0.194944 -0.980048 -0.038777
vn 0.194944 0.980048 -0.038777
vn 0.194944 -0.980048 0.038777
vn 0.194944 0.980048 0.038777
vn 0.165265 -0.980048 0.110427
vn 0.165265 0.980048 0.110427
vn 0.110427 -0.980048 0.165265
vn 0.110427 0.980048 0.165265
vn 0.038777 -0.980048 0.194944
vn 0.038777 0.980048 0.194944
vn -0.038777 -0.980048 0.194944
vn -0.038777 0.980047 0.194944
vn -0.110427 -0.980048 0.165265
vn -0.110427 0.980048 0.165265
vn -0.165265 -0.980048 0.110427
vn -0.165265 0.980048 0.110427
vn -0.820326 -0.548124 0.163174
vn -0.552208 0.826439 0.109841
vn -0.962637 -0.191481 0.191482
vn -0.194944 -0.980048 0.038777
vn -0.194944 0.980048 0.038777
vn -0.962637 0.191481 0.191482
vn -0.552209 -0.826438 0.109842
vn -0.820326 0.548124 0.163174
vn -0.552209 -0.826439 -0.109841
vn -0.962637 0.191480 -0.191481
vn -0.816084 -0.191480 -0.545290
vn -0.816085 0.191480 -0.545290
vn -0.312801 0.826438 -0.468140
vn -0.109841 0.826439 -0.552209
vn 0.464677 -0.548124 -0.695439
vn 0.552209 0.826438 -0.109841
vn 0.962637 -0.191480 0.191481
vn 0.962637 0.191480 0.191480
vn 0.312801 0.826438 0.468140
vn -0.109841 0.826439 0.552209
vn -0.191480 -0.191480 0.962637
vn -0.191481 0.191480 0.962637
vn -0.464678 -0.548124 0.695439
vn -0.464677 0.548124 0.695439
vn -0.816085 -0.191481 0.545290
vn -0.816085 0.191481 0.545290
vn -0.695439 0.548123 0.464678
vn -0.552209 0.826438 0.109842
vn -0.962637 -0.191480 0.191482
vn -0.962637 0.191480 0.191482
usemtl None
s off
f 7/1/1 6/2/1 14/3/1
f 3/4/2 2/5/2 10/6/2
f 6/2/3 5/7/3 13/8/3
f 2/5/4 1/9/4 9/10/4
f 5/7/5 4/11/5 12/12/5
f 4/11/6 3/4/6 11/13/6
f 13/8/7 12/12/7 20/14/7
f 9/10/8 8/15/8 16/16/8
f 12/12/9 11/13/9 19/17/9
f 11/13/10 10/6/10 18/18/10
f 14/3/11 13/8/11 21/19/11
f 10/6/12 9/10/12 17/20/12
f 20/14/13 19/17/13 27/21/13
f 16/16/14 15/22/14 23/23/14
f 19/17/15 18/18/15 26/24/15
f 18/18/16 17/20/16 25/25/16
f 21/19/17 20/14/17 28/26/17
f 17/20/18 16/16/18 24/27/18
f 27/21/19 26/24/19 34/28/19
f 23/23/20 22/29/20 30/30/20
f 26/24/21 25/25/21 33/31/21
f 25/25/22 24/27/22 32/32/22
f 28/26/23 27/21/23 35/33/23
f 24/27/24 23/23/24 31/34/24
f 34/35/25 33/36/25 41/37/25
f 30/38/26 29/39/26 37/40/26
f 33/36/27 32/41/27 40/42/27
f 32/41/28 31/43/28 39/44/28
f 35/45/29 34/35/29 42/46/29
f 31/43/30 30/38/30 38/47/30
f 42/46/31 41/37/31 48/48/31
f 38/47/32 37/40/32 44/49/32
f 41/37/33 40/42/33 47/50/33
f 40/42/34 39/44/34 46/51/34
f 43/52/35 42/46/35 49/53/35
f 39/44/36 38/47/36 45/54/36
f 49/53/37 48/48/37 55/55/37
f 45/54/38 44/49/38 51/56/38
f 48/48/39 47/50/39 54/57/39
f 47/50/40 46/51/40 53/58/40
f 50/59/41 49/53/41 56/60/41
f 46/51/42 45/54/42 52/61/42
f 56/60/43 55/55/43 62/62/43
f 52/61/44 51/56/44 58/63/44
f 55/55/45 54/57/45 61/64/45
f 54/57/46 53/58/46 60/65/46
f 57/66/47 56/60/47 63/67/47
f 53/58/48 52/61/48 59/68/48
f 63/69/49 62/70/49 69/71/49
f 59/72/50 58/73/50 65/74/50
f 62/70/51 61/75/51 68/76/51
f 61/75/52 60/77/52 67/78/52
f 64/79/53 63/69/53 70/80/53
f 60/77/54 59/72/54 66/81/54
f 70/80/55 69/71/55 76/82/55
f 66/81/56 65/74/56 72/83/56
f 69/71/57 68/76/57 75/84/57
f 68/76/58 67/78/58 74/85/58
f 71/86/59 70/80/59 77/87/59
f 67/78/60 66/81/60 73/88/60
f 77/87/61 76/82/61 83/89/61
f 73/88/62 72/83/62 79/90/62
f 76/82/63 75/84/63 82/91/63
f 75/84/64 74/85/64 81/92/64
f 78/93/65 77/87/65 84/94/65
f 74/85/66 73/88/66 80/95/66
f 84/94/67 83/89/67 90/96/67
f 80/95/68 79/90/68 86/97/68
f 83/89/69 82/91/69 89/98/69
f 82/91/70 81/92/70 88/99/70
f 85/100/71 84/94/71 91/101/71
f 81/92/72 80/95/72 87/102/72
f 91/103/73 90/104/73 98/105/73
f 87/106/74 86/107/74 94/108/74
f 90/104/75 89/109/75 97/110/75
f 89/109/76 88/111/76 96/112/76
f 92/113/77 91/103/77 99/114/77
f 88/111/78 87/106/78 95/115/78
f 98/105/79 97/110/79 106/116/79
f 94/108/80 93/117/80 102/118/80
f 97/110/81 96/112/81 105/119/81
f 96/112/82 95/115/82 104/120/82
f 99/114/83 98/105/83 107/121/83
f 95/115/84 94/108/84 103/122/84
f 106/116/85 105/119/85 113/123/85
f 102/118/86 101/124/86 109/125/86
f 105/119/87 104/120/87 112/126/87
f 104/120/88 103/122/88 111/127/88
f 107/121/89 106/116/89 114/128/89
f 103/122/90 102/118/90 110/129/90
f 100/130/91 7/131/91 14/132/91
f 1/133/92 36/134/92 8/135/92
f 100/130/93 14/132/93 21/136/93
f 8/135/94 36/134/94 15/137/94
f 100/130/95 21/136/95 28/138/95
f 15/137/96 36/134/96 22/139/96
f 100/130/97 28/138/97 35/140/97
f 22/139/98 36/134/98 29/141/98
f 100/130/99 35/140/99 43/142/99
f 29/141/100 36/134/100 37/143/100
f 100/130/101 43/142/101 50/144/101
f 37/143/102 36/134/102 44/145/102
f 100/130/103 50/144/103 57/146/103
f 44/145/104 36/134/104 51/147/104
f 100/130/105 57/146/105 64/133/105
f 51/147/106 36/134/106 58/148/106
f 100/130/107 64/133/107 71/149/107
f 58/148/108 36/134/108 65/150/108
f 100/130/109 71/149/109 78/151/109
f 65/150/110 36/134/110 72/152/110
f 100/130/111 78/151/111 85/153/111
f 72/152/112 36/134/112 79/154/112
f 100/130/113 85/153/113 92/155/113
f 79/154/114 36/134/114 86/156/114
f 100/130/115 92/155/115 99/157/115
f 86/156/116 36/134/116 93/158/116
f 100/130/117 99/157/117 107/159/117
f 93/158/118 36/134/118 101/160/118
f 100/130/119 107/159/119 114/161/119
f 101/160/120 36/134/120 108/146/120
f 113/123/121 112/126/121 5/162/121
f 109/125/122 108/163/122 2/164/122
f 112/126/123 111/127/123 5/162/123
f 100/130/124 114/161/124 7/131/124
f 108/146/125 36/134/125 1/133/125
f 111/127/126 110/129/126 4/165/126
f 114/128/127 113/123/127 6/166/127
f 110/129/128 109/125/128 3/167/128
f 6/2/129 13/8/129 14/3/129
f 2/5/2 9/10/2 10/6/2
f 5/7/3 12/12/3 13/8/3
f 1/9/4 8/15/4 9/10/4
f 4/11/5 11/13/5 12/12/5
f 3/4/130 10/6/130 11/13/130
f 12/12/7 19/17/7 20/14/7
f 8/15/8 15/22/8 16/16/8
f 11/13/131 18/18/131 19/17/131
f 10/6/132 17/20/132 18/18/132
f 13/8/11 20/14/11 21/19/11
f 9/10/12 16/16/12 17/20/12
f 19/17/13 26/24/13 27/21/13
f 15/22/133 22/29/133 23/23/133
f 18/18/15 25/25/15 26/24/15
f 17/20/16 24/27/16 25/25/16
f 20/14/17 27/21/17 28/26/17
f 16/16/18 23/23/18 24/27/18
f 26/24/19 33/31/19 34/28/19
f 22/29/134 29/168/134 30/30/134
f 25/25/21 32/32/21 33/31/21
f 24/27/22 31/34/22 32/32/22
f 27/21/23 34/28/23 35/33/23
f 23/23/24 30/30/24 31/34/24
f 42/46/25 34/35/25 41/37/25
f 38/47/26 30/38/26 37/40/26
f 41/37/27 33/36/27 40/42/27
f 40/42/28 32/41/28 39/44/28
f 43/52/29 35/45/29 42/46/29
f 39/44/30 31/43/30 38/47/30
f 49/53/135 42/46/135 48/48/135
f 45/54/32 38/47/32 44/49/32
f 48/48/33 41/37/33 47/50/33
f 47/50/34 40/42/34 46/51/34
f 50/59/35 43/52/35 49/53/35
f 46/51/36 39/44/36 45/54/36
f 56/60/37 49/53/37 55/55/37
f 52/61/38 45/54/38 51/56/38
f 55/55/39 48/48/39 54/57/39
f 54/57/40 47/50/40 53/58/40
f 57/66/41 50/59/41 56/60/41
f 53/58/42 46/51/42 52/61/42
f 63/67/43 56/60/43 62/62/43
f 59/68/136 52/61/136 58/63/136
f 62/62/45 55/55/45 61/64/45
f 61/64/46 54/57/46 60/65/46
f 64/169/47 57/66/47 63/67/47
f 60/65/48 53/58/48 59/68/48
f 70/80/49 63/69/49 69/71/49
f 66/81/50 59/72/50 65/74/50
f 69/71/137 62/70/137 68/76/137
f 68/76/138 61/75/138 67/78/138
f 71/86/53 64/79/53 70/80/53
f 67/78/54 60/77/54 66/81/54
f 77/87/55 70/80/55 76/82/55
f 73/88/56 66/81/56 72/83/56
f 76/82/57 69/71/57 75/84/57
f 75/84/58 68/76/58 74/85/58
f 78/93/59 71/86/59 77/87/59
f 74/85/60 67/78/60 73/88/60
f 84/94/61 77/87/61 83/89/61
f 80/95/139 73/88/139 79/90/139
f 83/89/63 76/82/63 82/91/63
f 82/91/64 75/84/64 81/92/64
f 85/100/65 78/93/65 84/94/65
f 81/92/66 74/85/66 80/95/66
f 91/101/67 84/94/67 90/96/67
f 87/102/68 80/95/68 86/97/68
f 90/96/69 83/89/69 89/98/69
f 89/98/70 82/91/70 88/99/70
f 92/170/71 85/100/71 91/101/71
f 88/99/72 81/92/72 87/102/72
f 90/104/73 97/110/73 98/105/73
f 86/107/140 93/117/140 94/108/140
f 89/109/141 96/112/141 97/110/141
f 88/111/142 95/115/142 96/112/142
f 91/103/77 98/105/77 99/114/77
f 87/106/78 94/108/78 95/115/78
f 97/110/143 105/119/143 106/116/143
f 93/117/80 101/124/80 102/118/80
f 96/112/81 104/120/81 105/119/81
f 95/115/82 103/122/82 104/120/82
f 98/105/83 106/116/83 107/121/83
f 94/108/144 102/118/144 103/122/144
f 105/119/85 112/126/85 113/123/85
f 101/124/86 108/163/86 109/125/86
f 104/120/145 111/127/145 112/126/145
f 103/122/146 110/129/146 111/127/146
f 106/116/89 113/123/89 114/128/89
f 102/118/147 109/125/147 110/129/147
f 6/166/121 113/123/121 5/162/121
f 108/163/148 1/171/148 2/164/148
f 111/127/149 4/165/149 5/162/149
f 110/129/150 3/167/150 4/165/150
f 7/172/127 114/128/127 6/166/127
f 109/125/128 2/164/128 3/167/128
