# Blender v2.66 (sub 1) OBJ File: 'mesh_TentPlane_external.blend'
# www.blender.org
mtllib mesh_TentPlane_external.mtl
o Z_Function.001
v -1.000000 -1.000000 1.000000
v -1.000000 -0.510204 0.714286
v -1.000000 -0.183673 0.428571
v -1.000000 -0.020408 0.142857
v -1.000000 -0.020408 -0.142857
v -1.000000 -0.183673 -0.428571
v -1.000000 -0.510204 -0.714286
v -1.000000 -1.000000 -1.000000
v -0.714286 -0.510204 1.000000
v -0.714286 -0.020408 0.714286
v -0.714286 0.306122 0.428571
v -0.714286 0.469388 0.142857
v -0.714286 0.469388 -0.142857
v -0.714286 0.306122 -0.428571
v -0.714286 -0.020408 -0.714286
v -0.714286 -0.510204 -1.000000
v -0.428571 -0.183673 1.000000
v -0.428571 0.306122 0.714286
v -0.428571 0.632653 0.428571
v -0.428571 0.795918 0.142857
v -0.428571 0.795918 -0.142857
v -0.428571 0.632653 -0.428571
v -0.428571 0.306122 -0.714286
v -0.428571 -0.183673 -1.000000
v -0.142857 -0.020408 1.000000
v -0.142857 0.469388 0.714286
v -0.142857 0.795918 0.428571
v -0.142857 0.959184 0.142857
v -0.142857 0.959184 -0.142857
v -0.142857 0.795918 -0.428571
v -0.142857 0.469388 -0.714286
v -0.142857 -0.020408 -1.000000
v 0.142857 -0.020408 1.000000
v 0.142857 0.469388 0.714286
v 0.142857 0.795918 0.428571
v 0.142857 0.959184 0.142857
v 0.142857 0.959184 -0.142857
v 0.142857 0.795918 -0.428571
v 0.142857 0.469388 -0.714286
v 0.142857 -0.020408 -1.000000
v 0.428571 -0.183673 1.000000
v 0.428571 0.306122 0.714286
v 0.428571 0.632653 0.428571
v 0.428571 0.795918 0.142857
v 0.428571 0.795918 -0.142857
v 0.428571 0.632653 -0.428571
v 0.428571 0.306122 -0.714286
v 0.428571 -0.183673 -1.000000
v 0.714286 -0.510204 1.000000
v 0.714286 -0.020408 0.714286
v 0.714286 0.306122 0.428571
v 0.714286 0.469388 0.142857
v 0.714286 0.469388 -0.142857
v 0.714286 0.306122 -0.428571
v 0.714286 -0.020408 -0.714286
v 0.714286 -0.510204 -1.000000
v 1.000000 -1.000000 1.000000
v 1.000000 -0.510204 0.714286
v 1.000000 -0.183673 0.428571
v 1.000000 -0.020408 0.142857
v 1.000000 -0.020408 -0.142857
v 1.000000 -0.183673 -0.428571
v 1.000000 -0.510204 -0.714286
v 1.000000 -1.000000 -1.000000
vt 0.000000 0.000000
vt 0.142857 0.000000
vt 0.142857 0.142857
vt 0.000000 0.142857
vt 0.142857 0.285714
vt 0.000000 0.285714
vt 0.142857 0.428571
vt 0.000000 0.428571
vt 0.000000 0.571429
vt 0.142857 0.571429
vt 0.000000 0.714286
vt 0.142857 0.714286
vt 0.000000 0.857143
vt 0.142857 0.857143
vt 0.000000 1.000000
vt 0.285714 0.000000
vt 0.285714 0.142857
vt 0.285714 0.285714
vt 0.285714 0.428571
vt 0.285714 0.571429
vt 0.285714 0.714286
vt 0.285714 0.857143
vt 0.142857 1.000000
vt 0.428571 0.000000
vt 0.428571 0.142857
vt 0.428571 0.285714
vt 0.428571 0.428571
vt 0.428571 0.571429
vt 0.428571 0.714286
vt 0.428571 0.857143
vt 0.285714 1.000000
vt 0.571429 0.000000
vt 0.571429 0.142857
vt 0.571429 0.285714
vt 0.571429 0.428571
vt 0.571429 0.571429
vt 0.571429 0.714286
vt 0.571429 0.857143
vt 0.571429 1.000000
vt 0.714286 0.000000
vt 0.714286 0.142857
vt 0.714286 0.285714
vt 0.714286 0.428571
vt 0.714286 0.571429
vt 0.714286 0.714286
vt 0.714286 0.857143
vt 0.857143 0.000000
vt 0.857143 0.142857
vt 0.857143 0.285714
vt 0.857143 0.428571
vt 0.857143 0.571429
vt 0.857143 0.714286
vt 0.857143 0.857143
vt 0.714286 1.000000
vt 1.000000 0.000000
vt 1.000000 0.142857
vt 1.000000 0.285714
vt 1.000000 0.428571
vt 1.000000 0.571429
vt 1.000000 0.714286
vt 1.000000 0.857143
vt 0.857143 1.000000
vt 0.428571 1.000000
vt 1.000000 1.000000
vn -0.653682 0.381314 0.653682
vn -0.748539 0.436648 0.499026
vn -0.830057 0.484200 0.276686
vn -0.863779 0.503871 0.000000
vn -0.830057 0.484200 -0.276686
vn -0.748539 0.436648 -0.499026
vn -0.653682 0.381314 -0.653682
vn -0.499026 0.436648 0.748539
vn -0.601317 0.526152 0.601317
vn -0.704361 0.616316 0.352180
vn -0.752577 0.658505 0.000000
vn -0.704361 0.616316 -0.352180
vn -0.601317 0.526152 -0.601317
vn -0.499026 0.436648 -0.748539
vn -0.276686 0.484200 0.830057
vn -0.352180 0.616316 0.704361
vn -0.444444 0.777778 0.444445
vn -0.496139 0.868243 0.000000
vn -0.444445 0.777778 -0.444444
vn -0.352180 0.616316 -0.704361
vn -0.276686 0.484200 -0.830057
vn 0.000000 0.503871 0.863779
vn 0.000000 0.658505 0.752577
vn 0.000000 0.868243 0.496139
vn 0.000000 1.000000 -0.000000
vn 0.000000 0.868243 -0.496139
vn 0.000000 0.658505 -0.752577
vn 0.000000 0.503871 -0.863779
vn 0.276686 0.484200 0.830057
vn 0.352180 0.616316 0.704361
vn 0.444444 0.777778 0.444444
vn 0.496139 0.868243 -0.000000
vn 0.444445 0.777778 -0.444445
vn 0.352180 0.616316 -0.704361
vn 0.276686 0.484200 -0.830057
vn 0.499026 0.436648 0.748539
vn 0.601317 0.526152 0.601317
vn 0.704361 0.616316 0.352180
vn 0.752577 0.658505 -0.000000
vn 0.704361 0.616316 -0.352180
vn 0.601317 0.526152 -0.601317
vn 0.499026 0.436648 -0.748539
vn 0.653682 0.381314 0.653682
vn 0.748539 0.436648 0.499026
vn 0.830057 0.484200 0.276686
vn 0.863779 0.503871 -0.000000
vn 0.830057 0.484200 -0.276686
vn 0.748539 0.436648 -0.499026
vn 0.653682 0.381314 -0.653682
vn -0.444445 0.777778 0.444444
vn -0.444444 0.777778 -0.444445
vn 0.444445 0.777778 0.444445
vn 0.444444 0.777778 -0.444444
usemtl None
s off
f 1/1/1 9/2/1 10/3/1
f 2/4/2 10/3/2 11/5/2
f 3/6/3 11/5/3 12/7/3
f 4/8/4 12/7/4 5/9/4
f 5/9/5 13/10/5 6/11/5
f 6/11/6 14/12/6 7/13/6
f 7/13/7 15/14/7 8/15/7
f 9/2/8 17/16/8 18/17/8
f 10/3/9 18/17/9 19/18/9
f 11/5/10 19/18/10 20/19/10
f 12/7/11 20/19/11 13/10/11
f 13/10/12 21/20/12 14/12/12
f 14/12/13 22/21/13 15/14/13
f 15/14/14 23/22/14 16/23/14
f 17/16/15 25/24/15 26/25/15
f 18/17/16 26/25/16 27/26/16
f 19/18/17 27/26/17 28/27/17
f 20/19/18 28/27/18 21/20/18
f 21/20/19 29/28/19 22/21/19
f 22/21/20 30/29/20 23/22/20
f 23/22/21 31/30/21 24/31/21
f 25/24/22 33/32/22 34/33/22
f 26/25/23 34/33/23 35/34/23
f 27/26/24 35/34/24 36/35/24
f 28/27/25 36/35/25 37/36/25
f 29/28/26 37/36/26 38/37/26
f 30/29/27 38/37/27 39/38/27
f 31/30/28 39/38/28 40/39/28
f 33/32/29 41/40/29 42/41/29
f 34/33/30 42/41/30 43/42/30
f 35/34/31 43/42/31 44/43/31
f 36/35/32 44/43/32 45/44/32
f 37/36/33 45/44/33 38/37/33
f 38/37/34 46/45/34 39/38/34
f 39/38/35 47/46/35 40/39/35
f 41/40/36 49/47/36 50/48/36
f 42/41/37 50/48/37 51/49/37
f 43/42/38 51/49/38 52/50/38
f 44/43/39 52/50/39 53/51/39
f 45/44/40 53/51/40 46/45/40
f 46/45/41 54/52/41 47/46/41
f 47/46/42 55/53/42 48/54/42
f 49/47/43 57/55/43 58/56/43
f 50/48/44 58/56/44 59/57/44
f 51/49/45 59/57/45 60/58/45
f 52/50/46 60/58/46 61/59/46
f 53/51/47 61/59/47 54/52/47
f 54/52/48 62/60/48 55/53/48
f 55/53/49 63/61/49 56/62/49
f 2/4/1 1/1/1 10/3/1
f 3/6/2 2/4/2 11/5/2
f 4/8/3 3/6/3 12/7/3
f 12/7/4 13/10/4 5/9/4
f 13/10/5 14/12/5 6/11/5
f 14/12/6 15/14/6 7/13/6
f 15/14/7 16/23/7 8/15/7
f 10/3/8 9/2/8 18/17/8
f 11/5/9 10/3/9 19/18/9
f 12/7/10 11/5/10 20/19/10
f 20/19/11 21/20/11 13/10/11
f 21/20/12 22/21/12 14/12/12
f 22/21/13 23/22/13 15/14/13
f 23/22/14 24/31/14 16/23/14
f 18/17/15 17/16/15 26/25/15
f 19/18/16 18/17/16 27/26/16
f 20/19/50 19/18/50 28/27/50
f 28/27/18 29/28/18 21/20/18
f 29/28/51 30/29/51 22/21/51
f 30/29/20 31/30/20 23/22/20
f 31/30/21 32/63/21 24/31/21
f 26/25/22 25/24/22 34/33/22
f 27/26/23 26/25/23 35/34/23
f 28/27/24 27/26/24 36/35/24
f 29/28/25 28/27/25 37/36/25
f 30/29/26 29/28/26 38/37/26
f 31/30/27 30/29/27 39/38/27
f 32/63/28 31/30/28 40/39/28
f 34/33/29 33/32/29 42/41/29
f 35/34/30 34/33/30 43/42/30
f 36/35/52 35/34/52 44/43/52
f 37/36/32 36/35/32 45/44/32
f 45/44/53 46/45/53 38/37/53
f 46/45/34 47/46/34 39/38/34
f 47/46/35 48/54/35 40/39/35
f 42/41/36 41/40/36 50/48/36
f 43/42/37 42/41/37 51/49/37
f 44/43/38 43/42/38 52/50/38
f 45/44/39 44/43/39 53/51/39
f 53/51/40 54/52/40 46/45/40
f 54/52/41 55/53/41 47/46/41
f 55/53/42 56/62/42 48/54/42
f 50/48/43 49/47/43 58/56/43
f 51/49/44 50/48/44 59/57/44
f 52/50/45 51/49/45 60/58/45
f 53/51/46 52/50/46 61/59/46
f 61/59/47 62/60/47 54/52/47
f 62/60/48 63/61/48 55/53/48
f 63/61/49 64/64/49 56/62/49
