# Blender v2.66 (sub 1) OBJ File: 'mesh_Cone_16sided.blend'
# www.blender.org
mtllib mesh_Cone_16sided.mtl
o Cone_Cone.010
v 0.000000 -1.000000 0.000000
v 0.000000 -1.000000 -1.000000
v 0.382683 -1.000000 -0.923880
v 0.707107 -1.000000 -0.707107
v 0.923880 -1.000000 -0.382683
v 1.000000 -1.000000 0.000000
v 0.923880 -1.000000 0.382684
v 0.707107 -1.000000 0.707107
v 0.000000 1.000000 0.000000
v 0.382683 -1.000000 0.923880
v 0.000000 -1.000000 1.000000
v -0.382683 -1.000000 0.923880
v -0.707107 -1.000000 0.707107
v -0.923880 -1.000000 0.382684
v -1.000000 -1.000000 -0.000000
v -0.923879 -1.000000 -0.382684
v -0.707107 -1.000000 -0.707107
v -0.382683 -1.000000 -0.923880
vt 0.221041 0.221041
vt 0.033819 0.346140
vt 0.000197 0.264970
vt 0.000197 0.177113
vt 0.033819 0.095943
vt 0.095943 0.033819
vt 0.177113 0.000197
vt 0.264970 0.000197
vt 0.346140 0.033819
vt 0.408264 0.095943
vt 0.441886 0.177113
vt 0.441886 0.264970
vt 0.408264 0.346140
vt 0.346140 0.408264
vt 0.264970 0.441886
vt 0.177113 0.441886
vt 0.095943 0.408264
vt 0.325733 0.491711
vt 0.095989 0.939614
vt 0.244359 0.458588
vt 0.163361 0.442280
vt 0.095070 0.445268
vt 0.927315 0.497926
vt 0.927143 0.999803
vt 0.844859 0.503185
vt 0.759768 0.525055
vt 0.684995 0.560207
vt 0.442280 0.494543
vt 0.443198 0.000197
vt 0.510570 0.497532
vt 0.591568 0.481223
vt 0.672942 0.448100
vt 0.742305 0.403206
vt 0.789095 0.353375
vt 0.684601 0.497926
vt 0.684428 0.999803
vt 0.602145 0.503185
vt 0.517053 0.525055
vt 0.442280 0.560207
vt 0.441886 0.586437
vt 0.395095 0.536606
vn -0.000000 -1.000000 0.000000
vn 0.175162 0.440299 -0.880599
vn 0.498819 0.440299 -0.746536
vn 0.746536 0.440299 -0.498819
vn 0.880599 0.440299 -0.175162
vn 0.880599 0.440300 0.175162
vn 0.746536 0.440300 0.498819
vn 0.498819 0.440300 0.746536
vn 0.175162 0.440300 0.880599
vn -0.175162 0.440300 0.880599
vn -0.498819 0.440300 0.746536
vn -0.746536 0.440300 0.498819
vn -0.880599 0.440300 0.175162
vn -0.880599 0.440300 -0.175162
vn -0.746536 0.440299 -0.498819
vn -0.498819 0.440299 -0.746536
vn -0.175162 0.440300 -0.880599
usemtl None
s off
f 1/1/1 2/2/1 3/3/1
f 1/1/1 3/3/1 4/4/1
f 1/1/1 4/4/1 5/5/1
f 1/1/1 5/5/1 6/6/1
f 1/1/1 6/6/1 7/7/1
f 1/1/1 7/7/1 8/8/1
f 1/1/1 8/8/1 10/9/1
f 1/1/1 10/9/1 11/10/1
f 1/1/1 11/10/1 12/11/1
f 1/1/1 12/11/1 13/12/1
f 1/1/1 13/12/1 14/13/1
f 1/1/1 14/13/1 15/14/1
f 1/1/1 15/14/1 16/15/1
f 1/1/1 16/15/1 17/16/1
f 1/1/1 17/16/1 18/17/1
f 1/1/1 18/17/1 2/2/1
f 2/18/2 9/19/2 3/20/2
f 3/20/3 9/19/3 4/21/3
f 4/21/4 9/19/4 5/22/4
f 5/23/5 9/24/5 6/25/5
f 6/25/6 9/24/6 7/26/6
f 7/26/7 9/24/7 8/27/7
f 8/28/8 9/29/8 10/30/8
f 10/30/9 9/29/9 11/31/9
f 11/31/10 9/29/10 12/32/10
f 12/32/11 9/29/11 13/33/11
f 13/33/12 9/29/12 14/34/12
f 14/35/13 9/36/13 15/37/13
f 15/37/14 9/36/14 16/38/14
f 16/38/15 9/36/15 17/39/15
f 17/40/16 9/19/16 18/41/16
f 18/41/17 9/19/17 2/18/17
