# Blender v2.66 (sub 1) OBJ File: 'mesh_Cylinder_16sides.blend'
# www.blender.org
mtllib mesh_Cylinder_16sides.mtl
o Cylinder_Cylinder.005
v 0.000000 -1.000000 0.000000
v 0.000000 1.000000 0.000000
v 0.000000 -1.000000 -1.000000
v 0.000000 1.000000 -1.000000
v 0.382683 -1.000000 -0.923880
v 0.382683 1.000000 -0.923880
v 0.707107 -1.000000 -0.707107
v 0.707107 1.000000 -0.707107
v 0.923880 -1.000000 -0.382683
v 0.923880 1.000000 -0.382683
v 1.000000 -1.000000 0.000000
v 1.000000 1.000000 0.000000
v 0.923880 -1.000000 0.382684
v 0.923880 1.000000 0.382684
v 0.707107 -1.000000 0.707107
v 0.707107 1.000000 0.707107
v 0.382683 -1.000000 0.923880
v 0.382683 1.000000 0.923880
v 0.000000 -1.000000 1.000000
v 0.000000 1.000000 1.000000
v -0.382683 -1.000000 0.923880
v -0.382683 1.000000 0.923880
v -0.707107 -1.000000 0.707107
v -0.707107 1.000000 0.707107
v -0.923880 -1.000000 0.382684
v -0.923880 1.000000 0.382684
v -1.000000 -1.000000 -0.000000
v -1.000000 1.000000 -0.000000
v -0.923879 -1.000000 -0.382684
v -0.923879 1.000000 -0.382684
v -0.707107 -1.000000 -0.707107
v -0.707107 1.000000 -0.707107
v -0.382683 -1.000000 -0.923880
v -0.382683 1.000000 -0.923880
vt 0.206519 0.206519
vt 0.031629 0.323376
vt 0.000222 0.247554
vt 0.206519 0.619556
vt 0.323376 0.794446
vt 0.247554 0.825853
vt 0.548405 0.843751
vt 0.547114 0.423077
vt 0.629184 0.422825
vt 0.000222 0.165484
vt 0.381408 0.736414
vt 0.630474 0.843499
vt 0.705006 0.422592
vt 0.031629 0.089661
vt 0.412815 0.660591
vt 0.706296 0.843266
vt 0.763038 0.422414
vt 0.089661 0.031629
vt 0.412815 0.578521
vt 0.998487 0.000222
vt 0.999778 0.420897
vt 0.923955 0.421129
vt 0.165484 0.000222
vt 0.381408 0.502699
vt 0.922665 0.000455
vt 0.841886 0.421381
vt 0.247554 0.000222
vt 0.323376 0.444667
vt 0.840595 0.000707
vt 0.766064 0.421613
vt 0.323376 0.031629
vt 0.247554 0.413260
vt 0.414551 0.421970
vt 0.413260 0.001296
vt 0.471292 0.001117
vt 0.381408 0.089661
vt 0.165484 0.413260
vt 0.472582 0.421791
vt 0.547114 0.000885
vt 0.412815 0.165484
vt 0.089661 0.444667
vt 0.548405 0.421559
vt 0.630474 0.421307
vt 0.412815 0.247554
vt 0.031629 0.502699
vt 0.629184 0.000633
vt 0.706296 0.421075
vt 0.381408 0.323376
vt 0.000222 0.578521
vt 0.705006 0.000400
vt 0.764328 0.420896
vt 0.323376 0.381408
vt 0.000222 0.660591
vt 0.998487 0.422414
vt 0.999778 0.843088
vt 0.922665 0.422647
vt 0.247554 0.412815
vt 0.031629 0.736414
vt 0.923955 0.843321
vt 0.840595 0.422899
vt 0.165484 0.412815
vt 0.089661 0.794446
vt 0.841886 0.843573
vt 0.764773 0.423131
vt 0.089661 0.381408
vt 0.165484 0.825853
vt 0.414551 0.844161
vt 0.413260 0.423487
vt 0.472582 0.843983
vt 0.471292 0.423309
vt 0.764328 0.843088
vt 0.764773 0.000939
vt 0.763038 0.000222
vt 0.766064 0.843805
vn -0.000000 -1.000000 0.000000
vn 0.000000 1.000000 -0.000000
vn 0.195090 0.000000 -0.980785
vn 0.555570 0.000000 -0.831470
vn 0.831470 0.000000 -0.555570
vn 0.980785 0.000000 -0.195090
vn 0.980785 0.000000 0.195090
vn 0.831470 0.000000 0.555570
vn 0.555570 0.000000 0.831470
vn 0.195090 0.000000 0.980785
vn -0.195090 0.000000 0.980785
vn -0.555570 0.000000 0.831470
vn -0.831469 0.000000 0.555570
vn -0.980785 0.000000 0.195090
vn -0.980785 -0.000000 -0.195090
vn -0.831469 -0.000000 -0.555570
vn -0.555570 -0.000000 -0.831470
vn -0.195090 -0.000000 -0.980785
usemtl None
s off
f 1/1/1 3/2/1 5/3/1
f 2/4/2 6/5/2 4/6/2
f 3/7/3 4/8/3 6/9/3
f 1/1/1 5/3/1 7/10/1
f 2/4/2 8/11/2 6/5/2
f 5/12/4 6/9/4 8/13/4
f 1/1/1 7/10/1 9/14/1
f 2/4/2 10/15/2 8/11/2
f 7/16/5 8/13/5 10/17/5
f 1/1/1 9/14/1 11/18/1
f 2/4/2 12/19/2 10/15/2
f 9/20/6 10/21/6 12/22/6
f 1/1/1 11/18/1 13/23/1
f 2/4/2 14/24/2 12/19/2
f 11/25/7 12/22/7 14/26/7
f 1/1/1 13/23/1 15/27/1
f 2/4/2 16/28/2 14/24/2
f 13/29/8 14/26/8 16/30/8
f 1/1/1 15/27/1 17/31/1
f 2/4/2 18/32/2 16/28/2
f 15/33/9 16/34/9 18/35/9
f 1/1/1 17/31/1 19/36/1
f 2/4/2 20/37/2 18/32/2
f 17/38/10 18/35/10 20/39/10
f 1/1/1 19/36/1 21/40/1
f 2/4/2 22/41/2 20/37/2
f 19/42/11 20/39/11 21/43/11
f 1/1/1 21/40/1 23/44/1
f 2/4/2 24/45/2 22/41/2
f 21/43/12 22/46/12 23/47/12
f 1/1/1 23/44/1 25/48/1
f 2/4/2 26/49/2 24/45/2
f 23/47/13 24/50/13 25/51/13
f 1/1/1 25/48/1 27/52/1
f 2/4/2 28/53/2 26/49/2
f 25/54/14 26/55/14 27/56/14
f 1/1/1 27/52/1 29/57/1
f 2/4/2 30/58/2 28/53/2
f 27/56/15 28/59/15 29/60/15
f 1/1/1 29/57/1 31/61/1
f 2/4/2 32/62/2 30/58/2
f 29/60/16 30/63/16 31/64/16
f 1/1/1 31/61/1 33/65/1
f 2/4/2 34/66/2 32/62/2
f 31/67/17 32/68/17 33/69/17
f 1/1/1 33/65/1 3/2/1
f 2/4/2 4/6/2 34/66/2
f 33/69/18 34/70/18 3/7/18
f 5/12/3 3/7/3 6/9/3
f 7/16/4 5/12/4 8/13/4
f 9/71/5 7/16/5 10/17/5
f 11/25/6 9/20/6 12/22/6
f 13/29/7 11/25/7 14/26/7
f 15/72/8 13/29/8 16/30/8
f 17/38/9 15/33/9 18/35/9
f 19/42/10 17/38/10 20/39/10
f 20/39/11 22/46/11 21/43/11
f 22/46/12 24/50/12 23/47/12
f 24/50/13 26/73/13 25/51/13
f 26/55/14 28/59/14 27/56/14
f 28/59/15 30/63/15 29/60/15
f 30/63/16 32/74/16 31/64/16
f 32/68/17 34/70/17 33/69/17
f 34/70/18 4/8/18 3/7/18
