# Blender v2.66 (sub 1) OBJ File: 'mesh_Container6.blend'
# www.blender.org
mtllib mesh_Container6.mtl
o Solid
v 0.187295 0.333559 -0.141393
v -0.060193 0.333559 -0.284280
v -0.183936 0.333559 -0.212837
v -0.183936 0.333559 0.072937
v -0.060193 0.333559 0.144380
v 0.187295 0.333559 0.001493
v 0.470138 -0.416441 -0.284280
v 0.552633 -0.183108 -0.141393
v 0.552633 -0.183108 0.001493
v 0.470138 -0.416441 0.144380
v 0.428890 -0.533108 0.072937
v 0.428890 -0.533108 -0.212837
v -0.242862 -0.183108 -0.600673
v -0.077870 -0.416441 -0.600673
v -0.119118 -0.533108 -0.529229
v -0.366605 -0.533108 -0.386342
v -0.449101 -0.416441 -0.386342
v -0.366605 -0.183108 -0.529229
v -0.366605 -0.183108 0.389329
v -0.449101 -0.416441 0.246442
v -0.366605 -0.533108 0.246442
v -0.119118 -0.533108 0.389329
v -0.077870 -0.416441 0.460773
v -0.242862 -0.183108 0.460773
vt 1.000000 0.129161
vt 0.888110 0.193914
vt 0.887912 0.000000
vt 0.832099 0.161652
vt 0.831967 0.032376
vt 0.813473 0.609405
vt 0.813605 0.480129
vt 0.981440 0.577258
vt 0.869616 0.447867
vt 0.981506 0.512620
vt 0.981506 0.770942
vt 0.869616 0.835695
vt 0.981440 0.706304
vt 0.813605 0.803433
vt 0.869418 0.641781
vt 1.000000 0.383115
vt 0.888110 0.447867
vt 0.999934 0.318477
vt 0.832099 0.415606
vt 0.887912 0.253954
vt 0.416375 0.512352
vt 0.453694 0.512391
vt 0.453401 0.798644
vt 0.453694 0.383344
vt 0.416375 0.383382
vt 0.416083 0.097129
vt 0.000293 0.096785
vt 0.037611 0.096823
vt 0.000000 0.383039
vt 0.416083 0.143380
vt 0.397390 0.175680
vt 0.168326 0.000000
vt 0.831967 0.142873
vt 0.813340 0.175211
vt 0.565291 0.032338
vt 0.397258 0.304956
vt 0.415884 0.337294
vt 0.149209 0.447829
vt 0.565291 0.863396
vt 0.813473 0.591247
vt 0.565716 0.447867
vt 0.037319 0.383077
vt 0.111890 0.895697
vt 0.000000 0.830944
vt 0.360071 0.623547
vt 0.000293 0.544690
vt 0.112315 0.480167
vt 0.453401 0.097090
vt 0.813473 0.304487
vt 0.999934 0.064523
vt 0.813473 0.674157
vt 0.831967 0.286330
vt 0.416083 0.798606
vt 0.149634 0.032300
vt 0.583917 0.000000
vt 0.167835 0.480167
vt 0.813340 0.720523
vt 0.359939 0.752823
vn 0.000000 1.000000 0.000000
vn 0.942809 -0.333333 0.000000
vn -0.471404 -0.333334 -0.816497
vn -0.471405 -0.333333 -0.816497
vn -0.471405 -0.333333 0.816497
vn -0.471404 -0.333333 0.816497
vn 0.816497 0.577350 -0.000000
vn 0.408248 -0.577350 -0.707107
vn -0.408248 0.577350 -0.707107
vn -0.816497 -0.577350 0.000000
vn 0.408248 -0.577350 0.707107
vn -0.408248 0.577350 0.707107
vn 0.471405 0.333333 -0.816497
vn 0.471405 0.333333 -0.816496
vn -0.942809 0.333333 0.000000
vn 0.471405 0.333333 0.816497
vn 0.000000 -1.000000 0.000000
vn -0.471405 -0.333333 -0.816496
vn 0.471404 0.333333 0.816496
usemtl None
s off
f 3/1/1 4/2/1 1/3/1
f 4/2/1 5/4/1 6/5/1
f 9/6/2 10/7/2 7/8/2
f 10/7/2 11/9/2 12/10/2
f 15/11/3 16/12/3 14/13/3
f 16/12/4 17/14/4 13/15/4
f 21/16/5 22/17/5 20/18/5
f 22/17/6 23/19/6 19/20/6
f 9/21/7 8/22/7 1/23/7
f 15/24/8 14/25/8 7/26/8
f 13/27/9 18/28/9 2/29/9
f 21/30/10 20/31/10 16/32/10
f 23/33/11 22/34/11 11/35/11
f 19/36/12 24/37/12 4/38/12
f 2/39/13 1/23/13 14/40/13
f 1/23/14 8/22/14 7/41/14
f 4/38/15 3/42/15 19/36/15
f 3/42/15 18/28/15 20/31/15
f 6/43/16 5/44/16 10/45/16
f 5/44/16 24/46/16 23/47/16
f 12/48/17 11/35/17 16/41/17
f 11/35/17 22/34/17 21/49/17
f 2/50/1 3/1/1 1/3/1
f 1/3/1 4/2/1 6/5/1
f 8/15/2 9/6/2 7/8/2
f 7/8/2 10/7/2 12/10/2
f 16/12/4 13/15/4 14/13/4
f 17/14/18 18/51/18 13/15/18
f 22/17/5 19/20/5 20/18/5
f 23/19/6 24/52/6 19/20/6
f 6/53/7 9/21/7 1/23/7
f 12/48/8 15/24/8 7/26/8
f 18/28/9 3/42/9 2/29/9
f 20/31/10 17/54/10 16/32/10
f 10/55/11 23/33/11 11/35/11
f 24/37/12 5/56/12 4/38/12
f 13/57/14 2/39/14 14/40/14
f 14/40/13 1/23/13 7/41/13
f 3/42/15 20/31/15 19/36/15
f 18/28/15 17/54/15 20/31/15
f 9/58/16 6/43/16 10/45/16
f 10/45/19 5/44/19 23/47/19
f 15/24/17 12/48/17 16/41/17
f 16/41/17 11/35/17 21/49/17
