# Blender v2.66 (sub 1) OBJ File: 'mesh_Frame6.blend'
# www.blender.org
mtllib mesh_Frame6.mtl
o Cylinder_Cylinder.005
v 0.000000 -0.100000 -1.000000
v 0.000000 0.100000 -1.000000
v 0.382683 -0.100000 -0.923880
v 0.382683 0.100000 -0.923880
v 0.707107 -0.100000 -0.707107
v 0.707107 0.100000 -0.707107
v 0.923880 -0.100000 -0.382683
v 0.923880 0.100000 -0.382683
v 1.000000 -0.100000 0.000000
v 1.000000 0.100000 0.000000
v 0.923880 -0.100000 0.382684
v 0.923880 0.100000 0.382684
v 0.707107 -0.100000 0.707107
v 0.707107 0.100000 0.707107
v 0.382683 -0.100000 0.923880
v 0.382683 0.100000 0.923880
v 0.000000 -0.100000 1.000000
v 0.000000 0.100000 1.000000
v -0.382683 -0.100000 0.923880
v -0.382683 0.100000 0.923880
v -0.707107 -0.100000 0.707107
v -0.707107 0.100000 0.707107
v -0.923880 -0.100000 0.382684
v -0.923880 0.100000 0.382684
v -1.000000 -0.100000 -0.000000
v -1.000000 0.100000 -0.000000
v -0.923879 -0.100000 -0.382684
v -0.923879 0.100000 -0.382684
v -0.707107 -0.100000 -0.707107
v -0.707107 0.100000 -0.707107
v -0.382683 -0.100000 -0.923880
v -0.382683 0.100000 -0.923880
v 0.000000 -0.100000 -0.900000
v 0.000000 0.100000 -0.900000
v 0.344415 -0.100000 -0.831492
v 0.344415 0.100000 -0.831492
v 0.636396 -0.100000 -0.636396
v 0.636396 0.100000 -0.636396
v 0.831492 -0.100000 -0.344415
v 0.831492 0.100000 -0.344415
v 0.900000 -0.100000 0.000000
v 0.900000 0.100000 0.000000
v 0.831492 -0.100000 0.344415
v 0.831492 0.100000 0.344415
v 0.636396 -0.100000 0.636396
v 0.636396 0.100000 0.636396
v 0.344415 -0.100000 0.831492
v 0.344415 0.100000 0.831492
v 0.000000 -0.100000 0.900000
v 0.000000 0.100000 0.900000
v -0.344415 -0.100000 0.831492
v -0.344415 0.100000 0.831492
v -0.636396 -0.100000 0.636396
v -0.636396 0.100000 0.636396
v -0.831492 -0.100000 0.344415
v -0.831492 0.100000 0.344415
v -0.900000 -0.100000 -0.000000
v -0.900000 0.100000 -0.000000
v -0.831492 -0.100000 -0.344415
v -0.831492 0.100000 -0.344415
v -0.636396 -0.100000 -0.636396
v -0.636396 0.100000 -0.636396
v -0.344415 -0.100000 -0.831492
v -0.344415 0.100000 -0.831492
vt 0.198913 0.601959
vt 0.198913 0.550980
vt 0.298369 0.550980
vt 0.298369 0.601959
vt 0.397825 0.550980
vt 0.198912 0.601959
vt 0.198912 0.652939
vt 0.099456 0.652939
vt 0.397825 0.601959
vt 0.397825 0.652939
vt 0.298369 0.652939
vt 0.596737 0.550980
vt 0.596737 0.601959
vt 0.497281 0.601959
vt 0.596737 0.652939
vt 0.497281 0.652939
vt 0.397825 0.500000
vt 0.298369 0.500000
vt 0.596737 0.500000
vt 0.497281 0.500000
vt 0.497281 0.550980
vt 0.099456 0.601959
vt 0.099456 0.550980
vt 0.000000 0.550980
vt 0.000000 0.500000
vt 0.961940 0.391614
vt 0.891614 0.461940
vt 0.877452 0.440746
vt 0.000000 0.601959
vt 0.099456 0.500000
vt 0.038060 0.108386
vt 0.108386 0.038060
vt 0.122548 0.059254
vt 0.099456 0.703919
vt 0.009946 0.703919
vt 0.686248 0.652939
vt 0.686248 0.703918
vt 0.500000 0.299728
vt 0.500000 0.200272
vt 0.525000 0.205244
vt 0.200272 0.500000
vt 0.108386 0.461940
vt 0.122548 0.440746
vt 0.799728 0.000000
vt 0.891613 0.038060
vt 0.877452 0.059254
vt 0.200272 0.000000
vt 0.299728 0.000000
vt 0.294755 0.025000
vt 0.475000 0.294755
vt 0.608386 0.461940
vt 0.538060 0.391613
vt 0.559254 0.377452
vt 0.038060 0.391614
vt 0.000000 0.299728
vt 0.025000 0.294755
vt 0.608387 0.038060
vt 0.700272 0.000000
vt 0.705245 0.025000
vt 0.461940 0.391614
vt 0.391614 0.461940
vt 0.377452 0.440746
vt 0.799728 0.500000
vt 0.700272 0.500000
vt 0.705245 0.475000
vt 1.000000 0.200272
vt 1.000000 0.299728
vt 0.975000 0.294755
vt 0.000000 0.200272
vt 0.059254 0.122548
vt 0.538061 0.108386
vt 0.559254 0.122548
vt 0.299728 0.500000
vt 0.205245 0.475000
vt 0.961940 0.108386
vt 0.940746 0.122548
vt 0.205245 0.025000
vt 0.461940 0.108387
vt 0.475000 0.205245
vt 0.525000 0.294755
vt 0.059254 0.377452
vt 0.794755 0.025000
vt 0.391614 0.038060
vt 0.377452 0.059254
vt 0.440746 0.377452
vt 0.622548 0.440746
vt 0.940746 0.377452
vt 0.440746 0.122548
vt 0.025000 0.205245
vt 0.622548 0.059254
vt 0.294755 0.475000
vt 0.794755 0.475000
vt 0.975000 0.205245
vt 0.009946 0.652939
vt 0.586792 0.652939
vt 0.586792 0.703918
vt 0.497281 0.703918
vt 0.188967 0.652939
vt 0.188967 0.703918
vt 0.099456 0.703918
vt 0.208858 0.652939
vt 0.686248 0.500000
vt 0.686248 0.550980
vt 0.686248 0.601959
vt 0.099456 0.754898
vt 0.308314 0.703919
vt 0.308314 0.652939
vt 0.397825 0.703919
vt 0.198912 0.703918
vt 0.288423 0.703918
vt 0.009946 0.754898
vt 0.009946 0.703918
vt 0.487335 0.703919
vt 0.288423 0.754898
vt 0.377934 0.754898
vt 0.198913 0.500000
vt 0.198912 0.500000
vt 0.596737 0.703918
vt 0.009946 0.601959
vt 0.208858 0.601959
vt 0.188967 0.754898
vt 0.288423 0.652939
vt 0.487335 0.652939
vt 0.377934 0.703918
vt 0.198912 0.754898
vn 0.195090 0.000000 -0.980785
vn 0.555570 0.000000 -0.831470
vn 0.831470 0.000000 -0.555570
vn 0.980785 0.000000 -0.195090
vn 0.980785 0.000000 0.195090
vn 0.831470 0.000000 0.555570
vn 0.555570 0.000000 0.831470
vn 0.195090 0.000000 0.980785
vn -0.195090 0.000000 0.980785
vn -0.555570 0.000000 0.831470
vn -0.831469 0.000000 0.555570
vn -0.980785 0.000000 0.195090
vn -0.980785 -0.000000 -0.195090
vn -0.831469 -0.000000 -0.555570
vn -0.000000 1.000000 0.000000
vn -0.195090 -0.000000 -0.980785
vn -0.555570 -0.000000 -0.831470
vn -0.000000 -1.000000 0.000000
vn 0.831469 0.000000 0.555571
vn 0.831469 0.000000 -0.555571
vn -0.831470 -0.000000 -0.555570
vn -0.831470 0.000000 0.555570
usemtl None
s off
f 1/1/1 2/2/1 4/3/1
f 3/4/2 4/3/2 6/5/2
f 5/6/3 6/7/3 8/8/3
f 7/9/4 8/10/4 10/11/4
f 9/12/5 10/13/5 12/14/5
f 11/13/6 12/15/6 14/16/6
f 13/17/7 14/5/7 16/3/7
f 15/18/8 16/3/8 18/2/8
f 17/19/9 18/12/9 19/20/9
f 19/20/10 20/21/10 21/17/10
f 21/9/11 22/5/11 23/14/11
f 23/10/12 24/9/12 25/16/12
f 25/22/13 26/23/13 27/6/13
f 27/24/14 28/25/14 29/23/14
f 4/26/15 2/27/15 34/28/15
f 31/29/16 32/24/16 1/22/16
f 29/23/17 30/30/17 31/2/17
f 25/31/18 27/32/18 59/33/18
f 33/8/8 34/34/8 64/35/8
f 35/36/9 36/37/9 33/15/9
f 24/38/15 22/39/15 54/40/15
f 15/41/18 17/42/18 49/43/18
f 14/44/15 12/45/15 44/46/15
f 29/47/18 31/48/18 63/49/18
f 5/39/18 7/38/18 39/50/18
f 28/51/15 26/52/15 58/53/15
f 19/54/18 21/55/18 53/56/18
f 18/57/15 16/58/15 48/59/15
f 9/60/18 11/61/18 43/62/18
f 32/63/15 30/64/15 62/65/15
f 8/66/15 6/67/15 38/68/15
f 23/69/18 25/31/18 57/70/18
f 22/39/15 20/71/15 52/72/15
f 13/73/18 15/41/18 47/74/18
f 12/45/15 10/75/15 42/76/15
f 27/32/18 29/47/18 61/77/18
f 3/78/18 5/39/18 37/79/18
f 26/52/15 24/38/15 56/80/15
f 17/42/18 19/54/18 51/81/18
f 16/58/15 14/44/15 46/82/15
f 31/48/18 1/83/18 33/84/18
f 7/38/18 9/60/18 41/85/18
f 30/64/15 28/51/15 60/86/15
f 6/67/15 4/26/15 36/87/15
f 1/83/18 3/78/18 35/88/18
f 21/55/18 23/69/18 55/89/18
f 20/71/15 18/57/15 50/90/15
f 11/61/18 13/73/18 45/91/18
f 2/27/15 32/63/15 64/92/15
f 10/75/15 8/66/15 40/93/15
f 63/22/7 64/8/7 62/94/7
f 61/95/19 62/96/19 60/97/19
f 59/98/5 60/99/5 58/100/5
f 57/4/4 58/11/4 56/101/4
f 55/102/20 56/103/20 54/12/20
f 53/15/2 54/13/2 52/104/2
f 51/105/1 52/100/1 50/99/1
f 49/106/16 50/107/16 47/108/16
f 47/109/17 48/7/17 45/110/17
f 45/111/21 46/112/21 43/105/21
f 43/108/13 44/10/13 41/113/13
f 41/114/12 42/110/12 39/115/12
f 39/13/22 40/12/22 37/104/22
f 37/110/10 38/114/10 35/109/10
f 3/4/1 1/1/1 4/3/1
f 5/9/2 3/4/2 6/5/2
f 7/22/3 5/6/3 8/8/3
f 9/4/4 7/9/4 10/11/4
f 11/21/5 9/12/5 12/14/5
f 13/14/6 11/13/6 14/16/6
f 15/18/7 13/17/7 16/3/7
f 17/116/8 15/18/8 18/2/8
f 18/12/9 20/21/9 19/20/9
f 20/21/10 22/5/10 21/17/10
f 22/5/11 24/21/11 23/14/11
f 24/9/12 26/14/12 25/16/12
f 26/23/13 28/2/13 27/6/13
f 28/25/14 30/30/14 29/23/14
f 36/87/15 4/26/15 34/28/15
f 32/24/16 2/23/16 1/22/16
f 30/30/17 32/117/17 31/2/17
f 57/70/18 25/31/18 59/33/18
f 63/94/8 33/8/8 64/35/8
f 36/37/9 34/118/9 33/15/9
f 56/80/15 24/38/15 54/40/15
f 47/74/18 15/41/18 49/43/18
f 46/82/15 14/44/15 44/46/15
f 61/77/18 29/47/18 63/49/18
f 37/79/18 5/39/18 39/50/18
f 60/86/15 28/51/15 58/53/15
f 51/81/18 19/54/18 53/56/18
f 50/90/15 18/57/15 48/59/15
f 41/85/18 9/60/18 43/62/18
f 64/92/15 32/63/15 62/65/15
f 40/93/15 8/66/15 38/68/15
f 55/89/18 23/69/18 57/70/18
f 54/40/15 22/39/15 52/72/15
f 45/91/18 13/73/18 47/74/18
f 44/46/15 12/45/15 42/76/15
f 59/33/18 27/32/18 61/77/18
f 35/88/18 3/78/18 37/79/18
f 58/53/15 26/52/15 56/80/15
f 49/43/18 17/42/18 51/81/18
f 48/59/15 16/58/15 46/82/15
f 63/49/18 31/48/18 33/84/18
f 39/50/18 7/38/18 41/85/18
f 62/65/15 30/64/15 60/86/15
f 38/68/15 6/67/15 36/87/15
f 33/84/18 1/83/18 35/88/18
f 53/56/18 21/55/18 55/89/18
f 52/72/15 20/71/15 50/90/15
f 43/62/18 11/61/18 45/91/18
f 34/28/15 2/27/15 64/92/15
f 42/76/15 10/75/15 40/93/15
f 61/119/7 63/22/7 62/94/7
f 59/16/19 61/95/19 60/97/19
f 57/8/5 59/98/5 58/100/5
f 55/120/4 57/4/4 56/101/4
f 53/19/20 55/102/20 54/12/20
f 51/36/2 53/15/2 52/104/2
f 49/121/1 51/105/1 50/99/1
f 50/107/16 48/10/16 47/108/16
f 48/7/17 46/122/17 45/110/17
f 46/112/21 44/100/21 43/105/21
f 44/10/13 42/123/13 41/113/13
f 42/110/12 40/124/12 39/115/12
f 40/12/22 38/103/22 37/104/22
f 38/114/10 36/125/10 35/109/10
