# Blender v2.66 (sub 1) OBJ File: 'mesh_DiamondGem_8sided.blend'
# www.blender.org
mtllib mesh_DiamondGem_8sided.mtl
o Diamond.002
v 0.000000 0.350000 0.000000
v 0.000000 -0.800000 0.000000
v 0.600000 0.350000 0.000000
v 1.000000 0.000000 0.000000
v 0.424264 0.350000 0.424264
v 0.707107 0.000000 0.707107
v 0.000000 0.350000 0.600000
v 0.000000 0.000000 1.000000
v -0.424264 0.350000 0.424264
v -0.707107 0.000000 0.707107
v -0.600000 0.350000 0.000000
v -1.000000 0.000000 0.000000
v -0.424264 0.350000 -0.424264
v -0.707107 0.000000 -0.707107
v 0.000000 0.350000 -0.600000
v 0.000000 0.000000 -1.000000
v 0.424264 0.350000 -0.424264
v 0.707106 0.000000 -0.707107
vt 0.330512 0.565515
vt 0.000000 0.565515
vt 0.271484 0.377010
vt 0.330512 0.197531
vt 0.519017 0.469015
vt 0.330511 0.528042
vt 0.661023 0.528042
vt 0.389539 0.716547
vt 0.645921 0.098765
vt 0.330511 0.000000
vt 0.059027 0.754020
vt 0.059027 0.188505
vt 0.000000 0.000000
vt 0.000000 0.377010
vt 0.271484 0.188505
vt 0.330512 0.377010
vt 0.519017 0.197531
vt 0.707521 0.469015
vt 0.519017 0.528042
vt 0.567548 0.847910
vt 0.528042 0.716547
vt 0.725573 0.716547
vt 0.843452 0.000000
vt 0.803946 0.131363
vt 0.685427 0.131363
vt 0.858554 0.585184
vt 0.819048 0.716547
vt 0.700529 0.716547
vt 0.197531 0.754020
vt 0.158025 0.885383
vt 0.000000 0.754020
vt 0.707521 0.197531
vt 0.838884 0.237037
vt 0.707521 0.395061
vt 0.707521 0.526424
vt 0.747028 0.395061
vt 0.905052 0.526424
vt 0.330511 0.847910
vt 0.370018 0.716547
vt 0.528042 0.847910
vt 0.856936 0.914078
vt 0.725573 0.874572
vt 0.725573 0.756053
vt 0.307027 0.863517
vt 0.197531 0.908872
vt 0.582509 0.957406
vt 0.427657 0.957406
vt 0.537153 0.847910
vt 0.888807 0.021866
vt 0.998303 0.131363
vt 0.843452 0.131363
vt 0.838884 0.285565
vt 0.993736 0.285565
vt 0.884239 0.395061
vt 0.838884 0.176068
vt 0.993736 0.176068
vt 0.884239 0.285565
vt 0.045355 0.885383
vt 0.154852 0.994880
vt 0.000000 0.994880
vt 0.725573 0.966428
vt 0.582509 0.907169
vt 0.725573 0.847910
vt 1.000000 0.835065
vt 0.856936 0.775806
vt 1.000000 0.716547
vt 0.686067 0.847910
vt 0.645921 0.000000
vt 0.661023 0.585184
vt 0.039506 0.885383
vt 0.838884 0.355555
vt 0.865546 0.395061
vt 0.488536 0.716547
vt 0.856936 0.716547
vn 0.604777 -0.755971 -0.250507
vn 0.604777 -0.755971 0.250507
vn 0.250507 -0.755971 0.604777
vn -0.250507 -0.755971 0.604777
vn -0.604777 -0.755971 0.250507
vn -0.604777 -0.755971 -0.250507
vn -0.250507 -0.755971 -0.604777
vn 0.250506 -0.755971 -0.604777
vn 0.635296 0.726052 -0.263148
vn 0.635296 0.726052 0.263148
vn 0.263148 0.726052 0.635296
vn -0.263148 0.726052 0.635296
vn -0.635296 0.726052 0.263148
vn -0.635296 0.726052 -0.263148
vn -0.263148 0.726052 -0.635296
vn 0.263148 0.726052 -0.635296
vn 0.000000 1.000000 -0.000000
vn 0.263148 0.726053 -0.635296
usemtl None
s off
f 4/1/1 2/2/1 18/3/1
f 2/4/2 4/5/2 6/6/2
f 2/7/3 6/8/3 8/6/3
f 2/9/4 8/4/4 10/10/4
f 2/1/5 10/11/5 12/2/5
f 2/10/6 12/12/6 14/13/6
f 2/14/7 14/15/7 16/16/7
f 2/17/8 16/18/8 18/19/8
f 3/20/9 4/21/9 18/22/9
f 4/23/10 3/24/10 5/25/10
f 6/26/11 5/27/11 7/28/11
f 8/29/12 7/30/12 10/31/12
f 10/32/13 9/33/13 12/34/13
f 12/35/14 11/36/14 14/37/14
f 14/38/15 13/39/15 16/40/15
f 16/41/16 15/42/16 17/43/16
f 1/29/17 3/44/17 17/45/17
f 3/46/17 1/47/17 5/48/17
f 5/49/17 1/50/17 7/51/17
f 7/52/17 1/53/17 9/54/17
f 9/55/17 1/56/17 11/57/17
f 11/58/17 1/59/17 13/60/17
f 13/61/17 1/62/17 15/63/17
f 15/64/17 1/65/17 17/66/17
f 17/67/9 3/20/9 18/22/9
f 6/68/10 4/23/10 5/25/10
f 8/69/11 6/26/11 7/28/11
f 7/30/12 9/70/12 10/31/12
f 9/33/13 11/71/13 12/34/13
f 11/36/14 13/72/14 14/37/14
f 13/39/15 15/73/15 16/40/15
f 18/74/18 16/41/18 17/43/18
