# Blender v2.66 (sub 1) OBJ File: 'mesh_FlatPyramid_16sided.blend'
# www.blender.org
mtllib mesh_FlatPyramid_16sided.mtl
o Cone_Cone.005
v -0.018945 -0.449774 -0.069950
v -0.018945 0.050226 -0.069950
v -0.018945 -0.449774 -1.069950
v -0.018945 0.050226 -0.569950
v 0.363739 -0.449774 -0.993830
v 0.172397 0.050226 -0.531890
v 0.688162 -0.449774 -0.777057
v 0.334609 0.050226 -0.423503
v 0.904935 -0.449774 -0.452633
v 0.442995 0.050226 -0.261292
v 0.981055 -0.449774 -0.069950
v 0.481055 0.050226 -0.069950
v 0.904935 -0.449774 0.312733
v 0.442995 0.050226 0.121392
v 0.688162 -0.449774 0.637157
v 0.334609 0.050226 0.283603
v 0.363739 -0.449774 0.853929
v 0.172397 0.050226 0.391990
v -0.018944 -0.449774 0.930050
v -0.018945 0.050226 0.430050
v -0.401628 -0.449774 0.853930
v -0.210286 0.050226 0.391990
v -0.726051 -0.449774 0.637157
v -0.372498 0.050226 0.283603
v -0.942824 -0.449774 0.312734
v -0.480884 0.050226 0.121392
v -1.018945 -0.449774 -0.069950
v -0.518945 0.050226 -0.069950
v -0.942824 -0.449774 -0.452634
v -0.480884 0.050226 -0.261292
v -0.726051 -0.449774 -0.777057
v -0.372498 0.050226 -0.423504
v -0.401628 -0.449774 -0.993830
v -0.210286 0.050226 -0.531890
vt 0.310195 0.310195
vt 0.248493 0.000000
vt 0.371896 0.000000
vt 0.155097 0.775486
vt 0.286582 0.863342
vt 0.242953 0.906971
vt 0.876597 0.620389
vt 0.845746 0.841889
vt 0.784045 0.841889
vt 0.485906 0.047224
vt 0.310194 0.806337
vt 0.867195 0.344903
vt 0.836344 0.566402
vt 0.774643 0.566402
vt 0.573165 0.134484
vt 0.310195 0.744636
vt 0.753194 0.990598
vt 0.531694 0.959747
vt 0.531694 0.898046
vt 0.620389 0.248493
vt 0.286582 0.687631
vt 0.531694 0.867195
vt 0.310195 0.836344
vt 0.310195 0.774643
vt 0.620389 0.371896
vt 0.242953 0.644001
vt 0.743792 0.344903
vt 0.712941 0.566402
vt 0.651240 0.566402
vt 0.573165 0.485906
vt 0.185948 0.620389
vt 0.990598 0.344903
vt 0.959748 0.566402
vt 0.898046 0.566402
vt 0.485906 0.573165
vt 0.124247 0.620389
vt 1.000000 0.620389
vt 0.969149 0.841889
vt 0.907448 0.841889
vt 0.371896 0.620389
vt 0.067242 0.644001
vt 0.990598 0.123403
vt 0.959747 0.344903
vt 0.898046 0.344903
vt 0.248493 0.620389
vt 0.023612 0.687631
vt 0.753194 0.841889
vt 0.974694 0.872739
vt 0.753194 0.965292
vt 0.134484 0.573165
vt 0.000000 0.744635
vt 0.531694 0.743792
vt 0.753194 0.774643
vt 0.047224 0.485906
vt 0.000000 0.806337
vt 0.743792 0.000000
vt 0.712941 0.221500
vt 0.620389 0.000000
vt 0.000000 0.371896
vt 0.023612 0.863342
vt 0.867195 0.000000
vt 0.836344 0.221500
vt 0.000000 0.248493
vt 0.067242 0.906971
vt 0.310195 0.620389
vt 0.531694 0.651240
vt 0.310195 0.743792
vt 0.047224 0.134483
vt 0.124247 0.930584
vt 0.620389 0.221500
vt 0.841889 0.252350
vt 0.620389 0.344903
vt 0.134484 0.047224
vt 0.185948 0.930584
vt 0.753194 0.743792
vt 0.531694 0.712941
vt 0.753194 0.620389
vt 0.531694 0.990598
vt 0.310195 0.959747
vt 0.753194 0.867195
vt 0.867195 0.123403
vt 0.974694 0.934441
vt 0.753194 0.836344
vt 0.651240 0.221500
vt 0.774643 0.221500
vt 0.841889 0.314052
vt 0.310195 0.898046
vn -0.000000 -1.000000 0.000000
vn 0.000000 1.000000 -0.000000
vn 0.139281 0.700214 -0.700215
vn 0.396640 0.700214 -0.593613
vn 0.593613 0.700215 -0.396640
vn 0.700215 0.700214 -0.139281
vn 0.700215 0.700214 0.139281
vn 0.593613 0.700214 0.396640
vn 0.396640 0.700214 0.593613
vn 0.139281 0.700215 0.700214
vn -0.139281 0.700214 0.700214
vn -0.396639 0.700215 0.593613
vn -0.593613 0.700215 0.396640
vn -0.700214 0.700215 0.139281
vn -0.700214 0.700214 -0.139281
vn -0.593613 0.700215 -0.396640
vn -0.396639 0.700215 -0.593613
vn -0.139281 0.700215 -0.700215
vn 0.396640 0.700215 -0.593613
vn 0.593613 0.700214 -0.396640
vn 0.593613 0.700215 0.396640
vn -0.139281 0.700214 0.700215
vn -0.396639 0.700214 0.593613
vn -0.700214 0.700214 0.139281
vn -0.700214 0.700215 -0.139282
vn -0.396640 0.700214 -0.593613
usemtl None
s off
f 1/1/1 3/2/1 5/3/1
f 2/4/2 6/5/2 4/6/2
f 3/7/3 4/8/3 6/9/3
f 1/1/1 5/3/1 7/10/1
f 2/4/2 8/11/2 6/5/2
f 5/12/4 6/13/4 8/14/4
f 1/1/1 7/10/1 9/15/1
f 2/4/2 10/16/2 8/11/2
f 7/17/5 8/18/5 10/19/5
f 1/1/1 9/15/1 11/20/1
f 2/4/2 12/21/2 10/16/2
f 9/22/6 10/23/6 12/24/6
f 1/1/1 11/20/1 13/25/1
f 2/4/2 14/26/2 12/21/2
f 11/27/7 12/28/7 14/29/7
f 1/1/1 13/25/1 15/30/1
f 2/4/2 16/31/2 14/26/2
f 13/32/8 14/33/8 16/34/8
f 1/1/1 15/30/1 17/35/1
f 2/4/2 18/36/2 16/31/2
f 15/37/9 16/38/9 18/39/9
f 1/1/1 17/35/1 19/40/1
f 2/4/2 20/41/2 18/36/2
f 17/42/10 18/43/10 20/44/10
f 1/1/1 19/40/1 21/45/1
f 2/4/2 22/46/2 20/41/2
f 19/47/11 20/48/11 21/49/11
f 1/1/1 21/45/1 23/50/1
f 2/4/2 24/51/2 22/46/2
f 21/52/12 22/53/12 23/22/12
f 1/1/1 23/50/1 25/54/1
f 2/4/2 26/55/2 24/51/2
f 23/56/13 24/57/13 25/58/13
f 1/1/1 25/54/1 27/59/1
f 2/4/2 28/60/2 26/55/2
f 25/61/14 26/62/14 27/56/14
f 1/1/1 27/59/1 29/63/1
f 2/4/2 30/64/2 28/60/2
f 27/65/15 28/66/15 29/67/15
f 1/1/1 29/63/1 31/68/1
f 2/4/2 32/69/2 30/64/2
f 29/70/16 30/71/16 31/72/16
f 1/1/1 31/68/1 33/73/1
f 2/4/2 34/74/2 32/69/2
f 31/75/17 32/76/17 33/77/17
f 1/1/1 33/73/1 3/2/1
f 2/4/2 4/6/2 34/74/2
f 33/78/18 34/79/18 3/22/18
f 5/77/3 3/7/3 6/9/3
f 7/27/19 5/12/19 8/14/19
f 9/80/20 7/17/20 10/19/20
f 11/52/6 9/22/6 12/24/6
f 13/72/7 11/27/7 14/29/7
f 15/12/21 13/32/21 16/34/21
f 17/7/9 15/37/9 18/39/9
f 19/81/10 17/42/10 20/44/10
f 20/48/22 22/82/22 21/49/22
f 22/53/23 24/83/23 23/22/23
f 24/57/13 26/84/13 25/58/13
f 26/62/24 28/85/24 27/56/24
f 28/66/25 30/76/25 29/67/25
f 30/71/16 32/86/16 31/72/16
f 32/76/26 34/66/26 33/77/26
f 34/79/18 4/87/18 3/22/18
