# Blender v2.68 (sub 0) OBJ File: 'mesh_RampRound11.blend'
# www.blender.org
mtllib mesh_RampRound11.mtl
o Cube.001_Cube.004
v -2.000000 0.000000 -2.000000
v -1.609820 0.038429 -1.609820
v -1.234634 0.152241 -1.234633
v -0.038429 1.609820 -0.038430
v -0.888860 0.337061 -0.888860
v -0.152241 1.234633 -0.152241
v -0.585787 0.585786 -0.585787
v -0.337061 0.888860 -0.337061
v 2.000000 -0.000000 -2.000000
v -0.000000 -0.000000 -2.000000
v 1.609820 0.038429 -1.609820
v 0.000000 0.038429 -1.609820
v 0.000000 0.152241 -1.234634
v 0.000000 1.609820 -0.038430
v 0.000000 1.234633 -0.152241
v 0.000000 0.337061 -0.888860
v 0.000000 0.585786 -0.585787
v 0.000000 0.888860 -0.337061
v 1.234634 0.152241 -1.234634
v 0.038430 1.609820 -0.038430
v 0.888860 0.337061 -0.888860
v 0.152241 1.234633 -0.152241
v 0.585787 0.585786 -0.585787
v 0.337061 0.888860 -0.337061
v -2.000000 0.000000 0.000000
v -2.000000 0.000000 2.000000
v -1.609820 0.038429 0.000000
v -1.609819 0.038429 1.609820
v -1.234633 0.152241 0.000000
v -1.234633 0.152241 1.234634
v -0.038429 1.609820 0.000000
v -0.038429 1.609820 0.038430
v -0.888860 0.337061 0.000000
v -0.888860 0.337061 0.888860
v -0.152241 1.234633 0.000000
v -0.152241 1.234633 0.152241
v -0.585786 0.585786 0.000000
v -0.585786 0.585786 0.585787
v -0.337061 0.888860 0.000000
v -0.337061 0.888860 0.337061
v 0.000000 -0.000000 0.000000
v 2.000000 -0.000000 -0.000000
v 2.000000 -0.000000 2.000000
v 0.000000 -0.000000 2.000000
v 1.609820 0.038429 -0.000000
v 1.609820 0.038429 1.609820
v 0.000000 0.038429 1.609820
v 0.000000 2.000000 0.000000
v 0.000000 2.000000 0.000000
v 0.000000 0.152241 1.234634
v 0.000000 1.609820 0.038430
v 0.000000 1.234633 0.152241
v 0.000000 0.337061 0.888860
v 0.000000 0.585786 0.585787
v 0.000000 0.888860 0.337061
v 1.234634 0.152241 -0.000000
v 1.234634 0.152241 1.234633
v 0.038430 1.609820 0.000000
v 0.038430 1.609820 0.038430
v 0.888860 0.337061 -0.000000
v 0.888860 0.337061 0.888860
v 0.152241 1.234633 0.000000
v 0.152241 1.234633 0.152241
v 0.585787 0.585786 0.000000
v 0.585787 0.585786 0.585787
v 0.337061 0.888860 0.000000
v 0.337061 0.888860 0.337061
vt 0.190294 0.190294
vt 0.380415 0.190294
vt 0.190294 0.380415
vt 0.701717 0.544206
vt 0.738976 0.544206
vt 0.701716 0.734267
vt 0.776235 0.544206
vt 0.738974 0.697189
vt 0.813494 0.544207
vt 0.776233 0.661535
vt 0.850754 0.544207
vt 0.813492 0.628676
vt 0.888013 0.544208
vt 0.850752 0.599876
vt 0.925274 0.544209
vt 0.888012 0.576240
vt 0.962552 0.544211
vt 0.925273 0.558678
vt 0.999827 0.543888
vt 0.962536 0.547864
vt 0.541068 0.102386
vt 0.701371 0.000173
vt 0.561105 0.133812
vt 0.680101 0.102138
vt 0.581143 0.165237
vt 0.690135 0.051538
vt 0.672425 0.151235
vt 0.601180 0.196663
vt 0.668171 0.198150
vt 0.621218 0.228089
vt 0.668272 0.242288
vt 0.641255 0.259515
vt 0.673497 0.283161
vt 0.661294 0.290942
vt 0.684412 0.320404
vt 0.681332 0.322368
vt 0.701371 0.353795
vt 0.000173 0.190294
vt 0.298298 0.570819
vt 0.298305 0.760876
vt 0.261040 0.570819
vt 0.261045 0.723800
vt 0.223782 0.570819
vt 0.223786 0.688148
vt 0.186522 0.570820
vt 0.186525 0.655290
vt 0.149262 0.570820
vt 0.149264 0.626490
vt 0.112001 0.570820
vt 0.112002 0.602854
vt 0.074739 0.570820
vt 0.074740 0.585290
vt 0.037459 0.570821
vt 0.037475 0.574474
vt 0.000173 0.570496
vt 0.380761 0.204598
vt 0.482182 0.228335
vt 0.432072 0.216083
vt 0.529934 0.242090
vt 0.574264 0.258027
vt 0.614238 0.276741
vt 0.649090 0.298722
vt 0.678252 0.324333
vt 0.190294 0.000173
vt 0.701716 0.354140
vt 0.738975 0.391220
vt 0.776235 0.426875
vt 0.813495 0.459735
vt 0.850754 0.488538
vt 0.888014 0.512176
vt 0.925274 0.529741
vt 0.962536 0.540558
vt 0.541065 0.605547
vt 0.561103 0.574122
vt 0.701370 0.707764
vt 0.680100 0.605797
vt 0.690134 0.656397
vt 0.581141 0.542697
vt 0.672423 0.556700
vt 0.601179 0.511271
vt 0.668169 0.509785
vt 0.621217 0.479846
vt 0.668271 0.465647
vt 0.641255 0.448420
vt 0.673496 0.424775
vt 0.661293 0.416994
vt 0.684412 0.387531
vt 0.681331 0.385567
vt 0.701370 0.354140
vt 0.298305 0.380761
vt 0.261045 0.417837
vt 0.223785 0.453490
vt 0.186524 0.486348
vt 0.149263 0.515149
vt 0.112002 0.538786
vt 0.074740 0.556351
vt 0.037475 0.567167
vt 0.380761 0.503331
vt 0.482182 0.479597
vt 0.432072 0.491847
vt 0.529934 0.465844
vt 0.574264 0.449908
vt 0.614238 0.431194
vt 0.649090 0.409213
vt 0.678251 0.383603
vt 0.380415 0.380415
vt 0.999827 0.544537
vt 0.000173 0.380415
vt 0.000173 0.571145
vt 0.380415 0.000173
vt 0.999817 0.543232
vt 0.000173 0.000173
vt 0.000183 0.569840
vn -0.000000 -1.000000 0.000000
vn -0.098017 0.995185 0.000000
vn -0.290285 0.956940 0.000000
vn -0.471396 0.881921 0.000000
vn -0.634393 0.773010 0.000000
vn -0.773010 0.634394 0.000000
vn -0.881921 0.471397 0.000000
vn -0.956940 0.290284 0.000000
vn -0.995185 0.098018 0.000000
vn 0.000000 0.995185 -0.098017
vn 0.000000 0.956940 -0.290285
vn -0.000000 0.881921 -0.471397
vn -0.000000 0.773010 -0.634393
vn -0.000000 0.634394 -0.773010
vn -0.000000 0.471397 -0.881921
vn -0.000000 0.290284 -0.956940
vn -0.000000 0.098018 -0.995185
vn 0.098017 0.995185 -0.000000
vn 0.290285 0.956940 -0.000000
vn 0.471396 0.881921 -0.000000
vn 0.634394 0.773010 -0.000000
vn 0.773010 0.634393 -0.000000
vn 0.881921 0.471397 -0.000000
vn 0.956940 0.290284 -0.000000
vn 0.995185 0.098017 -0.000000
vn 0.000000 0.634393 -0.773010
vn -0.995185 0.098017 0.000000
vn 0.000000 0.995185 0.098017
vn 0.000000 0.956940 0.290285
vn 0.000000 0.881921 0.471397
vn 0.000000 0.773010 0.634393
vn -0.000000 0.634394 0.773010
vn 0.000000 0.471397 0.881921
vn 0.000000 0.290284 0.956940
vn 0.000000 0.098017 0.995185
vn 0.000000 0.773011 0.634393
vn 0.000000 0.634393 0.773010
vn 0.995185 -0.098018 -0.000000
vn -0.000000 0.773010 -0.634394
vn -0.000000 0.290284 -0.956941
vn 0.634393 0.773010 -0.000000
vn -0.995185 -0.098017 0.000000
vn 0.000000 0.773010 0.634394
vn 0.471396 0.881922 -0.000000
usemtl None
s off
f 41/1/1 25/2/1 10/3/1
f 25/4/2 27/5/2 1/6/2
f 27/5/3 29/7/3 2/8/3
f 29/7/4 33/9/4 3/10/4
f 33/9/5 37/11/5 5/12/5
f 37/11/6 39/13/6 7/14/6
f 39/13/7 35/15/7 8/16/7
f 35/15/8 31/17/8 6/18/8
f 31/17/9 49/19/9 4/20/9
f 10/21/10 1/22/10 12/23/10
f 3/24/11 13/25/11 2/26/11
f 5/27/12 16/28/12 3/24/12
f 7/29/13 17/30/13 5/27/13
f 8/31/14 18/32/14 7/29/14
f 6/33/15 15/34/15 8/31/15
f 4/35/16 14/36/16 6/33/16
f 4/35/17 48/37/17 14/36/17
f 41/1/1 10/3/1 42/38/1
f 42/39/18 9/40/18 45/41/18
f 45/41/19 11/42/19 56/43/19
f 56/43/20 19/44/20 60/45/20
f 60/45/21 21/46/21 64/47/21
f 64/47/22 23/48/22 66/49/22
f 66/49/23 24/50/23 62/51/23
f 62/51/24 22/52/24 58/53/24
f 58/53/25 20/54/25 49/55/25
f 10/21/10 12/23/10 9/56/10
f 19/57/11 11/58/11 13/25/11
f 21/59/12 19/57/12 16/28/12
f 23/60/13 21/59/13 17/30/13
f 24/61/26 23/60/26 18/32/26
f 22/62/15 24/61/15 15/34/15
f 20/63/16 22/62/16 14/36/16
f 20/63/17 14/36/17 48/37/17
f 41/1/1 44/64/1 25/2/1
f 25/4/2 26/65/2 27/5/2
f 27/5/3 28/66/3 29/7/3
f 29/7/4 30/67/4 33/9/4
f 33/9/5 34/68/5 37/11/5
f 37/11/6 38/69/6 39/13/6
f 39/13/7 40/70/7 35/15/7
f 35/15/8 36/71/8 31/17/8
f 31/17/27 32/72/27 49/19/27
f 44/73/28 47/74/28 26/75/28
f 30/76/29 28/77/29 50/78/29
f 34/79/30 30/76/30 53/80/30
f 38/81/31 34/79/31 54/82/31
f 40/83/32 38/81/32 55/84/32
f 36/85/33 40/83/33 52/86/33
f 32/87/34 36/85/34 51/88/34
f 32/87/35 51/88/35 48/89/35
f 41/1/1 42/38/1 44/64/1
f 42/39/18 45/41/18 43/90/18
f 45/41/19 56/43/19 46/91/19
f 56/43/20 60/45/20 57/92/20
f 60/45/21 64/47/21 61/93/21
f 64/47/22 66/49/22 65/94/22
f 66/49/23 62/51/23 67/95/23
f 62/51/24 58/53/24 63/96/24
f 58/53/25 49/55/25 59/97/25
f 44/73/28 43/98/28 47/74/28
f 57/99/29 50/78/29 46/100/29
f 61/101/30 53/80/30 57/99/30
f 65/102/36 54/82/36 61/101/36
f 67/103/37 55/84/37 65/102/37
f 63/104/33 52/86/33 67/103/33
f 59/105/34 51/88/34 63/104/34
f 59/105/35 48/89/35 51/88/35
f 25/2/1 1/106/1 10/3/1
f 27/5/2 2/8/2 1/6/2
f 29/7/3 3/10/3 2/8/3
f 33/9/4 5/12/4 3/10/4
f 37/11/5 7/14/5 5/12/5
f 39/13/6 8/16/6 7/14/6
f 35/15/7 6/18/7 8/16/7
f 31/17/8 4/20/8 6/18/8
f 49/19/38 48/107/38 4/20/38
f 1/22/10 2/26/10 12/23/10
f 13/25/11 12/23/11 2/26/11
f 16/28/12 13/25/12 3/24/12
f 17/30/39 16/28/39 5/27/39
f 18/32/26 17/30/26 7/29/26
f 15/34/15 18/32/15 8/31/15
f 14/36/40 15/34/40 6/33/40
f 10/3/1 9/108/1 42/38/1
f 9/40/18 11/42/18 45/41/18
f 11/42/19 19/44/19 56/43/19
f 19/44/20 21/46/20 60/45/20
f 21/46/41 23/48/41 64/47/41
f 23/48/22 24/50/22 66/49/22
f 24/50/23 22/52/23 62/51/23
f 22/52/24 20/54/24 58/53/24
f 20/54/42 48/109/42 49/55/42
f 12/23/10 11/58/10 9/56/10
f 11/58/11 12/23/11 13/25/11
f 19/57/12 13/25/12 16/28/12
f 21/59/39 16/28/39 17/30/39
f 23/60/26 17/30/26 18/32/26
f 24/61/15 18/32/15 15/34/15
f 22/62/16 15/34/16 14/36/16
f 44/64/1 26/110/1 25/2/1
f 26/65/2 28/66/2 27/5/2
f 28/66/3 30/67/3 29/7/3
f 30/67/4 34/68/4 33/9/4
f 34/68/5 38/69/5 37/11/5
f 38/69/6 40/70/6 39/13/6
f 40/70/7 36/71/7 35/15/7
f 36/71/8 32/72/8 31/17/8
f 32/72/9 48/111/9 49/19/9
f 47/74/28 28/77/28 26/75/28
f 28/77/29 47/74/29 50/78/29
f 30/76/30 50/78/30 53/80/30
f 34/79/43 53/80/43 54/82/43
f 38/81/37 54/82/37 55/84/37
f 40/83/33 55/84/33 52/86/33
f 36/85/34 52/86/34 51/88/34
f 42/38/1 43/112/1 44/64/1
f 45/41/18 46/91/18 43/90/18
f 56/43/19 57/92/19 46/91/19
f 60/45/44 61/93/44 57/92/44
f 64/47/21 65/94/21 61/93/21
f 66/49/22 67/95/22 65/94/22
f 62/51/23 63/96/23 67/95/23
f 58/53/24 59/97/24 63/96/24
f 49/55/25 48/113/25 59/97/25
f 43/98/28 46/100/28 47/74/28
f 50/78/29 47/74/29 46/100/29
f 53/80/30 50/78/30 57/99/30
f 54/82/43 53/80/43 61/101/43
f 55/84/37 54/82/37 65/102/37
f 52/86/33 55/84/33 67/103/33
f 51/88/34 52/86/34 63/104/34
