# Blender v2.66 (sub 1) OBJ File: 'mesh_Shard1.blend'
# www.blender.org
mtllib mesh_Shard1.mtl
o Cone
v 0.000000 1.000000 0.000000
v 0.000000 0.000000 -1.000000
v 1.000000 0.000000 0.000000
v 0.000000 -1.000000 0.000000
v -0.000000 0.000000 1.000000
v -1.000000 0.000000 -0.000000
vt 0.333333 0.622009
vt 0.166667 0.910684
vt 0.000000 0.622009
vt 0.910684 0.333333
vt 0.622009 0.166667
vt 0.910684 0.000000
vt 0.666667 0.955342
vt 0.833333 0.666667
vt 1.000000 0.955342
vt 0.666667 0.910684
vt 0.333333 0.910684
vt 0.500000 0.622009
vt 0.955342 0.666667
vt 0.666667 0.500000
vt 0.955342 0.333333
vt 0.666667 0.333333
vt 0.333333 0.333333
vt 0.333333 0.000000
vt 0.166667 0.622009
vt 0.000000 0.333333
vt 0.000000 0.000000
vn -0.577350 0.577350 0.577350
vn 0.577350 0.577350 -0.577350
vn -0.577350 0.577350 -0.577350
vn 0.577350 0.577350 0.577350
vn -0.577350 -0.577350 0.577350
vn 0.577350 -0.577350 -0.577350
vn -0.577350 -0.577350 -0.577350
vn 0.577350 -0.577350 0.577350
vn 0.000000 1.000000 0.000000
usemtl None
s off
f 5/1/1 1/2/1 6/3/1
f 2/4/2 1/5/2 3/6/2
f 6/7/3 1/8/3 2/9/3
f 3/10/4 1/11/4 5/12/4
f 5/13/5 6/14/5 4/15/5
f 2/16/6 3/12/6 4/17/6
f 6/17/7 2/18/7 4/5/7
f 3/19/8 5/20/8 4/17/8
f 2/20/9 6/21/9 5/18/9
f 3/17/9 2/20/9 5/18/9
