# Blender v2.66 (sub 1) OBJ File: 'mesh_Sphere8x4.blend'
# www.blender.org
mtllib mesh_Sphere8x4.mtl
o Sphere_Sphere.001
v -0.707107 0.707107 0.000000
v -1.000000 -0.000000 0.000000
v -0.707107 -0.707107 0.000000
v -0.500000 0.707107 -0.500000
v -0.707107 -0.000000 -0.707107
v -0.500000 -0.707107 -0.500000
v 0.000000 0.707107 -0.707107
v 0.000000 -0.000000 -1.000000
v 0.000000 -0.707107 -0.707107
v 0.500000 0.707107 -0.500000
v 0.707107 -0.000000 -0.707107
v 0.500000 -0.707107 -0.500000
v 0.707107 0.707107 0.000000
v 1.000000 -0.000000 0.000000
v 0.707107 -0.707107 0.000000
v 0.500000 0.707107 0.500000
v 0.707107 -0.000000 0.707107
v 0.500000 -0.707107 0.500000
v 0.000000 -1.000000 0.000000
v -0.000000 0.707107 0.707107
v -0.000000 -0.000000 1.000000
v -0.000000 -0.707107 0.707107
v 0.000000 1.000000 0.000000
v -0.500000 0.707107 0.500000
v -0.707107 -0.000000 0.707107
v -0.500000 -0.707107 0.500000
vt 0.057941 0.795897
vt 0.000000 0.609093
vt 0.194606 0.774712
vt 0.041325 0.397949
vt 0.182216 0.601384
vt 0.334899 0.773098
vt 0.191517 0.414472
vt 0.335127 0.596923
vt 0.335355 0.420748
vt 0.475648 0.419133
vt 0.488038 0.592462
vt 0.478737 0.779373
vt 0.670254 0.584752
vt 0.612313 0.397949
vt 0.670254 0.186803
vt 0.628929 0.397949
vt 0.478736 0.381425
vt 0.612313 0.000000
vt 0.488038 0.194513
vt 0.475647 0.021185
vt 0.335127 0.198974
vt 0.334898 0.375149
vt 0.182216 0.203435
vt 0.335355 0.022799
vt 0.191517 0.016524
vt 0.835127 0.562822
vt 0.670254 0.631114
vt 0.670254 0.494529
vt 0.670254 0.301368
vt 0.835127 0.233075
vt 0.766834 0.397949
vt 0.903419 0.397949
vt 1.000000 0.301368
vt 0.903420 0.397949
vt 1.000000 0.494529
vt 1.000000 0.164783
vt 0.903420 0.068202
vt 1.000000 0.631114
vt 0.903419 0.727695
vt 0.766834 0.068202
vt 0.766834 0.727695
vt 0.670254 0.164783
vt 0.194606 0.376764
vt 0.000000 0.211145
vt 0.041325 0.000000
vt 0.628929 0.795897
vt 0.057940 0.397948
vn -0.862856 -0.357407 -0.357407
vn -0.862856 0.357407 -0.357407
vn -0.357407 -0.357407 -0.862856
vn -0.357407 0.357407 -0.862856
vn 0.357407 0.357407 -0.862856
vn 0.357407 -0.357407 -0.862856
vn 0.862856 -0.357407 -0.357407
vn 0.862856 0.357407 -0.357407
vn 0.862856 0.357407 0.357407
vn 0.862856 -0.357407 0.357407
vn 0.357407 -0.357407 0.862856
vn 0.357406 0.357407 0.862856
vn -0.357407 0.357407 0.862856
vn -0.357407 -0.357407 0.862856
vn -0.377964 -0.912487 -0.156558
vn -0.377964 0.912487 -0.156558
vn -0.156558 -0.912487 -0.377964
vn -0.156558 0.912487 -0.377964
vn 0.156558 0.912487 -0.377964
vn 0.156558 -0.912487 -0.377964
vn 0.377964 -0.912487 -0.156558
vn 0.377964 0.912487 -0.156558
vn 0.377964 0.912487 0.156558
vn 0.377964 -0.912487 0.156558
vn 0.156558 -0.912487 0.377965
vn 0.156558 0.912487 0.377964
vn -0.156558 -0.912487 0.377964
vn -0.156558 0.912487 0.377964
vn -0.377964 -0.912487 0.156558
vn -0.377964 0.912487 0.156558
vn -0.862856 0.357407 0.357407
vn -0.862856 -0.357407 0.357407
vn 0.357406 -0.357407 0.862856
vn 0.357407 0.357407 0.862856
usemtl None
s off
f 3/1/1 2/2/1 6/3/1
f 2/2/2 1/4/2 5/5/2
f 6/3/3 5/5/3 9/6/3
f 5/5/4 4/7/4 8/8/4
f 8/8/5 7/9/5 10/10/5
f 9/6/6 8/8/6 11/11/6
f 12/12/7 11/11/7 14/13/7
f 11/11/8 10/10/8 13/14/8
f 14/15/9 13/16/9 16/17/9
f 15/18/10 14/15/10 17/19/10
f 18/20/11 17/19/11 21/21/11
f 17/19/12 16/17/12 20/22/12
f 21/21/13 20/22/13 25/23/13
f 22/24/14 21/21/14 26/25/14
f 19/26/15 3/27/15 6/28/15
f 1/29/16 23/30/16 4/31/16
f 19/26/17 6/28/17 9/31/17
f 4/31/18 23/30/18 7/32/18
f 7/32/19 23/30/19 10/33/19
f 19/26/20 9/31/20 12/34/20
f 19/26/21 12/34/21 15/35/21
f 10/33/22 23/30/22 13/36/22
f 13/36/23 23/30/23 16/37/23
f 19/26/24 15/35/24 18/38/24
f 19/26/25 18/38/25 22/39/25
f 16/37/26 23/30/26 20/40/26
f 19/26/27 22/39/27 26/41/27
f 20/40/28 23/30/28 24/42/28
f 19/26/29 26/41/29 3/27/29
f 24/42/30 23/30/30 1/29/30
f 25/23/31 24/43/31 2/44/31
f 26/25/32 25/23/32 3/45/32
f 2/2/1 5/5/1 6/3/1
f 1/4/2 4/7/2 5/5/2
f 5/5/3 8/8/3 9/6/3
f 4/7/4 7/9/4 8/8/4
f 11/11/5 8/8/5 10/10/5
f 12/12/6 9/6/6 11/11/6
f 15/46/7 12/12/7 14/13/7
f 14/13/8 11/11/8 13/14/8
f 17/19/9 14/15/9 16/17/9
f 18/20/10 15/18/10 17/19/10
f 22/24/33 18/20/33 21/21/33
f 21/21/34 17/19/34 20/22/34
f 20/22/13 24/43/13 25/23/13
f 21/21/14 25/23/14 26/25/14
f 24/43/31 1/47/31 2/44/31
f 25/23/32 2/44/32 3/45/32
