# Blender v2.66 (sub 1) OBJ File: 'mesh_Container3.blend'
# www.blender.org
mtllib mesh_Container3.mtl
o Solid.002
v -0.561240 -0.958401 0.561240
v -0.561240 -0.561240 0.958401
v -0.958401 -0.561240 0.561240
v 0.561240 -0.958401 0.561240
v 0.958401 -0.561240 0.561240
v 0.561240 -0.561240 0.958401
v 0.561240 -0.958401 -0.561240
v 0.561240 -0.561240 -0.958401
v 0.958401 -0.561240 -0.561240
v -0.561240 -0.958401 -0.561240
v -0.958401 -0.561240 -0.561240
v -0.561240 -0.561240 -0.958401
v -0.561240 0.561240 0.958401
v -0.561240 0.958401 0.561240
v -0.958401 0.561240 0.561240
v 0.561240 0.561240 0.958401
v 0.958401 0.561240 0.561240
v 0.561240 0.958401 0.561240
v 0.958401 0.561240 -0.561240
v 0.561240 0.561240 -0.958401
v 0.561240 0.958401 -0.561240
v -0.958401 0.561240 -0.561240
v -0.561240 0.958401 -0.561240
v -0.561240 0.561240 -0.958401
vt 0.099365 0.249275
vt 0.000000 0.314349
vt 0.000211 0.174990
vt 0.324322 0.000000
vt 0.250708 0.100295
vt 0.185804 0.000000
vt 0.396015 0.747017
vt 0.496309 0.682113
vt 0.496309 0.820631
vt 0.174990 0.999789
vt 0.249275 0.900636
vt 0.314349 1.000000
vt 0.317887 0.496309
vt 0.179369 0.496309
vt 0.252983 0.396015
vt 0.503691 0.181961
vt 0.503480 0.321319
vt 0.404326 0.247034
vt 0.247034 0.595674
vt 0.181961 0.496309
vt 0.321319 0.496520
vt 0.000000 0.675679
vt 0.100295 0.749292
vt 0.000000 0.814197
vt 0.503691 0.116049
vt 0.503691 0.000000
vt 0.735610 0.000000
vt 0.503691 0.464016
vt 0.503691 0.347968
vt 0.735610 0.464016
vt 0.960326 0.728229
vt 0.844277 0.728229
vt 0.844277 0.496309
vt 0.612358 0.728228
vt 0.496309 0.728228
vt 0.612358 0.496309
vt 0.735610 0.347968
vt 0.496309 0.960148
vt 0.496309 0.728229
vt 0.728228 0.960148
vt 0.960147 0.960148
vt 0.728228 0.728229
vt 0.735610 0.116049
vt 0.960326 0.496309
vt 0.496309 0.496309
vt 0.960147 0.728229
vn -0.577350 -0.577350 0.577350
vn 0.577350 -0.577350 0.577350
vn 0.577350 -0.577350 -0.577350
vn -0.577350 -0.577350 -0.577350
vn -0.577350 0.577350 0.577350
vn 0.577350 0.577350 0.577350
vn 0.577350 0.577350 -0.577350
vn -0.577350 0.577350 -0.577350
vn 0.000000 -0.707107 0.707107
vn 0.707107 -0.707107 0.000000
vn -0.707107 -0.707107 0.000000
vn -0.000000 -0.707107 -0.707107
vn -0.707107 0.000000 0.707107
vn 0.707107 -0.000000 0.707107
vn -0.000000 0.707107 0.707107
vn 0.707107 0.000000 -0.707107
vn 0.707107 0.707107 0.000000
vn -0.707107 0.707107 0.000000
vn 0.000000 0.707107 -0.707107
vn -0.707107 0.000000 -0.707107
vn 0.000000 -1.000000 0.000000
vn 0.000000 0.000000 1.000000
vn -1.000000 0.000000 0.000000
vn 1.000000 -0.000000 0.000000
vn 0.000000 0.000000 -1.000000
vn -0.000000 1.000000 0.000000
usemtl None
s off
f 2/1/1 3/2/1 1/3/1
f 5/4/2 6/5/2 4/6/2
f 8/7/3 9/8/3 7/9/3
f 11/10/4 12/11/4 10/12/4
f 14/13/5 15/14/5 13/15/5
f 17/16/6 18/17/6 16/18/6
f 20/19/7 21/20/7 19/21/7
f 23/22/8 24/23/8 22/24/8
f 4/6/9 6/5/9 2/1/9
f 7/25/10 9/26/10 5/27/10
f 11/28/11 10/29/11 3/30/11
f 10/12/12 12/11/12 8/7/12
f 13/15/13 15/14/13 2/1/13
f 17/16/14 16/18/14 6/5/14
f 16/18/15 18/17/15 14/13/15
f 20/19/16 19/21/16 9/8/16
f 19/31/17 21/32/17 18/33/17
f 23/34/18 22/35/18 14/36/18
f 24/23/19 23/22/19 21/20/19
f 22/24/20 24/23/20 11/10/20
f 1/37/21 10/29/21 7/25/21
f 2/1/22 6/5/22 16/18/22
f 3/38/23 15/39/23 11/40/23
f 19/41/24 17/40/24 5/42/24
f 20/19/25 8/7/25 12/11/25
f 21/32/26 23/34/26 14/36/26
f 1/3/9 4/6/9 2/1/9
f 4/43/10 7/25/10 5/27/10
f 10/29/11 1/37/11 3/30/11
f 7/9/12 10/12/12 8/7/12
f 15/14/13 3/2/13 2/1/13
f 5/4/14 17/16/14 6/5/14
f 13/15/15 16/18/15 14/13/15
f 8/7/16 20/19/16 9/8/16
f 17/44/17 19/31/17 18/33/17
f 22/35/18 15/45/18 14/36/18
f 20/19/19 24/23/19 21/20/19
f 24/23/20 12/11/20 11/10/20
f 4/43/21 1/37/21 7/25/21
f 13/15/22 2/1/22 16/18/22
f 15/39/23 22/42/23 11/40/23
f 9/46/24 19/41/24 5/42/24
f 24/23/25 20/19/25 12/11/25
f 18/33/26 21/32/26 14/36/26
