# Blender v2.66 (sub 1) OBJ File: 'mesh_InvertedNormalsRing_64sided.blend'
# www.blender.org
mtllib mesh_InvertedNormalsRing_64sided.mtl
o Cylinder_Cylinder.009
v 0.000000 -0.500000 -1.000000
v 0.000000 0.500000 -1.000000
v 0.098017 -0.500000 -0.995185
v 0.098017 0.500000 -0.995185
v 0.195090 -0.500000 -0.980785
v 0.195090 0.500000 -0.980785
v 0.290285 -0.500000 -0.956940
v 0.290285 0.500000 -0.956940
v 0.382683 -0.500000 -0.923880
v 0.382683 0.500000 -0.923880
v 0.471397 -0.500000 -0.881921
v 0.471397 0.500000 -0.881921
v 0.555570 -0.500000 -0.831470
v 0.555570 0.500000 -0.831470
v 0.634393 -0.500000 -0.773010
v 0.634393 0.500000 -0.773010
v 0.707107 -0.500000 -0.707107
v 0.707107 0.500000 -0.707107
v 0.773010 -0.500000 -0.634393
v 0.773010 0.500000 -0.634393
v 0.831470 -0.500000 -0.555570
v 0.831470 0.500000 -0.555570
v 0.881921 -0.500000 -0.471397
v 0.881921 0.500000 -0.471397
v 0.923880 -0.500000 -0.382683
v 0.923880 0.500000 -0.382683
v 0.956940 -0.500000 -0.290285
v 0.956940 0.500000 -0.290285
v 0.980785 -0.500000 -0.195090
v 0.980785 0.500000 -0.195090
v 0.995185 -0.500000 -0.098017
v 0.995185 0.500000 -0.098017
v 1.000000 -0.500000 0.000000
v 1.000000 0.500000 0.000000
v 0.995185 -0.500000 0.098017
v 0.995185 0.500000 0.098017
v 0.980785 -0.500000 0.195091
v 0.980785 0.500000 0.195091
v 0.956940 -0.500000 0.290285
v 0.956940 0.500000 0.290285
v 0.923879 -0.500000 0.382684
v 0.923879 0.500000 0.382684
v 0.881921 -0.500000 0.471397
v 0.881921 0.500000 0.471397
v 0.831469 -0.500000 0.555571
v 0.831469 0.500000 0.555571
v 0.773010 -0.500000 0.634394
v 0.773010 0.500000 0.634394
v 0.707106 -0.500000 0.707107
v 0.707106 0.500000 0.707107
v 0.634393 -0.500000 0.773011
v 0.634393 0.500000 0.773011
v 0.555570 -0.500000 0.831470
v 0.555570 0.500000 0.831470
v 0.471396 -0.500000 0.881922
v 0.471396 0.500000 0.881922
v 0.382683 -0.500000 0.923880
v 0.382683 0.500000 0.923880
v 0.290284 -0.500000 0.956941
v 0.290284 0.500000 0.956941
v 0.195090 -0.500000 0.980785
v 0.195090 0.500000 0.980785
v 0.098016 -0.500000 0.995185
v 0.098016 0.500000 0.995185
v -0.000001 -0.500000 1.000000
v -0.000001 0.500000 1.000000
v -0.098018 -0.500000 0.995185
v -0.098018 0.500000 0.995185
v -0.195091 -0.500000 0.980785
v -0.195091 0.500000 0.980785
v -0.290286 -0.500000 0.956940
v -0.290286 0.500000 0.956940
v -0.382684 -0.500000 0.923879
v -0.382684 0.500000 0.923879
v -0.471398 -0.500000 0.881921
v -0.471398 0.500000 0.881921
v -0.555571 -0.500000 0.831469
v -0.555571 0.500000 0.831469
v -0.634394 -0.500000 0.773010
v -0.634394 0.500000 0.773010
v -0.707108 -0.500000 0.707106
v -0.707108 0.500000 0.707106
v -0.773011 -0.500000 0.634393
v -0.773011 0.500000 0.634393
v -0.831470 -0.500000 0.555570
v -0.831470 0.500000 0.555570
v -0.881922 -0.500000 0.471396
v -0.881922 0.500000 0.471396
v -0.923880 -0.500000 0.382683
v -0.923880 0.500000 0.382683
v -0.956940 -0.500000 0.290285
v -0.956940 0.500000 0.290285
v -0.980785 -0.500000 0.195090
v -0.980785 0.500000 0.195090
v -0.995185 -0.500000 0.098017
v -0.995185 0.500000 0.098017
v -1.000000 -0.500000 0.000000
v -1.000000 0.500000 0.000000
v -0.995185 -0.500000 -0.098016
v -0.995185 0.500000 -0.098016
v -0.980785 -0.500000 -0.195089
v -0.980785 0.500000 -0.195089
v -0.956941 -0.500000 -0.290284
v -0.956941 0.500000 -0.290284
v -0.923880 -0.500000 -0.382682
v -0.923880 0.500000 -0.382682
v -0.881922 -0.500000 -0.471395
v -0.881922 0.500000 -0.471395
v -0.831471 -0.500000 -0.555569
v -0.831471 0.500000 -0.555569
v -0.773012 -0.500000 -0.634392
v -0.773012 0.500000 -0.634392
v -0.707108 -0.500000 -0.707105
v -0.707108 0.500000 -0.707105
v -0.634395 -0.500000 -0.773009
v -0.634395 0.500000 -0.773009
v -0.555572 -0.500000 -0.831468
v -0.555572 0.500000 -0.831468
v -0.471399 -0.500000 -0.881920
v -0.471399 0.500000 -0.881920
v -0.382686 -0.500000 -0.923878
v -0.382686 0.500000 -0.923878
v -0.290288 -0.500000 -0.956939
v -0.290288 0.500000 -0.956939
v -0.195093 -0.500000 -0.980785
v -0.195093 0.500000 -0.980785
v -0.098021 -0.500000 -0.995184
v -0.098021 0.500000 -0.995184
vt 0.745467 0.353923
vt 0.710995 0.354029
vt 0.744384 0.000949
vt 0.677021 0.354133
vt 0.709912 0.001054
vt 0.643873 0.354235
vt 0.675938 0.001159
vt 0.611871 0.354333
vt 0.642790 0.001260
vt 0.581322 0.354427
vt 0.610788 0.001358
vt 0.552520 0.354515
vt 0.580239 0.001452
vt 0.525744 0.354597
vt 0.551437 0.001541
vt 0.499832 0.708059
vt 0.475338 0.708134
vt 0.498749 0.355084
vt 0.448561 0.708216
vt 0.474255 0.355159
vt 0.419760 0.708305
vt 0.447478 0.355242
vt 0.389211 0.708398
vt 0.418677 0.355330
vt 0.357208 0.708497
vt 0.388128 0.355424
vt 0.324061 0.708598
vt 0.356125 0.355522
vt 0.290087 0.708702
vt 0.322978 0.355624
vt 0.255614 0.708808
vt 0.289004 0.355728
vt 0.220975 0.708914
vt 0.254531 0.355833
vt 0.186502 0.709020
vt 0.219892 0.355940
vt 0.152529 0.709124
vt 0.185420 0.356046
vt 0.119381 0.709226
vt 0.151446 0.356150
vt 0.087378 0.709324
vt 0.118298 0.356251
vt 0.056829 0.709418
vt 0.086296 0.356350
vt 0.028028 0.709507
vt 0.055746 0.356443
vt 0.001251 0.709588
vt 0.026945 0.356532
vt 0.999832 0.708059
vt 0.975338 0.708134
vt 0.998749 0.355084
vt 0.948561 0.708216
vt 0.974255 0.355159
vt 0.919760 0.708304
vt 0.947479 0.355242
vt 0.889211 0.708398
vt 0.918677 0.355330
vt 0.857208 0.708497
vt 0.888128 0.355424
vt 0.824060 0.708598
vt 0.856125 0.355522
vt 0.790087 0.708702
vt 0.822978 0.355623
vt 0.755614 0.708808
vt 0.789004 0.355728
vt 0.720975 0.708914
vt 0.754532 0.355833
vt 0.686503 0.709020
vt 0.685420 0.356045
vt 0.652529 0.709124
vt 0.651446 0.356150
vt 0.619381 0.709226
vt 0.618298 0.356251
vt 0.587378 0.709324
vt 0.586296 0.356350
vt 0.556829 0.709418
vt 0.555747 0.356443
vt 0.528028 0.709506
vt 0.526945 0.356532
vt 0.501251 0.709588
vt 0.500168 0.356614
vt 0.524324 0.353143
vt 0.499830 0.353218
vt 0.498748 0.000244
vt 0.473054 0.353300
vt 0.471971 0.000326
vt 0.444252 0.353389
vt 0.443170 0.000414
vt 0.413703 0.353482
vt 0.412621 0.000508
vt 0.381701 0.353580
vt 0.380618 0.000606
vt 0.348553 0.353682
vt 0.347470 0.000708
vt 0.314580 0.353786
vt 0.313497 0.000812
vt 0.280107 0.353892
vt 0.279024 0.000918
vt 0.245468 0.353998
vt 0.244385 0.001024
vt 0.210996 0.354104
vt 0.209913 0.001130
vt 0.177022 0.354208
vt 0.175939 0.001234
vt 0.143874 0.354310
vt 0.142792 0.001336
vt 0.111872 0.354408
vt 0.110789 0.001434
vt 0.081323 0.354502
vt 0.080240 0.001527
vt 0.052521 0.354590
vt 0.051439 0.001616
vt 0.025745 0.354672
vt 0.024662 0.001698
vt 0.001251 0.354748
vt 0.000168 0.001773
vt 0.999831 0.353143
vt 0.973054 0.353225
vt 0.971971 0.000250
vt 0.944253 0.353313
vt 0.943170 0.000339
vt 0.913704 0.353407
vt 0.912621 0.000433
vt 0.881701 0.353505
vt 0.880619 0.000531
vt 0.848554 0.353607
vt 0.847471 0.000632
vt 0.814580 0.353711
vt 0.813497 0.000737
vt 0.780108 0.353817
vt 0.779025 0.000842
vt 0.524661 0.001623
vt 0.000168 0.356614
vt 0.719892 0.355940
vt 0.523241 0.000168
vt 0.998748 0.000168
vn -0.049068 0.000000 0.998795
vn -0.146731 0.000000 0.989177
vn -0.242980 0.000000 0.970031
vn -0.336890 0.000000 0.941544
vn -0.427555 0.000000 0.903989
vn -0.514103 0.000000 0.857729
vn -0.595699 0.000000 0.803208
vn -0.671559 0.000000 0.740951
vn -0.740951 0.000000 0.671559
vn -0.803207 0.000000 0.595699
vn -0.857729 0.000000 0.514103
vn -0.903989 0.000000 0.427555
vn -0.941544 0.000000 0.336890
vn -0.970031 0.000000 0.242980
vn -0.989177 0.000000 0.146730
vn -0.998795 0.000000 0.049068
vn -0.998795 0.000000 -0.049068
vn -0.989177 0.000000 -0.146731
vn -0.970031 0.000000 -0.242981
vn -0.941544 0.000000 -0.336890
vn -0.903989 0.000000 -0.427555
vn -0.857728 0.000000 -0.514103
vn -0.803207 0.000000 -0.595699
vn -0.740951 0.000000 -0.671560
vn -0.671559 0.000000 -0.740951
vn -0.595699 0.000000 -0.803208
vn -0.514102 0.000000 -0.857729
vn -0.427555 0.000000 -0.903989
vn -0.336889 0.000000 -0.941544
vn -0.242980 0.000000 -0.970031
vn -0.146729 0.000000 -0.989177
vn -0.049067 0.000000 -0.998796
vn 0.049068 0.000000 -0.998795
vn 0.146731 0.000000 -0.989176
vn 0.242981 0.000000 -0.970031
vn 0.336891 0.000000 -0.941544
vn 0.427556 0.000000 -0.903989
vn 0.514104 0.000000 -0.857728
vn 0.595700 0.000000 -0.803207
vn 0.671560 0.000000 -0.740951
vn 0.740952 0.000000 -0.671558
vn 0.803208 0.000000 -0.595699
vn 0.857729 0.000000 -0.514102
vn 0.903989 0.000000 -0.427555
vn 0.941544 0.000000 -0.336889
vn 0.970031 0.000000 -0.242980
vn 0.989176 0.000000 -0.146731
vn 0.998795 0.000000 -0.049068
vn 0.998795 0.000000 0.049067
vn 0.989177 0.000000 0.146730
vn 0.970032 0.000000 0.242979
vn 0.941544 0.000000 0.336889
vn 0.903990 0.000000 0.427554
vn 0.857729 0.000000 0.514101
vn 0.803208 0.000000 0.595698
vn 0.740953 0.000000 0.671557
vn 0.671560 0.000000 0.740950
vn 0.595701 0.000000 0.803206
vn 0.514105 0.000000 0.857727
vn 0.427557 0.000000 0.903988
vn 0.336893 0.000000 0.941543
vn 0.242983 0.000000 0.970030
vn 0.146733 0.000000 0.989176
vn 0.049070 0.000000 0.998795
usemtl None
s off
f 1/1/1 3/2/1 2/3/1
f 3/2/2 5/4/2 4/5/2
f 5/4/3 7/6/3 6/7/3
f 7/6/4 9/8/4 8/9/4
f 9/8/5 11/10/5 10/11/5
f 11/10/6 13/12/6 12/13/6
f 13/12/7 15/14/7 14/15/7
f 15/16/8 17/17/8 16/18/8
f 17/17/9 19/19/9 18/20/9
f 19/19/10 21/21/10 20/22/10
f 21/21/11 23/23/11 22/24/11
f 23/23/12 25/25/12 24/26/12
f 25/25/13 27/27/13 26/28/13
f 27/27/14 29/29/14 28/30/14
f 29/29/15 31/31/15 30/32/15
f 31/31/16 33/33/16 32/34/16
f 33/33/17 35/35/17 34/36/17
f 35/35/18 37/37/18 36/38/18
f 37/37/19 39/39/19 38/40/19
f 39/39/20 41/41/20 40/42/20
f 41/41/21 43/43/21 42/44/21
f 43/43/22 45/45/22 44/46/22
f 45/45/23 47/47/23 46/48/23
f 47/49/24 49/50/24 48/51/24
f 49/50/25 51/52/25 50/53/25
f 51/52/26 53/54/26 52/55/26
f 53/54/27 55/56/27 54/57/27
f 55/56/28 57/58/28 56/59/28
f 57/58/29 59/60/29 58/61/29
f 59/60/30 61/62/30 60/63/30
f 61/62/31 63/64/31 62/65/31
f 63/64/32 65/66/32 64/67/32
f 65/66/33 67/68/33 68/69/33
f 67/68/34 69/70/34 70/71/34
f 69/70/35 71/72/35 72/73/35
f 71/72/36 73/74/36 74/75/36
f 73/74/37 75/76/37 76/77/37
f 75/76/38 77/78/38 78/79/38
f 77/78/39 79/80/39 80/81/39
f 79/82/40 81/83/40 82/84/40
f 81/83/41 83/85/41 84/86/41
f 83/85/42 85/87/42 86/88/42
f 85/87/43 87/89/43 88/90/43
f 87/89/44 89/91/44 90/92/44
f 89/91/45 91/93/45 92/94/45
f 91/93/46 93/95/46 94/96/46
f 93/95/47 95/97/47 96/98/47
f 95/97/48 97/99/48 98/100/48
f 97/99/49 99/101/49 100/102/49
f 99/101/50 101/103/50 102/104/50
f 101/103/51 103/105/51 104/106/51
f 103/105/52 105/107/52 106/108/52
f 105/107/53 107/109/53 108/110/53
f 107/109/54 109/111/54 110/112/54
f 109/111/55 111/113/55 112/114/55
f 111/113/56 113/115/56 114/116/56
f 113/117/57 115/118/57 116/119/57
f 115/118/58 117/120/58 118/121/58
f 117/120/59 119/122/59 120/123/59
f 119/122/60 121/124/60 122/125/60
f 121/124/61 123/126/61 124/127/61
f 123/126/62 125/128/62 126/129/62
f 125/128/63 127/130/63 128/131/63
f 127/130/64 1/1/64 2/3/64
f 3/2/1 4/5/1 2/3/1
f 5/4/2 6/7/2 4/5/2
f 7/6/3 8/9/3 6/7/3
f 9/8/4 10/11/4 8/9/4
f 11/10/5 12/13/5 10/11/5
f 13/12/6 14/15/6 12/13/6
f 15/14/7 16/132/7 14/15/7
f 17/17/8 18/20/8 16/18/8
f 19/19/9 20/22/9 18/20/9
f 21/21/10 22/24/10 20/22/10
f 23/23/11 24/26/11 22/24/11
f 25/25/12 26/28/12 24/26/12
f 27/27/13 28/30/13 26/28/13
f 29/29/14 30/32/14 28/30/14
f 31/31/15 32/34/15 30/32/15
f 33/33/16 34/36/16 32/34/16
f 35/35/17 36/38/17 34/36/17
f 37/37/18 38/40/18 36/38/18
f 39/39/19 40/42/19 38/40/19
f 41/41/20 42/44/20 40/42/20
f 43/43/21 44/46/21 42/44/21
f 45/45/22 46/48/22 44/46/22
f 47/47/23 48/133/23 46/48/23
f 49/50/24 50/53/24 48/51/24
f 51/52/25 52/55/25 50/53/25
f 53/54/26 54/57/26 52/55/26
f 55/56/27 56/59/27 54/57/27
f 57/58/28 58/61/28 56/59/28
f 59/60/29 60/63/29 58/61/29
f 61/62/30 62/65/30 60/63/30
f 63/64/31 64/67/31 62/65/31
f 65/66/32 66/134/32 64/67/32
f 66/134/33 65/66/33 68/69/33
f 68/69/34 67/68/34 70/71/34
f 70/71/35 69/70/35 72/73/35
f 72/73/36 71/72/36 74/75/36
f 74/75/37 73/74/37 76/77/37
f 76/77/38 75/76/38 78/79/38
f 78/79/39 77/78/39 80/81/39
f 80/135/40 79/82/40 82/84/40
f 82/84/41 81/83/41 84/86/41
f 84/86/42 83/85/42 86/88/42
f 86/88/43 85/87/43 88/90/43
f 88/90/44 87/89/44 90/92/44
f 90/92/45 89/91/45 92/94/45
f 92/94/46 91/93/46 94/96/46
f 94/96/47 93/95/47 96/98/47
f 96/98/48 95/97/48 98/100/48
f 98/100/49 97/99/49 100/102/49
f 100/102/50 99/101/50 102/104/50
f 102/104/51 101/103/51 104/106/51
f 104/106/52 103/105/52 106/108/52
f 106/108/53 105/107/53 108/110/53
f 108/110/54 107/109/54 110/112/54
f 110/112/55 109/111/55 112/114/55
f 112/114/56 111/113/56 114/116/56
f 114/136/57 113/117/57 116/119/57
f 116/119/58 115/118/58 118/121/58
f 118/121/59 117/120/59 120/123/59
f 120/123/60 119/122/60 122/125/60
f 122/125/61 121/124/61 124/127/61
f 124/127/62 123/126/62 126/129/62
f 126/129/63 125/128/63 128/131/63
f 128/131/64 127/130/64 2/3/64
