# Blender v2.66 (sub 1) OBJ File: 'mesh_Frame6_half.blend'
# www.blender.org
mtllib mesh_Frame6_half.mtl
o Cylinder_Cylinder.005
v 0.000000 -0.100000 -1.000000
v 0.000000 0.100000 -1.000000
v 0.382683 -0.100000 -0.923880
v 0.382683 0.100000 -0.923880
v 0.707107 -0.100000 -0.707107
v 0.707107 0.100000 -0.707107
v 0.923880 -0.100000 -0.382683
v 0.923880 0.100000 -0.382683
v 1.000000 -0.100000 0.000000
v 1.000000 0.100000 0.000000
v -1.000000 -0.100000 -0.000000
v -1.000000 0.100000 -0.000000
v -0.923879 -0.100000 -0.382684
v -0.923879 0.100000 -0.382684
v -0.707107 -0.100000 -0.707107
v -0.707107 0.100000 -0.707107
v -0.382683 -0.100000 -0.923880
v -0.382683 0.100000 -0.923880
v 0.000000 -0.100000 -0.900000
v 0.000000 0.100000 -0.900000
v 0.344415 -0.100000 -0.831492
v 0.344415 0.100000 -0.831492
v 0.636396 -0.100000 -0.636396
v 0.636396 0.100000 -0.636396
v 0.831492 -0.100000 -0.344415
v 0.831492 0.100000 -0.344415
v 0.900000 -0.100000 0.000000
v 0.900000 0.100000 0.000000
v -0.900000 -0.100000 -0.000000
v -0.900000 0.100000 -0.000000
v -0.831492 -0.100000 -0.344415
v -0.831492 0.100000 -0.344415
v -0.636396 -0.100000 -0.636396
v -0.636396 0.100000 -0.636396
v -0.344415 -0.100000 -0.831492
v -0.344415 0.100000 -0.831492
vt 0.162564 0.916672
vt 0.162564 0.833345
vt 0.325128 0.833345
vt 0.487692 0.916672
vt 0.487692 0.833345
vt 0.650256 0.833345
vt 0.995730 0.416666
vt 0.995730 0.499994
vt 0.833166 0.499994
vt 0.975384 0.833345
vt 0.975384 0.916672
vt 0.812820 0.916672
vt 0.650256 0.916672
vt 0.000000 0.916672
vt 0.000000 0.833345
vt 0.576020 0.801628
vt 0.416580 0.833345
vt 0.416581 0.791682
vt 0.833166 0.833345
vt 0.833166 0.750017
vt 0.995730 0.833345
vt 0.325128 0.916672
vt 0.000000 0.416666
vt 0.031704 0.257213
vt 0.070200 0.273155
vt 0.979511 0.166655
vt 0.979511 0.249983
vt 0.833203 0.249983
vt 0.979511 0.333339
vt 0.979511 0.416666
vt 0.833204 0.333339
vt 0.122015 0.122034
vt 0.257178 0.031713
vt 0.273123 0.070204
vt 0.711205 0.122045
vt 0.801506 0.257221
vt 0.763012 0.273161
vt 0.031690 0.576111
vt 0.041664 0.416673
vt 0.257142 0.801622
vt 0.121985 0.711292
vt 0.151450 0.681835
vt 0.801480 0.576117
vt 0.711182 0.711300
vt 0.681717 0.681842
vt 0.151478 0.151494
vt 0.576048 0.031720
vt 0.681742 0.151502
vt 0.416614 0.000000
vt 0.416613 0.041662
vt 0.833203 0.416666
vt 0.791539 0.416661
vt 0.070184 0.560173
vt 0.560074 0.763136
vt 0.560102 0.070210
vt 0.273089 0.763132
vt 0.833166 0.416666
vt 0.762985 0.560179
vt 0.979474 0.666690
vt 0.979474 0.750017
vt 0.979474 0.499994
vt 0.979474 0.583321
vt 0.833166 0.583321
vt 0.979511 0.000000
vt 0.979511 0.083328
vt 0.833203 0.083328
vt 0.833203 0.333339
vt 0.833203 0.250011
vt 0.833166 0.666649
vt 0.979474 0.666649
vt 0.854484 1.000000
vt 0.812820 1.000000
vt 0.771156 1.000000
vt 0.771156 0.916672
vt 0.812820 0.833345
vt 0.995730 0.750017
vt 0.041666 0.416663
vt 0.833203 0.166655
vt 0.791502 0.416674
vt 0.833166 0.666690
vt 0.833203 0.000000
vt 0.979511 0.250011
vt 0.854484 0.916672
vn 0.195090 0.000000 -0.980785
vn 0.555570 0.000000 -0.831470
vn 0.831470 0.000000 -0.555570
vn 0.980785 0.000000 -0.195090
vn -0.980785 -0.000000 -0.195090
vn -0.831469 -0.000000 -0.555570
vn -0.000000 1.000000 0.000000
vn -0.195090 -0.000000 -0.980785
vn -0.555570 -0.000000 -0.831470
vn -0.000000 -1.000000 0.000000
vn 0.195090 0.000000 0.980785
vn -0.195090 0.000000 0.980785
vn 0.555570 0.000000 0.831470
vn 0.831469 0.000000 0.555571
vn 0.980785 0.000000 0.195090
vn -0.980785 0.000000 0.195090
vn -0.831470 0.000000 0.555570
vn -0.555570 0.000000 0.831470
vn -0.000000 0.000000 1.000000
usemtl None
s off
f 1/1/1 2/2/1 4/3/1
f 3/4/2 4/5/2 6/6/2
f 5/7/3 6/8/3 8/9/3
f 7/10/4 8/11/4 10/12/4
f 11/13/5 12/6/5 13/12/5
f 13/14/6 14/15/6 15/1/6
f 4/16/7 2/17/7 20/18/7
f 17/19/8 18/20/8 1/21/8
f 15/22/9 16/3/9 17/4/9
f 11/23/10 13/24/10 31/25/10
f 19/26/11 20/27/11 36/28/11
f 21/29/12 22/30/12 19/31/12
f 15/32/10 17/33/10 35/34/10
f 5/35/10 7/36/10 25/37/10
f 14/38/7 12/23/7 30/39/7
f 18/40/7 16/41/7 34/42/7
f 8/43/7 6/44/7 24/45/7
f 13/24/10 15/32/10 33/46/10
f 3/47/10 5/35/10 23/48/10
f 17/33/10 1/49/10 19/50/10
f 7/36/10 9/51/10 27/52/10
f 16/41/7 14/38/7 32/53/7
f 6/44/7 4/16/7 22/54/7
f 1/49/10 3/47/10 21/55/10
f 2/17/7 18/40/7 36/56/7
f 10/57/7 8/43/7 26/58/7
f 35/59/13 36/60/13 34/20/13
f 33/61/14 34/62/14 32/63/14
f 31/64/15 32/65/15 30/66/15
f 27/67/16 28/68/16 25/29/16
f 25/69/17 26/63/17 23/70/17
f 23/65/18 24/26/18 21/66/18
f 30/71/19 12/72/19 11/12/19
f 10/72/19 28/73/19 27/74/19
f 3/22/1 1/1/1 4/3/1
f 5/13/2 3/4/2 6/6/2
f 7/57/3 5/7/3 8/9/3
f 9/75/4 7/10/4 10/12/4
f 12/6/5 14/75/5 13/12/5
f 14/15/6 16/2/6 15/1/6
f 22/54/7 4/16/7 20/18/7
f 18/20/8 2/76/8 1/21/8
f 16/3/9 18/5/9 17/4/9
f 29/77/10 11/23/10 31/25/10
f 35/78/11 19/26/11 36/28/11
f 22/30/12 20/51/12 19/31/12
f 33/46/10 15/32/10 35/34/10
f 23/48/10 5/35/10 25/37/10
f 32/53/7 14/38/7 30/39/7
f 36/56/7 18/40/7 34/42/7
f 26/58/7 8/43/7 24/45/7
f 31/25/10 13/24/10 33/46/10
f 21/55/10 3/47/10 23/48/10
f 35/34/10 17/33/10 19/50/10
f 25/37/10 7/36/10 27/52/10
f 34/42/7 16/41/7 32/53/7
f 24/45/7 6/44/7 22/54/7
f 19/50/10 1/49/10 21/55/10
f 20/18/7 2/17/7 36/56/7
f 28/79/7 10/57/7 26/58/7
f 33/80/13 35/59/13 34/20/13
f 31/9/14 33/61/14 32/63/14
f 29/81/15 31/64/15 30/66/15
f 28/68/16 26/82/16 25/29/16
f 26/63/17 24/62/17 23/70/17
f 24/26/18 22/78/18 21/66/18
f 29/83/19 30/71/19 11/12/19
f 9/12/19 10/72/19 27/74/19
