# Blender v2.66 (sub 1) OBJ File: 'mesh_RampRound5.blend'
# www.blender.org
mtllib mesh_RampRound5.mtl
o Cube_Cube.003
v -2.000000 1.000000 -1.000000
v -2.000000 -1.000000 -1.000000
v -2.000000 -1.000000 1.000000
v -2.000000 1.000000 1.000000
v -0.390180 -0.961571 1.000000
v -1.961571 0.609820 1.000000
v -1.847759 0.234633 1.000000
v -0.765367 -0.847759 1.000000
v -1.111140 -0.662939 1.000000
v -1.414214 -0.414214 1.000000
v -1.662939 -0.111140 1.000000
v -1.961571 1.000000 0.609819
v -0.390180 1.000000 -0.961571
v -1.847759 1.000000 0.234633
v -0.765366 1.000000 -0.847759
v -1.662939 1.000000 -0.111141
v -1.414213 1.000000 -0.414214
v -1.111140 1.000000 -0.662940
v -1.630986 -0.111140 0.675577
v -1.812255 0.234633 0.639520
v -1.387040 -0.414214 0.724100
v -1.923880 0.609820 0.617316
v -1.536355 -0.111140 0.363620
v -1.707107 0.234633 0.292893
v -1.089790 -0.662939 0.783227
v -1.306563 -0.414214 0.458804
v -1.812255 0.609820 0.249339
v -1.382683 -0.111140 0.076120
v -1.536355 0.234633 -0.026560
v -0.750660 -0.847759 0.850684
v -1.026560 -0.662939 0.574785
v -1.175875 -0.414214 0.214305
v -1.630986 0.609820 -0.089790
v -1.175875 -0.111140 -0.175876
v -1.306563 0.234633 -0.306563
v -0.382683 -0.961571 0.923880
v -0.707106 -0.847759 0.707107
v -0.923879 -0.662939 0.382683
v -1.000000 -0.414214 -0.000000
v -1.387039 0.609820 -0.387040
v -1.026560 0.234633 -0.536356
v -0.923879 -0.111140 -0.382684
v -0.360479 -0.961571 0.850684
v -0.636379 -0.847759 0.574785
v -0.785695 -0.662939 0.214305
v -0.785694 -0.414214 -0.175876
v -1.089790 0.609820 -0.630987
v -0.707106 0.234633 -0.707107
v -0.636379 -0.111140 -0.536356
v -0.324423 -0.961571 0.783227
v -0.541196 -0.847759 0.458804
v -0.617316 -0.662939 0.076120
v -0.541195 -0.414214 -0.306563
v -0.750660 0.609820 -0.812255
v -0.360479 0.234633 -0.812255
v -0.324423 -0.111140 -0.630986
v -0.275899 -0.961571 0.724101
v -0.425215 -0.847759 0.363620
v -0.425214 -0.662939 -0.026560
v -0.275899 -0.414214 -0.387040
v -0.382683 0.609820 -0.923880
v -0.216772 -0.961571 0.675577
v -0.292893 -0.847759 0.292893
v -0.216772 -0.662939 -0.089791
v -0.149315 -0.961571 0.639520
v -0.149315 -0.847759 0.249339
v -0.076120 -0.961571 0.617316
v 2.000000 1.000000 -1.000000
v 2.000000 -1.000000 -1.000000
v 2.000000 -1.000000 1.000000
v 2.000000 1.000000 1.000000
v 0.000002 1.000000 -1.000000
v 0.000000 -1.000000 -1.000000
v 0.000000 0.999998 -1.000000
v 0.000000 -1.000000 1.000000
v 0.000000 -1.000000 1.000000
v 0.390180 -0.961571 1.000000
v 1.961571 0.609820 1.000000
v 1.847759 0.234633 1.000000
v 0.765367 -0.847759 1.000000
v 1.111140 -0.662939 1.000000
v 1.414214 -0.414214 1.000000
v 1.662939 -0.111140 1.000000
v 1.961571 1.000000 0.609819
v 0.390180 1.000000 -0.961571
v 1.847759 1.000000 0.234633
v 0.765366 1.000000 -0.847759
v 1.662939 1.000000 -0.111141
v 1.414213 1.000000 -0.414214
v 1.111140 1.000000 -0.662940
v 0.000000 0.609820 -0.961570
v 0.000000 -1.000000 1.000000
v 0.000000 -1.000000 1.000000
v 0.000000 0.234633 -0.847759
v 0.000000 -1.000000 0.999999
v 0.000000 -0.111140 -0.662939
v 0.000000 -0.414214 -0.414214
v 0.000000 -0.662939 -0.111141
v 0.000000 -0.847759 0.234633
v 0.000000 -0.961571 0.609819
v 0.000000 -1.000000 0.999997
v 0.000000 -1.000000 0.999999
v 0.000000 -1.000000 0.999999
v 1.630986 -0.111140 0.675577
v 1.812255 0.234633 0.639520
v 1.387040 -0.414214 0.724100
v 1.923880 0.609820 0.617316
v 1.536355 -0.111140 0.363620
v 1.707107 0.234633 0.292893
v 1.089790 -0.662939 0.783227
v 1.306563 -0.414214 0.458804
v 1.812255 0.609820 0.249339
v 1.382683 -0.111140 0.076120
v 1.536355 0.234633 -0.026560
v 0.750660 -0.847759 0.850684
v 1.026560 -0.662939 0.574785
v 1.175875 -0.414214 0.214305
v 1.630986 0.609820 -0.089790
v 1.175875 -0.111140 -0.175876
v 1.306563 0.234633 -0.306563
v 0.382683 -0.961571 0.923880
v 0.707106 -0.847759 0.707107
v 0.923879 -0.662939 0.382683
v 1.000000 -0.414214 -0.000000
v 1.387039 0.609820 -0.387040
v 1.026560 0.234633 -0.536356
v 0.923879 -0.111140 -0.382684
v 0.360479 -0.961571 0.850684
v 0.636379 -0.847759 0.574785
v 0.785695 -0.662939 0.214305
v 0.785694 -0.414214 -0.175876
v 1.089790 0.609820 -0.630987
v 0.707106 0.234633 -0.707107
v 0.636379 -0.111140 -0.536356
v 0.324423 -0.961571 0.783227
v 0.541196 -0.847759 0.458804
v 0.617316 -0.662939 0.076120
v 0.541195 -0.414214 -0.306563
v 0.750660 0.609820 -0.812255
v 0.360479 0.234633 -0.812255
v 0.324423 -0.111140 -0.630986
v 0.275899 -0.961571 0.724101
v 0.425215 -0.847759 0.363620
v 0.425214 -0.662939 -0.026560
v 0.275899 -0.414214 -0.387040
v 0.382683 0.609820 -0.923880
v 0.216772 -0.961571 0.675577
v 0.292893 -0.847759 0.292893
v 0.216772 -0.662939 -0.089791
v 0.149315 -0.961571 0.639520
v 0.149315 -0.847759 0.249339
v 0.076120 -0.961571 0.617316
vt 0.687857 0.475007
vt 0.464276 0.461960
vt 0.687785 0.250551
vt 0.231394 0.230686
vt 0.232102 0.461372
vt 0.000708 0.231394
vt 0.001415 0.462080
vt 0.626823 0.636161
vt 0.527354 0.592114
vt 0.514349 0.549133
vt 0.531701 0.636883
vt 0.527223 0.681719
vt 0.514093 0.724899
vt 0.492813 0.764764
vt 0.493186 0.509591
vt 0.464677 0.475007
vt 0.464203 0.799781
vt 0.462788 0.692059
vt 0.232102 0.691351
vt 0.463496 0.461372
vt 0.626823 0.635477
vt 0.726250 0.681372
vt 0.739266 0.724575
vt 0.721887 0.636546
vt 0.726343 0.591819
vt 0.739447 0.548909
vt 0.760433 0.764495
vt 0.760697 0.509467
vt 0.788939 0.799596
vt 0.789274 0.475007
vt 0.836148 0.854344
vt 0.835081 0.898166
vt 0.793725 0.896623
vt 0.837527 0.813539
vt 0.798928 0.852955
vt 0.814298 0.776392
vt 0.839167 0.777320
vt 0.939726 0.538486
vt 0.928514 0.499504
vt 0.953232 0.496738
vt 0.959148 0.579830
vt 0.950469 0.580801
vt 0.789274 0.986404
vt 0.790466 0.941683
vt 0.834369 0.943321
vt 0.923396 0.543710
vt 0.904807 0.507089
vt 0.942144 0.583465
vt 0.834037 0.988075
vt 0.878658 0.942879
vt 0.876801 0.897749
vt 0.873695 0.853969
vt 0.869458 0.813220
vt 0.864255 0.777069
vt 0.910126 0.851844
vt 0.917282 0.895388
vt 0.900441 0.811413
vt 0.883021 0.519201
vt 0.859364 0.490423
vt 0.887092 0.475007
vt 0.908390 0.552053
vt 0.934494 0.587718
vt 0.879195 0.987624
vt 0.921632 0.940372
vt 0.927812 0.593397
vt 0.895284 0.563194
vt 0.923011 0.985068
vt 0.961639 0.935898
vt 0.954968 0.891173
vt 0.944043 0.848051
vt 0.929285 0.808187
vt 0.863994 0.535374
vt 0.835147 0.511007
vt 0.848457 0.554988
vt 0.815372 0.535971
vt 0.884581 0.576704
vt 0.922356 0.600284
vt 1.000000 0.974113
vt 0.963802 0.980506
vt 0.988410 0.885267
vt 0.997142 0.929628
vt 0.974140 0.842735
vt 0.954881 0.803667
vt 0.368321 0.713255
vt 0.366048 0.746424
vt 0.323861 0.738395
vt 0.406208 0.729078
vt 0.404275 0.757285
vt 0.837007 0.577287
vt 0.800798 0.564353
vt 0.876694 0.592064
vt 0.918335 0.608115
vt 0.234183 0.731950
vt 0.236917 0.692059
vt 0.282017 0.694383
vt 0.326387 0.701540
vt 0.279336 0.733508
vt 0.915904 0.616588
vt 0.871925 0.608685
vt 0.232557 0.775231
vt 0.322359 0.778381
vt 0.364696 0.782410
vt 0.403125 0.787889
vt 0.830083 0.601417
vt 0.791986 0.595064
vt 0.789274 0.626923
vt 0.827952 0.626448
vt 0.870457 0.625926
vt 0.277295 0.820099
vt 0.232102 0.820237
vt 0.277742 0.775957
vt 0.321938 0.819962
vt 0.364317 0.819832
vt 0.960331 0.624824
vt 0.960330 0.624824
vt 0.915156 0.625378
vt 0.464203 0.237504
vt 0.464276 0.013048
vt 0.687857 0.000000
vt 0.230686 0.000000
vt 0.000000 0.000708
vt 0.232809 0.230686
vt 0.463495 0.231394
vt 0.233517 0.000000
vt 0.463496 0.231394
vt 0.232102 0.625701
vt 0.119628 0.712728
vt 0.132633 0.669747
vt 0.136980 0.624978
vt 0.132502 0.580142
vt 0.119371 0.536962
vt 0.098092 0.497097
vt 0.098465 0.752271
vt 0.069956 0.786854
vt 0.069482 0.462080
vt 0.464203 0.000708
vt 0.687857 0.314537
vt 0.800301 0.225439
vt 0.787285 0.268642
vt 0.782921 0.313468
vt 0.787377 0.358196
vt 0.800482 0.401105
vt 0.821468 0.185520
vt 0.821731 0.440547
vt 0.849974 0.150419
vt 0.850309 0.475007
vt 0.185228 0.864806
vt 0.222447 0.863417
vt 0.186295 0.908628
vt 0.183849 0.824001
vt 0.215501 0.822820
vt 0.207078 0.786854
vt 0.182209 0.787782
vt 0.941851 0.711641
vt 0.958918 0.713128
vt 0.931599 0.750886
vt 0.960253 0.669833
vt 0.951552 0.669075
vt 0.232102 0.996866
vt 0.187338 0.998537
vt 0.230910 0.952145
vt 0.227651 0.907085
vt 0.187007 0.953784
vt 0.925398 0.706819
vt 0.943164 0.666616
vt 0.142181 0.998086
vt 0.144575 0.908211
vt 0.142718 0.953341
vt 0.147681 0.864431
vt 0.151918 0.823682
vt 0.157121 0.787531
vt 0.111250 0.862306
vt 0.104094 0.905850
vt 0.120935 0.821875
vt 0.885637 0.732312
vt 0.907713 0.743885
vt 0.862693 0.761662
vt 0.910191 0.698847
vt 0.935412 0.662552
vt 0.098365 0.995530
vt 0.099744 0.950834
vt 0.928593 0.657039
vt 0.896815 0.688031
vt 0.057574 0.990968
vt 0.066408 0.901635
vt 0.059737 0.946360
vt 0.077333 0.858513
vt 0.092091 0.818649
vt 0.866219 0.716610
vt 0.837978 0.741677
vt 0.850204 0.697384
vt 0.885785 0.674788
vt 0.922970 0.650287
vt 0.021376 0.984575
vt 0.024234 0.940090
vt 0.032965 0.895729
vt 0.047235 0.853197
vt 0.066495 0.814129
vt 0.368975 0.926381
vt 0.327113 0.938353
vt 0.366498 0.893228
vt 0.406764 0.910327
vt 0.404658 0.882132
vt 0.817596 0.717207
vt 0.838210 0.675372
vt 0.877523 0.659626
vt 0.918758 0.642558
vt 0.234725 0.908510
vt 0.279867 0.906675
vt 0.237703 0.948384
vt 0.282788 0.945782
vt 0.324362 0.901515
vt 0.916120 0.634147
vt 0.872348 0.643127
vt 0.232834 0.865240
vt 0.278012 0.864236
vt 0.364926 0.857250
vt 0.403320 0.851535
vt 0.802330 0.689191
vt 0.830697 0.651420
vt 0.792767 0.658705
vt 0.322614 0.861539
vt 0.402803 0.819714
vt 0.805875 0.812358
vt 0.956751 0.536581
vt 0.687785 0.224456
vt 0.956377 0.753045
vt 0.890791 0.776392
vn -1.000000 0.000000 -0.000000
vn 0.000000 -0.000000 -1.000000
vn 0.000000 0.000000 1.000000
vn -0.000000 -1.000000 0.000000
vn 0.000000 1.000000 0.000000
vn 0.878613 0.469628 0.086536
vn 0.770780 0.632563 0.075915
vn 0.633159 0.771506 0.062361
vn 0.470889 0.880972 0.046379
vn 0.290166 0.956550 0.028579
vn 0.990438 0.097550 0.097550
vn 0.952718 0.289004 0.093835
vn 0.452794 0.880972 0.137353
vn 0.279015 0.956550 0.084638
vn 0.952376 0.097550 0.288901
vn 0.916106 0.289004 0.277898
vn 0.844848 0.469628 0.256282
vn 0.741159 0.632563 0.224828
vn 0.608827 0.771506 0.184686
vn 0.778617 0.469628 0.416179
vn 0.683056 0.632562 0.365101
vn 0.561098 0.771506 0.299913
vn 0.417297 0.880972 0.223050
vn 0.257142 0.956550 0.137445
vn 0.877715 0.097550 0.469149
vn 0.844288 0.289003 0.451281
vn 0.225386 0.956550 0.184970
vn 0.769323 0.097550 0.631368
vn 0.740024 0.289003 0.607323
vn 0.682463 0.469629 0.560083
vn 0.598704 0.632563 0.491344
vn 0.491806 0.771506 0.403615
vn 0.365764 0.880972 0.300175
vn 0.403615 0.771506 0.491807
vn 0.300175 0.880972 0.365764
vn 0.184970 0.956550 0.225386
vn 0.631368 0.097550 0.769324
vn 0.607323 0.289003 0.740025
vn 0.560082 0.469629 0.682463
vn 0.491344 0.632562 0.598704
vn 0.416179 0.469629 0.778617
vn 0.365101 0.632562 0.683057
vn 0.299913 0.771506 0.561098
vn 0.223050 0.880972 0.417297
vn 0.137445 0.956550 0.257141
vn 0.469148 0.097551 0.877715
vn 0.451281 0.289003 0.844288
vn 0.084638 0.956550 0.279015
vn 0.288900 0.097551 0.952376
vn 0.277898 0.289003 0.916106
vn 0.256282 0.469629 0.844848
vn 0.224828 0.632562 0.741159
vn 0.184685 0.771506 0.608827
vn 0.137353 0.880972 0.452794
vn 0.062360 0.771506 0.633159
vn 0.046378 0.880972 0.470890
vn 0.028579 0.956550 0.290166
vn 0.097549 0.097551 0.990438
vn 0.097548 0.097551 0.990438
vn 0.093834 0.289003 0.952718
vn 0.086536 0.469629 0.878613
vn 0.075915 0.632562 0.770780
vn 0.099918 0.994996 -0.000000
vn -0.084245 0.898610 0.430584
vn 0.117632 0.993057 -0.000000
vn 0.076131 0.995138 0.062479
vn -0.121789 0.974308 0.189449
vn -0.011290 0.993542 0.112902
vn 0.302384 0.952510 0.035908
vn 0.009653 0.995138 0.098013
vn 1.000000 -0.000000 0.000000
vn -0.878613 0.469628 0.086536
vn -0.770780 0.632563 0.075915
vn -0.633159 0.771506 0.062361
vn -0.470889 0.880972 0.046379
vn -0.290166 0.956550 0.028579
vn -0.990438 0.097550 0.097549
vn -0.952718 0.289004 0.093835
vn -0.452793 0.880972 0.137354
vn -0.279015 0.956550 0.084638
vn -0.952376 0.097550 0.288900
vn -0.916106 0.289004 0.277898
vn -0.844848 0.469628 0.256282
vn -0.741159 0.632563 0.224828
vn -0.608827 0.771506 0.184686
vn -0.778617 0.469628 0.416179
vn -0.683056 0.632562 0.365101
vn -0.561098 0.771506 0.299913
vn -0.417297 0.880972 0.223050
vn -0.257141 0.956550 0.137445
vn -0.877715 0.097550 0.469149
vn -0.844288 0.289003 0.451281
vn -0.225386 0.956550 0.184970
vn -0.769324 0.097550 0.631368
vn -0.740025 0.289003 0.607323
vn -0.682463 0.469629 0.560083
vn -0.598704 0.632562 0.491344
vn -0.491806 0.771506 0.403615
vn -0.365764 0.880972 0.300175
vn -0.403615 0.771506 0.491807
vn -0.300175 0.880972 0.365764
vn -0.184970 0.956550 0.225386
vn -0.631368 0.097551 0.769324
vn -0.607323 0.289003 0.740025
vn -0.560083 0.469628 0.682464
vn -0.491343 0.632562 0.598704
vn -0.416179 0.469629 0.778617
vn -0.365101 0.632562 0.683057
vn -0.299913 0.771506 0.561098
vn -0.223050 0.880972 0.417297
vn -0.137445 0.956550 0.257141
vn -0.469148 0.097551 0.877715
vn -0.451281 0.289003 0.844288
vn -0.084638 0.956550 0.279015
vn -0.288900 0.097551 0.952376
vn -0.277898 0.289003 0.916106
vn -0.256282 0.469629 0.844848
vn -0.224828 0.632562 0.741160
vn -0.184686 0.771506 0.608827
vn -0.137353 0.880972 0.452794
vn -0.062360 0.771506 0.633159
vn -0.046378 0.880972 0.470890
vn -0.028579 0.956550 0.290166
vn -0.097549 0.097551 0.990438
vn -0.093834 0.289003 0.952719
vn -0.086536 0.469629 0.878613
vn -0.075915 0.632562 0.770780
vn -0.098017 0.995185 0.000000
vn -0.000863 0.894427 0.447213
vn -0.109629 0.993973 0.000000
vn -0.137956 0.990438 0.000000
vn 0.059428 0.978848 0.195770
vn -0.010922 0.993825 0.110425
vn -0.162216 0.986026 0.037924
vn -0.009653 0.995138 0.098013
vn 0.990438 0.097550 0.097549
vn 0.452793 0.880972 0.137354
vn 0.952376 0.097550 0.288900
vn 0.778617 0.469628 0.416180
vn 0.683056 0.632563 0.365101
vn 0.844288 0.289004 0.451281
vn 0.769324 0.097551 0.631368
vn 0.682463 0.469628 0.560083
vn 0.598704 0.632562 0.491344
vn 0.300174 0.880972 0.365764
vn 0.631367 0.097551 0.769324
vn 0.607322 0.289003 0.740025
vn 0.560083 0.469629 0.682463
vn 0.491343 0.632562 0.598704
vn 0.137445 0.956550 0.257142
vn 0.224828 0.632562 0.741160
vn 0.705399 -0.705399 -0.069468
vn 0.093835 0.289003 0.952718
vn 0.086535 0.469629 0.878613
vn 0.098013 0.995138 0.009653
vn 0.094246 0.995138 0.028589
vn 0.086857 0.995138 0.046426
vn 0.062479 0.995138 0.076131
vn 0.046426 0.995138 0.086857
vn 0.028589 0.995138 0.094246
vn -0.990438 0.097550 0.097550
vn -0.952376 0.097550 0.288901
vn -0.683056 0.632563 0.365101
vn -0.257142 0.956550 0.137445
vn -0.844288 0.289004 0.451281
vn -0.769323 0.097550 0.631368
vn -0.740024 0.289003 0.607323
vn -0.682463 0.469628 0.560083
vn -0.403615 0.771506 0.491806
vn -0.300174 0.880972 0.365764
vn -0.631367 0.097550 0.769324
vn -0.607322 0.289003 0.740025
vn -0.560083 0.469629 0.682463
vn -0.137445 0.956550 0.257142
vn -0.224828 0.632562 0.741159
vn -0.097550 0.097550 0.990438
vn -0.093835 0.289003 0.952718
vn -0.086535 0.469629 0.878613
vn -0.098013 0.995138 0.009653
vn -0.094246 0.995138 0.028589
vn -0.086857 0.995138 0.046426
vn -0.076131 0.995138 0.062479
vn -0.062479 0.995138 0.076131
vn -0.046426 0.995138 0.086857
vn -0.028589 0.995138 0.094246
usemtl None
s off
f 1/1/1 2/2/1 4/3/1
f 73/4/2 2/5/2 74/6/2
f 2/5/2 1/7/2 72/6/2
f 3/8/3 11/9/3 7/10/3
f 3/8/3 10/11/3 11/9/3
f 3/8/3 9/12/3 10/11/3
f 3/8/3 8/13/3 9/12/3
f 3/8/3 5/14/3 8/13/3
f 7/10/3 6/15/3 3/8/3
f 6/15/3 4/16/3 3/8/3
f 3/8/3 76/17/3 5/14/3
f 3/18/4 2/19/4 75/20/4
f 1/21/5 18/22/5 15/23/5
f 1/21/5 17/24/5 18/22/5
f 1/21/5 16/25/5 17/24/5
f 1/21/5 14/26/5 16/25/5
f 13/27/5 1/21/5 15/23/5
f 1/21/5 12/28/5 14/26/5
f 72/29/5 1/21/5 13/27/5
f 1/21/5 4/30/5 12/28/5
f 19/31/6 20/32/6 7/33/6
f 21/34/7 19/31/7 11/35/7
f 9/36/8 25/37/8 21/34/8
f 30/38/9 25/39/9 9/40/9
f 5/41/10 36/42/10 30/38/10
f 4/43/11 6/44/11 22/45/11
f 20/32/12 22/45/12 6/44/12
f 30/38/13 37/46/13 31/47/13
f 36/42/14 43/48/14 37/46/14
f 12/49/15 22/45/15 27/50/15
f 24/51/16 27/50/16 22/45/16
f 23/52/17 24/51/17 20/32/17
f 26/53/18 23/52/18 19/31/18
f 25/37/19 31/54/19 26/53/19
f 28/55/20 29/56/20 24/51/20
f 32/57/21 28/55/21 23/52/21
f 38/58/22 32/59/22 26/60/22
f 37/46/23 44/61/23 38/58/23
f 50/62/24 44/61/24 37/46/24
f 14/63/25 27/50/25 33/64/25
f 29/56/26 33/64/26 27/50/26
f 57/65/27 51/66/27 44/61/27
f 16/67/28 33/64/28 40/68/28
f 35/69/29 40/68/29 33/64/29
f 34/70/30 35/69/30 29/56/30
f 32/57/31 39/71/31 34/70/31
f 38/58/32 45/72/32 39/73/32
f 44/61/33 51/66/33 45/72/33
f 45/72/34 52/74/34 46/75/34
f 51/66/35 58/76/35 52/74/35
f 62/77/36 58/76/36 51/66/36
f 18/78/37 17/79/37 40/68/37
f 35/69/38 41/80/38 47/81/38
f 34/70/39 42/82/39 41/80/39
f 39/71/40 46/83/40 42/82/40
f 42/84/41 49/85/41 48/86/41
f 46/87/42 53/88/42 49/85/42
f 52/74/43 59/89/43 53/90/43
f 63/91/44 59/89/44 52/74/44
f 62/77/45 65/92/45 63/91/45
f 15/93/46 18/94/46 47/95/46
f 41/96/47 48/86/47 54/97/47
f 67/98/48 66/99/48 63/91/48
f 13/100/49 15/93/49 54/97/49
f 48/86/50 55/101/50 54/97/50
f 49/85/51 56/102/51 55/101/51
f 53/88/52 60/103/52 56/102/52
f 59/89/53 64/104/53 60/105/53
f 66/99/54 64/104/54 59/89/54
f 97/106/55 60/105/55 64/104/55
f 98/107/56 64/104/56 66/99/56
f 99/108/57 66/99/57 67/98/57
f 91/109/58 74/110/58 61/111/58
f 72/110/59 13/100/59 61/111/59
f 91/109/60 61/111/60 55/101/60
f 94/112/61 55/101/61 56/102/61
f 96/113/62 56/102/62 60/103/62
f 76/114/63 75/115/63 36/42/63
f 92/115/64 43/48/64 75/115/64
f 92/115/65 93/115/65 50/62/65
f 95/114/66 57/65/66 50/62/66
f 103/115/67 62/77/67 95/114/67
f 102/115/68 65/92/68 103/115/68
f 101/115/69 67/98/69 102/115/69
f 101/115/70 100/116/70 67/98/70
f 68/117/71 71/118/71 70/119/71
f 73/4/2 74/6/2 69/120/2
f 69/120/2 72/6/2 68/121/2
f 2/5/4 73/122/4 101/123/4
f 73/122/4 69/124/4 75/125/4
f 70/126/3 79/127/3 83/128/3
f 70/126/3 83/128/3 82/129/3
f 70/126/3 82/129/3 81/130/3
f 70/126/3 81/130/3 80/131/3
f 70/126/3 80/131/3 77/132/3
f 79/127/3 70/126/3 78/133/3
f 78/133/3 70/126/3 71/134/3
f 70/126/3 77/132/3 76/135/3
f 70/136/4 76/125/4 75/125/4
f 68/137/5 87/138/5 90/139/5
f 68/137/5 90/139/5 89/140/5
f 68/137/5 89/140/5 88/141/5
f 68/137/5 88/141/5 86/142/5
f 85/143/5 87/138/5 68/137/5
f 68/137/5 86/142/5 84/144/5
f 72/145/5 85/143/5 68/137/5
f 68/137/5 84/144/5 71/146/5
f 104/147/72 83/148/72 105/149/72
f 106/150/73 82/151/73 104/147/73
f 81/152/74 82/151/74 110/153/74
f 115/154/75 80/155/75 110/156/75
f 77/157/76 80/155/76 121/158/76
f 71/159/77 84/160/77 78/161/77
f 105/149/78 79/162/78 107/163/78
f 115/154/79 110/156/79 122/164/79
f 121/158/80 115/154/80 128/165/80
f 84/160/81 86/166/81 107/163/81
f 109/167/82 105/149/82 112/168/82
f 108/169/83 104/147/83 109/167/83
f 111/170/84 106/150/84 108/169/84
f 110/153/85 106/150/85 116/171/85
f 113/172/86 108/169/86 114/173/86
f 117/174/87 111/170/87 113/172/87
f 123/175/88 116/176/88 117/177/88
f 122/164/89 116/176/89 129/178/89
f 135/179/90 128/165/90 129/178/90
f 86/166/91 88/180/91 112/168/91
f 114/173/92 109/167/92 118/181/92
f 142/182/93 135/179/93 136/183/93
f 88/180/94 89/184/94 118/181/94
f 120/185/95 114/173/95 125/186/95
f 119/187/96 113/172/96 120/185/96
f 117/174/97 113/172/97 124/188/97
f 123/175/98 117/177/98 130/189/98
f 129/178/99 123/175/99 136/183/99
f 130/189/100 124/190/100 137/191/100
f 136/183/101 130/189/101 143/192/101
f 147/193/102 142/182/102 143/192/102
f 90/194/103 132/195/103 89/184/103
f 120/185/104 125/186/104 126/196/104
f 119/187/105 120/185/105 127/197/105
f 124/188/106 119/187/106 131/198/106
f 127/199/107 126/200/107 134/201/107
f 131/202/108 127/199/108 138/203/108
f 137/191/109 131/204/109 144/205/109
f 148/206/110 143/192/110 144/205/110
f 147/193/111 143/192/111 150/207/111
f 87/208/112 139/209/112 90/210/112
f 126/200/113 132/211/113 133/212/113
f 152/213/114 150/207/114 151/214/114
f 85/215/115 146/216/115 87/208/115
f 133/212/116 139/209/116 146/216/116
f 134/201/117 133/212/117 141/217/117
f 138/203/118 134/201/118 145/218/118
f 144/205/119 138/219/119 149/220/119
f 151/214/120 148/206/120 149/220/120
f 97/106/121 98/107/121 145/221/121
f 98/107/122 99/108/122 149/220/122
f 99/108/123 100/116/123 151/214/123
f 91/109/124 146/216/124 74/110/124
f 72/110/124 146/216/124 85/215/124
f 91/109/125 94/112/125 146/216/125
f 94/112/126 96/113/126 140/222/126
f 96/113/127 97/223/127 141/217/127
f 76/114/128 77/157/128 75/115/128
f 92/115/129 75/115/129 121/158/129
f 92/115/130 128/165/130 93/115/130
f 95/114/131 93/115/131 142/182/131
f 103/115/132 95/114/132 142/182/132
f 102/115/133 103/115/133 147/193/133
f 101/115/134 102/115/134 150/207/134
f 101/115/135 152/213/135 100/116/135
f 2/2/1 3/117/1 4/3/1
f 2/5/2 72/6/2 74/6/2
f 76/20/4 3/18/4 75/20/4
f 11/35/6 19/31/6 7/33/6
f 10/224/7 21/34/7 11/35/7
f 10/224/8 9/36/8 21/34/8
f 8/225/9 30/38/9 9/40/9
f 8/225/10 5/41/10 30/38/10
f 12/49/136 4/43/136 22/45/136
f 7/33/12 20/32/12 6/44/12
f 25/39/137 30/38/137 31/47/137
f 30/38/14 36/42/14 37/46/14
f 14/63/138 12/49/138 27/50/138
f 20/32/16 24/51/16 22/45/16
f 19/31/17 23/52/17 20/32/17
f 21/34/18 26/53/18 19/31/18
f 21/34/19 25/37/19 26/53/19
f 23/52/139 28/55/139 24/51/139
f 26/53/140 32/57/140 23/52/140
f 31/47/22 38/58/22 26/60/22
f 31/47/23 37/46/23 38/58/23
f 43/48/24 50/62/24 37/46/24
f 16/67/25 14/63/25 33/64/25
f 24/51/141 29/56/141 27/50/141
f 50/62/27 57/65/27 44/61/27
f 17/79/142 16/67/142 40/68/142
f 29/56/29 35/69/29 33/64/29
f 28/55/143 34/70/143 29/56/143
f 28/55/144 32/57/144 34/70/144
f 32/59/32 38/58/32 39/73/32
f 38/58/33 44/61/33 45/72/33
f 39/73/34 45/72/34 46/75/34
f 45/72/145 51/66/145 52/74/145
f 57/65/36 62/77/36 51/66/36
f 47/81/146 18/78/146 40/68/146
f 40/68/147 35/69/147 47/81/147
f 35/69/148 34/70/148 41/80/148
f 34/70/149 39/71/149 42/82/149
f 41/96/41 42/84/41 48/86/41
f 42/84/42 46/87/42 49/85/42
f 46/75/43 52/74/43 53/90/43
f 58/76/44 63/91/44 52/74/44
f 58/76/150 62/77/150 63/91/150
f 54/97/46 15/93/46 47/95/46
f 47/95/47 41/96/47 54/97/47
f 65/92/48 67/98/48 63/91/48
f 61/111/49 13/100/49 54/97/49
f 55/101/50 61/111/50 54/97/50
f 48/86/51 49/85/51 55/101/51
f 49/85/151 53/88/151 56/102/151
f 53/90/53 59/89/53 60/105/53
f 63/91/54 66/99/54 59/89/54
f 98/107/55 97/106/55 64/104/55
f 99/108/56 98/107/56 66/99/56
f 100/116/57 99/108/57 67/98/57
f 74/110/152 72/110/152 61/111/152
f 94/112/153 91/109/153 55/101/153
f 96/113/154 94/112/154 56/102/154
f 97/223/62 96/113/62 60/103/62
f 5/41/155 76/114/155 36/42/155
f 43/48/156 36/42/156 75/115/156
f 43/48/157 92/115/157 50/62/157
f 93/115/65 95/114/65 50/62/65
f 62/77/158 57/65/158 95/114/158
f 65/92/159 62/77/159 103/115/159
f 67/98/160 65/92/160 102/115/160
f 69/226/71 68/117/71 70/119/71
f 74/6/2 72/6/2 69/120/2
f 101/123/1 73/122/1 75/125/1
f 69/124/4 70/136/4 75/125/4
f 83/148/72 79/162/72 105/149/72
f 82/151/73 83/148/73 104/147/73
f 82/151/74 106/150/74 110/153/74
f 80/155/75 81/227/75 110/156/75
f 80/155/76 115/154/76 121/158/76
f 84/160/161 107/163/161 78/161/161
f 79/162/78 78/161/78 107/163/78
f 110/156/79 116/176/79 122/164/79
f 115/154/80 122/164/80 128/165/80
f 86/166/162 112/168/162 107/163/162
f 105/149/82 107/163/82 112/168/82
f 104/147/83 105/149/83 109/167/83
f 106/150/84 104/147/84 108/169/84
f 106/150/85 111/170/85 116/171/85
f 108/169/86 109/167/86 114/173/86
f 111/170/163 108/169/163 113/172/163
f 116/176/88 111/228/88 117/177/88
f 116/176/89 123/175/89 129/178/89
f 128/165/164 122/164/164 129/178/164
f 88/180/91 118/181/91 112/168/91
f 109/167/165 112/168/165 118/181/165
f 135/179/93 129/178/93 136/183/93
f 89/184/166 125/186/166 118/181/166
f 114/173/167 118/181/167 125/186/167
f 113/172/168 114/173/168 120/185/168
f 113/172/97 119/187/97 124/188/97
f 117/177/98 124/190/98 130/189/98
f 123/175/99 130/189/99 136/183/99
f 124/190/169 131/204/169 137/191/169
f 130/189/170 137/191/170 143/192/170
f 142/182/102 136/183/102 143/192/102
f 132/195/171 125/186/171 89/184/171
f 125/186/172 132/195/172 126/196/172
f 120/185/173 126/196/173 127/197/173
f 119/187/106 127/197/106 131/198/106
f 126/200/107 133/212/107 134/201/107
f 127/199/108 134/201/108 138/203/108
f 131/204/109 138/219/109 144/205/109
f 143/192/110 137/191/110 144/205/110
f 143/192/174 148/206/174 150/207/174
f 139/209/112 132/211/112 90/210/112
f 132/211/113 139/209/113 133/212/113
f 150/207/114 148/206/114 151/214/114
f 146/216/115 139/209/115 87/208/115
f 140/222/116 133/212/116 146/216/116
f 133/212/117 140/222/117 141/217/117
f 134/201/175 141/217/175 145/218/175
f 138/219/119 145/221/119 149/220/119
f 148/206/120 144/205/120 149/220/120
f 98/107/121 149/220/121 145/221/121
f 99/108/122 151/214/122 149/220/122
f 100/116/123 152/213/123 151/214/123
f 146/216/176 72/110/176 74/110/176
f 94/112/177 140/222/177 146/216/177
f 96/113/178 141/217/178 140/222/178
f 97/223/127 145/218/127 141/217/127
f 77/157/179 121/158/179 75/115/179
f 128/165/180 92/115/180 121/158/180
f 128/165/181 135/179/181 93/115/181
f 93/115/182 135/179/182 142/182/182
f 147/193/183 103/115/183 142/182/183
f 150/207/184 102/115/184 147/193/184
f 152/213/185 101/115/185 150/207/185
