# Blender v2.66 (sub 1) OBJ File: 'mesh_Cylinder_8sides.blend'
# www.blender.org
mtllib mesh_Cylinder_8sides.mtl
o Cylinder_Cylinder.003
v 0.000000 -1.000000 0.000000
v 0.000000 1.000000 0.000000
v 0.000000 -1.000000 -1.000000
v 0.000000 1.000000 -1.000000
v 0.707107 -1.000000 -0.707107
v 0.707107 1.000000 -0.707107
v 1.000000 -1.000000 0.000000
v 1.000000 1.000000 0.000000
v 0.707107 -1.000000 0.707107
v 0.707107 1.000000 0.707107
v -0.000000 -1.000000 1.000000
v -0.000000 1.000000 1.000000
v -0.707107 -1.000000 0.707107
v -0.707107 1.000000 0.707107
v -1.000000 -1.000000 -0.000000
v -1.000000 1.000000 -0.000000
v -0.707107 -1.000000 -0.707107
v -0.707107 1.000000 -0.707107
vt 0.553899 0.552679
vt 0.369874 0.476454
vt 0.477674 0.368654
vt 0.553899 0.184226
vt 0.477674 0.000201
vt 0.630125 0.000201
vt 0.153874 0.798809
vt 0.152652 0.400436
vt 0.260451 0.400106
vt 0.630125 0.368654
vt 0.369874 0.108001
vt 0.999799 0.001000
vt 0.998577 0.399372
vt 0.846126 0.398905
vt 0.737924 0.476453
vt 0.369874 0.260452
vt 0.847348 0.000532
vt 0.738327 0.398574
vt 0.737924 0.628905
vt 0.477674 0.368251
vt 0.739549 0.798615
vt 0.738327 0.400243
vt 0.890778 0.399775
vt 0.630125 0.736704
vt 0.630125 0.368251
vt 0.368250 0.000201
vt 0.369472 0.398574
vt 0.260451 0.000532
vt 0.477674 0.736704
vt 0.737924 0.260452
vt 0.261673 0.398905
vt 0.108000 0.001000
vt 0.369874 0.628905
vt 0.737924 0.108001
vt 0.109222 0.399372
vt 0.000201 0.001331
vt 0.001424 0.799277
vt 0.000201 0.400904
vt 0.261673 0.798478
vt 0.739549 0.000201
vt 0.892000 0.798147
vt 0.001423 0.399703
vn -0.000000 -1.000000 0.000000
vn 0.000000 1.000000 -0.000000
vn 0.382683 0.000000 -0.923880
vn 0.923880 0.000000 -0.382683
vn 0.923880 0.000000 0.382683
vn 0.382683 0.000000 0.923880
vn -0.382684 0.000000 0.923879
vn -0.923880 0.000000 0.382683
vn -0.923880 -0.000000 -0.382683
vn -0.382684 -0.000000 -0.923879
usemtl None
s off
f 1/1/1 3/2/1 5/3/1
f 2/4/2 6/5/2 4/6/2
f 3/7/3 4/8/3 6/9/3
f 1/1/1 5/3/1 7/10/1
f 2/4/2 8/11/2 6/5/2
f 5/12/4 6/13/4 8/14/4
f 1/1/1 7/10/1 9/15/1
f 2/4/2 10/16/2 8/11/2
f 7/17/5 8/14/5 10/18/5
f 1/1/1 9/15/1 11/19/1
f 2/4/2 12/20/2 10/16/2
f 9/21/6 10/22/6 12/23/6
f 1/1/1 11/19/1 13/24/1
f 2/4/2 14/25/2 12/20/2
f 11/26/7 12/27/7 13/28/7
f 1/1/1 13/24/1 15/29/1
f 2/4/2 16/30/2 14/25/2
f 13/28/8 14/31/8 15/32/8
f 1/1/1 15/29/1 17/33/1
f 2/4/2 18/34/2 16/30/2
f 15/32/9 16/35/9 17/36/9
f 1/1/1 17/33/1 3/2/1
f 2/4/2 4/6/2 18/34/2
f 17/37/10 18/38/10 3/7/10
f 5/39/3 3/7/3 6/9/3
f 7/17/4 5/12/4 8/14/4
f 9/40/5 7/17/5 10/18/5
f 11/41/6 9/21/6 12/23/6
f 12/27/7 14/31/7 13/28/7
f 14/31/8 16/35/8 15/32/8
f 16/35/9 18/42/9 17/36/9
f 18/38/10 4/8/10 3/7/10
