# Blender v2.66 (sub 1) OBJ File: 'mesh_FlatPyramid_8sided.blend'
# www.blender.org
mtllib mesh_FlatPyramid_8sided.mtl
o Cone_Cone.004
v -0.018945 -0.449774 -0.069950
v -0.018945 0.050226 -0.069950
v -0.018945 -0.449774 -1.069950
v -0.018945 0.050226 -0.569950
v 0.688162 -0.449774 -0.777057
v 0.334609 0.050226 -0.423503
v 0.981055 -0.449774 -0.069950
v 0.481055 0.050226 -0.069950
v 0.688162 -0.449774 0.637157
v 0.334609 0.050226 0.283603
v -0.018945 -0.449774 0.930050
v -0.018945 0.050226 0.430050
v -0.726052 -0.449774 0.637157
v -0.372498 0.050226 0.283603
v -1.018945 -0.449774 -0.069950
v -0.518945 0.050226 -0.069950
v -0.726052 -0.449774 -0.777057
v -0.372498 0.050226 -0.423503
vt 0.280486 0.280486
vt 0.164305 0.000000
vt 0.396667 0.000000
vt 0.140243 0.701215
vt 0.198334 0.841458
vt 0.082152 0.841458
vt 1.000000 0.560972
vt 0.793334 0.502881
vt 0.793334 0.386700
vt 0.560972 0.164305
vt 0.280486 0.759305
vt 0.512848 0.767638
vt 0.454758 0.974303
vt 0.338577 0.974303
vt 0.560972 0.396667
vt 0.280486 0.643124
vt 0.745210 0.767638
vt 0.687120 0.974303
vt 0.570939 0.974303
vt 0.396667 0.560972
vt 0.198334 0.560972
vt 0.793334 0.000000
vt 0.735244 0.206666
vt 0.619063 0.206666
vt 0.164305 0.560972
vt 0.082152 0.560972
vt 0.793334 0.354306
vt 0.735244 0.560972
vt 0.560972 0.354306
vt 0.000000 0.396667
vt 0.000000 0.643124
vt 0.570939 0.560972
vt 0.000000 0.164305
vt 0.000000 0.759305
vt 0.951876 0.793334
vt 0.745210 0.735243
vt 0.951876 0.560972
vt 0.280486 0.767638
vt 0.338577 0.560972
vt 1.000000 0.328610
vt 0.560972 0.000000
vt 0.619063 0.560972
vt 0.687120 0.560972
vt 0.745210 0.619062
vt 0.454758 0.560972
vn -0.000000 -1.000000 0.000000
vn 0.000000 1.000000 -0.000000
vn 0.281085 0.678598 -0.678598
vn 0.678598 0.678598 -0.281085
vn 0.678598 0.678598 0.281085
vn 0.281085 0.678598 0.678598
vn -0.281085 0.678598 0.678598
vn -0.678598 0.678598 0.281085
vn -0.678598 0.678598 -0.281085
vn -0.281085 0.678598 -0.678598
usemtl None
s off
f 1/1/1 3/2/1 5/3/1
f 2/4/2 6/5/2 4/6/2
f 3/7/3 4/8/3 6/9/3
f 1/1/1 5/3/1 7/10/1
f 2/4/2 8/11/2 6/5/2
f 5/12/4 6/13/4 8/14/4
f 1/1/1 7/10/1 9/15/1
f 2/4/2 10/16/2 8/11/2
f 7/17/5 8/18/5 10/19/5
f 1/1/1 9/15/1 11/20/1
f 2/4/2 12/21/2 10/16/2
f 9/22/6 10/23/6 12/24/6
f 1/1/1 11/20/1 13/25/1
f 2/4/2 14/26/2 12/21/2
f 11/27/7 12/28/7 13/29/7
f 1/1/1 13/25/1 15/30/1
f 2/4/2 16/31/2 14/26/2
f 13/12/8 14/32/8 15/17/8
f 1/1/1 15/30/1 17/33/1
f 2/4/2 18/34/2 16/31/2
f 15/35/9 16/36/9 17/37/9
f 1/1/1 17/33/1 3/2/1
f 2/4/2 4/6/2 18/34/2
f 17/38/10 18/39/10 3/12/10
f 5/40/3 3/7/3 6/9/3
f 7/38/4 5/12/4 8/14/4
f 9/12/5 7/17/5 10/19/5
f 11/41/6 9/22/6 12/24/6
f 12/28/7 14/42/7 13/29/7
f 14/32/8 16/43/8 15/17/8
f 16/36/9 18/44/9 17/37/9
f 18/39/10 4/45/10 3/12/10
