# Blender v2.66 (sub 1) OBJ File: 'mesh_FlatPyramid_4sided.blend'
# www.blender.org
mtllib mesh_FlatPyramid_4sided.mtl
o Cone_Cone.001
v -0.018945 -0.449774 -1.069950
v -0.018945 0.050226 -0.569950
v 0.981055 -0.449774 -0.069950
v 0.481055 0.050226 -0.069950
v -0.018945 -0.449774 0.930050
v -0.018945 0.050226 0.430050
v -1.018945 -0.449774 -0.069950
v -0.518945 0.050226 -0.069950
vt 1.000000 0.535898
vt 0.767949 0.401924
vt 0.767949 0.133975
vt 0.535898 0.767949
vt 0.401924 1.000000
vt 0.133975 1.000000
vt 0.767949 0.535898
vt 0.535898 0.401924
vt 0.767949 0.000000
vt 0.803847 0.535898
vt 0.803847 0.803847
vt 0.535898 0.803847
vt 0.000000 0.000000
vt 0.535898 0.000000
vt 0.535898 0.535898
vt 0.000000 0.767949
vt 0.133975 0.535898
vt 1.000000 0.000000
vt 0.535898 0.133974
vt 0.000000 0.535898
vt 0.401924 0.535898
vn 0.577350 0.577350 -0.577350
vn 0.577350 0.577350 0.577350
vn -0.577350 0.577350 0.577350
vn 0.000000 1.000000 -0.000000
vn -0.000000 -1.000000 0.000000
vn -0.577350 0.577350 -0.577350
usemtl None
s off
f 1/1/1 2/2/1 4/3/1
f 3/4/2 4/5/2 6/6/2
f 5/7/3 6/8/3 7/9/3
f 6/10/4 4/11/4 2/12/4
f 7/13/5 1/14/5 3/15/5
f 7/16/6 8/17/6 1/4/6
f 3/18/1 1/1/1 4/3/1
f 5/16/2 3/4/2 6/6/2
f 6/8/3 8/19/3 7/9/3
f 8/15/4 6/10/4 2/12/4
f 5/20/5 7/13/5 3/15/5
f 8/17/6 2/21/6 1/4/6
