# Blender v2.66 (sub 1) OBJ File: 'mesh_Frame7_quarter.blend'
# www.blender.org
mtllib mesh_Frame7_quarter.mtl
o Cylinder_Cylinder.006
v 0.000000 -0.100000 -1.000000
v 0.000000 0.100000 -1.000000
v -1.000000 -0.100000 -0.000001
v -1.000000 0.100000 -0.000001
v -0.980785 -0.100000 -0.195091
v -0.980785 0.100000 -0.195091
v -0.923879 -0.100000 -0.382684
v -0.923879 0.100000 -0.382684
v -0.831469 -0.100000 -0.555571
v -0.831469 0.100000 -0.555571
v -0.707106 -0.100000 -0.707108
v -0.707106 0.100000 -0.707108
v -0.555569 -0.100000 -0.831470
v -0.555569 0.100000 -0.831470
v -0.382682 -0.100000 -0.923880
v -0.382682 0.100000 -0.923880
v -0.195089 -0.100000 -0.980786
v -0.195089 0.100000 -0.980786
v 0.000000 -0.100000 -0.900000
v 0.000000 0.100000 -0.900000
v -0.900000 -0.100000 -0.000001
v -0.900000 0.100000 -0.000001
v -0.882707 -0.100000 -0.175582
v -0.882707 0.100000 -0.175582
v -0.831491 -0.100000 -0.344416
v -0.831491 0.100000 -0.344416
v -0.748322 -0.100000 -0.500014
v -0.748322 0.100000 -0.500014
v -0.636395 -0.100000 -0.636397
v -0.636395 0.100000 -0.636397
v -0.500012 -0.100000 -0.748323
v -0.500012 0.100000 -0.748323
v -0.344414 -0.100000 -0.831492
v -0.344414 0.100000 -0.831492
v -0.175580 -0.100000 -0.882707
v -0.175580 0.100000 -0.882707
vt 0.314808 0.222766
vt 0.314808 0.335264
vt 0.204540 0.222766
vt 0.314808 0.002231
vt 0.427306 0.002231
vt 0.314808 0.112498
vt 0.425075 0.222766
vt 0.425075 0.335264
vt 0.204540 0.335264
vt 0.317039 0.335264
vt 0.204540 0.445531
vt 0.317039 0.112498
vt 0.429537 0.112498
vt 0.317039 0.222766
vt 0.204540 0.112498
vt 0.042816 0.182480
vt 0.094795 0.085235
vt 0.141563 0.116485
vt 0.429537 0.335264
vt 0.317039 0.445530
vt 0.314808 0.000000
vt 0.204540 0.000000
vt 0.164767 0.795474
vt 0.094808 0.710238
vt 0.141577 0.678984
vt 0.288013 0.806281
vt 0.397750 0.795474
vt 0.397749 0.851723
vt 0.042822 0.612990
vt 0.094790 0.591462
vt 0.164748 0.000000
vt 0.204520 0.039774
vt 0.182491 0.838289
vt 0.298986 0.861450
vt 0.010810 0.507470
vt 0.065978 0.496495
vt 0.710246 0.890276
vt 0.795479 0.960228
vt 0.755705 1.000000
vt 0.085241 0.890269
vt 0.204017 0.890258
vt 0.000000 0.397734
vt 0.056249 0.397733
vt 0.613003 0.838295
vt 0.678996 0.937043
vt 0.000000 0.960224
vt 0.116492 0.937040
vt 0.010807 0.287998
vt 0.065975 0.298972
vt 0.507486 0.806284
vt 0.591477 0.890261
vt 0.094782 0.204006
vt 0.496512 0.861452
vt 0.528776 0.335264
vt 0.528780 0.447762
vt 0.429540 0.447764
vt 0.303781 0.445531
vt 0.303781 0.558029
vt 0.204540 0.558029
vt 0.623557 0.222766
vt 0.623557 0.335264
vt 0.524316 0.335264
vt 0.416279 0.445530
vt 0.416279 0.558028
vt 0.317039 0.558028
vt 0.628018 0.447764
vt 0.628018 0.560263
vt 0.528777 0.560263
vt 0.528777 0.110267
vt 0.528777 0.222766
vt 0.429537 0.222766
vt 0.524316 0.222766
vt 0.528777 0.447764
vt 0.429537 0.560263
vt 0.585029 0.447764
vt 0.528780 0.447764
vt 0.585029 0.335266
vt 0.528778 0.110268
vt 0.585027 0.110268
vt 0.585027 0.222766
vt 0.427306 0.112498
vt 0.317039 0.445531
vt 0.429537 0.445530
vt 0.204540 0.755697
vt 0.039775 1.000000
vt 0.429537 0.335266
vt 0.429537 0.110268
vt 0.429537 0.447764
vt 0.528780 0.335266
vn -0.995185 -0.000000 -0.098018
vn -0.956940 -0.000000 -0.290286
vn -0.881921 -0.000000 -0.471398
vn -0.773010 -0.000000 -0.634394
vn -0.634392 -0.000000 -0.773011
vn -0.471395 -0.000000 -0.881922
vn 0.000000 1.000000 0.000000
vn -0.098017 -0.000000 -0.995185
vn -0.290283 -0.000000 -0.956941
vn -0.000000 -1.000000 0.000000
vn 0.098016 0.000000 0.995185
vn 0.290283 0.000000 0.956941
vn 0.471395 0.000000 0.881922
vn 0.634392 0.000000 0.773011
vn 0.773010 0.000000 0.634394
vn 0.881921 0.000000 0.471398
vn 0.956940 0.000000 0.290286
vn 0.995185 0.000000 0.098018
vn -0.000001 0.000000 1.000000
vn 1.000000 0.000000 -0.000000
usemtl None
s off
f 3/1/1 4/2/1 5/3/1
f 5/4/2 6/5/2 7/6/2
f 7/7/3 8/8/3 9/1/3
f 9/9/4 10/10/4 11/11/4
f 11/12/5 12/13/5 13/14/5
f 13/15/6 14/12/6 15/3/6
f 8/16/7 6/17/7 24/18/7
f 17/10/8 18/19/8 1/20/8
f 15/21/9 16/6/9 17/22/9
f 2/23/7 18/24/7 36/25/7
f 9/26/10 11/27/10 29/28/10
f 18/24/7 16/29/7 34/30/7
f 6/17/7 4/31/7 22/32/7
f 7/33/10 9/26/10 27/34/10
f 16/29/7 14/35/7 32/36/7
f 17/37/10 1/38/10 19/39/10
f 5/40/10 7/33/10 25/41/10
f 14/35/7 12/42/7 30/43/7
f 15/44/10 17/37/10 35/45/10
f 3/46/10 5/40/10 23/47/10
f 12/42/7 10/48/7 28/49/7
f 13/50/10 15/44/10 33/51/10
f 10/48/7 8/16/7 26/52/7
f 11/27/10 13/50/10 31/53/10
f 19/54/11 20/55/11 36/56/11
f 35/57/12 36/58/12 34/59/12
f 33/60/13 34/61/13 32/62/13
f 31/63/14 32/64/14 30/65/14
f 29/66/15 30/67/15 28/68/15
f 27/69/16 28/70/16 26/71/16
f 25/72/17 26/62/17 24/8/17
f 23/73/18 24/68/18 22/74/18
f 22/75/19 4/76/19 21/77/19
f 19/78/20 1/79/20 2/80/20
f 4/2/1 6/9/1 5/3/1
f 6/5/2 8/81/2 7/6/2
f 8/8/3 10/2/3 9/1/3
f 10/10/4 12/82/4 11/11/4
f 12/13/5 14/71/5 13/14/5
f 14/12/6 16/14/6 15/3/6
f 26/52/7 8/16/7 24/18/7
f 18/19/8 2/83/8 1/20/8
f 16/6/9 18/15/9 17/22/9
f 20/84/7 2/23/7 36/25/7
f 27/34/10 9/26/10 29/28/10
f 36/25/7 18/24/7 34/30/7
f 24/18/7 6/17/7 22/32/7
f 25/41/10 7/33/10 27/34/10
f 34/30/7 16/29/7 32/36/7
f 35/45/10 17/37/10 19/39/10
f 23/47/10 5/40/10 25/41/10
f 32/36/7 14/35/7 30/43/7
f 33/51/10 15/44/10 35/45/10
f 21/85/10 3/46/10 23/47/10
f 30/43/7 12/42/7 28/49/7
f 31/53/10 13/50/10 33/51/10
f 28/49/7 10/48/7 26/52/7
f 29/28/10 11/27/10 31/53/10
f 35/86/11 19/54/11 36/56/11
f 33/11/12 35/57/12 34/59/12
f 31/72/13 33/60/13 32/62/13
f 29/20/14 31/63/14 30/65/14
f 27/73/15 29/66/15 28/68/15
f 25/87/16 27/69/16 26/71/16
f 23/7/17 25/72/17 24/8/17
f 21/88/18 23/73/18 22/74/18
f 4/76/19 3/89/19 21/77/19
f 20/70/20 19/78/20 2/80/20
