# Blender v2.66 (sub 1) OBJ File: 'mesh_Ramp9.blend'
# www.blender.org
mtllib mesh_Ramp9.mtl
o Cone
v 0.000000 0.000000 1.000000
v -1.000000 0.000000 -1.000000
v -0.000000 1.000000 -1.000000
v 1.000000 0.000000 -1.000000
vt 0.577709 0.472136
vt 0.472136 0.155418
vt 1.000000 0.155418
vt 0.527864 0.472136
vt 0.105573 0.788855
vt 0.000000 0.472136
vt 0.861715 0.805987
vt 0.527864 0.805987
vt 0.236068 0.000000
vt 0.472136 0.472136
vn 0.666667 0.666667 0.333333
vn -0.666667 0.666667 0.333333
vn -0.000000 -0.000000 -1.000000
vn 0.000000 -1.000000 0.000000
usemtl None
s off
f 4/1/1 3/2/1 1/3/1
f 1/4/2 3/5/2 2/6/2
f 2/7/3 3/8/3 4/4/3
f 1/9/4 2/10/4 4/6/4
