# Blender v2.66 (sub 1) OBJ File: 'mesh_RingQuarter_external.blend'
# www.blender.org
mtllib mesh_RingQuarter_external.mtl
o Cylinder.001_Cylinder.012
v 0.000000 -0.500000 -1.000000
v 0.000000 0.500000 -1.000000
v -1.000000 -0.500000 0.000000
v -1.000000 0.500000 0.000000
v -0.995185 -0.500000 -0.098016
v -0.995185 0.500000 -0.098016
v -0.980785 -0.500000 -0.195089
v -0.980785 0.500000 -0.195089
v -0.956941 -0.500000 -0.290284
v -0.956941 0.500000 -0.290284
v -0.923880 -0.500000 -0.382682
v -0.923880 0.500000 -0.382682
v -0.881922 -0.500000 -0.471395
v -0.881922 0.500000 -0.471395
v -0.831471 -0.500000 -0.555569
v -0.831471 0.500000 -0.555569
v -0.773012 -0.500000 -0.634392
v -0.773012 0.500000 -0.634392
v -0.707108 -0.500000 -0.707105
v -0.707108 0.500000 -0.707105
v -0.634395 -0.500000 -0.773009
v -0.634395 0.500000 -0.773009
v -0.555572 -0.500000 -0.831468
v -0.555572 0.500000 -0.831468
v -0.471399 -0.500000 -0.881920
v -0.471399 0.500000 -0.881920
v -0.382686 -0.500000 -0.923878
v -0.382686 0.500000 -0.923878
v -0.290288 -0.500000 -0.956939
v -0.290288 0.500000 -0.956939
v -0.195093 -0.500000 -0.980785
v -0.195093 0.500000 -0.980785
v -0.098021 -0.500000 -0.995184
v -0.098021 0.500000 -0.995184
vt 0.015745 0.996257
vt 0.019051 0.009836
vt 0.076092 0.996255
vt 0.079399 0.009834
vt 0.136439 0.996253
vt 0.139746 0.009832
vt 0.196785 0.996250
vt 0.200094 0.009830
vt 0.257132 0.996248
vt 0.260442 0.009828
vt 0.317479 0.996247
vt 0.320791 0.009826
vt 0.377825 0.996245
vt 0.381139 0.009824
vt 0.438172 0.996243
vt 0.441487 0.009822
vt 0.498518 0.996242
vt 0.501836 0.009821
vt 0.558865 0.996240
vt 0.562185 0.009819
vt 0.619211 0.996239
vt 0.622533 0.009818
vt 0.679558 0.996238
vt 0.682882 0.009817
vt 0.739904 0.996237
vt 0.743231 0.009816
vt 0.800251 0.996237
vt 0.803580 0.009815
vt 0.860597 0.996236
vt 0.863929 0.009815
vt 0.920943 0.996236
vt 0.924278 0.009814
vt 0.981290 0.996236
vt 0.984627 0.009814
vn -0.998795 -0.000000 -0.049067
vn -0.989177 -0.000000 -0.146730
vn -0.970032 -0.000000 -0.242979
vn -0.941544 -0.000000 -0.336889
vn -0.903990 -0.000000 -0.427554
vn -0.857729 -0.000000 -0.514101
vn -0.803208 -0.000000 -0.595698
vn -0.740953 -0.000000 -0.671557
vn -0.671560 -0.000000 -0.740950
vn -0.595701 -0.000000 -0.803206
vn -0.514105 -0.000000 -0.857727
vn -0.427557 -0.000000 -0.903988
vn -0.336893 -0.000000 -0.941543
vn -0.242983 -0.000000 -0.970030
vn -0.146733 -0.000000 -0.989176
vn -0.049070 -0.000000 -0.998795
usemtl None
s off
f 3/1/1 4/2/1 5/3/1
f 5/3/2 6/4/2 7/5/2
f 7/5/3 8/6/3 9/7/3
f 9/7/4 10/8/4 11/9/4
f 11/9/5 12/10/5 13/11/5
f 13/11/6 14/12/6 15/13/6
f 15/13/7 16/14/7 17/15/7
f 17/15/8 18/16/8 19/17/8
f 19/17/9 20/18/9 21/19/9
f 21/19/10 22/20/10 23/21/10
f 23/21/11 24/22/11 25/23/11
f 25/23/12 26/24/12 27/25/12
f 27/25/13 28/26/13 29/27/13
f 29/27/14 30/28/14 31/29/14
f 31/29/15 32/30/15 33/31/15
f 33/31/16 34/32/16 1/33/16
f 4/2/1 6/4/1 5/3/1
f 6/4/2 8/6/2 7/5/2
f 8/6/3 10/8/3 9/7/3
f 10/8/4 12/10/4 11/9/4
f 12/10/5 14/12/5 13/11/5
f 14/12/6 16/14/6 15/13/6
f 16/14/7 18/16/7 17/15/7
f 18/16/8 20/18/8 19/17/8
f 20/18/9 22/20/9 21/19/9
f 22/20/10 24/22/10 23/21/10
f 24/22/11 26/24/11 25/23/11
f 26/24/12 28/26/12 27/25/12
f 28/26/13 30/28/13 29/27/13
f 30/28/14 32/30/14 31/29/14
f 32/30/15 34/32/15 33/31/15
f 34/32/16 2/34/16 1/33/16
