# Blender v2.66 (sub 1) OBJ File: 'mesh_Container5.blend'
# www.blender.org
mtllib mesh_Container5.mtl
o Solid.005
v 1.232291 0.470693 -0.581809
v 1.412080 0.000000 -0.290904
v 1.232291 -0.470693 -0.581809
v 0.941386 -0.290904 -1.052502
v 0.941386 0.290904 -1.052502
v -0.941386 0.290904 -1.052502
v -0.941386 -0.290904 -1.052502
v -1.232291 -0.470693 -0.581809
v -1.412080 0.000000 -0.290904
v -1.232291 0.470693 -0.581809
v 0.941386 0.290904 1.052502
v 0.941386 -0.290904 1.052502
v 1.232291 -0.470693 0.581809
v 1.412080 0.000000 0.290904
v 1.232291 0.470693 0.581809
v -1.232291 0.470693 0.581809
v -1.412080 0.000000 0.290904
v -1.232291 -0.470693 0.581809
v -0.941386 -0.290904 1.052502
v -0.941386 0.290904 1.052502
v 0.581809 1.232291 -0.470693
v 0.290904 1.412080 0.000000
v 0.581809 1.232291 0.470693
v 1.052502 0.941386 0.290904
v 1.052502 0.941386 -0.290904
v 1.052502 -0.941386 -0.290904
v 1.052502 -0.941386 0.290904
v 0.581809 -1.232291 0.470693
v 0.290904 -1.412080 0.000000
v 0.581809 -1.232291 -0.470693
v -1.052502 0.941386 -0.290904
v -1.052502 0.941386 0.290904
v -0.581809 1.232291 0.470693
v -0.290904 1.412080 0.000000
v -0.581809 1.232291 -0.470693
v -0.581809 -1.232291 -0.470693
v -0.290904 -1.412080 0.000000
v -0.581809 -1.232291 0.470693
v -1.052502 -0.941386 0.290904
v -1.052502 -0.941386 -0.290904
v 0.470693 0.581809 -1.232291
v 0.000000 0.290904 -1.412080
v -0.470693 0.581809 -1.232291
v -0.290904 1.052502 -0.941386
v 0.290904 1.052502 -0.941386
v 0.290904 1.052502 0.941386
v -0.290904 1.052502 0.941386
v -0.470693 0.581809 1.232291
v 0.000000 0.290904 1.412080
v 0.470693 0.581809 1.232291
v 0.290904 -1.052502 -0.941386
v -0.290904 -1.052502 -0.941386
v -0.470693 -0.581809 -1.232291
v 0.000000 -0.290904 -1.412080
v 0.470693 -0.581809 -1.232291
v 0.470693 -0.581809 1.232291
v 0.000000 -0.290904 1.412080
v -0.470693 -0.581809 1.232291
v -0.290904 -1.052502 0.941386
v 0.290904 -1.052502 0.941386
vt 0.912658 0.491333
vt 0.858678 0.417036
vt 1.000000 0.371118
vt 0.912658 0.342739
vt 0.280004 0.968529
vt 0.226024 0.894232
vt 0.367346 0.940150
vt 0.280004 0.819935
vt 0.367346 0.848314
vt 0.912658 0.650398
vt 0.858678 0.576101
vt 1.000000 0.530183
vt 0.912658 0.501804
vt 0.788671 0.159066
vt 0.734691 0.084768
vt 0.876013 0.130687
vt 0.788671 0.010471
vt 0.876013 0.038850
vt 0.858678 0.589187
vt 0.784362 0.643142
vt 0.738493 0.501804
vt 0.710084 0.589136
vt 0.822033 0.975393
vt 0.734691 0.947014
vt 0.822033 0.826799
vt 0.734691 0.855178
vt 0.699613 0.931884
vt 0.625316 0.985864
vt 0.671234 0.844542
vt 0.551019 0.931884
vt 0.579397 0.844542
vt 0.883286 0.246407
vt 0.808989 0.300387
vt 0.854907 0.159066
vt 0.734691 0.246407
vt 0.763070 0.159066
vt 0.551019 0.907276
vt 0.476721 0.961256
vt 0.430803 0.819935
vt 0.402424 0.907276
vt 0.183673 0.907277
vt 0.109376 0.961257
vt 0.155294 0.819935
vt 0.035078 0.907277
vt 0.063457 0.819935
vt 0.808989 0.826799
vt 0.734691 0.772819
vt 0.883286 0.772819
vt 0.763070 0.685477
vt 0.854907 0.685477
vt 0.858678 0.430122
vt 0.784362 0.484076
vt 0.738493 0.342739
vt 0.710084 0.430070
vt 0.321428 0.318131
vt 0.367346 0.397664
vt 0.183673 0.397664
vt 0.321427 0.477197
vt 0.229591 0.477197
vt 0.734691 0.079533
vt 0.688773 0.159066
vt 0.596937 0.000000
vt 0.596937 0.159066
vt 0.551019 0.079533
vt 0.045918 0.159066
vt 0.137755 0.159066
vt 0.045918 0.318131
vt 0.183673 0.238599
vt 0.137754 0.318131
vt 0.664166 0.501804
vt 0.572329 0.501804
vt 0.664166 0.342739
vt 0.526411 0.422271
vt 0.572329 0.342739
vt 0.183673 0.740402
vt 0.229591 0.660869
vt 0.229591 0.819935
vt 0.321428 0.660869
vt 0.321427 0.819935
vt 0.183673 0.238598
vt 0.229591 0.159066
vt 0.229591 0.318131
vt 0.321428 0.159066
vt 0.367346 0.079533
vt 0.413264 0.000000
vt 0.413264 0.159066
vt 0.505100 0.000000
vt 0.505100 0.159066
vt 0.137754 0.159066
vt 0.045918 0.159065
vt 0.183673 0.079533
vt 0.000000 0.079533
vt 0.137755 0.000000
vt 0.045918 0.819935
vt 0.000000 0.740402
vt 0.045918 0.660870
vt 0.137755 0.660870
vt 0.734691 0.238598
vt 0.688773 0.318131
vt 0.596937 0.318131
vt 0.505100 0.660869
vt 0.551019 0.740402
vt 0.367346 0.740402
vt 0.505100 0.819935
vt 0.413264 0.819935
vt 0.183673 0.614951
vt 0.183673 0.523115
vt 0.263206 0.660869
vt 0.263205 0.477197
vt 0.342738 0.614951
vt 0.688773 0.844542
vt 0.596937 0.844542
vt 0.688773 0.685477
vt 0.551019 0.765010
vt 0.596937 0.685477
vt 0.630551 0.501804
vt 0.710084 0.547722
vt 0.551019 0.639559
vt 0.710084 0.639559
vt 0.630551 0.685477
vt 0.024608 0.523115
vt 0.104140 0.477197
vt 0.024608 0.614951
vt 0.104140 0.660870
vt 0.446878 0.501804
vt 0.367346 0.455886
vt 0.526411 0.455886
vt 0.367346 0.364049
vt 0.526411 0.364049
vt 0.413264 0.660869
vt 0.551019 0.581337
vt 0.367346 0.581337
vt 0.413264 0.501804
vt 0.137755 0.318131
vt 0.000000 0.397664
vt 0.045918 0.477197
vt 0.367346 0.238598
vt 0.551019 0.238598
vt 0.413264 0.318131
vt 0.229591 0.000000
vt 1.000000 0.462954
vt 1.000000 0.622019
vt 0.830329 0.501836
vt 0.876013 0.901096
vt 0.522640 0.819935
vt 0.830330 0.342770
vt 0.688773 0.000000
vt 0.000000 0.238598
vt 0.710084 0.422271
vt 0.045919 0.000000
vt 0.137755 0.819935
vt 0.342738 0.523115
vt 0.734691 0.765010
vt 0.551019 0.547722
vt 0.446878 0.318131
vt 0.505100 0.501804
vt 0.137755 0.477197
vt 0.505100 0.318131
vt 0.321428 0.000000
vn 0.850651 -0.000000 -0.525731
vn -0.850651 0.000000 -0.525731
vn 0.850651 -0.000000 0.525731
vn -0.850651 -0.000000 0.525731
vn 0.525731 0.850651 0.000000
vn 0.525731 -0.850651 0.000000
vn -0.525731 0.850651 0.000000
vn -0.525731 -0.850651 0.000000
vn -0.000000 0.525731 -0.850651
vn -0.000000 0.525731 0.850651
vn 0.000000 -0.525731 -0.850651
vn -0.000000 -0.525731 0.850651
vn 0.577350 0.577350 -0.577350
vn 0.577350 -0.577350 -0.577350
vn 0.577350 0.577350 0.577350
vn 0.577350 -0.577350 0.577350
vn -0.577350 0.577350 -0.577350
vn -0.577350 -0.577350 -0.577350
vn -0.577350 0.577350 0.577350
vn -0.577350 -0.577350 0.577350
vn 0.356822 0.000000 -0.934172
vn -0.356822 -0.000000 -0.934172
vn 0.356822 0.000000 0.934172
vn -0.356822 0.000000 0.934172
vn 0.934172 0.356822 0.000000
vn 0.934172 -0.356822 0.000000
vn -0.934172 0.356822 0.000000
vn -0.934172 -0.356822 -0.000000
vn 0.000000 0.934172 -0.356822
vn 0.000000 0.934172 0.356822
vn -0.000000 -0.934172 -0.356822
vn 0.000000 -0.934172 0.356822
usemtl None
s off
f 1/1/1 2/2/1 4/3/1
f 2/2/1 3/4/1 4/3/1
f 6/5/2 7/6/2 10/7/2
f 7/6/2 8/8/2 9/9/2
f 11/10/3 12/11/3 14/12/3
f 12/11/3 13/13/3 14/12/3
f 16/14/4 17/15/4 20/16/4
f 17/15/4 18/17/4 19/18/4
f 21/19/5 22/20/5 24/21/5
f 22/20/5 23/22/5 24/21/5
f 26/23/6 27/24/6 29/25/6
f 27/24/6 28/26/6 29/25/6
f 31/27/7 32/28/7 35/29/7
f 32/28/7 33/30/7 34/31/7
f 36/32/8 37/33/8 40/34/8
f 37/33/8 38/35/8 39/36/8
f 41/37/9 42/38/9 44/39/9
f 42/38/9 43/40/9 44/39/9
f 46/41/10 47/42/10 50/43/10
f 47/42/10 48/44/10 49/45/10
f 51/46/11 52/47/11 55/48/11
f 52/47/11 53/49/11 54/50/11
f 56/51/12 57/52/12 59/53/12
f 57/52/12 58/54/12 59/53/12
f 1/55/13 5/56/13 21/57/13
f 5/56/13 41/58/13 45/59/13
f 4/60/14 3/61/14 51/62/14
f 3/61/14 26/63/14 30/64/14
f 11/65/15 15/66/15 46/67/15
f 15/66/15 24/68/15 23/69/15
f 13/70/16 12/71/16 28/72/16
f 12/71/16 56/73/16 60/74/16
f 6/75/17 10/76/17 43/77/17
f 10/76/17 31/78/17 44/79/17
f 8/80/18 7/81/18 40/82/18
f 7/81/18 53/83/18 36/55/18
f 16/84/19 20/85/19 32/86/19
f 20/85/19 48/87/19 33/88/19
f 19/89/20 18/90/20 58/91/20
f 18/90/20 39/92/20 59/93/20
f 5/94/21 4/95/21 42/75/21
f 4/95/21 55/96/21 54/97/21
f 7/98/22 6/99/22 53/61/22
f 6/99/22 43/100/22 54/63/22
f 12/101/23 11/102/23 57/103/23
f 11/102/23 50/104/23 49/105/23
f 20/106/24 19/107/24 48/108/24
f 19/107/24 58/109/24 49/110/24
f 25/111/25 24/112/25 2/113/25
f 24/112/25 15/114/25 14/115/25
f 27/116/26 26/117/26 14/118/26
f 26/117/26 3/119/26 2/120/26
f 32/121/27 31/122/27 16/123/27
f 31/122/27 10/107/27 17/124/27
f 40/125/28 39/126/28 8/127/28
f 39/126/28 18/128/28 9/129/28
f 45/101/29 44/130/29 21/131/29
f 44/130/29 35/132/29 34/133/29
f 47/67/30 46/134/30 33/135/30
f 46/134/30 23/57/30 34/136/30
f 52/86/31 51/88/31 36/137/31
f 51/88/31 30/138/31 37/139/31
f 60/83/32 59/81/32 28/84/32
f 59/81/32 38/91/32 37/140/32
f 5/141/1 1/1/1 4/3/1
f 7/6/2 9/9/2 10/7/2
f 15/142/3 11/10/3 14/12/3
f 17/15/4 19/18/4 20/16/4
f 25/143/5 21/19/5 24/21/5
f 30/144/6 26/23/6 29/25/6
f 32/28/7 34/31/7 35/29/7
f 37/33/8 39/36/8 40/34/8
f 45/145/9 41/37/9 44/39/9
f 47/42/10 49/45/10 50/43/10
f 52/47/11 54/50/11 55/48/11
f 60/146/12 56/51/12 59/53/12
f 25/82/13 1/55/13 21/57/13
f 21/57/13 5/56/13 45/59/13
f 55/147/14 4/60/14 51/62/14
f 51/62/14 3/61/14 30/64/14
f 50/148/15 11/65/15 46/67/15
f 46/67/15 15/66/15 23/69/15
f 27/149/16 13/70/16 28/72/16
f 28/72/16 12/71/16 60/74/16
f 10/76/17 44/79/17 43/77/17
f 31/78/17 35/103/17 44/79/17
f 7/81/18 36/55/18 40/82/18
f 53/83/18 52/137/18 36/55/18
f 20/85/19 33/88/19 32/86/19
f 48/87/19 47/64/19 33/88/19
f 18/90/20 59/93/20 58/91/20
f 39/92/20 38/150/20 59/93/20
f 41/151/21 5/94/21 42/75/21
f 42/75/21 4/95/21 54/97/21
f 6/99/22 54/63/22 53/61/22
f 43/100/22 42/138/22 54/63/22
f 56/130/23 12/101/23 57/103/23
f 57/103/23 11/102/23 49/105/23
f 19/107/24 49/110/24 48/108/24
f 58/109/24 57/152/24 49/110/24
f 1/153/25 25/111/25 2/113/25
f 2/113/25 24/112/25 14/115/25
f 13/154/26 27/116/26 14/118/26
f 14/118/26 26/117/26 2/120/26
f 31/122/27 17/124/27 16/123/27
f 10/107/27 9/106/27 17/124/27
f 39/126/28 9/129/28 8/127/28
f 18/128/28 17/155/28 9/129/28
f 44/130/29 22/156/29 21/131/29
f 22/156/29 44/130/29 34/133/29
f 46/134/30 34/136/30 33/135/30
f 23/57/30 22/157/30 34/136/30
f 51/88/31 37/139/31 36/137/31
f 30/138/31 29/158/31 37/139/31
f 59/81/32 29/159/32 28/84/32
f 29/159/32 59/81/32 37/140/32
