# Blender v2.66 (sub 1) OBJ File: 'mesh_Sphere6x4.blend'
# www.blender.org
mtllib mesh_Sphere6x4.mtl
o Sphere
v -0.707107 0.707107 0.000000
v -1.000000 -0.000000 0.000000
v -0.707107 -0.707107 0.000000
v -0.353553 0.707107 -0.612372
v -0.500000 -0.000000 -0.866026
v -0.353553 -0.707107 -0.612372
v 0.353554 0.707107 -0.612372
v 0.500000 -0.000000 -0.866026
v 0.353554 -0.707107 -0.612372
v 0.707107 0.707107 0.000000
v 1.000000 -0.000000 -0.000000
v 0.707107 -0.707107 0.000000
v 0.353554 0.707107 0.612372
v 0.500000 -0.000000 0.866025
v 0.353554 -0.707107 0.612372
v 0.000000 -1.000000 0.000000
v 0.000000 1.000000 0.000000
v -0.353553 0.707107 0.612372
v -0.500000 -0.000000 0.866025
v -0.353553 -0.707107 0.612372
vt 0.060849 0.773870
vt 0.000000 0.593296
vt 0.235352 0.750612
vt 0.045490 0.386935
vt 0.228136 0.583939
vt 0.419816 0.576866
vt 0.234477 0.406177
vt 0.412600 0.410193
vt 0.587103 0.386935
vt 0.413475 0.754628
vt 0.647953 0.567509
vt 0.587103 0.000000
vt 0.647953 0.180574
vt 0.419816 0.189931
vt 0.602462 0.386935
vt 0.413475 0.367693
vt 0.235352 0.363677
vt 0.412600 0.023258
vt 0.228136 0.197004
vt 0.823976 0.844349
vt 0.647953 0.844288
vt 0.736017 0.691878
vt 0.647953 0.539346
vt 0.823976 0.539406
vt 0.735912 0.691817
vt 0.912041 0.691939
vt 0.911936 0.691878
vt 1.000000 0.539467
vt 1.000000 0.844410
vt 0.911935 0.996820
vt 0.912041 0.386996
vt 0.736017 0.386935
vt 0.735912 0.996760
vt 0.234477 0.019242
vt 0.045490 0.000000
vt 0.000000 0.206361
vt 0.602462 0.773870
vt 0.060849 0.386935
vn -0.815165 -0.337652 -0.470636
vn -0.815165 0.337652 -0.470635
vn -0.000000 -0.337652 -0.941271
vn 0.000000 0.337652 -0.941271
vn 0.815165 0.337652 -0.470635
vn 0.815165 -0.337652 -0.470635
vn 0.815165 -0.337652 0.470635
vn 0.815165 0.337652 0.470635
vn -0.000000 0.337652 0.941271
vn 0.000000 -0.337652 0.941271
vn -0.373672 -0.902123 -0.215739
vn -0.373672 0.902123 -0.215739
vn -0.000000 -0.902123 -0.431479
vn 0.000000 0.902123 -0.431479
vn 0.373672 0.902123 -0.215739
vn 0.373672 -0.902123 -0.215739
vn 0.373672 -0.902123 0.215739
vn 0.373672 0.902123 0.215739
vn 0.000000 0.902123 0.431479
vn 0.000000 -0.902123 0.431479
vn -0.815165 -0.337652 0.470636
vn -0.373672 -0.902123 0.215739
vn -0.373672 0.902123 0.215739
vn -0.815164 0.337652 0.470636
vn -0.815165 -0.337652 -0.470635
vn -0.815165 0.337652 -0.470636
vn 0.815164 0.337652 -0.470635
vn -0.815164 -0.337652 0.470636
vn -0.815165 0.337652 0.470635
usemtl None
s off
f 3/1/1 2/2/1 6/3/1
f 2/2/2 1/4/2 5/5/2
f 6/3/3 5/5/3 8/6/3
f 5/5/4 4/7/4 7/8/4
f 8/6/5 7/8/5 10/9/5
f 9/10/6 8/6/6 11/11/6
f 12/12/7 11/13/7 14/14/7
f 11/13/8 10/15/8 13/16/8
f 14/14/9 13/16/9 18/17/9
f 15/18/10 14/14/10 19/19/10
f 16/20/11 3/21/11 6/22/11
f 1/23/12 17/24/12 4/25/12
f 16/20/13 6/22/13 9/26/13
f 4/25/14 17/24/14 7/27/14
f 7/27/15 17/24/15 10/28/15
f 16/20/16 9/26/16 12/29/16
f 16/20/17 12/29/17 15/30/17
f 10/28/18 17/24/18 13/31/18
f 13/31/19 17/24/19 18/32/19
f 16/20/20 15/30/20 20/33/20
f 20/34/21 19/19/21 3/35/21
f 16/20/22 20/33/22 3/21/22
f 18/32/23 17/24/23 1/23/23
f 19/19/24 18/17/24 2/36/24
f 2/2/25 5/5/25 6/3/25
f 1/4/26 4/7/26 5/5/26
f 9/10/3 6/3/3 8/6/3
f 8/6/4 5/5/4 7/8/4
f 11/11/27 8/6/27 10/9/27
f 12/37/6 9/10/6 11/11/6
f 15/18/7 12/12/7 14/14/7
f 14/14/8 11/13/8 13/16/8
f 19/19/9 14/14/9 18/17/9
f 20/34/10 15/18/10 19/19/10
f 19/19/28 2/36/28 3/35/28
f 18/17/29 1/38/29 2/36/29
