# Blender v2.66 (sub 1) OBJ File: 'mesh_DiamondGem_32sided.blend'
# www.blender.org
mtllib mesh_DiamondGem_32sided.mtl
o Diamond.003
v 0.000000 0.350000 0.000000
v 0.000000 -0.800000 0.000000
v 0.600000 0.350000 0.000000
v 1.000000 0.000000 0.000000
v 0.588471 0.350000 0.117054
v 0.980785 0.000000 0.195090
v 0.554328 0.350000 0.229610
v 0.923880 0.000000 0.382683
v 0.498882 0.350000 0.333342
v 0.831470 0.000000 0.555570
v 0.424264 0.350000 0.424264
v 0.707107 0.000000 0.707107
v 0.333342 0.350000 0.498882
v 0.555570 0.000000 0.831470
v 0.229610 0.350000 0.554328
v 0.382684 0.000000 0.923879
v 0.117054 0.350000 0.588471
v 0.195090 0.000000 0.980785
v 0.000000 0.350000 0.600000
v 0.000000 0.000000 1.000000
v -0.117054 0.350000 0.588471
v -0.195090 0.000000 0.980785
v -0.229610 0.350000 0.554328
v -0.382684 0.000000 0.923880
v -0.333342 0.350000 0.498882
v -0.555570 0.000000 0.831470
v -0.424264 0.350000 0.424264
v -0.707107 0.000000 0.707107
v -0.498882 0.350000 0.333342
v -0.831469 0.000000 0.555570
v -0.554328 0.350000 0.229610
v -0.923879 0.000000 0.382683
v -0.588471 0.350000 0.117054
v -0.980785 0.000000 0.195090
v -0.600000 0.350000 0.000000
v -1.000000 0.000000 0.000000
v -0.588471 0.350000 -0.117054
v -0.980785 0.000000 -0.195090
v -0.554328 0.350000 -0.229610
v -0.923880 0.000000 -0.382683
v -0.498882 0.350000 -0.333342
v -0.831469 0.000000 -0.555570
v -0.424264 0.350000 -0.424264
v -0.707107 0.000000 -0.707107
v -0.333342 0.350000 -0.498882
v -0.555571 0.000000 -0.831469
v -0.229610 0.350000 -0.554328
v -0.382684 0.000000 -0.923880
v -0.117054 0.350000 -0.588471
v -0.195091 0.000000 -0.980785
v 0.000000 0.350000 -0.600000
v 0.000000 0.000000 -1.000000
v 0.117054 0.350000 -0.588471
v 0.195090 0.000000 -0.980785
v 0.229610 0.350000 -0.554328
v 0.382684 0.000000 -0.923879
v 0.333342 0.350000 -0.498882
v 0.555570 0.000000 -0.831470
v 0.424264 0.350000 -0.424264
v 0.707106 0.000000 -0.707107
v 0.498882 0.350000 -0.333342
v 0.831470 0.000000 -0.555570
v 0.554328 0.350000 -0.229610
v 0.923879 0.000000 -0.382684
v 0.588471 0.350000 -0.117054
v 0.980785 0.000000 -0.195090
vt 0.684234 0.145742
vt 0.365941 0.145742
vt 0.680504 0.097161
vt 0.220055 0.097447
vt 0.268636 0.412010
vt 0.220055 0.415740
vt 0.048581 0.097447
vt 0.097161 0.412011
vt 0.048581 0.415740
vt 0.292998 0.097447
vt 0.317360 0.414807
vt 0.268636 0.414807
vt 0.000000 0.097447
vt 0.048581 0.412011
vt 0.000000 0.415740
vt 0.684234 0.269714
vt 0.369670 0.318294
vt 0.365941 0.269714
vt 0.635654 0.804101
vt 0.321089 0.852682
vt 0.317360 0.804101
vt 0.317360 0.440102
vt 0.000000 0.464464
vt 0.684233 0.172552
vt 0.369670 0.221133
vt 0.365941 0.172552
vt 0.684233 0.000000
vt 0.369670 0.048581
vt 0.365941 0.000000
vt 0.635652 0.561198
vt 0.321089 0.609779
vt 0.317360 0.561198
vt 0.635653 0.901262
vt 0.321089 0.949843
vt 0.317360 0.901262
vt 0.635653 0.318294
vt 0.321089 0.366875
vt 0.317360 0.318294
vt 0.635653 0.658360
vt 0.321089 0.706940
vt 0.317360 0.658360
vt 0.635653 0.609779
vt 0.321089 0.658360
vt 0.317360 0.609779
vt 0.317360 0.073086
vt 0.000000 0.048724
vt 0.684233 0.048581
vt 0.369670 0.097161
vt 0.365941 0.048581
vt 0.684233 0.221133
vt 0.369670 0.269714
vt 0.365941 0.221133
vt 0.317360 0.488826
vt 0.000000 0.513187
vt 0.317360 0.024362
vt 0.000000 0.000000
vt 0.953946 0.706940
vt 0.639382 0.755521
vt 0.635653 0.706940
vt 0.317360 0.755521
vt 0.631924 0.706940
vt 0.635653 0.755521
vt 0.317360 0.512617
vt 0.631923 0.464037
vt 0.635653 0.512617
vt 0.631924 0.852682
vt 0.631923 0.512617
vt 0.635653 0.561198
vt 0.171475 0.097447
vt 0.220055 0.412011
vt 0.171475 0.415740
vt 0.317360 0.000000
vt 0.365941 0.314565
vt 0.635654 0.366875
vt 0.684234 0.681440
vt 0.635654 0.685169
vt 0.684234 0.000001
vt 0.732814 0.314565
vt 0.684234 0.318294
vt 0.317360 0.415456
vt 0.631924 0.366875
vt 0.635654 0.415456
vt 0.631925 0.755521
vt 0.317360 0.464037
vt 0.631924 0.415456
vt 0.635653 0.464037
vt 0.000000 0.717826
vt 0.131744 0.708082
vt 0.131744 0.756805
vt 0.781538 0.186550
vt 0.771793 0.318294
vt 0.742559 0.318294
vt 0.830261 0.186550
vt 0.820517 0.318294
vt 0.791282 0.318294
vt 0.781538 0.000001
vt 0.771793 0.131745
vt 0.742559 0.131745
vt 0.317360 0.610635
vt 0.307615 0.742379
vt 0.278381 0.742378
vt 0.732958 0.366875
vt 0.723213 0.498619
vt 0.693979 0.498619
vt 0.878984 0.186550
vt 0.869240 0.318294
vt 0.840006 0.318294
vt 0.732957 0.498619
vt 0.723213 0.630363
vt 0.693979 0.630363
vt 0.781681 0.498619
vt 0.771936 0.630363
vt 0.742702 0.630363
vt 0.131744 0.659358
vt 0.263488 0.669103
vt 0.000000 0.659358
vt 0.131744 0.669103
vt 0.000000 0.708082
vt 0.000000 0.756805
vt 0.131744 0.766550
vt 0.000000 0.805528
vt 0.000000 0.610635
vt 0.131744 0.620379
vt 0.878984 0.054806
vt 0.869240 0.186550
vt 0.830261 0.054807
vt 0.145885 0.229191
vt 0.136140 0.360935
vt 0.097161 0.229191
vt 0.781681 0.366875
vt 0.771936 0.498619
vt 0.830261 0.000001
vt 0.820516 0.131744
vt 0.263488 0.717826
vt 0.131744 0.805528
vt 0.263488 0.815273
vt 0.131744 0.854252
vt 0.185616 0.561911
vt 0.317360 0.571656
vt 0.185616 0.610635
vt 0.263488 0.766550
vt 0.815978 0.679086
vt 0.684234 0.669342
vt 0.815978 0.630363
vt 0.131744 0.561911
vt 0.000000 0.552166
vt 0.131744 0.513187
vt 0.767398 0.852968
vt 0.635654 0.843223
vt 0.767398 0.804244
vt 0.317360 0.561911
vt 0.185616 0.552166
vt 0.317360 0.513187
vt 0.830404 0.366875
vt 0.820660 0.498619
vt 0.791426 0.498619
vt 0.145885 0.097447
vt 0.136140 0.229191
vt 0.106906 0.229191
vt 0.830404 0.498619
vt 0.820660 0.630363
vt 0.791426 0.630363
vt 0.317360 0.742379
vt 0.307615 0.874122
vt 0.278381 0.874122
vt 0.263488 0.659358
vt 0.131744 0.649613
vt 0.635654 0.794499
vt 0.635654 0.765265
vt 0.131744 0.610635
vt 0.000000 0.600890
vt 0.000000 0.571656
vt 0.635654 0.969482
vt 0.781916 0.940388
vt 0.784781 0.969482
vt 0.263488 0.970766
vt 0.114360 0.970766
vt 0.260622 0.941673
vt 0.979532 0.601270
vt 0.830404 0.601270
vt 0.976666 0.572177
vt 0.933909 0.911295
vt 0.784781 0.911295
vt 0.931043 0.882202
vt 0.933908 0.940388
vt 0.784781 0.940388
vt 0.931043 0.911295
vt 0.635654 0.882202
vt 0.784781 0.882202
vt 0.638519 0.911295
vt 0.486525 0.949843
vt 0.635653 0.949843
vt 0.489391 0.978936
vt 0.114360 0.912439
vt 0.262770 0.927056
vt 0.114360 0.941673
vt 0.787646 0.940388
vt 0.933908 0.969482
vt 0.830404 0.469526
vt 0.979532 0.469526
vt 0.833270 0.498619
vt 0.833270 0.366875
vt 0.979532 0.395968
vt 0.830404 0.395968
vt 0.833270 0.630363
vt 0.114360 0.854252
vt 0.263488 0.854252
vt 0.117226 0.883345
vt 0.933190 0.984099
vt 0.784781 0.998716
vt 0.635654 0.911295
vt 0.638519 0.940388
vt 0.815978 0.659597
vt 0.965105 0.659597
vt 0.818843 0.688690
vt 0.317360 0.949843
vt 0.466487 0.949843
vt 0.320225 0.978936
vt 0.964387 0.644980
vt 0.830404 0.440292
vt 0.978814 0.454909
vt 0.784062 0.318294
vt 0.933190 0.318294
vt 0.786928 0.347388
vt 0.979532 0.498619
vt 0.833270 0.527712
vt 0.263488 1.000000
vt 0.115078 0.985383
vt 0.932472 0.882202
vt 0.784063 0.867585
vt 0.932472 0.852968
vt 0.916525 0.784614
vt 0.767398 0.784614
vt 0.913659 0.755521
vt 0.784062 0.347529
vt 0.635653 0.332911
vt 0.978670 0.054806
vt 0.830261 0.040190
vt 0.978670 0.025572
vt 0.260623 0.912439
vt 0.114360 0.883345
vt 0.263488 0.883345
vt 0.784063 0.998716
vt 0.635654 0.984099
vt 0.784063 0.969482
vt 0.978814 0.425202
vt 0.830404 0.410585
vt 0.978814 0.395968
vt 0.915807 0.833478
vt 0.767398 0.818861
vt 0.915807 0.804244
vt 0.979532 0.556805
vt 0.830404 0.556805
vt 0.976667 0.527712
vt 0.784063 0.882202
vt 0.635654 0.867584
vt 0.784063 0.852968
vt 0.000000 0.747060
vt 0.732814 0.186550
vt 0.732814 0.000001
vt 0.268637 0.610635
vt 0.684234 0.366875
vt 0.684234 0.498619
vt 0.263488 0.698337
vt 0.131744 0.698337
vt 0.131744 0.795784
vt 0.131744 0.649614
vt 0.840006 0.186550
vt 0.106906 0.360935
vt 0.742702 0.498619
vt 0.791282 0.131744
vt 0.263488 0.747060
vt 0.263488 0.844507
vt 0.317360 0.600890
vt 0.263488 0.795784
vt 0.684234 0.640108
vt 0.000000 0.522932
vt 0.635654 0.813989
vt 0.185616 0.522932
vt 0.097161 0.097447
vt 0.268637 0.742379
vt 0.263488 0.610635
vt 0.767398 0.755521
vn 0.623516 -0.779395 -0.061411
vn 0.623516 -0.779395 0.061411
vn 0.599555 -0.779395 0.181873
vn 0.552553 -0.779395 0.295346
vn 0.484316 -0.779395 0.397468
vn 0.397468 -0.779395 0.484316
vn 0.295345 -0.779395 0.552553
vn 0.181873 -0.779395 0.599555
vn 0.061411 -0.779395 0.623516
vn -0.061411 -0.779395 0.623516
vn -0.181873 -0.779395 0.599555
vn -0.295346 -0.779395 0.552553
vn -0.397468 -0.779395 0.484317
vn -0.484317 -0.779395 0.397468
vn -0.552553 -0.779395 0.295346
vn -0.599555 -0.779395 0.181873
vn -0.623516 -0.779395 0.061411
vn -0.623516 -0.779395 -0.061411
vn -0.599555 -0.779395 -0.181873
vn -0.552553 -0.779395 -0.295345
vn -0.484317 -0.779395 -0.397468
vn -0.397468 -0.779395 -0.484316
vn -0.295346 -0.779395 -0.552553
vn -0.181873 -0.779395 -0.599555
vn -0.061411 -0.779395 -0.623516
vn 0.061411 -0.779395 -0.623516
vn 0.181873 -0.779395 -0.599555
vn 0.295345 -0.779395 -0.552553
vn 0.397468 -0.779395 -0.484317
vn 0.484316 -0.779395 -0.397468
vn 0.552553 -0.779395 -0.295346
vn 0.599555 -0.779395 -0.181873
vn 0.657124 0.750999 -0.064721
vn 0.657124 0.750999 0.064721
vn 0.631871 0.750999 0.191675
vn 0.582336 0.750999 0.311265
vn 0.510422 0.750999 0.418892
vn 0.418892 0.750999 0.510422
vn 0.311265 0.750999 0.582336
vn 0.191677 0.750999 0.631871
vn 0.064721 0.750999 0.657124
vn -0.064721 0.750999 0.657124
vn -0.191676 0.750999 0.631871
vn -0.311265 0.750999 0.582336
vn -0.418892 0.750999 0.510422
vn -0.510422 0.750999 0.418892
vn -0.582336 0.750999 0.311265
vn -0.631871 0.750999 0.191676
vn -0.657124 0.750999 0.064721
vn -0.657124 0.750999 -0.064721
vn -0.631871 0.750999 -0.191676
vn -0.582336 0.750999 -0.311265
vn -0.510422 0.750999 -0.418892
vn -0.418892 0.750999 -0.510421
vn -0.311265 0.750999 -0.582336
vn -0.191676 0.750999 -0.631871
vn -0.064721 0.750999 -0.657124
vn 0.064721 0.750999 -0.657124
vn 0.191676 0.750999 -0.631871
vn 0.311265 0.750999 -0.582336
vn 0.418892 0.750999 -0.510422
vn 0.510421 0.750999 -0.418892
vn 0.582336 0.750999 -0.311265
vn 0.631871 0.750999 -0.191676
vn 0.000000 1.000000 -0.000000
vn -0.000001 1.000000 -0.000000
vn 0.631871 0.750999 0.191676
vn 0.510421 0.750999 0.418892
vn 0.418892 0.750999 0.510421
vn 0.191676 0.750999 0.631871
vn -0.064722 0.750999 0.657124
vn -0.510421 0.750999 0.418892
vn -0.510421 0.750999 -0.418892
vn -0.418893 0.750999 -0.510421
usemtl None
s off
f 4/1/1 2/2/1 66/3/1
f 2/4/2 4/5/2 6/6/2
f 2/7/3 6/8/3 8/9/3
f 2/10/4 8/11/4 10/12/4
f 2/13/5 10/14/5 12/15/5
f 2/16/6 12/17/6 14/18/6
f 2/19/7 14/20/7 16/21/7
f 2/22/8 16/23/8 18/15/8
f 2/24/9 18/25/9 20/26/9
f 2/27/10 20/28/10 22/29/10
f 2/30/11 22/31/11 24/32/11
f 2/33/12 24/34/12 26/35/12
f 2/36/13 26/37/13 28/38/13
f 2/39/14 28/40/14 30/41/14
f 2/42/15 30/43/15 32/44/15
f 2/45/16 32/13/16 34/46/16
f 2/47/17 34/48/17 36/49/17
f 2/50/18 36/51/18 38/52/18
f 2/53/19 38/54/19 40/23/19
f 2/55/20 40/46/20 42/56/20
f 2/57/21 42/58/21 44/59/21
f 2/60/22 44/61/22 46/62/22
f 2/63/23 46/64/23 48/65/23
f 2/35/24 48/66/24 50/33/24
f 2/32/25 50/67/25 52/68/25
f 2/69/26 52/70/26 54/71/26
f 2/72/27 54/73/27 56/38/27
f 2/74/28 56/75/28 58/76/28
f 2/77/29 58/78/29 60/79/29
f 2/80/30 60/81/30 62/82/30
f 2/21/31 62/83/31 64/19/31
f 2/84/32 64/85/32 66/86/32
f 3/87/33 4/88/33 66/89/33
f 4/90/34 3/91/34 5/92/34
f 6/93/35 5/94/35 7/95/35
f 8/96/36 7/97/36 9/98/36
f 10/99/37 9/100/37 11/101/37
f 12/102/38 11/103/38 13/104/38
f 14/105/39 13/106/39 15/107/39
f 16/108/40 15/109/40 17/110/40
f 18/111/41 17/112/41 19/113/41
f 20/114/42 19/115/42 22/88/42
f 22/116/43 21/117/43 24/118/43
f 24/119/44 23/120/44 26/121/44
f 26/122/45 25/123/45 28/116/45
f 28/124/46 27/125/46 30/126/46
f 30/127/47 29/128/47 32/129/47
f 32/130/48 31/131/48 34/102/48
f 34/132/49 33/133/49 36/96/49
f 36/88/50 35/134/50 38/89/50
f 38/135/51 37/136/51 40/137/51
f 40/138/52 39/139/52 42/140/52
f 42/89/53 41/141/53 44/135/53
f 44/142/54 43/143/54 46/144/54
f 46/145/55 45/146/55 48/147/55
f 48/148/56 47/149/56 50/150/56
f 50/151/57 49/152/57 52/153/57
f 52/154/58 51/155/58 53/156/58
f 54/157/59 53/158/59 55/159/59
f 56/160/60 55/161/60 57/162/60
f 58/163/61 57/164/61 59/165/61
f 60/166/62 59/167/62 61/123/62
f 62/150/63 61/168/63 63/169/63
f 64/170/64 63/171/64 65/172/64
f 1/173/65 3/174/65 65/175/65
f 3/176/65 1/177/65 5/178/65
f 5/179/65 1/180/65 7/181/65
f 7/182/65 1/183/65 9/184/65
f 9/185/65 1/186/65 11/187/65
f 11/188/65 1/189/65 13/190/65
f 13/191/65 1/192/65 15/193/65
f 15/194/65 1/195/65 17/196/65
f 17/197/65 1/198/65 19/175/65
f 19/199/66 1/200/66 21/201/66
f 21/202/65 1/203/65 23/204/65
f 23/180/65 1/179/65 25/205/65
f 25/206/65 1/207/65 27/208/65
f 27/175/65 1/209/65 29/210/65
f 29/211/65 1/183/65 31/212/65
f 31/213/65 1/214/65 33/215/65
f 33/216/65 1/217/65 35/218/65
f 35/144/65 1/219/65 37/213/65
f 37/220/65 1/221/65 39/199/65
f 39/222/65 1/223/65 41/224/65
f 41/160/65 1/225/65 43/226/65
f 43/227/65 1/228/65 45/176/65
f 45/229/65 1/230/65 47/231/65
f 47/232/65 1/233/65 49/234/65
f 49/235/65 1/236/65 51/222/65
f 51/237/65 1/238/65 53/239/65
f 53/240/65 1/241/65 55/242/65
f 55/243/65 1/244/65 57/245/65
f 57/246/65 1/247/65 59/248/65
f 59/249/65 1/250/65 61/251/65
f 61/252/65 1/253/65 63/254/65
f 63/255/65 1/256/65 65/257/65
f 65/258/33 3/87/33 66/89/33
f 6/259/34 4/90/34 5/92/34
f 8/90/67 6/93/67 7/95/67
f 10/260/36 8/96/36 9/98/36
f 12/261/68 10/99/68 11/101/68
f 14/262/69 12/102/69 13/104/69
f 16/93/39 14/105/39 15/107/39
f 18/263/70 16/108/70 17/110/70
f 20/108/41 18/111/41 19/113/41
f 19/115/71 21/264/71 22/88/71
f 21/117/43 23/265/43 24/118/43
f 23/120/44 25/266/44 26/121/44
f 25/123/45 27/267/45 28/116/45
f 27/125/72 29/268/72 30/126/72
f 29/128/47 31/269/47 32/129/47
f 31/131/48 33/270/48 34/102/48
f 33/133/49 35/271/49 36/96/49
f 35/134/50 37/272/50 38/89/50
f 37/136/51 39/273/51 40/137/51
f 39/139/52 41/274/52 42/140/52
f 41/141/73 43/275/73 44/135/73
f 43/143/74 45/276/74 46/144/74
f 45/146/55 47/277/55 48/147/55
f 47/149/56 49/278/56 50/150/56
f 49/152/57 51/279/57 52/153/57
f 54/130/58 52/154/58 53/156/58
f 56/280/59 54/157/59 55/159/59
f 58/111/60 56/160/60 57/162/60
f 60/281/61 58/163/61 59/165/61
f 62/282/62 60/166/62 61/123/62
f 64/283/63 62/150/63 63/169/63
f 66/145/64 64/170/64 65/172/64
