# Blender v2.66 (sub 1) OBJ File: 'mesh_Cylinder_64sides.blend'
# www.blender.org
mtllib mesh_Cylinder_64sides.mtl
o Cylinder_Cylinder.008
v 0.000000 -1.000000 0.000000
v 0.000000 1.000000 0.000000
v 0.000000 -1.000000 -1.000000
v 0.000000 1.000000 -1.000000
v 0.098017 -1.000000 -0.995185
v 0.098017 1.000000 -0.995185
v 0.195090 -1.000000 -0.980785
v 0.195090 1.000000 -0.980785
v 0.290285 -1.000000 -0.956940
v 0.290285 1.000000 -0.956940
v 0.382683 -1.000000 -0.923880
v 0.382683 1.000000 -0.923880
v 0.471397 -1.000000 -0.881921
v 0.471397 1.000000 -0.881921
v 0.555570 -1.000000 -0.831470
v 0.555570 1.000000 -0.831470
v 0.634393 -1.000000 -0.773010
v 0.634393 1.000000 -0.773010
v 0.707107 -1.000000 -0.707107
v 0.707107 1.000000 -0.707107
v 0.773010 -1.000000 -0.634393
v 0.773010 1.000000 -0.634393
v 0.831470 -1.000000 -0.555570
v 0.831470 1.000000 -0.555570
v 0.881921 -1.000000 -0.471397
v 0.881921 1.000000 -0.471397
v 0.923880 -1.000000 -0.382683
v 0.923880 1.000000 -0.382683
v 0.956940 -1.000000 -0.290285
v 0.956940 1.000000 -0.290285
v 0.980785 -1.000000 -0.195090
v 0.980785 1.000000 -0.195090
v 0.995185 -1.000000 -0.098017
v 0.995185 1.000000 -0.098017
v 1.000000 -1.000000 0.000000
v 1.000000 1.000000 0.000000
v 0.995185 -1.000000 0.098017
v 0.995185 1.000000 0.098017
v 0.980785 -1.000000 0.195091
v 0.980785 1.000000 0.195091
v 0.956940 -1.000000 0.290285
v 0.956940 1.000000 0.290285
v 0.923879 -1.000000 0.382684
v 0.923879 1.000000 0.382684
v 0.881921 -1.000000 0.471397
v 0.881921 1.000000 0.471397
v 0.831469 -1.000000 0.555571
v 0.831469 1.000000 0.555571
v 0.773010 -1.000000 0.634394
v 0.773010 1.000000 0.634394
v 0.707106 -1.000000 0.707107
v 0.707106 1.000000 0.707107
v 0.634393 -1.000000 0.773011
v 0.634393 1.000000 0.773011
v 0.555570 -1.000000 0.831470
v 0.555570 1.000000 0.831470
v 0.471396 -1.000000 0.881922
v 0.471396 1.000000 0.881922
v 0.382683 -1.000000 0.923880
v 0.382683 1.000000 0.923880
v 0.290284 -1.000000 0.956941
v 0.290284 1.000000 0.956941
v 0.195090 -1.000000 0.980785
v 0.195090 1.000000 0.980785
v 0.098016 -1.000000 0.995185
v 0.098016 1.000000 0.995185
v -0.000001 -1.000000 1.000000
v -0.000001 1.000000 1.000000
v -0.098018 -1.000000 0.995185
v -0.098018 1.000000 0.995185
v -0.195091 -1.000000 0.980785
v -0.195091 1.000000 0.980785
v -0.290286 -1.000000 0.956940
v -0.290286 1.000000 0.956940
v -0.382684 -1.000000 0.923879
v -0.382684 1.000000 0.923879
v -0.471398 -1.000000 0.881921
v -0.471398 1.000000 0.881921
v -0.555571 -1.000000 0.831469
v -0.555571 1.000000 0.831469
v -0.634394 -1.000000 0.773010
v -0.634394 1.000000 0.773010
v -0.707108 -1.000000 0.707106
v -0.707108 1.000000 0.707106
v -0.773011 -1.000000 0.634393
v -0.773011 1.000000 0.634393
v -0.831470 -1.000000 0.555570
v -0.831470 1.000000 0.555570
v -0.881922 -1.000000 0.471396
v -0.881922 1.000000 0.471396
v -0.923880 -1.000000 0.382683
v -0.923880 1.000000 0.382683
v -0.956940 -1.000000 0.290285
v -0.956940 1.000000 0.290285
v -0.980785 -1.000000 0.195090
v -0.980785 1.000000 0.195090
v -0.995185 -1.000000 0.098017
v -0.995185 1.000000 0.098017
v -1.000000 -1.000000 0.000000
v -1.000000 1.000000 0.000000
v -0.995185 -1.000000 -0.098016
v -0.995185 1.000000 -0.098016
v -0.980785 -1.000000 -0.195089
v -0.980785 1.000000 -0.195089
v -0.956941 -1.000000 -0.290284
v -0.956941 1.000000 -0.290284
v -0.923880 -1.000000 -0.382682
v -0.923880 1.000000 -0.382682
v -0.881922 -1.000000 -0.471395
v -0.881922 1.000000 -0.471395
v -0.831471 -1.000000 -0.555569
v -0.831471 1.000000 -0.555569
v -0.773012 -1.000000 -0.634392
v -0.773012 1.000000 -0.634392
v -0.707108 -1.000000 -0.707105
v -0.707108 1.000000 -0.707105
v -0.634395 -1.000000 -0.773009
v -0.634395 1.000000 -0.773009
v -0.555572 -1.000000 -0.831468
v -0.555572 1.000000 -0.831468
v -0.471399 -1.000000 -0.881920
v -0.471399 1.000000 -0.881920
v -0.382686 -1.000000 -0.923878
v -0.382686 1.000000 -0.923878
v -0.290288 -1.000000 -0.956939
v -0.290288 1.000000 -0.956939
v -0.195093 -1.000000 -0.980785
v -0.195093 1.000000 -0.980785
v -0.098021 -1.000000 -0.995184
v -0.098021 1.000000 -0.995184
vt 0.206529 0.619586
vt 0.040622 0.742631
vt 0.029360 0.725776
vt 0.206529 0.206528
vt 0.345243 0.053481
vt 0.359576 0.067814
vt 0.871199 0.413813
vt 0.869932 0.000704
vt 0.890105 0.000642
vt 0.019805 0.707899
vt 0.329573 0.040622
vt 0.891372 0.413751
vt 0.909986 0.000581
vt 0.012047 0.689172
vt 0.312719 0.029360
vt 0.911253 0.413690
vt 0.929383 0.000522
vt 0.006163 0.669774
vt 0.294842 0.019805
vt 0.930650 0.413631
vt 0.948110 0.000464
vt 0.002209 0.649894
vt 0.276115 0.012047
vt 0.949378 0.413574
vt 0.965987 0.000410
vt 0.000222 0.629721
vt 0.256717 0.006163
vt 0.967254 0.413519
vt 0.982841 0.000358
vt 0.000222 0.609450
vt 0.236837 0.002209
vt 0.984109 0.413467
vt 0.998510 0.000310
vt 0.002209 0.589278
vt 0.216664 0.000222
vt 0.998511 0.414714
vt 0.999778 0.827823
vt 0.985445 0.827867
vt 0.006163 0.569397
vt 0.196393 0.000222
vt 0.984178 0.414758
vt 0.969776 0.827915
vt 0.012047 0.549999
vt 0.176221 0.002209
vt 0.968508 0.414806
vt 0.952922 0.827966
vt 0.019805 0.531272
vt 0.156340 0.006163
vt 0.951654 0.414857
vt 0.935045 0.828021
vt 0.029360 0.513395
vt 0.136942 0.012047
vt 0.933778 0.414912
vt 0.916317 0.828079
vt 0.040622 0.496541
vt 0.118215 0.019805
vt 0.915050 0.414970
vt 0.896920 0.828138
vt 0.053481 0.480871
vt 0.100338 0.029360
vt 0.895653 0.415029
vt 0.877039 0.828199
vt 0.067814 0.466538
vt 0.083484 0.040622
vt 0.875772 0.415090
vt 0.856866 0.828261
vt 0.083484 0.453679
vt 0.067814 0.053481
vt 0.855599 0.415152
vt 0.836596 0.828323
vt 0.100338 0.442417
vt 0.053481 0.067814
vt 0.835329 0.415214
vt 0.816423 0.828385
vt 0.118215 0.432862
vt 0.040622 0.083484
vt 0.815156 0.415276
vt 0.796543 0.828446
vt 0.136942 0.425104
vt 0.029360 0.100338
vt 0.795275 0.415337
vt 0.777145 0.828506
vt 0.156340 0.419220
vt 0.019805 0.118215
vt 0.775878 0.415397
vt 0.758418 0.828563
vt 0.176221 0.415266
vt 0.012047 0.136942
vt 0.757151 0.415454
vt 0.740541 0.828618
vt 0.196393 0.413279
vt 0.006163 0.156340
vt 0.739274 0.415509
vt 0.723687 0.828669
vt 0.216664 0.413279
vt 0.002209 0.176221
vt 0.722420 0.415561
vt 0.708018 0.828718
vt 0.236837 0.415266
vt 0.000222 0.196393
vt 0.414546 0.828718
vt 0.413279 0.415609
vt 0.427612 0.415565
vt 0.256717 0.419220
vt 0.000222 0.216664
vt 0.428879 0.828674
vt 0.443281 0.415517
vt 0.276115 0.425104
vt 0.002209 0.236837
vt 0.444549 0.828626
vt 0.460135 0.415465
vt 0.294842 0.432862
vt 0.006163 0.256718
vt 0.461403 0.828574
vt 0.478012 0.415410
vt 0.312719 0.442417
vt 0.012047 0.276115
vt 0.479280 0.828519
vt 0.496740 0.415353
vt 0.329574 0.453679
vt 0.019805 0.294842
vt 0.498007 0.828462
vt 0.516137 0.415293
vt 0.345243 0.466538
vt 0.029360 0.312719
vt 0.517404 0.828402
vt 0.536018 0.415232
vt 0.359576 0.480871
vt 0.040622 0.329574
vt 0.537285 0.828341
vt 0.556191 0.415170
vt 0.372436 0.496541
vt 0.053481 0.345243
vt 0.557458 0.828279
vt 0.576461 0.415108
vt 0.383697 0.513395
vt 0.067814 0.359576
vt 0.577728 0.828217
vt 0.597901 0.828155
vt 0.393253 0.531272
vt 0.083484 0.372436
vt 0.596634 0.415046
vt 0.617782 0.828094
vt 0.401010 0.549999
vt 0.100338 0.383697
vt 0.616514 0.414985
vt 0.637179 0.828035
vt 0.406894 0.569397
vt 0.118215 0.393253
vt 0.635912 0.414926
vt 0.655907 0.827977
vt 0.410848 0.589278
vt 0.136942 0.401010
vt 0.654639 0.414868
vt 0.673783 0.827923
vt 0.412835 0.609451
vt 0.156340 0.406894
vt 0.672516 0.414814
vt 0.690637 0.827871
vt 0.412835 0.629721
vt 0.176221 0.410848
vt 0.689370 0.414762
vt 0.706307 0.827823
vt 0.410848 0.649894
vt 0.196394 0.412835
vt 0.719372 0.000222
vt 0.720639 0.413331
vt 0.705039 0.000266
vt 0.406894 0.669775
vt 0.216664 0.412835
vt 0.706306 0.413375
vt 0.689370 0.000314
vt 0.401010 0.689172
vt 0.236837 0.410848
vt 0.690637 0.413423
vt 0.672515 0.000366
vt 0.393252 0.707899
vt 0.256718 0.406894
vt 0.673783 0.413475
vt 0.654639 0.000420
vt 0.383697 0.725776
vt 0.276115 0.401010
vt 0.655906 0.413529
vt 0.635911 0.000478
vt 0.372435 0.742630
vt 0.294842 0.393252
vt 0.637179 0.413587
vt 0.616514 0.000537
vt 0.359576 0.758300
vt 0.312719 0.383697
vt 0.617781 0.413646
vt 0.596633 0.000598
vt 0.345243 0.772633
vt 0.329573 0.372435
vt 0.597901 0.413707
vt 0.576460 0.000660
vt 0.329574 0.785492
vt 0.345243 0.359576
vt 0.577728 0.413769
vt 0.556190 0.000723
vt 0.312719 0.796754
vt 0.359576 0.345243
vt 0.557458 0.413832
vt 0.536018 0.000784
vt 0.294843 0.806309
vt 0.372435 0.329574
vt 0.537285 0.413893
vt 0.516137 0.000845
vt 0.276115 0.814067
vt 0.383697 0.312719
vt 0.517404 0.413954
vt 0.496739 0.000905
vt 0.256718 0.819951
vt 0.393252 0.294843
vt 0.498007 0.414014
vt 0.478012 0.000962
vt 0.236837 0.823905
vt 0.401010 0.276115
vt 0.479280 0.414071
vt 0.460135 0.001017
vt 0.216664 0.825892
vt 0.406894 0.256718
vt 0.461403 0.414126
vt 0.443281 0.001069
vt 0.196394 0.825892
vt 0.410848 0.236837
vt 0.444549 0.414178
vt 0.427612 0.001117
vt 0.176221 0.823905
vt 0.412835 0.216664
vt 0.428879 0.414226
vt 0.413279 0.001161
vt 0.156340 0.819951
vt 0.412835 0.196394
vt 0.722350 0.414270
vt 0.721083 0.001161
vt 0.738019 0.414222
vt 0.136943 0.814067
vt 0.410848 0.176221
vt 0.736752 0.001113
vt 0.754874 0.414170
vt 0.118215 0.806310
vt 0.406894 0.156340
vt 0.753606 0.001061
vt 0.772750 0.414115
vt 0.100338 0.796754
vt 0.401010 0.136943
vt 0.771483 0.001006
vt 0.791478 0.414058
vt 0.083484 0.785493
vt 0.393253 0.118215
vt 0.790210 0.000949
vt 0.810875 0.413998
vt 0.067815 0.772634
vt 0.383697 0.100338
vt 0.809608 0.000889
vt 0.830756 0.413937
vt 0.053481 0.758300
vt 0.372436 0.083484
vt 0.829488 0.000828
vt 0.850928 0.413876
vt 0.849661 0.000766
vt 0.999778 0.413419
vt 0.706750 0.415609
vt 0.705039 0.414714
vt 0.414546 0.414270
vn -0.000000 -1.000000 0.000000
vn 0.000000 1.000000 -0.000000
vn 0.049068 0.000000 -0.998795
vn 0.146731 0.000000 -0.989177
vn 0.242980 0.000000 -0.970031
vn 0.336890 0.000000 -0.941544
vn 0.427555 0.000000 -0.903989
vn 0.514103 0.000000 -0.857729
vn 0.595699 0.000000 -0.803208
vn 0.671559 0.000000 -0.740951
vn 0.740951 0.000000 -0.671559
vn 0.803207 0.000000 -0.595699
vn 0.857729 0.000000 -0.514103
vn 0.903989 0.000000 -0.427555
vn 0.941544 0.000000 -0.336890
vn 0.970031 0.000000 -0.242980
vn 0.989177 0.000000 -0.146730
vn 0.998795 0.000000 -0.049068
vn 0.998795 0.000000 0.049068
vn 0.989177 0.000000 0.146731
vn 0.970031 0.000000 0.242981
vn 0.941544 0.000000 0.336890
vn 0.903989 0.000000 0.427555
vn 0.857728 0.000000 0.514103
vn 0.803207 0.000000 0.595699
vn 0.740951 0.000000 0.671560
vn 0.671559 0.000000 0.740951
vn 0.595699 0.000000 0.803208
vn 0.514102 0.000000 0.857729
vn 0.427555 0.000000 0.903989
vn 0.336889 0.000000 0.941544
vn 0.242980 0.000000 0.970031
vn 0.146729 0.000000 0.989177
vn 0.049067 0.000000 0.998796
vn -0.049068 0.000000 0.998795
vn -0.146731 0.000000 0.989176
vn -0.242981 0.000000 0.970031
vn -0.336891 0.000000 0.941544
vn -0.427556 0.000000 0.903989
vn -0.514104 0.000000 0.857728
vn -0.595700 0.000000 0.803207
vn -0.671560 0.000000 0.740951
vn -0.740952 0.000000 0.671558
vn -0.803208 0.000000 0.595699
vn -0.857729 0.000000 0.514102
vn -0.903989 0.000000 0.427555
vn -0.941544 0.000000 0.336889
vn -0.970031 0.000000 0.242980
vn -0.989176 0.000000 0.146731
vn -0.998795 0.000000 0.049068
vn -0.998795 -0.000000 -0.049067
vn -0.989177 -0.000000 -0.146730
vn -0.970032 -0.000000 -0.242979
vn -0.941544 -0.000000 -0.336889
vn -0.903990 -0.000000 -0.427554
vn -0.857729 -0.000000 -0.514101
vn -0.803208 -0.000000 -0.595698
vn -0.740953 -0.000000 -0.671557
vn -0.671560 -0.000000 -0.740950
vn -0.595701 -0.000000 -0.803206
vn -0.514105 -0.000000 -0.857727
vn -0.427557 -0.000000 -0.903988
vn -0.336893 -0.000000 -0.941543
vn -0.242983 -0.000000 -0.970030
vn -0.146733 -0.000000 -0.989176
vn -0.049070 -0.000000 -0.998795
usemtl None
s off
f 1/1/1 3/2/1 5/3/1
f 2/4/2 6/5/2 4/6/2
f 3/7/3 4/8/3 6/9/3
f 1/1/1 5/3/1 7/10/1
f 2/4/2 8/11/2 6/5/2
f 5/12/4 6/9/4 8/13/4
f 1/1/1 7/10/1 9/14/1
f 2/4/2 10/15/2 8/11/2
f 7/16/5 8/13/5 10/17/5
f 1/1/1 9/14/1 11/18/1
f 2/4/2 12/19/2 10/15/2
f 9/20/6 10/17/6 12/21/6
f 1/1/1 11/18/1 13/22/1
f 2/4/2 14/23/2 12/19/2
f 11/24/7 12/21/7 14/25/7
f 1/1/1 13/22/1 15/26/1
f 2/4/2 16/27/2 14/23/2
f 13/28/8 14/25/8 16/29/8
f 1/1/1 15/26/1 17/30/1
f 2/4/2 18/31/2 16/27/2
f 15/32/9 16/29/9 18/33/9
f 1/1/1 17/30/1 19/34/1
f 2/4/2 20/35/2 18/31/2
f 17/36/10 18/37/10 20/38/10
f 1/1/1 19/34/1 21/39/1
f 2/4/2 22/40/2 20/35/2
f 19/41/11 20/38/11 22/42/11
f 1/1/1 21/39/1 23/43/1
f 2/4/2 24/44/2 22/40/2
f 21/45/12 22/42/12 24/46/12
f 1/1/1 23/43/1 25/47/1
f 2/4/2 26/48/2 24/44/2
f 23/49/13 24/46/13 26/50/13
f 1/1/1 25/47/1 27/51/1
f 2/4/2 28/52/2 26/48/2
f 25/53/14 26/50/14 28/54/14
f 1/1/1 27/51/1 29/55/1
f 2/4/2 30/56/2 28/52/2
f 27/57/15 28/54/15 30/58/15
f 1/1/1 29/55/1 31/59/1
f 2/4/2 32/60/2 30/56/2
f 29/61/16 30/58/16 32/62/16
f 1/1/1 31/59/1 33/63/1
f 2/4/2 34/64/2 32/60/2
f 31/65/17 32/62/17 34/66/17
f 1/1/1 33/63/1 35/67/1
f 2/4/2 36/68/2 34/64/2
f 33/69/18 34/66/18 36/70/18
f 1/1/1 35/67/1 37/71/1
f 2/4/2 38/72/2 36/68/2
f 35/73/19 36/70/19 38/74/19
f 1/1/1 37/71/1 39/75/1
f 2/4/2 40/76/2 38/72/2
f 37/77/20 38/74/20 40/78/20
f 1/1/1 39/75/1 41/79/1
f 2/4/2 42/80/2 40/76/2
f 39/81/21 40/78/21 42/82/21
f 1/1/1 41/79/1 43/83/1
f 2/4/2 44/84/2 42/80/2
f 41/85/22 42/82/22 44/86/22
f 1/1/1 43/83/1 45/87/1
f 2/4/2 46/88/2 44/84/2
f 43/89/23 44/86/23 46/90/23
f 1/1/1 45/87/1 47/91/1
f 2/4/2 48/92/2 46/88/2
f 45/93/24 46/90/24 48/94/24
f 1/1/1 47/91/1 49/95/1
f 2/4/2 50/96/2 48/92/2
f 47/97/25 48/94/25 50/98/25
f 1/1/1 49/95/1 51/99/1
f 2/4/2 52/100/2 50/96/2
f 49/101/26 50/102/26 52/103/26
f 1/1/1 51/99/1 53/104/1
f 2/4/2 54/105/2 52/100/2
f 51/106/27 52/103/27 54/107/27
f 1/1/1 53/104/1 55/108/1
f 2/4/2 56/109/2 54/105/2
f 53/110/28 54/107/28 56/111/28
f 1/1/1 55/108/1 57/112/1
f 2/4/2 58/113/2 56/109/2
f 55/114/29 56/111/29 58/115/29
f 1/1/1 57/112/1 59/116/1
f 2/4/2 60/117/2 58/113/2
f 57/118/30 58/115/30 60/119/30
f 1/1/1 59/116/1 61/120/1
f 2/4/2 62/121/2 60/117/2
f 59/122/31 60/119/31 62/123/31
f 1/1/1 61/120/1 63/124/1
f 2/4/2 64/125/2 62/121/2
f 61/126/32 62/123/32 64/127/32
f 1/1/1 63/124/1 65/128/1
f 2/4/2 66/129/2 64/125/2
f 63/130/33 64/127/33 66/131/33
f 1/1/1 65/128/1 67/132/1
f 2/4/2 68/133/2 66/129/2
f 65/134/34 66/131/34 68/135/34
f 1/1/1 67/132/1 69/136/1
f 2/4/2 70/137/2 68/133/2
f 67/138/35 68/135/35 69/139/35
f 1/1/1 69/136/1 71/140/1
f 2/4/2 72/141/2 70/137/2
f 69/139/36 70/142/36 71/143/36
f 1/1/1 71/140/1 73/144/1
f 2/4/2 74/145/2 72/141/2
f 71/143/37 72/146/37 73/147/37
f 1/1/1 73/144/1 75/148/1
f 2/4/2 76/149/2 74/145/2
f 73/147/38 74/150/38 75/151/38
f 1/1/1 75/148/1 77/152/1
f 2/4/2 78/153/2 76/149/2
f 75/151/39 76/154/39 77/155/39
f 1/1/1 77/152/1 79/156/1
f 2/4/2 80/157/2 78/153/2
f 77/155/40 78/158/40 79/159/40
f 1/1/1 79/156/1 81/160/1
f 2/4/2 82/161/2 80/157/2
f 79/159/41 80/162/41 81/163/41
f 1/1/1 81/160/1 83/164/1
f 2/4/2 84/165/2 82/161/2
f 81/166/42 82/167/42 83/168/42
f 1/1/1 83/164/1 85/169/1
f 2/4/2 86/170/2 84/165/2
f 83/168/43 84/171/43 85/172/43
f 1/1/1 85/169/1 87/173/1
f 2/4/2 88/174/2 86/170/2
f 85/172/44 86/175/44 87/176/44
f 1/1/1 87/173/1 89/177/1
f 2/4/2 90/178/2 88/174/2
f 87/176/45 88/179/45 89/180/45
f 1/1/1 89/177/1 91/181/1
f 2/4/2 92/182/2 90/178/2
f 89/180/46 90/183/46 91/184/46
f 1/1/1 91/181/1 93/185/1
f 2/4/2 94/186/2 92/182/2
f 91/184/47 92/187/47 93/188/47
f 1/1/1 93/185/1 95/189/1
f 2/4/2 96/190/2 94/186/2
f 93/188/48 94/191/48 95/192/48
f 1/1/1 95/189/1 97/193/1
f 2/4/2 98/194/2 96/190/2
f 95/192/49 96/195/49 97/196/49
f 1/1/1 97/193/1 99/197/1
f 2/4/2 100/198/2 98/194/2
f 97/196/50 98/199/50 99/200/50
f 1/1/1 99/197/1 101/201/1
f 2/4/2 102/202/2 100/198/2
f 99/200/51 100/203/51 101/204/51
f 1/1/1 101/201/1 103/205/1
f 2/4/2 104/206/2 102/202/2
f 101/204/52 102/207/52 103/208/52
f 1/1/1 103/205/1 105/209/1
f 2/4/2 106/210/2 104/206/2
f 103/208/53 104/211/53 105/212/53
f 1/1/1 105/209/1 107/213/1
f 2/4/2 108/214/2 106/210/2
f 105/212/54 106/215/54 107/216/54
f 1/1/1 107/213/1 109/217/1
f 2/4/2 110/218/2 108/214/2
f 107/216/55 108/219/55 109/220/55
f 1/1/1 109/217/1 111/221/1
f 2/4/2 112/222/2 110/218/2
f 109/220/56 110/223/56 111/224/56
f 1/1/1 111/221/1 113/225/1
f 2/4/2 114/226/2 112/222/2
f 111/224/57 112/227/57 113/228/57
f 1/1/1 113/225/1 115/229/1
f 2/4/2 116/230/2 114/226/2
f 113/228/58 114/231/58 115/232/58
f 1/1/1 115/229/1 117/233/1
f 2/4/2 118/234/2 116/230/2
f 115/235/59 116/236/59 117/237/59
f 1/1/1 117/233/1 119/238/1
f 2/4/2 120/239/2 118/234/2
f 117/237/60 118/240/60 119/241/60
f 1/1/1 119/238/1 121/242/1
f 2/4/2 122/243/2 120/239/2
f 119/241/61 120/244/61 121/245/61
f 1/1/1 121/242/1 123/246/1
f 2/4/2 124/247/2 122/243/2
f 121/245/62 122/248/62 123/249/62
f 1/1/1 123/246/1 125/250/1
f 2/4/2 126/251/2 124/247/2
f 123/249/63 124/252/63 125/253/63
f 1/1/1 125/250/1 127/254/1
f 2/4/2 128/255/2 126/251/2
f 125/253/64 126/256/64 127/257/64
f 1/1/1 127/254/1 129/258/1
f 2/4/2 130/259/2 128/255/2
f 127/257/65 128/260/65 129/261/65
f 1/1/1 129/258/1 3/2/1
f 2/4/2 4/6/2 130/259/2
f 129/261/66 130/262/66 3/7/66
f 5/12/3 3/7/3 6/9/3
f 7/16/4 5/12/4 8/13/4
f 9/20/5 7/16/5 10/17/5
f 11/24/6 9/20/6 12/21/6
f 13/28/7 11/24/7 14/25/7
f 15/32/8 13/28/8 16/29/8
f 17/263/9 15/32/9 18/33/9
f 19/41/10 17/36/10 20/38/10
f 21/45/11 19/41/11 22/42/11
f 23/49/12 21/45/12 24/46/12
f 25/53/13 23/49/13 26/50/13
f 27/57/14 25/53/14 28/54/14
f 29/61/15 27/57/15 30/58/15
f 31/65/16 29/61/16 32/62/16
f 33/69/17 31/65/17 34/66/17
f 35/73/18 33/69/18 36/70/18
f 37/77/19 35/73/19 38/74/19
f 39/81/20 37/77/20 40/78/20
f 41/85/21 39/81/21 42/82/21
f 43/89/22 41/85/22 44/86/22
f 45/93/23 43/89/23 46/90/23
f 47/97/24 45/93/24 48/94/24
f 49/264/25 47/97/25 50/98/25
f 51/106/26 49/101/26 52/103/26
f 53/110/27 51/106/27 54/107/27
f 55/114/28 53/110/28 56/111/28
f 57/118/29 55/114/29 58/115/29
f 59/122/30 57/118/30 60/119/30
f 61/126/31 59/122/31 62/123/31
f 63/130/32 61/126/32 64/127/32
f 65/134/33 63/130/33 66/131/33
f 67/138/34 65/134/34 68/135/34
f 68/135/35 70/142/35 69/139/35
f 70/142/36 72/146/36 71/143/36
f 72/146/37 74/150/37 73/147/37
f 74/150/38 76/154/38 75/151/38
f 76/154/39 78/158/39 77/155/39
f 78/158/40 80/162/40 79/159/40
f 80/162/41 82/265/41 81/163/41
f 82/167/42 84/171/42 83/168/42
f 84/171/43 86/175/43 85/172/43
f 86/175/44 88/179/44 87/176/44
f 88/179/45 90/183/45 89/180/45
f 90/183/46 92/187/46 91/184/46
f 92/187/47 94/191/47 93/188/47
f 94/191/48 96/195/48 95/192/48
f 96/195/49 98/199/49 97/196/49
f 98/199/50 100/203/50 99/200/50
f 100/203/51 102/207/51 101/204/51
f 102/207/52 104/211/52 103/208/52
f 104/211/53 106/215/53 105/212/53
f 106/215/54 108/219/54 107/216/54
f 108/219/55 110/223/55 109/220/55
f 110/223/56 112/227/56 111/224/56
f 112/227/57 114/231/57 113/228/57
f 114/231/58 116/266/58 115/232/58
f 116/236/59 118/240/59 117/237/59
f 118/240/60 120/244/60 119/241/60
f 120/244/61 122/248/61 121/245/61
f 122/248/62 124/252/62 123/249/62
f 124/252/63 126/256/63 125/253/63
f 126/256/64 128/260/64 127/257/64
f 128/260/65 130/262/65 129/261/65
f 130/262/66 4/8/66 3/7/66
