# Blender v2.66 (sub 1) OBJ File: 'mesh_Sphere4x4.blend'
# www.blender.org
mtllib mesh_Sphere4x4.mtl
o Sphere_Sphere.003
v -0.707107 0.707107 0.000000
v -1.000000 -0.000000 0.000000
v -0.707107 -0.707107 0.000000
v 0.000000 -1.000000 0.000000
v 0.000000 0.707107 -0.707107
v 0.000000 -0.000000 -1.000000
v 0.000000 -0.707107 -0.707107
v 0.707107 0.707107 -0.000000
v 1.000000 -0.000000 -0.000000
v 0.707107 -0.707107 -0.000000
v 0.000000 0.707107 0.707107
v 0.000000 -0.000000 1.000000
v 0.000000 -0.707107 0.707107
v 0.000000 1.000000 0.000000
vt 1.000000 0.338773
vt 0.871423 0.289555
vt 0.998961 0.000000
vt 0.792569 0.629063
vt 0.663992 0.678282
vt 0.793304 0.389514
vt 0.663992 0.508743
vt 0.614899 0.678281
vt 0.375350 0.679016
vt 0.613860 0.339508
vt 0.325219 0.509782
vt 0.325219 0.101038
vt 0.325149 0.277542
vt 0.000070 0.182189
vt 0.229865 0.426117
vt 0.000000 0.358692
vt 0.931748 0.509715
vt 0.732244 0.170207
vt 0.870688 0.050006
vt 0.663992 0.050640
vt 1.000000 0.390148
vt 0.230034 0.000000
vt 0.095353 0.033614
vt 0.095184 0.459731
vt 0.663992 0.169234
vt 0.614899 0.338773
vt 0.325219 0.170274
vt 0.613860 0.000000
vt 0.374311 0.000735
vt 0.999265 0.629697
vt 0.664727 0.290189
vt 0.665031 0.339508
vt 0.374311 0.340243
vt 0.375350 0.339508
vn -0.678598 0.281085 -0.678598
vn -0.678598 -0.281085 -0.678598
vn 0.678598 0.281085 -0.678598
vn 0.678598 -0.281085 -0.678598
vn 0.678598 -0.281085 0.678598
vn 0.678598 0.281085 0.678598
vn -0.357407 -0.862856 -0.357407
vn -0.357407 0.862856 -0.357407
vn 0.357407 0.862856 -0.357407
vn 0.357407 -0.862856 -0.357407
vn 0.357407 -0.862856 0.357407
vn 0.357407 0.862856 0.357407
vn -0.678598 0.281085 0.678598
vn -0.678598 -0.281085 0.678598
vn -0.357407 -0.862856 0.357407
vn -0.357407 0.862856 0.357407
vn -0.678598 0.281085 0.678599
vn -0.678598 -0.281085 0.678599
usemtl None
s off
f 2/1/1 1/2/1 6/3/1
f 3/4/2 2/5/2 7/6/2
f 6/7/3 5/8/3 8/9/3
f 7/10/4 6/7/4 9/11/4
f 10/12/5 9/13/5 12/14/5
f 9/13/6 8/15/6 11/16/6
f 4/17/7 3/4/7 7/6/7
f 1/2/8 14/18/8 5/19/8
f 5/19/9 14/18/9 8/20/9
f 4/17/10 7/6/10 10/21/10
f 4/22/11 10/12/11 13/23/11
f 8/15/12 14/24/12 11/16/12
f 12/25/13 11/26/13 2/27/13
f 13/28/14 12/25/14 3/29/14
f 4/17/15 13/30/15 3/4/15
f 11/31/16 14/18/16 1/2/16
f 1/2/1 5/19/1 6/3/1
f 2/5/2 6/32/2 7/6/2
f 9/11/3 6/7/3 8/9/3
f 10/33/4 7/10/4 9/11/4
f 13/23/5 10/12/5 12/14/5
f 12/14/6 9/13/6 11/16/6
f 11/26/17 1/34/17 2/27/17
f 12/25/18 2/27/18 3/29/18
