# Blender v2.66 (sub 1) OBJ File: 'mesh_Pit5.blend'
# www.blender.org
mtllib mesh_Pit5.mtl
o Grid_Grid.003
v -1.000000 0.000000 1.000000
v -0.285714 0.000000 1.000000
v 0.285714 -0.000000 1.000000
v 1.000000 -0.000000 1.000000
v -0.285714 -1.000000 0.857143
v 0.285714 -1.000000 0.857143
v -1.000000 0.000000 0.285714
v -0.857143 -1.000000 0.285714
v 0.857143 -1.000000 0.285714
v 1.000000 -0.000000 0.285714
v 0.285714 -1.000000 -0.285714
v 0.285714 -1.000000 0.285714
v -0.285714 -1.000000 -0.285714
v -0.285714 -1.000000 0.285714
v -1.000000 0.000000 -0.285714
v -0.857143 -1.000000 -0.285714
v 0.857143 -1.000000 -0.285714
v 1.000000 -0.000000 -0.285714
v -0.285714 -1.000000 -0.857143
v 0.285714 -1.000000 -0.857143
v -1.000000 0.000000 -1.000000
v -0.285714 0.000000 -1.000000
v 0.285714 -0.000000 -1.000000
v 1.000000 -0.000000 -1.000000
vt 0.642857 0.071429
vt 0.642857 0.000000
vt 0.357143 0.000000
vt 0.357143 0.642857
vt 0.642857 0.642857
vt 0.642857 0.357143
vt 0.357143 0.928571
vt 0.642857 0.928571
vt 0.071429 0.357143
vt 0.000000 0.357143
vt 0.071429 0.642857
vt 1.000000 0.357143
vt 0.928571 0.357143
vt 0.928571 0.642857
vt 0.357143 0.357143
vt 0.357143 0.071429
vt 0.000000 0.642857
vt 1.000000 0.642857
vt 1.000000 0.000000
vt 0.642857 1.000000
vt 1.000000 1.000000
vt 0.000000 1.000000
vt 0.357143 1.000000
vt 0.000000 0.000000
vn 0.000000 0.141421 -0.989950
vn 0.000000 1.000000 0.000000
vn -0.989949 0.141422 0.000000
vn 0.989950 0.141421 -0.000000
vn -0.703526 0.100504 -0.703526
vn -0.703526 0.100504 0.703526
vn 0.703526 0.100504 0.703526
vn 0.000000 0.141421 0.989950
vn 0.703526 0.100504 -0.703526
usemtl None
s off
f 5/1/1 2/2/1 3/3/1
f 11/4/2 13/5/2 14/6/2
f 20/7/2 19/8/2 13/5/2
f 9/9/3 10/10/3 17/11/3
f 7/12/4 8/13/4 16/14/4
f 8/13/2 5/1/2 14/6/2
f 13/5/2 19/8/2 16/14/2
f 17/11/2 20/7/2 11/4/2
f 11/4/2 12/15/2 9/9/2
f 12/15/2 6/16/2 9/9/2
f 16/14/2 8/13/2 14/6/2
f 6/16/5 3/3/5 9/9/5
f 17/11/6 18/17/6 20/7/6
f 15/18/7 16/14/7 19/8/7
f 2/2/2 7/12/2 1/19/2
f 12/15/2 14/6/2 5/1/2
f 15/18/2 22/20/2 21/21/2
f 22/20/8 19/8/8 20/7/8
f 24/22/2 23/23/2 18/17/2
f 8/13/9 7/12/9 2/2/9
f 4/24/2 10/10/2 3/3/2
f 6/16/1 5/1/1 3/3/1
f 12/15/2 11/4/2 14/6/2
f 11/4/2 20/7/2 13/5/2
f 10/10/3 18/17/3 17/11/3
f 15/18/4 7/12/4 16/14/4
f 17/11/2 11/4/2 9/9/2
f 13/5/2 16/14/2 14/6/2
f 3/3/5 10/10/5 9/9/5
f 18/17/6 23/23/6 20/7/6
f 22/20/7 15/18/7 19/8/7
f 6/16/2 12/15/2 5/1/2
f 23/23/8 22/20/8 20/7/8
f 5/1/9 8/13/9 2/2/9
