# Blender v2.66 (sub 1) OBJ File: 'mesh_Hill1.blend'
# www.blender.org
mtllib mesh_Hill1.mtl
o Z_Function.008
v -1.000000 0.000000 1.000000
v -1.000000 0.000000 0.600000
v -1.000000 0.000000 0.300000
v -1.000000 0.000000 0.000000
v -1.000000 0.000000 0.000000
v -1.000000 0.000000 -0.300000
v -1.000000 0.000000 -0.600000
v -1.000000 0.000000 -1.000000
v -0.600000 0.000000 1.000000
v -0.614286 0.307347 0.614286
v -0.614286 0.448408 0.328571
v -0.614286 0.518939 0.000000
v -0.614286 0.448408 -0.328571
v -0.614286 0.307347 -0.614286
v -0.600000 0.000000 -1.000000
v -0.300000 0.000000 1.000000
v -0.328571 0.448408 0.614286
v -0.328571 0.755510 0.328571
v -0.328571 0.873061 0.000000
v -0.328571 0.755510 -0.328571
v -0.328571 0.448408 -0.614286
v -0.300000 0.000000 -1.000000
v 0.000000 0.000000 1.000000
v 0.000000 0.518939 0.614286
v 0.000000 0.873061 0.328571
v 0.000000 0.990612 0.000000
v 0.000000 0.873061 -0.328571
v 0.000000 0.518939 -0.614286
v 0.000000 0.000000 -1.000000
v 0.000000 0.000000 1.000000
v 0.000000 0.000000 -1.000000
v 0.300000 0.000000 1.000000
v 0.328571 0.448408 0.614286
v 0.328571 0.755510 0.328571
v 0.328571 0.873061 0.000000
v 0.328571 0.755510 -0.328571
v 0.328571 0.448408 -0.614286
v 0.300000 0.000000 -1.000000
v 0.600000 0.000000 1.000000
v 0.614286 0.307347 0.614286
v 0.614286 0.448408 0.328571
v 0.614286 0.518939 0.000000
v 0.614286 0.448408 -0.328571
v 0.614286 0.307347 -0.614286
v 0.600000 0.000000 -1.000000
v 1.000000 0.000000 1.000000
v 1.000000 0.000000 0.600000
v 1.000000 0.000000 0.300000
v 1.000000 0.000000 0.000000
v 1.000000 0.000000 0.000000
v 1.000000 0.000000 -0.300000
v 1.000000 0.000000 -0.600000
v 1.000000 0.000000 -1.000000
vt 0.000000 0.200000
vt 0.000000 0.000000
vt 0.192857 0.192857
vt 0.000000 0.350000
vt 0.192857 0.335714
vt 0.000000 0.500000
vt 0.192857 0.500000
vt 0.500000 0.335714
vt 0.664286 0.335714
vt 0.500000 0.500000
vt 0.000000 0.650000
vt 0.192857 0.664286
vt 0.000000 0.800000
vt 0.192857 0.807143
vt 0.000000 1.000000
vt 0.200000 0.000000
vt 0.335714 0.192857
vt 0.335714 0.335714
vt 0.335714 0.500000
vt 0.335714 0.664286
vt 0.335714 0.807143
vt 0.200000 1.000000
vt 0.350000 0.000000
vt 0.500000 0.192857
vt 0.500000 0.664286
vt 0.500000 0.807143
vt 0.350000 1.000000
vt 0.664286 0.192857
vt 0.664286 0.807143
vt 0.650000 0.000000
vt 0.800000 0.000000
vt 0.807143 0.192857
vt 0.807143 0.335714
vt 0.664286 0.500000
vt 0.807143 0.500000
vt 1.000000 0.500000
vt 1.000000 0.650000
vt 0.664286 0.664286
vt 0.807143 0.807143
vt 0.650000 1.000000
vt 0.800000 1.000000
vt 1.000000 0.000000
vt 1.000000 0.200000
vt 1.000000 0.350000
vt 0.807143 0.664286
vt 1.000000 0.800000
vt 1.000000 1.000000
vt 0.500000 1.000000
vt 0.500000 0.000000
vn -0.623180 0.782078 0.000000
vn -0.758116 0.652120 0.000000
vn -0.802583 0.596540 0.000000
vn 0.319230 0.892292 0.319230
vn -0.357411 0.723923 0.590078
vn -0.693952 0.645622 0.318753
vn -0.771297 0.622300 0.133582
vn -0.771297 0.622300 -0.133582
vn -0.693952 0.645622 -0.318753
vn -0.357411 0.723923 -0.590078
vn -0.137568 0.640868 0.755224
vn -0.236763 0.661786 0.711325
vn -0.319230 0.892292 0.319230
vn -0.236763 0.661786 -0.711325
vn -0.137568 0.640868 -0.755224
vn 0.133582 0.622300 0.771297
vn 0.133582 0.622300 -0.771297
vn -0.319230 0.892292 -0.319230
vn 0.000000 0.652120 0.758116
vn 0.318753 0.645622 0.693952
vn 0.711325 0.661785 0.236763
vn 0.802583 0.596540 -0.000000
vn 0.318753 0.645622 -0.693952
vn 0.000000 0.652120 -0.758116
vn 0.000000 0.782078 0.623180
vn 0.590078 0.723923 0.357411
vn 0.755224 0.640868 0.137568
vn 0.236763 0.661786 -0.711325
vn 0.590078 0.723923 -0.357411
vn 0.000000 0.782078 -0.623180
vn 0.623180 0.782078 -0.000000
vn -0.590078 0.723923 -0.357411
vn 0.236763 0.661786 0.711325
vn 0.000000 0.596540 -0.802583
vn -0.318753 0.645622 0.693952
vn -0.318753 0.645622 -0.693952
vn -0.755224 0.640868 -0.137568
vn -0.133582 0.622300 0.771297
vn 0.357411 0.723923 0.590078
vn 0.319230 0.892292 -0.319230
vn -0.133582 0.622300 -0.771297
vn 0.771297 0.622300 -0.133582
vn 0.137568 0.640868 0.755224
vn -0.711325 0.661785 -0.236763
vn 0.137568 0.640868 -0.755224
vn 0.711325 0.661785 -0.236763
vn 0.771297 0.622300 0.133582
vn 0.693952 0.645622 0.318753
vn 0.693952 0.645622 -0.318753
vn 0.755224 0.640868 -0.137568
vn 0.000000 0.596540 0.802583
vn 0.357411 0.723923 -0.590078
vn 0.758116 0.652120 -0.000000
vn -0.755224 0.640868 0.137568
vn -0.711325 0.661785 0.236763
vn -0.590078 0.723923 0.357411
usemtl None
s off
f 2/1/1 1/2/1 10/3/1
f 3/4/2 2/1/2 11/5/2
f 4/6/3 3/4/3 12/7/3
f 25/8/4 34/9/4 26/10/4
f 6/11/2 13/12/2 7/13/2
f 7/13/1 14/14/1 8/15/1
f 10/3/5 9/16/5 17/17/5
f 11/5/6 10/3/6 18/18/6
f 12/7/7 11/5/7 19/19/7
f 12/7/8 19/19/8 13/12/8
f 13/12/9 20/20/9 14/14/9
f 14/14/10 21/21/10 15/22/10
f 17/17/11 16/23/11 24/24/11
f 18/18/12 17/17/12 25/8/12
f 19/19/13 18/18/13 26/10/13
f 20/20/14 27/25/14 21/21/14
f 21/21/15 28/26/15 22/27/15
f 24/24/16 33/28/16 25/8/16
f 28/26/17 27/25/17 37/29/17
f 19/19/18 26/10/18 20/20/18
f 32/30/19 39/31/19 33/28/19
f 33/28/20 40/32/20 34/9/20
f 34/9/21 41/33/21 35/34/21
f 42/35/22 50/36/22 51/37/22
f 37/29/23 36/38/23 44/39/23
f 38/40/24 37/29/24 45/41/24
f 39/31/25 46/42/25 40/32/25
f 40/32/26 47/43/26 41/33/26
f 41/33/27 48/44/27 42/35/27
f 27/25/28 36/38/28 37/29/28
f 44/39/29 43/45/29 52/46/29
f 45/41/30 44/39/30 53/47/30
f 44/39/31 52/46/31 53/47/31
f 1/2/25 9/16/25 10/3/25
f 46/42/31 47/43/31 40/32/31
f 14/14/30 15/22/30 8/15/30
f 13/12/32 14/14/32 7/13/32
f 33/28/33 34/9/33 25/8/33
f 28/26/34 29/48/34 22/27/34
f 9/16/19 16/23/19 17/17/19
f 10/3/35 17/17/35 18/18/35
f 20/20/36 21/21/36 14/14/36
f 12/7/37 13/12/37 6/11/37
f 17/17/38 24/24/38 25/8/38
f 21/21/24 22/27/24 15/22/24
f 39/31/39 40/32/39 33/28/39
f 5/6/3 12/7/3 6/11/3
f 18/18/13 25/8/13 26/10/13
f 27/25/40 26/10/40 36/38/40
f 27/25/41 28/26/41 21/21/41
f 35/34/42 42/35/42 43/45/42
f 32/30/43 33/28/43 24/24/43
f 34/9/4 35/34/4 26/10/4
f 26/10/18 27/25/18 20/20/18
f 19/19/44 20/20/44 13/12/44
f 26/10/40 35/34/40 36/38/40
f 28/26/45 37/29/45 38/40/45
f 36/38/46 35/34/46 43/45/46
f 31/48/34 28/26/34 38/40/34
f 41/33/47 42/35/47 35/34/47
f 48/44/22 49/36/22 42/35/22
f 40/32/48 41/33/48 34/9/48
f 36/38/49 43/45/49 44/39/49
f 43/45/50 42/35/50 51/37/50
f 30/49/51 32/30/51 24/24/51
f 37/29/52 44/39/52 45/41/52
f 47/43/53 48/44/53 41/33/53
f 43/45/53 51/37/53 52/46/53
f 3/4/54 11/5/54 12/7/54
f 16/23/51 23/49/51 24/24/51
f 11/5/55 18/18/55 19/19/55
f 2/1/56 10/3/56 11/5/56
