# Blender v2.66 (sub 1) OBJ File: 'mesh_Frame7.blend'
# www.blender.org
mtllib mesh_Frame7.mtl
o Cylinder_Cylinder.006
v 0.000000 -0.100000 -1.000000
v 0.000000 0.100000 -1.000000
v 0.195090 -0.100000 -0.980785
v 0.195090 0.100000 -0.980785
v 0.382683 -0.100000 -0.923880
v 0.382683 0.100000 -0.923880
v 0.555570 -0.100000 -0.831470
v 0.555570 0.100000 -0.831470
v 0.707107 -0.100000 -0.707107
v 0.707107 0.100000 -0.707107
v 0.831470 -0.100000 -0.555570
v 0.831470 0.100000 -0.555570
v 0.923880 -0.100000 -0.382683
v 0.923880 0.100000 -0.382683
v 0.980785 -0.100000 -0.195090
v 0.980785 0.100000 -0.195090
v 1.000000 -0.100000 -0.000000
v 1.000000 0.100000 -0.000000
v 0.980785 -0.100000 0.195090
v 0.980785 0.100000 0.195090
v 0.923880 -0.100000 0.382683
v 0.923880 0.100000 0.382683
v 0.831470 -0.100000 0.555570
v 0.831470 0.100000 0.555570
v 0.707107 -0.100000 0.707107
v 0.707107 0.100000 0.707107
v 0.555570 -0.100000 0.831470
v 0.555570 0.100000 0.831470
v 0.382683 -0.100000 0.923880
v 0.382683 0.100000 0.923880
v 0.195090 -0.100000 0.980785
v 0.195090 0.100000 0.980785
v -0.000000 -0.100000 1.000000
v -0.000000 0.100000 1.000000
v -0.195091 -0.100000 0.980785
v -0.195091 0.100000 0.980785
v -0.382684 -0.100000 0.923879
v -0.382684 0.100000 0.923879
v -0.555571 -0.100000 0.831469
v -0.555571 0.100000 0.831469
v -0.707107 -0.100000 0.707106
v -0.707107 0.100000 0.707106
v -0.831470 -0.100000 0.555570
v -0.831470 0.100000 0.555570
v -0.923880 -0.100000 0.382683
v -0.923880 0.100000 0.382683
v -0.980785 -0.100000 0.195089
v -0.980785 0.100000 0.195089
v -1.000000 -0.100000 -0.000001
v -1.000000 0.100000 -0.000001
v -0.980785 -0.100000 -0.195091
v -0.980785 0.100000 -0.195091
v -0.923879 -0.100000 -0.382684
v -0.923879 0.100000 -0.382684
v -0.831469 -0.100000 -0.555571
v -0.831469 0.100000 -0.555571
v -0.707106 -0.100000 -0.707108
v -0.707106 0.100000 -0.707108
v -0.555569 -0.100000 -0.831470
v -0.555569 0.100000 -0.831470
v -0.382682 -0.100000 -0.923880
v -0.382682 0.100000 -0.923880
v -0.195089 -0.100000 -0.980786
v -0.195089 0.100000 -0.980786
v 0.000000 -0.100000 -0.900000
v 0.000000 0.100000 -0.900000
v 0.175581 -0.100000 -0.882707
v 0.175581 0.100000 -0.882707
v 0.344415 -0.100000 -0.831492
v 0.344415 0.100000 -0.831492
v 0.500013 -0.100000 -0.748323
v 0.500013 0.100000 -0.748323
v 0.636396 -0.100000 -0.636396
v 0.636396 0.100000 -0.636396
v 0.748323 -0.100000 -0.500013
v 0.748323 0.100000 -0.500013
v 0.831492 -0.100000 -0.344415
v 0.831492 0.100000 -0.344415
v 0.882707 -0.100000 -0.175581
v 0.882707 0.100000 -0.175581
v 0.900000 -0.100000 -0.000000
v 0.900000 0.100000 -0.000000
v 0.882707 -0.100000 0.175581
v 0.882707 0.100000 0.175581
v 0.831492 -0.100000 0.344415
v 0.831492 0.100000 0.344415
v 0.748323 -0.100000 0.500013
v 0.748323 0.100000 0.500013
v 0.636396 -0.100000 0.636396
v 0.636396 0.100000 0.636396
v 0.500013 -0.100000 0.748323
v 0.500013 0.100000 0.748323
v 0.344415 -0.100000 0.831492
v 0.344415 0.100000 0.831492
v 0.175581 -0.100000 0.882707
v 0.175581 0.100000 0.882707
v -0.000000 -0.100000 0.900000
v -0.000000 0.100000 0.900000
v -0.175582 -0.100000 0.882707
v -0.175582 0.100000 0.882707
v -0.344415 -0.100000 0.831491
v -0.344415 0.100000 0.831491
v -0.500014 -0.100000 0.748322
v -0.500014 0.100000 0.748322
v -0.636397 -0.100000 0.636396
v -0.636397 0.100000 0.636396
v -0.748323 -0.100000 0.500013
v -0.748323 0.100000 0.500013
v -0.831492 -0.100000 0.344414
v -0.831492 0.100000 0.344414
v -0.882707 -0.100000 0.175580
v -0.882707 0.100000 0.175580
v -0.900000 -0.100000 -0.000001
v -0.900000 0.100000 -0.000001
v -0.882707 -0.100000 -0.175582
v -0.882707 0.100000 -0.175582
v -0.831491 -0.100000 -0.344416
v -0.831491 0.100000 -0.344416
v -0.748322 -0.100000 -0.500014
v -0.748322 0.100000 -0.500014
v -0.636395 -0.100000 -0.636397
v -0.636395 0.100000 -0.636397
v -0.500012 -0.100000 -0.748323
v -0.500012 0.100000 -0.748323
v -0.344414 -0.100000 -0.831492
v -0.344414 0.100000 -0.831492
v -0.175580 -0.100000 -0.882707
v -0.175580 0.100000 -0.882707
vt 0.636306 0.100783
vt 0.636152 0.050541
vt 0.677098 0.050416
vt 0.671189 0.705391
vt 0.671035 0.655150
vt 0.705857 0.655043
vt 0.678444 0.000046
vt 0.678598 0.050288
vt 0.637652 0.050413
vt 0.593950 0.201571
vt 0.594104 0.251813
vt 0.548608 0.251952
vt 0.548299 0.453521
vt 0.548453 0.503762
vt 0.500154 0.503910
vt 0.549245 0.100786
vt 0.549400 0.151027
vt 0.500154 0.151178
vt 0.548299 0.503910
vt 0.548453 0.554152
vt 0.500154 0.554300
vt 0.594104 0.453660
vt 0.593950 0.503902
vt 0.678828 0.252078
vt 0.678674 0.302320
vt 0.637728 0.302194
vt 0.709555 0.403157
vt 0.709709 0.453399
vt 0.674888 0.453506
vt 0.637652 0.201561
vt 0.637498 0.151319
vt 0.678444 0.151193
vt 0.548608 0.403131
vt 0.548453 0.352889
vt 0.593950 0.352749
vt 0.500154 0.403131
vt 0.500000 0.352889
vt 0.548299 0.352741
vt 0.500154 0.201571
vt 0.500000 0.151329
vt 0.549245 0.151178
vt 0.500154 0.251961
vt 0.500000 0.201719
vt 0.548299 0.201571
vt 0.548608 0.453512
vt 0.548453 0.403270
vt 0.593950 0.403131
vt 0.677652 0.554434
vt 0.677498 0.604675
vt 0.636706 0.554308
vt 0.709709 0.453613
vt 0.709555 0.503854
vt 0.676152 0.302342
vt 0.676306 0.352584
vt 0.635206 0.302468
vt 0.595051 0.100937
vt 0.594896 0.151178
vt 0.549554 0.100797
vt 0.548299 0.251961
vt 0.548453 0.302203
vt 0.500000 0.252109
vt 0.549245 0.000000
vt 0.549400 0.050242
vt 0.500000 0.000151
vt 0.548299 0.302351
vt 0.548453 0.352593
vt 0.500000 0.302499
vt 0.594104 0.302499
vt 0.593950 0.352741
vt 0.548608 0.302359
vt 0.678674 0.201577
vt 0.678828 0.251819
vt 0.637728 0.201703
vt 0.709709 0.352869
vt 0.709555 0.403110
vt 0.674888 0.352762
vt 0.677252 0.100937
vt 0.677098 0.151178
vt 0.636306 0.100811
vt 0.548608 0.302342
vt 0.548453 0.252101
vt 0.594104 0.302203
vt 0.548607 0.554300
vt 0.548453 0.504059
vt 0.596907 0.554152
vt 0.549400 0.050544
vt 0.500154 0.050393
vt 0.090634 0.444188
vt 0.055812 0.409366
vt 0.075231 0.393429
vt 0.549400 0.050555
vt 0.595050 0.100658
vt 0.500154 0.453521
vt 0.500000 0.403279
vt 0.548453 0.453372
vt 0.368419 0.471547
vt 0.322923 0.490393
vt 0.315630 0.466353
vt 0.009607 0.177078
vt 0.028453 0.131581
vt 0.050608 0.143423
vt 0.225377 0.000000
vt 0.274623 0.000000
vt 0.272161 0.025000
vt 0.471547 0.131581
vt 0.490393 0.177078
vt 0.466353 0.184370
vt 0.444188 0.409366
vt 0.409366 0.444188
vt 0.393429 0.424769
vt 0.225377 1.000000
vt 0.177077 0.990393
vt 0.184370 0.966353
vt 0.471547 0.868420
vt 0.444188 0.909366
vt 0.424769 0.893429
vt 0.444188 0.590634
vt 0.471547 0.631581
vt 0.449392 0.643423
vt 0.177078 0.509607
vt 0.225377 0.500000
vt 0.227839 0.525000
vt 0.000000 0.725377
vt 0.009607 0.677078
vt 0.033647 0.684370
vt 0.274623 0.500000
vt 0.272161 0.475000
vt 0.028453 0.368420
vt 0.050608 0.356578
vt 0.055812 0.090634
vt 0.075231 0.106571
vt 0.322922 0.009607
vt 0.315630 0.033647
vt 0.500000 0.225377
vt 0.475000 0.227839
vt 0.274623 1.000000
vt 0.227839 0.975000
vt 0.490393 0.822922
vt 0.449392 0.856578
vt 0.409366 0.555812
vt 0.424769 0.606571
vt 0.131581 0.528453
vt 0.184370 0.533647
vt 0.000000 0.774623
vt 0.025000 0.727839
vt 0.225378 0.500000
vt 0.227840 0.475000
vt 0.009607 0.322923
vt 0.033647 0.315630
vt 0.090634 0.055812
vt 0.106571 0.075231
vt 0.368419 0.028453
vt 0.356578 0.050608
vt 0.500000 0.274623
vt 0.475000 0.272161
vt 0.055812 0.909365
vt 0.028453 0.868419
vt 0.050608 0.856578
vt 0.322922 0.990393
vt 0.272160 0.975000
vt 0.500000 0.774623
vt 0.466353 0.815630
vt 0.368419 0.528453
vt 0.393429 0.575231
vt 0.090634 0.555812
vt 0.143422 0.550608
vt 0.009607 0.822922
vt 0.025000 0.772161
vt 0.177078 0.490393
vt 0.184370 0.466354
vt 0.000000 0.274623
vt 0.025000 0.272161
vt 0.131581 0.028453
vt 0.143422 0.050608
vt 0.409366 0.055812
vt 0.393429 0.075231
vt 0.490393 0.322922
vt 0.466353 0.315630
vt 0.090634 0.944188
vt 0.075231 0.893429
vt 0.368419 0.971547
vt 0.315630 0.966354
vt 0.500000 0.725377
vt 0.475000 0.772161
vt 0.322922 0.509607
vt 0.356577 0.550608
vt 0.055812 0.590634
vt 0.106571 0.575231
vt 0.356577 0.449392
vt 0.131581 0.471547
vt 0.143423 0.449393
vt 0.000000 0.225377
vt 0.025000 0.227840
vt 0.177078 0.009607
vt 0.184370 0.033647
vt 0.444188 0.090634
vt 0.424769 0.106571
vt 0.471547 0.368419
vt 0.449392 0.356577
vt 0.131580 0.971547
vt 0.106571 0.924769
vt 0.409366 0.944188
vt 0.356577 0.949393
vt 0.490393 0.677078
vt 0.475000 0.727840
vt 0.315630 0.533647
vt 0.028453 0.631581
vt 0.075231 0.606571
vt 0.106571 0.424769
vt 0.033647 0.184370
vt 0.227839 0.025000
vt 0.449392 0.143423
vt 0.424769 0.393429
vt 0.143422 0.949392
vt 0.393429 0.924769
vt 0.466353 0.684370
vt 0.272161 0.525000
vt 0.050608 0.643423
vt 0.033647 0.815630
vt 0.637882 0.453506
vt 0.637728 0.403264
vt 0.674734 0.453393
vt 0.634184 0.655043
vt 0.634030 0.604801
vt 0.674977 0.604675
vt 0.593083 0.604675
vt 0.592928 0.554434
vt 0.636398 0.554300
vt 0.548607 0.604678
vt 0.548453 0.554436
vt 0.592774 0.554300
vt 0.594259 0.503887
vt 0.594104 0.453645
vt 0.637574 0.453512
vt 0.592928 0.604804
vt 0.592774 0.655045
vt 0.551827 0.654920
vt 0.638162 0.554265
vt 0.638008 0.504023
vt 0.674860 0.503910
vt 0.706625 0.604801
vt 0.706470 0.655043
vt 0.675131 0.654947
vt 0.670881 0.655043
vt 0.671035 0.705284
vt 0.634184 0.705397
vt 0.637854 0.503910
vt 0.638008 0.554152
vt 0.597061 0.554278
vt 0.637498 0.000172
vt 0.637344 0.050413
vt 0.593875 0.050280
vt 0.593875 0.151329
vt 0.593721 0.201571
vt 0.549400 0.201435
vt 0.637574 0.201577
vt 0.637728 0.251819
vt 0.594259 0.251952
vt 0.633876 0.604675
vt 0.634030 0.654917
vt 0.593083 0.655043
vt 0.551673 0.655045
vt 0.551827 0.705287
vt 0.514976 0.705400
vt 0.708746 0.050541
vt 0.708591 0.100783
vt 0.677252 0.100687
vt 0.593083 0.705397
vt 0.592928 0.655156
vt 0.629780 0.655043
vt 0.635052 0.352710
vt 0.594259 0.302342
vt 0.594259 0.302327
vt 0.594104 0.252086
vt 0.549554 0.050416
vt 0.549400 0.000174
vt 0.637574 0.453506
vt 0.594259 0.403131
vt 0.595205 0.151178
vt 0.636152 0.151053
vt 0.674734 0.352869
vt 0.674579 0.403110
vt 0.637882 0.352756
vt 0.707800 0.302438
vt 0.707646 0.352680
vt 0.676460 0.302342
vt 0.674579 0.453506
vt 0.674734 0.503747
vt 0.637728 0.453619
vt 0.635997 0.050416
vt 0.636152 0.100658
vt 0.595050 0.050541
vt 0.637344 0.151193
vt 0.637498 0.201435
vt 0.593875 0.151327
vt 0.548299 0.554300
vt 0.548453 0.604542
vt 0.503978 0.554436
vt 0.637728 0.352889
vt 0.637574 0.403131
vt 0.594259 0.352756
vt 0.548453 0.604804
vt 0.548299 0.655045
vt 0.507506 0.604678
vt 0.588833 0.655158
vt 0.588679 0.705400
vt 0.551981 0.655045
vt 0.706507 0.504007
vt 0.706353 0.554248
vt 0.675168 0.503910
vt 0.677252 0.100658
vt 0.706011 0.705284
vt 0.548453 0.201711
vt 0.500000 0.453669
vt 0.500000 0.100937
vt 0.500000 0.504059
vt 0.548608 0.453521
vt 0.637882 0.251952
vt 0.674734 0.403264
vt 0.678598 0.201435
vt 0.594104 0.402991
vt 0.548453 0.402982
vt 0.549400 0.201420
vt 0.548453 0.251813
vt 0.594104 0.453372
vt 0.636552 0.604550
vt 0.635360 0.352710
vt 0.549400 0.151039
vt 0.500154 0.302351
vt 0.500154 0.352741
vt 0.548453 0.352601
vt 0.637882 0.251945
vt 0.674734 0.403004
vt 0.593950 0.251961
vt 0.596753 0.503910
vt 0.500000 0.100635
vt 0.594896 0.050416
vt 0.548299 0.403131
vt 0.674579 0.403151
vt 0.675131 0.654917
vt 0.636552 0.604542
vt 0.592928 0.604542
vt 0.637728 0.503754
vt 0.551981 0.604678
vt 0.675014 0.554152
vt 0.675285 0.604705
vt 0.634030 0.655156
vt 0.596907 0.504036
vt 0.594029 0.000038
vt 0.549554 0.151193
vt 0.594104 0.201711
vt 0.592928 0.604801
vt 0.514821 0.655158
vt 0.677406 0.050445
vt 0.629934 0.705284
vt 0.594104 0.352584
vt 0.637574 0.251952
vt 0.593720 0.000038
vt 0.635998 0.100811
vt 0.637728 0.402997
vt 0.637882 0.503860
vt 0.595204 0.100783
vt 0.594029 0.201569
vt 0.504132 0.604678
vt 0.594104 0.402997
vt 0.507352 0.654920
vn 0.098017 0.000000 -0.995185
vn 0.290285 0.000000 -0.956940
vn 0.471397 0.000000 -0.881921
vn 0.634393 0.000000 -0.773010
vn 0.773010 0.000000 -0.634393
vn 0.881921 0.000000 -0.471397
vn 0.956940 0.000000 -0.290285
vn 0.995185 0.000000 -0.098017
vn 0.995185 0.000000 0.098017
vn 0.956940 0.000000 0.290285
vn 0.881921 0.000000 0.471397
vn 0.773010 0.000000 0.634393
vn 0.634393 0.000000 0.773010
vn 0.471397 0.000000 0.881921
vn 0.290284 0.000000 0.956940
vn 0.098017 0.000000 0.995185
vn -0.098018 0.000000 0.995185
vn -0.290285 0.000000 0.956940
vn -0.471397 0.000000 0.881921
vn -0.634394 0.000000 0.773010
vn -0.773011 0.000000 0.634393
vn -0.881922 0.000000 0.471396
vn -0.956941 0.000000 0.290284
vn -0.995185 0.000000 0.098016
vn -0.995185 -0.000000 -0.098018
vn -0.956940 -0.000000 -0.290286
vn -0.881921 -0.000000 -0.471398
vn -0.773010 -0.000000 -0.634394
vn -0.634392 -0.000000 -0.773011
vn -0.471395 -0.000000 -0.881922
vn 0.000000 1.000000 0.000000
vn -0.098017 -0.000000 -0.995185
vn -0.290283 -0.000000 -0.956941
vn -0.000000 -1.000000 0.000000
vn -0.098017 0.000000 0.995185
vn 0.098016 0.000000 0.995185
vn 0.290283 0.000000 0.956941
vn 0.471395 0.000000 0.881922
vn 0.634392 0.000000 0.773011
vn 0.773010 0.000000 0.634394
vn 0.881921 0.000000 0.471398
vn 0.956940 0.000000 0.290286
vn 0.995185 0.000000 0.098018
vn 0.995185 0.000000 -0.098016
vn 0.956941 0.000000 -0.290284
vn 0.881922 0.000000 -0.471396
vn 0.773011 0.000000 -0.634393
vn 0.634394 0.000000 -0.773010
vn 0.098018 0.000000 -0.995185
vn -0.290284 -0.000000 -0.956940
vn -0.471397 -0.000000 -0.881921
vn -0.634393 -0.000000 -0.773010
vn -0.773010 -0.000000 -0.634393
vn -0.881921 -0.000000 -0.471396
vn -0.956940 -0.000000 -0.290285
vn -0.995185 -0.000000 -0.098017
vn -0.995185 0.000000 0.098017
vn -0.956940 0.000000 0.290285
vn -0.881921 0.000000 0.471397
vn -0.773010 0.000000 0.634393
vn -0.634393 0.000000 0.773011
usemtl None
s off
f 1/1/1 2/2/1 4/3/1
f 3/4/2 4/5/2 6/6/2
f 5/7/3 6/8/3 8/9/3
f 7/10/4 8/11/4 10/12/4
f 9/13/5 10/14/5 12/15/5
f 11/16/6 12/17/6 14/18/6
f 13/19/7 14/20/7 16/21/7
f 15/22/8 16/23/8 18/14/8
f 17/24/9 18/25/9 20/26/9
f 19/27/10 20/28/10 22/29/10
f 21/30/11 22/31/11 24/32/11
f 23/33/12 24/34/12 26/35/12
f 25/36/13 26/37/13 28/38/13
f 27/39/14 28/40/14 30/41/14
f 29/42/15 30/43/15 32/44/15
f 31/45/16 32/46/16 34/47/16
f 33/48/17 34/49/17 35/50/17
f 35/51/18 36/52/18 37/29/18
f 37/53/19 38/54/19 39/55/19
f 39/56/20 40/57/20 41/58/20
f 41/59/21 42/60/21 43/61/21
f 43/62/22 44/63/22 45/64/22
f 45/65/23 46/66/23 47/67/23
f 47/68/24 48/69/24 49/70/24
f 49/71/25 50/72/25 51/73/25
f 51/74/26 52/75/26 53/76/26
f 53/77/27 54/78/27 55/79/27
f 55/80/28 56/81/28 57/82/28
f 57/83/29 58/84/29 59/85/29
f 59/86/30 60/16/30 61/87/30
f 54/88/31 52/89/31 116/90/31
f 63/58/32 64/91/32 1/92/32
f 61/93/33 62/94/33 63/95/33
f 2/96/31 64/97/31 128/98/31
f 42/99/31 40/100/31 104/101/31
f 30/102/31 28/103/31 92/104/31
f 18/105/31 16/106/31 80/107/31
f 6/108/31 4/109/31 68/110/31
f 55/111/34 57/112/34 121/113/34
f 43/114/34 45/115/34 109/116/34
f 31/117/34 33/118/34 97/119/34
f 19/120/34 21/121/34 85/122/34
f 7/123/34 9/124/34 73/125/34
f 64/97/31 62/126/31 126/127/31
f 52/89/31 50/128/31 114/129/31
f 40/100/31 38/130/31 102/131/31
f 28/103/31 26/132/31 90/133/31
f 16/106/31 14/134/31 78/135/31
f 53/136/34 55/111/34 119/137/34
f 41/138/34 43/114/34 107/139/34
f 29/140/34 31/117/34 95/141/34
f 17/142/34 19/120/34 83/143/34
f 5/144/34 7/123/34 71/145/34
f 62/126/31 60/146/31 124/147/31
f 50/128/31 48/148/31 112/149/31
f 38/130/31 36/150/31 100/151/31
f 26/132/31 24/152/31 88/153/31
f 14/134/31 12/154/31 76/155/31
f 63/156/34 1/157/34 65/158/34
f 51/159/34 53/136/34 117/160/34
f 39/161/34 41/138/34 105/162/34
f 27/163/34 29/140/34 93/164/34
f 15/165/34 17/142/34 81/166/34
f 3/167/34 5/144/34 69/168/34
f 60/146/31 58/169/31 122/170/31
f 48/148/31 46/171/31 110/172/31
f 36/150/31 34/173/31 98/174/31
f 24/152/31 22/175/31 86/176/31
f 12/154/31 10/177/31 74/178/31
f 61/179/34 63/156/34 127/180/34
f 49/181/34 51/159/34 115/182/34
f 37/183/34 39/161/34 103/184/34
f 25/185/34 27/163/34 91/186/34
f 13/187/34 15/165/34 79/188/34
f 4/109/31 2/96/31 66/189/31
f 58/169/31 56/190/31 120/191/31
f 46/171/31 44/192/31 108/193/31
f 34/173/31 32/194/31 96/195/31
f 22/175/31 20/196/31 84/197/31
f 10/177/31 8/198/31 72/199/31
f 59/200/34 61/179/34 125/201/34
f 47/202/34 49/181/34 113/203/34
f 35/204/34 37/183/34 101/205/34
f 23/126/34 25/185/34 89/206/34
f 11/207/34 13/187/34 77/208/34
f 56/190/31 54/88/31 118/209/31
f 44/192/31 42/99/31 106/210/31
f 32/194/31 30/102/31 94/211/31
f 20/196/31 18/105/31 82/212/31
f 8/198/31 6/108/31 70/213/31
f 57/112/34 59/200/34 123/214/34
f 45/115/34 47/202/34 111/215/34
f 33/118/34 35/204/34 99/216/34
f 21/121/34 23/126/34 87/217/34
f 9/124/34 11/207/34 75/218/34
f 1/157/34 3/167/34 67/219/34
f 67/220/35 68/221/35 65/222/35
f 65/223/36 66/224/36 128/225/36
f 127/226/37 128/227/37 126/228/37
f 125/229/38 126/230/38 124/231/38
f 123/232/39 124/233/39 122/234/39
f 121/235/40 122/236/40 120/237/40
f 119/238/41 120/239/41 118/240/41
f 117/241/42 118/242/42 116/243/42
f 115/244/43 116/245/43 114/246/43
f 113/247/44 114/248/44 112/249/44
f 111/250/45 112/251/45 110/252/45
f 109/253/46 110/254/46 108/255/46
f 107/256/47 108/257/47 106/258/47
f 105/259/48 106/260/48 104/261/48
f 103/262/3 104/263/3 102/264/3
f 101/265/2 102/266/2 100/267/2
f 99/268/49 100/269/49 98/270/49
f 97/55/32 98/271/32 95/272/32
f 95/273/50 96/274/50 93/26/50
f 93/275/51 94/276/51 91/252/51
f 91/221/52 92/277/52 89/278/52
f 89/279/53 90/56/53 87/280/53
f 87/281/54 88/282/54 85/283/54
f 85/284/55 86/285/55 83/286/55
f 83/287/56 84/288/56 81/289/56
f 81/290/57 82/291/57 79/292/57
f 79/293/58 80/294/58 77/295/58
f 77/296/59 78/297/59 75/298/59
f 75/299/60 76/300/60 73/301/60
f 73/302/61 74/303/61 71/304/61
f 71/305/19 72/306/19 69/307/19
f 69/308/18 70/309/18 67/310/18
f 3/311/1 1/1/1 4/3/1
f 5/312/2 3/4/2 6/6/2
f 7/250/3 5/7/3 8/9/3
f 9/313/4 7/10/4 10/12/4
f 11/314/5 9/13/5 12/15/5
f 13/315/6 11/16/6 14/18/6
f 15/316/7 13/19/7 16/21/7
f 17/317/8 15/22/8 18/14/8
f 19/318/9 17/24/9 20/26/9
f 21/319/10 19/27/10 22/29/10
f 23/320/11 21/30/11 24/32/11
f 25/321/12 23/33/12 26/35/12
f 27/322/13 25/36/13 28/38/13
f 29/323/14 27/39/14 30/41/14
f 31/324/15 29/42/15 32/44/15
f 33/325/16 31/45/16 34/47/16
f 34/49/17 36/326/17 35/50/17
f 36/52/18 38/288/18 37/29/18
f 38/54/19 40/327/19 39/55/19
f 40/57/20 42/328/20 41/58/20
f 42/60/21 44/329/21 43/61/21
f 44/63/22 46/87/22 45/64/22
f 46/66/23 48/330/23 47/67/23
f 48/69/24 50/331/24 49/70/24
f 50/72/25 52/332/25 51/73/25
f 52/75/26 54/333/26 53/76/26
f 54/78/27 56/280/27 55/79/27
f 56/81/28 58/334/28 57/82/28
f 58/84/29 60/335/29 59/85/29
f 60/16/30 62/336/30 61/87/30
f 118/209/31 54/88/31 116/90/31
f 64/91/32 2/337/32 1/92/32
f 62/94/33 64/338/33 63/95/33
f 66/189/31 2/96/31 128/98/31
f 106/210/31 42/99/31 104/101/31
f 94/211/31 30/102/31 92/104/31
f 82/212/31 18/105/31 80/107/31
f 70/213/31 6/108/31 68/110/31
f 119/137/34 55/111/34 121/113/34
f 107/139/34 43/114/34 109/116/34
f 95/141/34 31/117/34 97/119/34
f 83/143/34 19/120/34 85/122/34
f 71/145/34 7/123/34 73/125/34
f 128/98/31 64/97/31 126/127/31
f 116/90/31 52/89/31 114/129/31
f 104/101/31 40/100/31 102/131/31
f 92/104/31 28/103/31 90/133/31
f 80/107/31 16/106/31 78/135/31
f 117/160/34 53/136/34 119/137/34
f 105/162/34 41/138/34 107/139/34
f 93/164/34 29/140/34 95/141/34
f 81/166/34 17/142/34 83/143/34
f 69/168/34 5/144/34 71/145/34
f 126/127/31 62/126/31 124/147/31
f 114/129/31 50/128/31 112/149/31
f 102/131/31 38/130/31 100/151/31
f 90/133/31 26/132/31 88/153/31
f 78/135/31 14/134/31 76/155/31
f 127/180/34 63/156/34 65/158/34
f 115/182/34 51/159/34 117/160/34
f 103/184/34 39/161/34 105/162/34
f 91/186/34 27/163/34 93/164/34
f 79/188/34 15/165/34 81/166/34
f 67/219/34 3/167/34 69/168/34
f 124/147/31 60/146/31 122/170/31
f 112/149/31 48/148/31 110/172/31
f 100/151/31 36/150/31 98/174/31
f 88/153/31 24/152/31 86/176/31
f 76/155/31 12/154/31 74/178/31
f 125/201/34 61/179/34 127/180/34
f 113/203/34 49/181/34 115/182/34
f 101/205/34 37/183/34 103/184/34
f 89/206/34 25/185/34 91/186/34
f 77/208/34 13/187/34 79/188/34
f 68/110/31 4/109/31 66/189/31
f 122/170/31 58/169/31 120/191/31
f 110/172/31 46/171/31 108/193/31
f 98/174/31 34/173/31 96/195/31
f 86/176/31 22/175/31 84/197/31
f 74/178/31 10/177/31 72/199/31
f 123/214/34 59/200/34 125/201/34
f 111/215/34 47/202/34 113/203/34
f 99/216/34 35/204/34 101/205/34
f 87/217/34 23/126/34 89/206/34
f 75/218/34 11/207/34 77/208/34
f 120/191/31 56/190/31 118/209/31
f 108/193/31 44/192/31 106/210/31
f 96/195/31 32/194/31 94/211/31
f 84/197/31 20/196/31 82/212/31
f 72/199/31 8/198/31 70/213/31
f 121/113/34 57/112/34 123/214/34
f 109/116/34 45/115/34 111/215/34
f 97/119/34 33/118/34 99/216/34
f 85/122/34 21/121/34 87/217/34
f 73/125/34 9/124/34 75/218/34
f 65/158/34 1/157/34 67/219/34
f 68/221/35 66/339/35 65/222/35
f 127/340/36 65/223/36 128/225/36
f 125/341/37 127/226/37 126/228/37
f 123/342/38 125/229/38 124/231/38
f 121/343/39 123/232/39 122/234/39
f 119/344/40 121/235/40 120/237/40
f 117/345/41 119/238/41 118/240/41
f 115/346/42 117/241/42 116/243/42
f 113/347/43 115/244/43 114/246/43
f 111/348/44 113/247/44 112/249/44
f 109/349/45 111/250/45 110/252/45
f 107/350/46 109/253/46 108/255/46
f 105/351/47 107/256/47 106/258/47
f 103/352/48 105/259/48 104/261/48
f 101/353/3 103/262/3 102/264/3
f 99/354/2 101/265/2 100/267/2
f 97/355/49 99/268/49 98/270/49
f 98/271/32 96/356/32 95/272/32
f 96/274/50 94/357/50 93/26/50
f 94/276/51 92/358/51 91/252/51
f 92/277/52 90/325/52 89/278/52
f 90/56/53 88/359/53 87/280/53
f 88/282/54 86/360/54 85/283/54
f 86/285/55 84/54/55 83/286/55
f 84/288/56 82/361/56 81/289/56
f 82/291/57 80/362/57 79/292/57
f 80/294/58 78/363/58 77/295/58
f 78/297/59 76/364/59 75/298/59
f 76/300/60 74/365/60 73/301/60
f 74/303/61 72/366/61 71/304/61
f 72/306/19 70/263/19 69/307/19
f 70/309/18 68/345/18 67/310/18
