# Blender v2.68 (sub 0) OBJ File: 'mesh_RampRound9.blend'
# www.blender.org
mtllib mesh_RampRound9.mtl
o Cube.001_Cube.004
v 1.000000 -0.000000 1.000000
v -1.000000 0.000000 1.000000
v -1.000000 0.000000 -1.000000
v 1.000000 -0.000000 -1.000000
v -0.609820 0.038429 1.000000
v -0.609820 0.038429 -0.609819
v 1.000000 0.038429 -0.609820
v 1.000000 2.000000 1.000000
v 1.000000 2.000000 1.000000
v 1.000000 0.152241 -0.234634
v 1.000000 1.609820 0.961570
v 1.000000 1.234633 0.847759
v 1.000000 0.337061 0.111140
v 1.000000 0.585786 0.414213
v 1.000000 0.888860 0.662939
v -0.234633 0.152241 1.000000
v -0.234634 0.152241 -0.234633
v 0.961571 1.609820 1.000000
v 0.961571 1.609820 0.961570
v 0.111140 0.337061 1.000000
v 0.111140 0.337061 0.111140
v 0.847759 1.234633 1.000000
v 0.847759 1.234633 0.847759
v 0.414214 0.585786 1.000000
v 0.414214 0.585786 0.414213
v 0.662939 0.888860 1.000000
v 0.662939 0.888860 0.662939
vt 0.654972 0.000170
vt 0.999830 0.000170
vt 0.654972 0.345028
vt 0.000170 0.037115
vt 0.077822 0.192369
vt 0.050632 0.258600
vt 0.117411 0.132715
vt 0.167876 0.081930
vt 0.227280 0.041967
vt 0.036886 0.328862
vt 0.038312 0.400452
vt 0.293338 0.014360
vt 0.363517 0.000170
vt 0.739678 0.716688
vt 0.607705 0.885782
vt 0.674985 0.736312
vt 0.607706 0.742938
vt 0.540428 0.736311
vt 0.475735 0.716686
vt 0.416115 0.684817
vt 0.799299 0.684821
vt 0.851562 0.641931
vt 0.363858 0.641931
vt 0.027086 0.928275
vt 0.028498 0.862323
vt 0.363517 0.935475
vt 0.029909 0.796371
vt 0.299295 0.868118
vt 0.031320 0.730419
vt 0.237594 0.800816
vt 0.032731 0.664467
vt 0.180841 0.733619
vt 0.034141 0.598513
vt 0.131271 0.666575
vt 0.035550 0.532558
vt 0.090842 0.599726
vt 0.036950 0.466594
vt 0.061163 0.533106
vt 0.037110 0.400452
vt 0.043424 0.466730
vt 0.654631 0.456177
vt 0.363858 0.641590
vt 0.618284 0.399176
vt 0.402438 0.456633
vt 0.581936 0.342174
vt 0.384238 0.548417
vt 0.416361 0.367576
vt 0.545589 0.285173
vt 0.424076 0.282477
vt 0.509242 0.228171
vt 0.423891 0.202418
vt 0.472895 0.171170
vt 0.414414 0.128282
vt 0.436547 0.114169
vt 0.394614 0.060730
vt 0.400201 0.057168
vt 0.363858 0.000170
vt 0.999830 0.345028
vn -0.000000 -1.000000 0.000000
vn 1.000000 -0.000000 -0.000000
vn 1.000000 -0.000000 -0.000001
vn 1.000000 -0.000000 0.000001
vn 1.000000 0.000001 -0.000000
vn 0.000000 -0.000000 1.000000
vn 0.000000 0.000002 1.000000
vn -0.098017 0.995185 0.000000
vn -0.290285 0.956940 0.000000
vn -0.471396 0.881921 0.000000
vn -0.634393 0.773010 0.000000
vn -0.773010 0.634393 0.000000
vn -0.881921 0.471397 0.000000
vn -0.956940 0.290284 0.000000
vn -0.995185 0.098017 0.000000
vn 0.000000 0.995185 -0.098017
vn 0.000000 0.956940 -0.290285
vn -0.000000 0.881921 -0.471396
vn -0.000000 0.773010 -0.634393
vn -0.000000 0.634393 -0.773010
vn 0.000000 0.471397 -0.881921
vn 0.000000 0.290284 -0.956940
vn 0.000000 0.098017 -0.995185
usemtl None
s off
f 1/1/1 2/2/1 4/3/1
f 1/4/2 15/5/2 12/6/2
f 1/4/2 14/7/2 15/5/2
f 1/4/2 13/8/2 14/7/2
f 1/4/2 10/9/2 13/8/2
f 11/10/3 1/4/3 12/6/3
f 1/4/4 11/10/4 8/11/4
f 1/4/2 7/12/2 10/9/2
f 1/4/5 4/13/5 7/12/5
f 16/14/6 1/15/6 20/16/6
f 1/15/6 24/17/6 20/16/6
f 1/15/6 26/18/6 24/17/6
f 1/15/6 22/19/6 26/18/6
f 1/15/6 18/20/6 22/19/6
f 5/21/6 1/15/6 16/14/6
f 2/22/7 1/15/7 5/21/7
f 1/15/6 9/23/6 18/20/6
f 2/24/8 5/25/8 3/26/8
f 5/25/9 16/27/9 6/28/9
f 16/27/10 20/29/10 17/30/10
f 20/29/11 24/31/11 21/32/11
f 24/31/12 26/33/12 25/34/12
f 26/33/13 22/35/13 27/36/13
f 22/35/14 18/37/14 23/38/14
f 18/37/15 9/39/15 19/40/15
f 4/41/16 3/42/16 7/43/16
f 17/44/17 10/45/17 6/46/17
f 21/47/18 13/48/18 17/44/18
f 25/49/19 14/50/19 21/47/19
f 27/51/20 15/52/20 25/49/20
f 23/53/21 12/54/21 27/51/21
f 19/55/22 11/56/22 23/53/22
f 19/55/23 8/57/23 11/56/23
f 2/2/1 3/58/1 4/3/1
f 9/39/2 1/4/2 8/11/2
f 5/25/8 6/28/8 3/26/8
f 16/27/9 17/30/9 6/28/9
f 20/29/10 21/32/10 17/30/10
f 24/31/11 25/34/11 21/32/11
f 26/33/12 27/36/12 25/34/12
f 22/35/13 23/38/13 27/36/13
f 18/37/14 19/40/14 23/38/14
f 9/39/15 8/11/15 19/40/15
f 3/42/16 6/46/16 7/43/16
f 10/45/17 7/43/17 6/46/17
f 13/48/18 10/45/18 17/44/18
f 14/50/19 13/48/19 21/47/19
f 15/52/20 14/50/20 25/49/20
f 12/54/21 15/52/21 27/51/21
f 11/56/22 12/54/22 23/53/22
