# Blender v2.66 (sub 1) OBJ File: 'mesh_Container4.blend'
# www.blender.org
mtllib mesh_Container4.mtl
o Solid.001
v -0.958401 -0.250333 0.604359
v -0.958401 -0.604359 0.250333
v -0.958401 -0.604359 -0.250333
v -0.958401 -0.250333 -0.604359
v -0.958401 0.250333 -0.604359
v -0.958401 0.604359 -0.250333
v -0.958401 0.604359 0.250333
v -0.958401 0.250333 0.604359
v 0.958401 -0.604359 0.250333
v 0.958401 -0.250333 0.604359
v 0.958401 0.250333 0.604359
v 0.958401 0.604359 0.250333
v 0.958401 0.604359 -0.250333
v 0.958401 0.250333 -0.604359
v 0.958401 -0.250333 -0.604359
v 0.958401 -0.604359 -0.250333
v -0.250333 -0.604359 0.958401
v -0.604359 -0.250333 0.958401
v -0.604359 0.250333 0.958401
v -0.250333 0.604359 0.958401
v 0.250333 0.604359 0.958401
v 0.604359 0.250333 0.958401
v 0.604359 -0.250333 0.958401
v 0.250333 -0.604359 0.958401
v 0.250333 -0.604359 -0.958401
v 0.604359 -0.250333 -0.958401
v 0.604359 0.250333 -0.958401
v 0.250333 0.604359 -0.958401
v -0.250333 0.604359 -0.958401
v -0.604359 0.250333 -0.958401
v -0.604359 -0.250333 -0.958401
v -0.250333 -0.604359 -0.958401
v -0.604359 -0.958401 0.250333
v -0.250333 -0.958401 0.604359
v 0.250333 -0.958401 0.604359
v 0.604359 -0.958401 0.250333
v 0.604359 -0.958401 -0.250333
v 0.250333 -0.958401 -0.604359
v -0.250333 -0.958401 -0.604359
v -0.604359 -0.958401 -0.250333
v -0.250333 0.958401 0.604359
v -0.604359 0.958401 0.250333
v -0.604359 0.958401 -0.250333
v -0.250333 0.958401 -0.604359
v 0.250333 0.958401 -0.604359
v 0.604359 0.958401 -0.250333
v 0.604359 0.958401 0.250333
v 0.250333 0.958401 0.604359
vt 0.318595 0.590557
vt 0.233796 0.590557
vt 0.378556 0.650518
vt 0.173834 0.650518
vt 0.378556 0.735317
vt 0.173835 0.735317
vt 0.318595 0.795278
vt 0.378556 0.670195
vt 0.378556 0.754994
vt 0.438518 0.814955
vt 0.438518 0.610234
vt 0.523316 0.814955
vt 0.523316 0.610234
vt 0.583278 0.754994
vt 0.583278 0.670195
vt 0.643240 0.814955
vt 0.643240 0.610234
vt 0.728038 0.814955
vt 0.728038 0.610234
vt 0.788000 0.754994
vt 0.932760 0.814955
vt 0.992721 0.754994
vt 0.992721 0.670195
vt 0.847961 0.814955
vt 0.932760 0.610234
vt 0.847961 0.610234
vt 0.754994 0.405512
vt 0.695033 0.465474
vt 0.695033 0.550272
vt 0.839793 0.405512
vt 0.754994 0.610234
vt 0.899754 0.465474
vt 0.839793 0.610234
vt 0.173835 0.940039
vt 0.233796 1.000000
vt 0.318595 1.000000
vt 0.173834 0.855240
vt 0.378556 0.940039
vt 0.233796 0.795278
vt 0.378556 0.855240
vt 0.042399 0.675355
vt 0.127202 0.675355
vt 0.042399 0.590557
vt 0.632953 0.073441
vt 0.590551 0.000000
vt 0.517114 0.042399
vt 0.115838 0.274077
vt 0.200640 0.274076
vt 0.200640 0.189278
vt 0.748793 0.243039
vt 0.675352 0.200637
vt 0.706394 0.316476
vt 0.231677 0.548157
vt 0.231677 0.463355
vt 0.146879 0.463355
vt 0.200638 0.042399
vt 0.243039 0.115840
vt 0.316476 0.073441
vt 0.042401 0.000000
vt 0.000000 0.073441
vt 0.073438 0.115840
vt 0.706394 0.000000
vt 0.632953 0.042401
vt 0.748793 0.073438
vt 0.494395 0.567834
vt 0.451994 0.494393
vt 0.420957 0.610234
vt 0.652631 0.610234
vt 0.695033 0.536793
vt 0.621595 0.494393
vt 0.389914 0.115840
vt 0.432315 0.042399
vt 0.358878 0.000000
vt 0.432313 0.274077
vt 0.517116 0.274076
vt 0.517116 0.189278
vt 0.146879 0.548157
vt 0.073441 0.590557
vt 0.073441 0.420956
vt 0.000000 0.548155
vt 0.305115 0.590557
vt 0.378556 0.548155
vt 0.378556 0.463357
vt 0.305115 0.420956
vt 0.115839 0.042399
vt 0.115837 0.189278
vt 0.675352 0.115839
vt 0.822231 0.115837
vt 0.822231 0.200639
vt 0.127200 0.822234
vt 0.169601 0.748793
vt 0.042401 0.822234
vt 0.000000 0.748793
vt 0.432313 0.189278
vt 0.559515 0.115840
vt 0.200639 0.420955
vt 0.243040 0.347513
vt 0.115841 0.420956
vt 0.579194 0.567835
vt 0.579196 0.420956
vt 0.788000 0.670195
vt 0.899754 0.550272
vt 0.127202 0.590557
vt 0.632953 0.274075
vt 0.274075 0.000000
vt 0.378556 0.536792
vt 0.000000 0.463357
vt 0.073439 0.347515
vt 0.494393 0.420956
vn -1.000000 -0.000000 -0.000000
vn 1.000000 0.000000 0.000000
vn 0.000000 -0.000000 1.000000
vn 0.000000 0.000000 -1.000000
vn 0.000000 -1.000000 0.000000
vn 0.000000 1.000000 0.000000
vn -0.707107 0.000000 0.707107
vn 0.707107 0.000000 0.707107
vn 0.707107 0.000000 -0.707107
vn -0.707107 0.000000 -0.707107
vn 0.000000 -0.707107 0.707107
vn 0.707107 -0.707107 0.000000
vn -0.000000 -0.707107 -0.707107
vn -0.707107 -0.707107 0.000000
vn -0.707107 0.707107 0.000000
vn 0.000000 0.707107 -0.707107
vn 0.707107 0.707107 -0.000000
vn 0.000000 0.707107 0.707107
vn -0.577350 -0.577350 0.577350
vn 0.577350 -0.577350 0.577350
vn 0.577350 -0.577350 -0.577350
vn -0.577350 -0.577350 -0.577350
vn -0.577350 0.577350 0.577350
vn 0.577350 0.577350 0.577350
vn 0.577350 0.577350 -0.577350
vn -0.577350 0.577350 -0.577350
usemtl None
s off
f 3/1/1 2/2/1 4/3/1
f 4/3/1 1/4/1 5/5/1
f 5/5/1 8/6/1 6/7/1
f 11/8/2 10/9/2 9/10/2
f 12/11/2 9/10/2 16/12/2
f 13/13/2 16/12/2 15/14/2
f 19/15/3 18/14/3 17/16/3
f 20/17/3 17/16/3 24/18/3
f 21/19/3 24/18/3 23/20/3
f 27/21/4 26/22/4 25/23/4
f 28/24/4 25/23/4 32/25/4
f 29/20/4 32/25/4 31/26/4
f 35/27/5 34/28/5 33/29/5
f 36/30/5 33/29/5 40/31/5
f 37/32/5 40/31/5 39/33/5
f 43/34/6 42/35/6 41/36/6
f 44/37/6 41/36/6 48/38/6
f 45/39/6 48/38/6 47/40/6
f 19/41/7 8/42/7 18/43/7
f 23/44/8 10/45/8 11/46/8
f 27/47/9 14/48/9 15/49/9
f 31/50/10 4/51/10 30/52/10
f 35/53/11 24/54/11 17/55/11
f 37/56/12 16/57/12 9/58/12
f 39/59/13 32/60/13 25/61/13
f 33/62/14 2/63/14 40/64/14
f 43/65/15 6/66/15 42/67/15
f 45/68/16 28/69/16 29/70/16
f 47/71/17 12/72/17 13/73/17
f 41/74/18 20/75/18 21/76/18
f 34/77/19 17/55/19 33/78/19
f 33/78/19 18/79/19 2/80/19
f 36/81/20 9/82/20 10/83/20
f 35/53/20 10/83/20 23/84/20
f 38/85/21 25/61/21 26/86/21
f 37/56/21 26/86/21 15/49/21
f 40/64/22 3/87/22 39/88/22
f 39/88/22 4/51/22 32/89/22
f 42/90/23 7/91/23 41/92/23
f 41/92/23 8/42/23 20/93/23
f 48/94/24 21/76/24 22/95/24
f 47/71/24 22/95/24 11/46/24
f 46/96/25 13/97/25 14/48/25
f 45/98/25 14/48/25 27/47/25
f 44/99/26 29/70/26 43/65/26
f 43/65/26 30/100/26 6/66/26
f 2/2/1 1/4/1 4/3/1
f 1/4/1 8/6/1 5/5/1
f 8/6/1 7/39/1 6/7/1
f 12/11/2 11/8/2 9/10/2
f 13/13/2 12/11/2 16/12/2
f 14/15/2 13/13/2 15/14/2
f 20/17/3 19/15/3 17/16/3
f 21/19/3 20/17/3 24/18/3
f 22/101/3 21/19/3 23/20/3
f 28/24/4 27/21/4 25/23/4
f 29/20/4 28/24/4 32/25/4
f 30/101/4 29/20/4 31/26/4
f 36/30/5 35/27/5 33/29/5
f 37/32/5 36/30/5 40/31/5
f 38/102/5 37/32/5 39/33/5
f 44/37/6 43/34/6 41/36/6
f 45/39/6 44/37/6 48/38/6
f 46/7/6 45/39/6 47/40/6
f 8/42/7 1/103/7 18/43/7
f 22/95/8 23/44/8 11/46/8
f 26/86/9 27/47/9 15/49/9
f 4/51/10 5/104/10 30/52/10
f 34/77/11 35/53/11 17/55/11
f 36/105/12 37/56/12 9/58/12
f 38/85/13 39/59/13 25/61/13
f 2/63/14 3/87/14 40/64/14
f 6/66/15 7/106/15 42/67/15
f 44/99/16 45/68/16 29/70/16
f 46/58/17 47/71/17 13/73/17
f 48/94/18 41/74/18 21/76/18
f 17/55/19 18/79/19 33/78/19
f 18/79/19 1/107/19 2/80/19
f 35/53/20 36/81/20 10/83/20
f 24/54/20 35/53/20 23/84/20
f 37/56/21 38/85/21 26/86/21
f 16/57/21 37/56/21 15/49/21
f 3/87/22 4/51/22 39/88/22
f 4/51/22 31/50/22 32/89/22
f 7/91/23 8/42/23 41/92/23
f 8/42/23 19/41/23 20/93/23
f 47/71/24 48/94/24 22/95/24
f 12/72/24 47/71/24 11/46/24
f 45/98/25 46/96/25 14/48/25
f 28/108/25 45/98/25 27/47/25
f 29/70/26 30/100/26 43/65/26
f 30/100/26 5/109/26 6/66/26
