# Blender v2.66 (sub 1) OBJ File: 'mesh_RampRound3.blend'
# www.blender.org
mtllib mesh_RampRound3.mtl
o Cube_Cube.001
v -1.000000 1.000000 -2.000000
v 1.000000 1.000000 -2.000000
v 1.000000 -1.000000 -2.000000
v -1.000000 -1.000000 -2.000000
v 1.000000 -0.961570 -0.390181
v 1.000000 0.609819 -1.961571
v 1.000000 -0.847759 -0.765367
v 1.000000 0.234633 -1.847759
v 1.000000 -0.111140 -1.662939
v 1.000000 -0.414213 -1.414214
v 1.000000 -0.662939 -1.111140
v -1.000000 0.609819 -1.961571
v -1.000000 -0.961571 -0.390181
v -1.000000 -0.847759 -0.765367
v -1.000000 0.234633 -1.847759
v -1.000000 -0.662939 -1.111140
v -1.000000 -0.414214 -1.414214
v -1.000000 -0.111141 -1.662939
v -1.000000 1.000000 2.000000
v 1.000000 1.000000 2.000000
v 1.000000 -1.000000 2.000000
v -1.000000 -1.000000 2.000000
v 1.000000 -0.961570 0.390181
v 1.000000 -1.000000 0.000000
v 1.000000 0.609819 1.961571
v 1.000000 -0.847759 0.765367
v 1.000000 0.234633 1.847759
v 1.000000 -0.111140 1.662939
v 1.000000 -0.414213 1.414214
v 1.000000 -0.662939 1.111140
v -1.000000 -1.000000 0.000001
v -1.000000 0.609819 1.961571
v -1.000000 -0.961571 0.390181
v -1.000000 -0.847759 0.765367
v -1.000000 0.234633 1.847759
v -1.000000 -0.662939 1.111140
v -1.000000 -0.414214 1.414214
v -1.000000 -0.111141 1.662939
vt 0.269609 0.459670
vt 0.386109 0.512107
vt 0.401404 0.562530
vt 0.380944 0.459670
vt 0.386109 0.407232
vt 0.401404 0.356810
vt 0.426243 0.608999
vt 0.426243 0.310340
vt 0.459670 0.269609
vt 0.459669 0.649730
vt 0.153110 0.407232
vt 0.137814 0.356810
vt 0.158274 0.459670
vt 0.153110 0.512107
vt 0.137814 0.562529
vt 0.112976 0.608999
vt 0.112976 0.310340
vt 0.079549 0.649730
vt 0.079549 0.269609
vt 0.269609 0.000824
vt 0.268785 0.269609
vt 0.000000 0.268785
vt 0.269609 0.650352
vt 0.321906 0.650191
vt 0.270434 0.919136
vt 0.374453 0.650030
vt 0.322730 0.918976
vt 0.425231 0.649874
vt 0.375277 0.918815
vt 0.472288 0.649730
vt 0.426055 0.918659
vt 0.846126 0.000690
vt 0.846950 0.269475
vt 0.802315 0.000825
vt 0.894806 0.000541
vt 0.895630 0.269325
vt 0.946484 0.000382
vt 0.947309 0.269167
vt 0.999176 0.000221
vt 1.000000 0.269005
vt 0.539218 0.000825
vt 0.801490 0.000020
vt 0.802315 0.268805
vt 0.839790 0.459669
vt 0.707995 0.562529
vt 0.723291 0.512107
vt 0.728455 0.459669
vt 0.723291 0.407232
vt 0.707995 0.356809
vt 0.683157 0.608999
vt 0.683157 0.310340
vt 0.649730 0.269609
vt 0.649730 0.649730
vt 0.576169 0.407232
vt 0.459670 0.459669
vt 0.591465 0.356810
vt 0.571004 0.459669
vt 0.576169 0.512107
vt 0.591464 0.562529
vt 0.616303 0.608999
vt 0.616303 0.310340
vt 0.269609 0.268785
vt 0.270434 0.000000
vt 0.025401 0.919264
vt 0.024577 0.650479
vt 0.077698 0.919103
vt 0.076874 0.650319
vt 0.130245 0.918942
vt 0.129421 0.650157
vt 0.181023 0.918786
vt 0.180199 0.650002
vt 0.228081 0.918642
vt 0.269609 0.918514
vt 0.268785 0.649730
vt 0.605094 0.649864
vt 0.648906 0.649730
vt 0.605919 0.918649
vt 0.556414 0.650014
vt 0.557239 0.918798
vt 0.504736 0.650172
vt 0.505560 0.918957
vt 0.650554 0.919319
vt 0.649730 0.650534
vt 0.912002 0.649730
vt 0.000825 0.000000
vt 0.473113 0.918514
vt 0.803139 0.269609
vt 0.540043 0.269609
vt 0.538394 0.269609
vt 0.227256 0.649857
vt 0.649730 0.918514
vt 0.912827 0.918514
vn -1.000000 -0.000000 0.000000
vn 1.000000 -0.000000 0.000000
vn 0.000000 -1.000000 0.000000
vn -0.000000 0.098017 0.995185
vn -0.000000 0.290285 0.956940
vn -0.000000 0.471397 0.881921
vn -0.000000 0.634393 0.773010
vn -0.000000 0.773010 0.634393
vn -0.000000 0.881921 0.471396
vn -0.000000 0.956940 0.290285
vn 0.000000 0.995185 0.098017
vn 0.000000 0.000000 -1.000000
vn -0.000000 0.098017 -0.995185
vn -0.000000 0.290285 -0.956940
vn -0.000000 0.471397 -0.881921
vn -0.000000 0.634393 -0.773010
vn -0.000000 0.773010 -0.634393
vn -0.000000 0.881921 -0.471396
vn -0.000000 0.956940 -0.290285
vn -0.000000 0.995185 -0.098017
vn 0.000000 0.000000 1.000000
usemtl None
s off
f 4/1/1 18/2/1 15/3/1
f 4/1/1 17/4/1 18/2/1
f 4/1/1 16/5/1 17/4/1
f 4/1/1 14/6/1 16/5/1
f 15/3/1 12/7/1 4/1/1
f 4/1/1 13/8/1 14/6/1
f 4/1/1 31/9/1 13/8/1
f 12/7/1 1/10/1 4/1/1
f 11/11/2 7/12/2 3/1/2
f 3/1/2 10/13/2 11/11/2
f 3/1/2 9/14/2 10/13/2
f 3/1/2 8/15/2 9/14/2
f 3/1/2 6/16/2 8/15/2
f 7/12/2 5/17/2 3/1/2
f 3/1/2 2/18/2 6/16/2
f 5/17/2 24/19/2 3/1/2
f 31/20/3 4/21/3 3/22/3
f 1/23/4 12/24/4 2/25/4
f 12/24/5 15/26/5 6/27/5
f 15/26/6 18/28/6 8/29/6
f 18/28/7 17/30/7 9/31/7
f 16/32/8 11/33/8 17/34/8
f 14/35/9 7/36/9 16/32/9
f 13/37/10 5/38/10 14/35/10
f 31/39/11 24/40/11 5/38/11
f 2/41/12 3/42/12 4/43/12
f 22/44/1 35/45/1 38/46/1
f 22/44/1 38/46/1 37/47/1
f 22/44/1 37/47/1 36/48/1
f 22/44/1 36/48/1 34/49/1
f 35/45/1 22/44/1 32/50/1
f 22/44/1 34/49/1 33/51/1
f 22/44/1 33/51/1 31/52/1
f 32/50/1 22/44/1 19/53/1
f 30/54/2 21/55/2 26/56/2
f 21/55/2 30/54/2 29/57/2
f 21/55/2 29/57/2 28/58/2
f 21/55/2 28/58/2 27/59/2
f 21/55/2 27/59/2 25/60/2
f 26/56/2 21/55/2 23/61/2
f 21/55/2 25/60/2 20/53/2
f 23/61/2 21/55/2 24/52/2
f 31/62/3 24/63/3 21/41/3
f 19/64/13 20/65/13 32/66/13
f 32/66/14 25/67/14 35/68/14
f 35/68/15 27/69/15 38/70/15
f 38/70/16 28/71/16 37/72/16
f 36/73/17 37/72/17 30/74/17
f 34/75/18 36/76/18 26/77/18
f 33/78/19 34/75/19 23/79/19
f 31/80/20 33/78/20 24/81/20
f 20/82/21 19/83/21 22/84/21
f 24/85/3 31/20/3 3/22/3
f 12/24/4 6/27/4 2/25/4
f 15/26/5 8/29/5 6/27/5
f 18/28/6 9/31/6 8/29/6
f 17/30/7 10/86/7 9/31/7
f 11/33/8 10/87/8 17/34/8
f 7/36/9 11/33/9 16/32/9
f 5/38/10 7/36/10 14/35/10
f 13/37/11 31/39/11 5/38/11
f 1/88/12 2/41/12 4/43/12
f 22/89/3 31/62/3 21/41/3
f 20/65/13 25/67/13 32/66/13
f 25/67/14 27/69/14 35/68/14
f 27/69/15 28/71/15 38/70/15
f 28/71/16 29/90/16 37/72/16
f 37/72/17 29/90/17 30/74/17
f 36/76/18 30/91/18 26/77/18
f 34/75/19 26/77/19 23/79/19
f 33/78/20 23/79/20 24/81/20
f 21/92/21 20/82/21 22/84/21
