# Blender v2.66 (sub 1) OBJ File: 'mesh_InvertedNormalsRing_2sided.blend'
# www.blender.org
mtllib mesh_InvertedNormalsRing_2sided.mtl
o Cylinder.001_Cylinder.010
v 0.000000 -0.500000 -1.000000
v 0.000000 0.500000 -1.000000
v 0.098017 -0.500000 -0.995185
v 0.098017 0.500000 -0.995185
v 0.195090 -0.500000 -0.980785
v 0.195090 0.500000 -0.980785
v 0.290285 -0.500000 -0.956940
v 0.290285 0.500000 -0.956940
v 0.382683 -0.500000 -0.923880
v 0.382683 0.500000 -0.923880
v 0.471397 -0.500000 -0.881921
v 0.471397 0.500000 -0.881921
v 0.555570 -0.500000 -0.831470
v 0.555570 0.500000 -0.831470
v 0.634393 -0.500000 -0.773010
v 0.634393 0.500000 -0.773010
v 0.707107 -0.500000 -0.707107
v 0.707107 0.500000 -0.707107
v 0.773010 -0.500000 -0.634393
v 0.773010 0.500000 -0.634393
v 0.831470 -0.500000 -0.555570
v 0.831470 0.500000 -0.555570
v 0.881921 -0.500000 -0.471397
v 0.881921 0.500000 -0.471397
v 0.923880 -0.500000 -0.382683
v 0.923880 0.500000 -0.382683
v 0.956940 -0.500000 -0.290285
v 0.956940 0.500000 -0.290285
v 0.980785 -0.500000 -0.195090
v 0.980785 0.500000 -0.195090
v 0.995185 -0.500000 -0.098017
v 0.995185 0.500000 -0.098017
v 1.000000 -0.500000 0.000000
v 1.000000 0.500000 0.000000
v 0.995185 -0.500000 0.098017
v 0.995185 0.500000 0.098017
v 0.980785 -0.500000 0.195091
v 0.980785 0.500000 0.195091
v 0.956940 -0.500000 0.290285
v 0.956940 0.500000 0.290285
v 0.923879 -0.500000 0.382684
v 0.923879 0.500000 0.382684
v 0.881921 -0.500000 0.471397
v 0.881921 0.500000 0.471397
v 0.831469 -0.500000 0.555571
v 0.831469 0.500000 0.555571
v 0.773010 -0.500000 0.634394
v 0.773010 0.500000 0.634394
v 0.707106 -0.500000 0.707107
v 0.707106 0.500000 0.707107
v 0.634393 -0.500000 0.773011
v 0.634393 0.500000 0.773011
v 0.555570 -0.500000 0.831470
v 0.555570 0.500000 0.831470
v 0.471396 -0.500000 0.881922
v 0.471396 0.500000 0.881922
v 0.382683 -0.500000 0.923880
v 0.382683 0.500000 0.923880
v 0.290284 -0.500000 0.956941
v 0.290284 0.500000 0.956941
v 0.195090 -0.500000 0.980785
v 0.195090 0.500000 0.980785
v 0.098016 -0.500000 0.995185
v 0.098016 0.500000 0.995185
v -0.000001 -0.500000 1.000000
v -0.000001 0.500000 1.000000
v -0.098018 -0.500000 0.995185
v -0.098018 0.500000 0.995185
v -0.195091 -0.500000 0.980785
v -0.195091 0.500000 0.980785
v -0.290286 -0.500000 0.956940
v -0.290286 0.500000 0.956940
v -0.382684 -0.500000 0.923879
v -0.382684 0.500000 0.923879
v -0.471398 -0.500000 0.881921
v -0.471398 0.500000 0.881921
v -0.555571 -0.500000 0.831469
v -0.555571 0.500000 0.831469
v -0.634394 -0.500000 0.773010
v -0.634394 0.500000 0.773010
v -0.707108 -0.500000 0.707106
v -0.707108 0.500000 0.707106
v -0.773011 -0.500000 0.634393
v -0.773011 0.500000 0.634393
v -0.831470 -0.500000 0.555570
v -0.831470 0.500000 0.555570
v -0.881922 -0.500000 0.471396
v -0.881922 0.500000 0.471396
v -0.923880 -0.500000 0.382683
v -0.923880 0.500000 0.382683
v -0.956940 -0.500000 0.290285
v -0.956940 0.500000 0.290285
v -0.980785 -0.500000 0.195090
v -0.980785 0.500000 0.195090
v -0.995185 -0.500000 0.098017
v -0.995185 0.500000 0.098017
v -1.000000 -0.500000 0.000000
v -1.000000 0.500000 0.000000
v -0.995185 -0.500000 -0.098016
v -0.995185 0.500000 -0.098016
v -0.980785 -0.500000 -0.195089
v -0.980785 0.500000 -0.195089
v -0.956941 -0.500000 -0.290284
v -0.956941 0.500000 -0.290284
v -0.923880 -0.500000 -0.382682
v -0.923880 0.500000 -0.382682
v -0.881922 -0.500000 -0.471395
v -0.881922 0.500000 -0.471395
v -0.831471 -0.500000 -0.555569
v -0.831471 0.500000 -0.555569
v -0.773012 -0.500000 -0.634392
v -0.773012 0.500000 -0.634392
v -0.707108 -0.500000 -0.707105
v -0.707108 0.500000 -0.707105
v -0.634395 -0.500000 -0.773009
v -0.634395 0.500000 -0.773009
v -0.555572 -0.500000 -0.831468
v -0.555572 0.500000 -0.831468
v -0.471399 -0.500000 -0.881920
v -0.471399 0.500000 -0.881920
v -0.382686 -0.500000 -0.923878
v -0.382686 0.500000 -0.923878
v -0.290288 -0.500000 -0.956939
v -0.290288 0.500000 -0.956939
v -0.195093 -0.500000 -0.980785
v -0.195093 0.500000 -0.980785
v -0.098021 -0.500000 -0.995184
v -0.098021 0.500000 -0.995184
v 0.000000 -0.500000 -1.000000
v 0.000000 0.500000 -1.000000
v 0.098017 -0.500000 -0.995185
v 0.098017 0.500000 -0.995185
v 0.195090 -0.500000 -0.980785
v 0.195090 0.500000 -0.980785
v 0.290285 -0.500000 -0.956940
v 0.290285 0.500000 -0.956940
v 0.382683 -0.500000 -0.923880
v 0.382683 0.500000 -0.923880
v 0.471397 -0.500000 -0.881921
v 0.471397 0.500000 -0.881921
v 0.555570 -0.500000 -0.831470
v 0.555570 0.500000 -0.831470
v 0.634393 -0.500000 -0.773010
v 0.634393 0.500000 -0.773010
v 0.707107 -0.500000 -0.707107
v 0.707107 0.500000 -0.707107
v 0.773010 -0.500000 -0.634393
v 0.773010 0.500000 -0.634393
v 0.831470 -0.500000 -0.555570
v 0.831470 0.500000 -0.555570
v 0.881921 -0.500000 -0.471397
v 0.881921 0.500000 -0.471397
v 0.923880 -0.500000 -0.382683
v 0.923880 0.500000 -0.382683
v 0.956940 -0.500000 -0.290285
v 0.956940 0.500000 -0.290285
v 0.980785 -0.500000 -0.195090
v 0.980785 0.500000 -0.195090
v 0.995185 -0.500000 -0.098017
v 0.995185 0.500000 -0.098017
v 1.000000 -0.500000 0.000000
v 1.000000 0.500000 0.000000
v 0.995185 -0.500000 0.098017
v 0.995185 0.500000 0.098017
v 0.980785 -0.500000 0.195091
v 0.980785 0.500000 0.195091
v 0.956940 -0.500000 0.290285
v 0.956940 0.500000 0.290285
v 0.923879 -0.500000 0.382684
v 0.923879 0.500000 0.382684
v 0.881921 -0.500000 0.471397
v 0.881921 0.500000 0.471397
v 0.831469 -0.500000 0.555571
v 0.831469 0.500000 0.555571
v 0.773010 -0.500000 0.634394
v 0.773010 0.500000 0.634394
v 0.707106 -0.500000 0.707107
v 0.707106 0.500000 0.707107
v 0.634393 -0.500000 0.773011
v 0.634393 0.500000 0.773011
v 0.555570 -0.500000 0.831470
v 0.555570 0.500000 0.831470
v 0.471396 -0.500000 0.881922
v 0.471396 0.500000 0.881922
v 0.382683 -0.500000 0.923880
v 0.382683 0.500000 0.923880
v 0.290284 -0.500000 0.956941
v 0.290284 0.500000 0.956941
v 0.195090 -0.500000 0.980785
v 0.195090 0.500000 0.980785
v 0.098016 -0.500000 0.995185
v 0.098016 0.500000 0.995185
v -0.000001 -0.500000 1.000000
v -0.000001 0.500000 1.000000
v -0.098018 -0.500000 0.995185
v -0.098018 0.500000 0.995185
v -0.195091 -0.500000 0.980785
v -0.195091 0.500000 0.980785
v -0.290286 -0.500000 0.956940
v -0.290286 0.500000 0.956940
v -0.382684 -0.500000 0.923879
v -0.382684 0.500000 0.923879
v -0.471398 -0.500000 0.881921
v -0.471398 0.500000 0.881921
v -0.555571 -0.500000 0.831469
v -0.555571 0.500000 0.831469
v -0.634394 -0.500000 0.773010
v -0.634394 0.500000 0.773010
v -0.707108 -0.500000 0.707106
v -0.707108 0.500000 0.707106
v -0.773011 -0.500000 0.634393
v -0.773011 0.500000 0.634393
v -0.831470 -0.500000 0.555570
v -0.831470 0.500000 0.555570
v -0.881922 -0.500000 0.471396
v -0.881922 0.500000 0.471396
v -0.923880 -0.500000 0.382683
v -0.923880 0.500000 0.382683
v -0.956940 -0.500000 0.290285
v -0.956940 0.500000 0.290285
v -0.980785 -0.500000 0.195090
v -0.980785 0.500000 0.195090
v -0.995185 -0.500000 0.098017
v -0.995185 0.500000 0.098017
v -1.000000 -0.500000 0.000000
v -1.000000 0.500000 0.000000
v -0.995185 -0.500000 -0.098016
v -0.995185 0.500000 -0.098016
v -0.980785 -0.500000 -0.195089
v -0.980785 0.500000 -0.195089
v -0.956941 -0.500000 -0.290284
v -0.956941 0.500000 -0.290284
v -0.923880 -0.500000 -0.382682
v -0.923880 0.500000 -0.382682
v -0.881922 -0.500000 -0.471395
v -0.881922 0.500000 -0.471395
v -0.831471 -0.500000 -0.555569
v -0.831471 0.500000 -0.555569
v -0.773012 -0.500000 -0.634392
v -0.773012 0.500000 -0.634392
v -0.707108 -0.500000 -0.707105
v -0.707108 0.500000 -0.707105
v -0.634395 -0.500000 -0.773009
v -0.634395 0.500000 -0.773009
v -0.555572 -0.500000 -0.831468
v -0.555572 0.500000 -0.831468
v -0.471399 -0.500000 -0.881920
v -0.471399 0.500000 -0.881920
v -0.382686 -0.500000 -0.923878
v -0.382686 0.500000 -0.923878
v -0.290288 -0.500000 -0.956939
v -0.290288 0.500000 -0.956939
v -0.195093 -0.500000 -0.980785
v -0.195093 0.500000 -0.980785
v -0.098021 -0.500000 -0.995184
v -0.098021 0.500000 -0.995184
vt 0.745467 0.353923
vt 0.744384 0.000949
vt 0.709912 0.001054
vt 0.710995 0.354029
vt 0.675938 0.001159
vt 0.677021 0.354133
vt 0.642790 0.001260
vt 0.643873 0.354235
vt 0.610788 0.001358
vt 0.611871 0.354333
vt 0.580239 0.001452
vt 0.581322 0.354427
vt 0.551437 0.001541
vt 0.552520 0.354515
vt 0.524661 0.001623
vt 0.499832 0.708059
vt 0.498749 0.355084
vt 0.474255 0.355159
vt 0.475338 0.708134
vt 0.447478 0.355242
vt 0.448561 0.708216
vt 0.418677 0.355330
vt 0.419760 0.708305
vt 0.388128 0.355424
vt 0.389211 0.708398
vt 0.356125 0.355522
vt 0.357208 0.708497
vt 0.322978 0.355624
vt 0.324061 0.708598
vt 0.289004 0.355728
vt 0.290087 0.708702
vt 0.254531 0.355833
vt 0.255614 0.708808
vt 0.219892 0.355940
vt 0.220975 0.708914
vt 0.185420 0.356046
vt 0.186502 0.709020
vt 0.151446 0.356150
vt 0.152529 0.709124
vt 0.118298 0.356251
vt 0.119381 0.709226
vt 0.086296 0.356350
vt 0.087378 0.709324
vt 0.055746 0.356443
vt 0.056829 0.709418
vt 0.026945 0.356532
vt 0.028028 0.709507
vt 0.000168 0.356614
vt 0.999832 0.708059
vt 0.998749 0.355084
vt 0.974255 0.355159
vt 0.975338 0.708134
vt 0.947479 0.355242
vt 0.948561 0.708216
vt 0.918677 0.355330
vt 0.919760 0.708304
vt 0.888128 0.355424
vt 0.889211 0.708398
vt 0.856125 0.355522
vt 0.857208 0.708497
vt 0.822978 0.355623
vt 0.824060 0.708598
vt 0.789004 0.355728
vt 0.790087 0.708702
vt 0.754532 0.355833
vt 0.755614 0.708808
vt 0.719892 0.355940
vt 0.720975 0.708914
vt 0.686503 0.709020
vt 0.685420 0.356045
vt 0.652529 0.709124
vt 0.651446 0.356150
vt 0.619381 0.709226
vt 0.618298 0.356251
vt 0.587378 0.709324
vt 0.586296 0.356350
vt 0.556829 0.709418
vt 0.555747 0.356443
vt 0.528028 0.709506
vt 0.526945 0.356532
vt 0.501251 0.709588
vt 0.524324 0.353143
vt 0.523241 0.000168
vt 0.499830 0.353218
vt 0.498748 0.000244
vt 0.473054 0.353300
vt 0.471971 0.000326
vt 0.444252 0.353389
vt 0.443170 0.000414
vt 0.413703 0.353482
vt 0.412621 0.000508
vt 0.381701 0.353580
vt 0.380618 0.000606
vt 0.348553 0.353682
vt 0.347470 0.000708
vt 0.314580 0.353786
vt 0.313497 0.000812
vt 0.280107 0.353892
vt 0.279024 0.000918
vt 0.245468 0.353998
vt 0.244385 0.001024
vt 0.210996 0.354104
vt 0.209913 0.001130
vt 0.177022 0.354208
vt 0.175939 0.001234
vt 0.143874 0.354310
vt 0.142792 0.001336
vt 0.111872 0.354408
vt 0.110789 0.001434
vt 0.081323 0.354502
vt 0.080240 0.001527
vt 0.052521 0.354590
vt 0.051439 0.001616
vt 0.025745 0.354672
vt 0.024662 0.001698
vt 0.001251 0.354748
vt 0.999831 0.353143
vt 0.998748 0.000168
vt 0.973054 0.353225
vt 0.971971 0.000250
vt 0.944253 0.353313
vt 0.943170 0.000339
vt 0.913704 0.353407
vt 0.912621 0.000433
vt 0.881701 0.353505
vt 0.880619 0.000531
vt 0.848554 0.353607
vt 0.847471 0.000632
vt 0.814580 0.353711
vt 0.813497 0.000737
vt 0.780108 0.353817
vt 0.779025 0.000842
vt 0.525744 0.354597
vt 0.001251 0.709588
vt 0.500168 0.356614
vt 0.000168 0.001773
vn 0.049068 0.000000 -0.998795
vn 0.146731 0.000000 -0.989177
vn 0.242980 0.000000 -0.970031
vn 0.336890 0.000000 -0.941544
vn 0.427555 0.000000 -0.903989
vn 0.514103 0.000000 -0.857729
vn 0.595699 0.000000 -0.803208
vn 0.671559 0.000000 -0.740951
vn 0.740951 0.000000 -0.671559
vn 0.803207 0.000000 -0.595699
vn 0.857729 0.000000 -0.514103
vn 0.903989 0.000000 -0.427555
vn 0.941544 0.000000 -0.336890
vn 0.970031 0.000000 -0.242980
vn 0.989177 0.000000 -0.146730
vn 0.998795 0.000000 -0.049068
vn 0.998795 0.000000 0.049068
vn 0.989177 0.000000 0.146731
vn 0.970031 0.000000 0.242981
vn 0.941544 0.000000 0.336890
vn 0.903989 0.000000 0.427555
vn 0.857728 0.000000 0.514103
vn 0.803207 0.000000 0.595699
vn 0.740951 0.000000 0.671560
vn 0.671559 0.000000 0.740951
vn 0.595699 0.000000 0.803208
vn 0.514102 0.000000 0.857729
vn 0.427555 0.000000 0.903989
vn 0.336889 0.000000 0.941544
vn 0.242980 0.000000 0.970031
vn 0.146729 0.000000 0.989177
vn 0.049067 0.000000 0.998796
vn -0.049068 0.000000 0.998795
vn -0.146731 0.000000 0.989176
vn -0.242981 0.000000 0.970031
vn -0.336891 0.000000 0.941544
vn -0.427556 0.000000 0.903989
vn -0.514104 0.000000 0.857728
vn -0.595700 0.000000 0.803207
vn -0.671560 0.000000 0.740951
vn -0.740952 0.000000 0.671558
vn -0.803208 0.000000 0.595699
vn -0.857729 0.000000 0.514102
vn -0.903989 0.000000 0.427555
vn -0.941544 0.000000 0.336889
vn -0.970031 0.000000 0.242980
vn -0.989176 0.000000 0.146731
vn -0.998795 0.000000 0.049068
vn -0.998795 -0.000000 -0.049067
vn -0.989177 -0.000000 -0.146730
vn -0.970032 -0.000000 -0.242979
vn -0.941544 -0.000000 -0.336889
vn -0.903990 -0.000000 -0.427554
vn -0.857729 -0.000000 -0.514101
vn -0.803208 -0.000000 -0.595698
vn -0.740953 -0.000000 -0.671557
vn -0.671560 -0.000000 -0.740950
vn -0.595701 -0.000000 -0.803206
vn -0.514105 -0.000000 -0.857727
vn -0.427557 -0.000000 -0.903988
vn -0.336893 -0.000000 -0.941543
vn -0.242983 -0.000000 -0.970030
vn -0.146733 -0.000000 -0.989176
vn -0.049070 -0.000000 -0.998795
vn -0.146731 0.000000 0.989177
vn -0.242980 0.000000 0.970031
vn -0.336890 0.000000 0.941544
vn -0.427555 0.000000 0.903989
vn -0.514103 0.000000 0.857729
vn -0.595699 0.000000 0.803208
vn -0.671559 0.000000 0.740951
vn -0.740951 0.000000 0.671559
vn -0.803207 0.000000 0.595699
vn -0.857729 0.000000 0.514103
vn -0.941544 0.000000 0.336890
vn -0.989177 0.000000 0.146730
vn -0.998795 0.000000 -0.049068
vn -0.989177 0.000000 -0.146731
vn -0.970031 0.000000 -0.242981
vn -0.941544 0.000000 -0.336890
vn -0.903989 0.000000 -0.427555
vn -0.857728 0.000000 -0.514103
vn -0.803207 0.000000 -0.595699
vn -0.740951 0.000000 -0.671560
vn -0.671559 0.000000 -0.740951
vn -0.595699 0.000000 -0.803208
vn -0.514102 0.000000 -0.857729
vn -0.427555 0.000000 -0.903989
vn -0.336889 0.000000 -0.941544
vn -0.242980 0.000000 -0.970031
vn -0.146729 0.000000 -0.989177
vn -0.049067 0.000000 -0.998796
vn 0.146731 0.000000 -0.989176
vn 0.242981 0.000000 -0.970031
vn 0.336891 0.000000 -0.941544
vn 0.427556 0.000000 -0.903989
vn 0.514104 0.000000 -0.857728
vn 0.595700 0.000000 -0.803207
vn 0.671560 0.000000 -0.740951
vn 0.740952 0.000000 -0.671558
vn 0.803208 0.000000 -0.595699
vn 0.857729 0.000000 -0.514102
vn 0.941544 0.000000 -0.336889
vn 0.989176 0.000000 -0.146731
vn 0.998795 0.000000 0.049067
vn 0.989177 0.000000 0.146730
vn 0.970032 0.000000 0.242979
vn 0.941544 0.000000 0.336889
vn 0.903990 0.000000 0.427554
vn 0.857729 0.000000 0.514101
vn 0.803208 0.000000 0.595698
vn 0.740953 0.000000 0.671557
vn 0.671560 0.000000 0.740950
vn 0.595701 0.000000 0.803206
vn 0.514105 0.000000 0.857727
vn 0.427557 0.000000 0.903988
vn 0.336893 0.000000 0.941543
vn 0.242983 0.000000 0.970030
vn 0.146733 0.000000 0.989176
vn 0.049070 0.000000 0.998795
usemtl None
s off
f 1/1/1 2/2/1 4/3/1
f 3/4/2 4/3/2 6/5/2
f 5/6/3 6/5/3 8/7/3
f 7/8/4 8/7/4 10/9/4
f 9/10/5 10/9/5 12/11/5
f 11/12/6 12/11/6 14/13/6
f 13/14/7 14/13/7 16/15/7
f 15/16/8 16/17/8 18/18/8
f 17/19/9 18/18/9 20/20/9
f 19/21/10 20/20/10 22/22/10
f 21/23/11 22/22/11 24/24/11
f 23/25/12 24/24/12 26/26/12
f 25/27/13 26/26/13 28/28/13
f 27/29/14 28/28/14 30/30/14
f 29/31/15 30/30/15 32/32/15
f 31/33/16 32/32/16 34/34/16
f 33/35/17 34/34/17 36/36/17
f 35/37/18 36/36/18 38/38/18
f 37/39/19 38/38/19 40/40/19
f 39/41/20 40/40/20 42/42/20
f 41/43/21 42/42/21 44/44/21
f 43/45/22 44/44/22 46/46/22
f 45/47/23 46/46/23 48/48/23
f 47/49/24 48/50/24 50/51/24
f 49/52/25 50/51/25 52/53/25
f 51/54/26 52/53/26 54/55/26
f 53/56/27 54/55/27 56/57/27
f 55/58/28 56/57/28 58/59/28
f 57/60/29 58/59/29 60/61/29
f 59/62/30 60/61/30 62/63/30
f 61/64/31 62/63/31 64/65/31
f 63/66/32 64/65/32 66/67/32
f 65/68/33 66/67/33 67/69/33
f 67/69/34 68/70/34 69/71/34
f 69/71/35 70/72/35 71/73/35
f 71/73/36 72/74/36 73/75/36
f 73/75/37 74/76/37 75/77/37
f 75/77/38 76/78/38 77/79/38
f 77/79/39 78/80/39 79/81/39
f 79/82/40 80/83/40 81/84/40
f 81/84/41 82/85/41 83/86/41
f 83/86/42 84/87/42 85/88/42
f 85/88/43 86/89/43 87/90/43
f 87/90/44 88/91/44 89/92/44
f 89/92/45 90/93/45 91/94/45
f 91/94/46 92/95/46 93/96/46
f 93/96/47 94/97/47 95/98/47
f 95/98/48 96/99/48 97/100/48
f 97/100/49 98/101/49 99/102/49
f 99/102/50 100/103/50 101/104/50
f 101/104/51 102/105/51 103/106/51
f 103/106/52 104/107/52 105/108/52
f 105/108/53 106/109/53 107/110/53
f 107/110/54 108/111/54 109/112/54
f 109/112/55 110/113/55 111/114/55
f 111/114/56 112/115/56 113/116/56
f 113/117/57 114/118/57 115/119/57
f 115/119/58 116/120/58 117/121/58
f 117/121/59 118/122/59 119/123/59
f 119/123/60 120/124/60 121/125/60
f 121/125/61 122/126/61 123/127/61
f 123/127/62 124/128/62 125/129/62
f 125/129/63 126/130/63 127/131/63
f 127/131/64 128/132/64 1/1/64
f 129/1/33 131/4/33 130/2/33
f 131/4/65 133/6/65 132/3/65
f 133/6/66 135/8/66 134/5/66
f 135/8/67 137/10/67 136/7/67
f 137/10/68 139/12/68 138/9/68
f 139/12/69 141/14/69 140/11/69
f 141/14/70 143/133/70 142/13/70
f 143/16/71 145/19/71 144/17/71
f 145/19/72 147/21/72 146/18/72
f 147/21/73 149/23/73 148/20/73
f 149/23/74 151/25/74 150/22/74
f 151/25/44 153/27/44 152/24/44
f 153/27/75 155/29/75 154/26/75
f 155/29/46 157/31/46 156/28/46
f 157/31/76 159/33/76 158/30/76
f 159/33/48 161/35/48 160/32/48
f 161/35/77 163/37/77 162/34/77
f 163/37/78 165/39/78 164/36/78
f 165/39/79 167/41/79 166/38/79
f 167/41/80 169/43/80 168/40/80
f 169/43/81 171/45/81 170/42/81
f 171/45/82 173/47/82 172/44/82
f 173/47/83 175/134/83 174/46/83
f 175/49/84 177/52/84 176/50/84
f 177/52/85 179/54/85 178/51/85
f 179/54/86 181/56/86 180/53/86
f 181/56/87 183/58/87 182/55/87
f 183/58/88 185/60/88 184/57/88
f 185/60/89 187/62/89 186/59/89
f 187/62/90 189/64/90 188/61/90
f 189/64/91 191/66/91 190/63/91
f 191/66/92 193/68/92 192/65/92
f 193/68/1 195/69/1 196/70/1
f 195/69/93 197/71/93 198/72/93
f 197/71/94 199/73/94 200/74/94
f 199/73/95 201/75/95 202/76/95
f 201/75/96 203/77/96 204/78/96
f 203/77/97 205/79/97 206/80/97
f 205/79/98 207/81/98 208/135/98
f 207/82/99 209/84/99 210/85/99
f 209/84/100 211/86/100 212/87/100
f 211/86/101 213/88/101 214/89/101
f 213/88/102 215/90/102 216/91/102
f 215/90/12 217/92/12 218/93/12
f 217/92/103 219/94/103 220/95/103
f 219/94/14 221/96/14 222/97/14
f 221/96/104 223/98/104 224/99/104
f 223/98/16 225/100/16 226/101/16
f 225/100/105 227/102/105 228/103/105
f 227/102/106 229/104/106 230/105/106
f 229/104/107 231/106/107 232/107/107
f 231/106/108 233/108/108 234/109/108
f 233/108/109 235/110/109 236/111/109
f 235/110/110 237/112/110 238/113/110
f 237/112/111 239/114/111 240/115/111
f 239/114/112 241/116/112 242/136/112
f 241/117/113 243/119/113 244/120/113
f 243/119/114 245/121/114 246/122/114
f 245/121/115 247/123/115 248/124/115
f 247/123/116 249/125/116 250/126/116
f 249/125/117 251/127/117 252/128/117
f 251/127/118 253/129/118 254/130/118
f 253/129/119 255/131/119 256/132/119
f 255/131/120 129/1/120 130/2/120
f 3/4/1 1/1/1 4/3/1
f 5/6/2 3/4/2 6/5/2
f 7/8/3 5/6/3 8/7/3
f 9/10/4 7/8/4 10/9/4
f 11/12/5 9/10/5 12/11/5
f 13/14/6 11/12/6 14/13/6
f 15/133/7 13/14/7 16/15/7
f 17/19/8 15/16/8 18/18/8
f 19/21/9 17/19/9 20/20/9
f 21/23/10 19/21/10 22/22/10
f 23/25/11 21/23/11 24/24/11
f 25/27/12 23/25/12 26/26/12
f 27/29/13 25/27/13 28/28/13
f 29/31/14 27/29/14 30/30/14
f 31/33/15 29/31/15 32/32/15
f 33/35/16 31/33/16 34/34/16
f 35/37/17 33/35/17 36/36/17
f 37/39/18 35/37/18 38/38/18
f 39/41/19 37/39/19 40/40/19
f 41/43/20 39/41/20 42/42/20
f 43/45/21 41/43/21 44/44/21
f 45/47/22 43/45/22 46/46/22
f 47/134/23 45/47/23 48/48/23
f 49/52/24 47/49/24 50/51/24
f 51/54/25 49/52/25 52/53/25
f 53/56/26 51/54/26 54/55/26
f 55/58/27 53/56/27 56/57/27
f 57/60/28 55/58/28 58/59/28
f 59/62/29 57/60/29 60/61/29
f 61/64/30 59/62/30 62/63/30
f 63/66/31 61/64/31 64/65/31
f 65/68/32 63/66/32 66/67/32
f 66/67/33 68/70/33 67/69/33
f 68/70/34 70/72/34 69/71/34
f 70/72/35 72/74/35 71/73/35
f 72/74/36 74/76/36 73/75/36
f 74/76/37 76/78/37 75/77/37
f 76/78/38 78/80/38 77/79/38
f 78/80/39 80/135/39 79/81/39
f 80/83/40 82/85/40 81/84/40
f 82/85/41 84/87/41 83/86/41
f 84/87/42 86/89/42 85/88/42
f 86/89/43 88/91/43 87/90/43
f 88/91/44 90/93/44 89/92/44
f 90/93/45 92/95/45 91/94/45
f 92/95/46 94/97/46 93/96/46
f 94/97/47 96/99/47 95/98/47
f 96/99/48 98/101/48 97/100/48
f 98/101/49 100/103/49 99/102/49
f 100/103/50 102/105/50 101/104/50
f 102/105/51 104/107/51 103/106/51
f 104/107/52 106/109/52 105/108/52
f 106/109/53 108/111/53 107/110/53
f 108/111/54 110/113/54 109/112/54
f 110/113/55 112/115/55 111/114/55
f 112/115/56 114/136/56 113/116/56
f 114/118/57 116/120/57 115/119/57
f 116/120/58 118/122/58 117/121/58
f 118/122/59 120/124/59 119/123/59
f 120/124/60 122/126/60 121/125/60
f 122/126/61 124/128/61 123/127/61
f 124/128/62 126/130/62 125/129/62
f 126/130/63 128/132/63 127/131/63
f 128/132/64 2/2/64 1/1/64
f 131/4/33 132/3/33 130/2/33
f 133/6/65 134/5/65 132/3/65
f 135/8/66 136/7/66 134/5/66
f 137/10/67 138/9/67 136/7/67
f 139/12/68 140/11/68 138/9/68
f 141/14/69 142/13/69 140/11/69
f 143/133/70 144/15/70 142/13/70
f 145/19/71 146/18/71 144/17/71
f 147/21/72 148/20/72 146/18/72
f 149/23/73 150/22/73 148/20/73
f 151/25/74 152/24/74 150/22/74
f 153/27/44 154/26/44 152/24/44
f 155/29/75 156/28/75 154/26/75
f 157/31/46 158/30/46 156/28/46
f 159/33/76 160/32/76 158/30/76
f 161/35/48 162/34/48 160/32/48
f 163/37/77 164/36/77 162/34/77
f 165/39/78 166/38/78 164/36/78
f 167/41/79 168/40/79 166/38/79
f 169/43/80 170/42/80 168/40/80
f 171/45/81 172/44/81 170/42/81
f 173/47/82 174/46/82 172/44/82
f 175/134/83 176/48/83 174/46/83
f 177/52/84 178/51/84 176/50/84
f 179/54/85 180/53/85 178/51/85
f 181/56/86 182/55/86 180/53/86
f 183/58/87 184/57/87 182/55/87
f 185/60/88 186/59/88 184/57/88
f 187/62/89 188/61/89 186/59/89
f 189/64/90 190/63/90 188/61/90
f 191/66/91 192/65/91 190/63/91
f 193/68/92 194/67/92 192/65/92
f 194/67/1 193/68/1 196/70/1
f 196/70/93 195/69/93 198/72/93
f 198/72/94 197/71/94 200/74/94
f 200/74/95 199/73/95 202/76/95
f 202/76/96 201/75/96 204/78/96
f 204/78/97 203/77/97 206/80/97
f 206/80/98 205/79/98 208/135/98
f 208/83/99 207/82/99 210/85/99
f 210/85/100 209/84/100 212/87/100
f 212/87/101 211/86/101 214/89/101
f 214/89/102 213/88/102 216/91/102
f 216/91/12 215/90/12 218/93/12
f 218/93/103 217/92/103 220/95/103
f 220/95/14 219/94/14 222/97/14
f 222/97/104 221/96/104 224/99/104
f 224/99/16 223/98/16 226/101/16
f 226/101/105 225/100/105 228/103/105
f 228/103/106 227/102/106 230/105/106
f 230/105/107 229/104/107 232/107/107
f 232/107/108 231/106/108 234/109/108
f 234/109/109 233/108/109 236/111/109
f 236/111/110 235/110/110 238/113/110
f 238/113/111 237/112/111 240/115/111
f 240/115/112 239/114/112 242/136/112
f 242/118/113 241/117/113 244/120/113
f 244/120/114 243/119/114 246/122/114
f 246/122/115 245/121/115 248/124/115
f 248/124/116 247/123/116 250/126/116
f 250/126/117 249/125/117 252/128/117
f 252/128/118 251/127/118 254/130/118
f 254/130/119 253/129/119 256/132/119
f 256/132/120 255/131/120 130/2/120
