# Blender v2.66 (sub 1) OBJ File: 'mesh_Frame7_half.blend'
# www.blender.org
mtllib mesh_Frame7_half.mtl
o Cylinder_Cylinder.006
v 0.000000 -0.100000 -1.000000
v 0.000000 0.100000 -1.000000
v 0.195090 -0.100000 -0.980785
v 0.195090 0.100000 -0.980785
v 0.382683 -0.100000 -0.923880
v 0.382683 0.100000 -0.923880
v 0.555570 -0.100000 -0.831470
v 0.555570 0.100000 -0.831470
v 0.707107 -0.100000 -0.707107
v 0.707107 0.100000 -0.707107
v 0.831470 -0.100000 -0.555570
v 0.831470 0.100000 -0.555570
v 0.923880 -0.100000 -0.382683
v 0.923880 0.100000 -0.382683
v 0.980785 -0.100000 -0.195090
v 0.980785 0.100000 -0.195090
v 1.000000 -0.100000 -0.000000
v 1.000000 0.100000 -0.000000
v -1.000000 -0.100000 -0.000001
v -1.000000 0.100000 -0.000001
v -0.980785 -0.100000 -0.195091
v -0.980785 0.100000 -0.195091
v -0.923879 -0.100000 -0.382684
v -0.923879 0.100000 -0.382684
v -0.831469 -0.100000 -0.555571
v -0.831469 0.100000 -0.555571
v -0.707106 -0.100000 -0.707108
v -0.707106 0.100000 -0.707108
v -0.555569 -0.100000 -0.831470
v -0.555569 0.100000 -0.831470
v -0.382682 -0.100000 -0.923880
v -0.382682 0.100000 -0.923880
v -0.195089 -0.100000 -0.980786
v -0.195089 0.100000 -0.980786
v 0.000000 -0.100000 -0.900000
v 0.000000 0.100000 -0.900000
v 0.175581 -0.100000 -0.882707
v 0.175581 0.100000 -0.882707
v 0.344415 -0.100000 -0.831492
v 0.344415 0.100000 -0.831492
v 0.500013 -0.100000 -0.748323
v 0.500013 0.100000 -0.748323
v 0.636396 -0.100000 -0.636396
v 0.636396 0.100000 -0.636396
v 0.748323 -0.100000 -0.500013
v 0.748323 0.100000 -0.500013
v 0.831492 -0.100000 -0.344415
v 0.831492 0.100000 -0.344415
v 0.882707 -0.100000 -0.175581
v 0.882707 0.100000 -0.175581
v 0.900000 -0.100000 -0.000000
v 0.900000 0.100000 -0.000000
v -0.900000 -0.100000 -0.000001
v -0.900000 0.100000 -0.000001
v -0.882707 -0.100000 -0.175582
v -0.882707 0.100000 -0.175582
v -0.831491 -0.100000 -0.344416
v -0.831491 0.100000 -0.344416
v -0.748322 -0.100000 -0.500014
v -0.748322 0.100000 -0.500014
v -0.636395 -0.100000 -0.636397
v -0.636395 0.100000 -0.636397
v -0.500012 -0.100000 -0.748323
v -0.500012 0.100000 -0.748323
v -0.344414 -0.100000 -0.831492
v -0.344414 0.100000 -0.831492
v -0.175580 -0.100000 -0.882707
v -0.175580 0.100000 -0.882707
vt 0.916244 0.751211
vt 0.916243 0.834672
vt 0.834437 0.834672
vt 0.083462 0.834732
vt 0.166923 0.834732
vt 0.166923 0.916539
vt 0.916270 0.000000
vt 0.916270 0.083462
vt 0.834463 0.083462
vt 0.333847 0.834732
vt 0.417308 0.834732
vt 0.417308 0.916539
vt 0.916270 0.166923
vt 0.834463 0.166923
vt 0.916244 0.584287
vt 0.916244 0.667749
vt 0.834437 0.667749
vt 0.916244 0.500826
vt 0.834437 0.584287
vt 0.916246 0.417364
vt 0.916244 0.500825
vt 0.834437 0.500823
vt 0.916270 0.333900
vt 0.916270 0.417361
vt 0.834463 0.333900
vt 0.916270 0.250385
vt 0.500770 0.834732
vt 0.250385 0.834732
vt 0.000000 0.834732
vt 0.000000 0.916539
vt 0.031740 0.159719
vt 0.008004 0.081423
vt 0.048939 0.073289
vt 0.584231 0.834732
vt 0.500770 0.916538
vt 0.250385 0.916539
vt 0.417267 0.417361
vt 0.335856 0.409347
vt 0.343996 0.368418
vt 0.834463 0.000000
vt 0.826470 0.081412
vt 0.785540 0.073283
vt 0.576956 0.385581
vt 0.498677 0.409336
vt 0.490533 0.368410
vt 0.070286 0.602862
vt 0.122174 0.539613
vt 0.151688 0.569117
vt 0.649072 0.487703
vt 0.712299 0.539612
vt 0.682785 0.569113
vt 0.257571 0.385600
vt 0.273542 0.347046
vt 0.000000 0.000000
vt 0.041735 0.000008
vt 0.802746 0.159700
vt 0.764189 0.143742
vt 0.031734 0.675020
vt 0.104989 0.626041
vt 0.576931 0.449132
vt 0.625883 0.522396
vt 0.185424 0.347032
vt 0.208612 0.312335
vt 0.764202 0.231855
vt 0.729500 0.208680
vt 0.335830 0.425382
vt 0.417240 0.417361
vt 0.417241 0.459091
vt 0.008002 0.753313
vt 0.070294 0.690983
vt 0.826446 0.753315
vt 0.834437 0.834732
vt 0.792705 0.834718
vt 0.498651 0.425381
vt 0.560958 0.487683
vt 0.122189 0.295126
vt 0.151702 0.265620
vt 0.712321 0.295101
vt 0.682808 0.265601
vt 0.257549 0.449134
vt 0.343973 0.466309
vt 0.048935 0.761447
vt 0.802724 0.675021
vt 0.785514 0.761442
vt 0.417265 0.375632
vt 0.070296 0.231878
vt 0.105000 0.208697
vt 0.649095 0.347008
vt 0.625906 0.312316
vt 0.185406 0.487706
vt 0.273522 0.487686
vt 0.764182 0.602862
vt 0.764165 0.690979
vt 0.070300 0.143755
vt 0.560982 0.347030
vt 0.208595 0.522401
vt 0.729477 0.626037
vt 0.490508 0.466307
vt 0.908063 0.834672
vt 0.908063 0.918134
vt 0.908089 0.250385
vt 0.908091 0.333847
vt 0.834466 0.333848
vt 0.981689 0.834672
vt 0.981689 0.918134
vt 0.834437 0.918194
vt 0.760811 0.918194
vt 0.989896 0.333900
vt 0.989896 0.417361
vt 0.989872 0.417364
vt 0.989872 0.500825
vt 0.916246 0.500825
vt 0.657857 0.834732
vt 0.657857 0.918194
vt 0.584231 0.918194
vt 0.989870 0.667749
vt 0.989870 0.751211
vt 0.989870 0.500825
vt 0.989870 0.584287
vt 0.542501 1.000000
vt 0.500770 1.000000
vt 0.542501 0.916538
vt 0.584231 1.000000
vt 0.584231 0.916538
vt 0.989896 0.083462
vt 0.989896 0.166923
vt 0.989896 0.000000
vt 0.760811 0.834732
vt 0.687185 0.834732
vt 0.989896 0.250385
vt 0.989870 0.834672
vt 0.981717 0.250387
vt 0.981717 0.333848
vt 0.908091 0.250387
vt 0.834437 0.751211
vt 0.083462 0.916539
vt 0.333847 0.916539
vt 0.834437 0.500825
vt 0.834439 0.417361
vt 0.834463 0.417361
vt 0.834463 0.250385
vt 0.834437 0.751210
vt 0.500770 0.916539
vt 0.792734 0.000013
vt 0.041733 0.834724
vt 0.834437 0.918134
vt 0.834463 0.250387
vt 0.687185 0.918194
vt 0.916244 0.834672
vt 0.908091 0.333848
vn 0.098017 0.000000 -0.995185
vn 0.290285 0.000000 -0.956940
vn 0.471397 0.000000 -0.881921
vn 0.634393 0.000000 -0.773010
vn 0.773010 0.000000 -0.634393
vn 0.881921 0.000000 -0.471397
vn 0.956940 0.000000 -0.290285
vn 0.995185 0.000000 -0.098017
vn -0.995185 -0.000000 -0.098018
vn -0.956940 -0.000000 -0.290286
vn -0.881921 -0.000000 -0.471398
vn -0.773010 -0.000000 -0.634394
vn -0.634392 -0.000000 -0.773011
vn -0.471395 -0.000000 -0.881922
vn 0.000000 1.000000 0.000000
vn -0.098017 -0.000000 -0.995185
vn -0.290283 -0.000000 -0.956941
vn -0.000000 -1.000000 0.000000
vn -0.098017 0.000000 0.995185
vn 0.098016 0.000000 0.995185
vn 0.290283 0.000000 0.956941
vn 0.471395 0.000000 0.881922
vn 0.634392 0.000000 0.773011
vn 0.773010 0.000000 0.634394
vn 0.881921 0.000000 0.471398
vn 0.956940 0.000000 0.290286
vn 0.995185 0.000000 0.098018
vn -0.000000 0.000000 1.000000
vn -0.000001 0.000000 1.000000
vn -0.995185 0.000000 0.098017
vn -0.956940 0.000000 0.290285
vn -0.881921 0.000000 0.471397
vn -0.773010 0.000000 0.634393
vn -0.634393 0.000000 0.773011
vn -0.471397 0.000000 0.881921
vn -0.290285 0.000000 0.956940
usemtl None
s off
f 1/1/1 2/2/1 4/3/1
f 3/4/2 4/5/2 6/6/2
f 5/7/3 6/8/3 8/9/3
f 7/10/4 8/11/4 10/12/4
f 9/8/5 10/13/5 12/14/5
f 11/15/6 12/16/6 14/17/6
f 13/18/7 14/15/7 16/19/7
f 15/20/8 16/21/8 18/22/8
f 19/23/9 20/24/9 21/25/9
f 21/13/10 22/26/10 23/14/10
f 23/16/11 24/1/11 25/17/11
f 25/11/12 26/27/12 27/12/12
f 27/5/13 28/28/13 29/6/13
f 29/29/14 30/4/14 31/30/14
f 24/31/15 22/32/15 56/33/15
f 33/27/16 34/34/16 1/35/16
f 31/28/17 32/10/17 33/36/17
f 2/37/15 34/38/15 68/39/15
f 18/40/15 16/41/15 50/42/15
f 6/43/15 4/44/15 38/45/15
f 25/46/18 27/47/18 61/48/18
f 7/49/18 9/50/18 43/51/18
f 34/38/15 32/52/15 66/53/15
f 22/32/15 20/54/15 54/55/15
f 16/41/15 14/56/15 48/57/15
f 23/58/18 25/46/18 59/59/18
f 5/60/18 7/49/18 41/61/18
f 32/52/15 30/62/15 64/63/15
f 14/56/15 12/64/15 46/65/15
f 33/66/18 1/67/18 35/68/18
f 21/69/18 23/58/18 57/70/18
f 15/71/18 17/72/18 51/73/18
f 3/74/18 5/60/18 39/75/18
f 30/62/15 28/76/15 62/77/15
f 12/64/15 10/78/15 44/79/15
f 31/80/18 33/66/18 67/81/18
f 19/29/18 21/69/18 55/82/18
f 13/83/18 15/71/18 49/84/18
f 4/44/15 2/37/15 36/85/15
f 28/76/15 26/86/15 60/87/15
f 10/78/15 8/88/15 42/89/15
f 29/90/18 31/80/18 65/91/18
f 11/92/18 13/83/18 47/93/18
f 26/86/15 24/31/15 58/94/15
f 8/88/15 6/43/15 40/95/15
f 27/47/18 29/90/18 63/96/18
f 9/50/18 11/92/18 45/97/18
f 1/67/18 3/74/18 37/98/18
f 37/99/19 38/100/19 35/3/19
f 35/101/20 36/102/20 68/103/20
f 67/104/21 68/105/21 66/100/21
f 65/72/22 66/106/22 64/107/22
f 63/108/23 64/109/23 62/24/23
f 61/110/24 62/111/24 60/112/24
f 59/113/25 60/114/25 58/115/25
f 57/116/26 58/117/26 56/1/26
f 55/118/27 56/119/27 54/15/27
f 18/120/28 52/121/28 17/122/28
f 54/123/29 20/120/29 53/124/29
f 51/125/30 52/126/30 49/8/30
f 49/119/31 50/116/31 47/15/31
f 47/127/32 48/125/32 45/7/32
f 45/128/33 46/107/33 43/129/33
f 43/126/34 44/130/34 41/13/34
f 41/117/35 42/131/35 39/1/35
f 39/132/36 40/133/36 37/134/36
f 3/135/1 1/1/1 4/3/1
f 5/136/2 3/4/2 6/6/2
f 7/40/3 5/7/3 8/9/3
f 9/137/4 7/10/4 10/12/4
f 11/9/5 9/8/5 12/14/5
f 13/19/6 11/15/6 14/17/6
f 15/138/7 13/18/7 16/19/7
f 17/139/8 15/20/8 18/22/8
f 20/24/9 22/140/9 21/25/9
f 22/26/10 24/141/10 23/14/10
f 24/1/11 26/142/11 25/17/11
f 26/27/12 28/143/12 27/12/12
f 28/28/13 30/36/13 29/6/13
f 30/4/14 32/136/14 31/30/14
f 58/94/15 24/31/15 56/33/15
f 34/34/16 2/124/16 1/35/16
f 32/10/17 34/137/17 33/36/17
f 36/85/15 2/37/15 68/39/15
f 52/144/15 18/40/15 50/42/15
f 40/95/15 6/43/15 38/45/15
f 59/59/18 25/46/18 61/48/18
f 41/61/18 7/49/18 43/51/18
f 68/39/15 34/38/15 66/53/15
f 56/33/15 22/32/15 54/55/15
f 50/42/15 16/41/15 48/57/15
f 57/70/18 23/58/18 59/59/18
f 39/75/18 5/60/18 41/61/18
f 66/53/15 32/52/15 64/63/15
f 48/57/15 14/56/15 46/65/15
f 67/81/18 33/66/18 35/68/18
f 55/82/18 21/69/18 57/70/18
f 49/84/18 15/71/18 51/73/18
f 37/98/18 3/74/18 39/75/18
f 64/63/15 30/62/15 62/77/15
f 46/65/15 12/64/15 44/79/15
f 65/91/18 31/80/18 67/81/18
f 53/145/18 19/29/18 55/82/18
f 47/93/18 13/83/18 49/84/18
f 38/45/15 4/44/15 36/85/15
f 62/77/15 28/76/15 60/87/15
f 44/79/15 10/78/15 42/89/15
f 63/96/18 29/90/18 65/91/18
f 45/97/18 11/92/18 47/93/18
f 60/87/15 26/86/15 58/94/15
f 42/89/15 8/88/15 40/95/15
f 61/48/18 27/47/18 63/96/18
f 43/51/18 9/50/18 45/97/18
f 35/68/18 1/67/18 37/98/18
f 38/100/19 36/146/19 35/3/19
f 67/147/20 35/101/20 68/103/20
f 65/99/21 67/104/21 66/100/21
f 63/128/22 65/72/22 64/107/22
f 61/23/23 63/108/23 62/24/23
f 59/20/24 61/110/24 60/112/24
f 57/34/25 59/113/25 58/115/25
f 55/16/26 57/116/26 56/1/26
f 53/21/27 55/118/27 54/15/27
f 52/121/28 51/35/28 17/122/28
f 20/120/29 19/122/29 53/124/29
f 52/126/30 50/13/30 49/8/30
f 50/116/31 48/16/31 47/15/31
f 48/125/32 46/8/32 45/7/32
f 46/107/33 44/148/33 43/129/33
f 44/130/34 42/26/34 41/13/34
f 42/131/35 40/149/35 39/1/35
f 40/133/36 38/150/36 37/134/36
