# Blender v2.66 (sub 1) OBJ File: 'mesh_Pit9.blend'
# www.blender.org
mtllib mesh_Pit9.mtl
o Grid_Grid.008
v -1.000000 0.000000 1.000000
v 0.000000 0.000000 1.000000
v 1.000000 -0.000000 1.000000
v -0.000000 -0.037499 0.875000
v -1.000000 0.000000 0.000000
v -0.875000 -0.037499 0.000000
v -0.000000 -1.000000 0.000000
v 0.875000 -0.037500 0.000000
v 1.000000 -0.000000 0.000000
v -0.000000 -0.037499 -0.875000
v -1.000000 0.000000 -1.000000
v 0.000000 0.000000 -1.000000
v 1.000000 -0.000000 -1.000000
vt 0.500000 0.062500
vt 0.062500 0.500000
vt 0.500000 0.500000
vt 0.500000 0.937500
vt 1.000000 0.500000
vt 0.500000 1.000000
vt 1.000000 1.000000
vt 0.000000 1.000000
vt 0.000000 0.500000
vt 0.000000 0.000000
vt 0.500000 0.000000
vt 1.000000 0.000000
vt 0.937500 0.500000
vn -0.594812 0.540738 -0.594812
vn -0.594812 0.540738 0.594812
vn 0.000000 1.000000 0.000000
vn -0.276169 0.920577 0.276169
vn 0.276169 0.920577 -0.276169
vn 0.594812 0.540738 0.594812
vn 0.594812 0.540738 -0.594812
vn -0.276169 0.920577 -0.276169
vn 0.276169 0.920577 0.276169
usemtl None
s off
f 4/1/1 8/2/1 7/3/1
f 8/2/2 10/4/2 7/3/2
f 5/5/3 12/6/3 11/7/3
f 13/8/3 12/6/3 9/9/3
f 3/10/3 9/9/3 2/11/3
f 9/9/4 12/6/4 8/2/4
f 2/11/3 5/5/3 1/12/3
f 6/13/5 5/5/5 2/11/5
f 7/3/6 10/4/6 6/13/6
f 7/3/7 6/13/7 4/1/7
f 4/1/8 2/11/8 8/2/8
f 5/5/9 6/13/9 10/4/9
f 12/6/4 10/4/4 8/2/4
f 4/1/5 6/13/5 2/11/5
f 2/11/8 9/9/8 8/2/8
f 12/6/9 5/5/9 10/4/9
