# Blender v2.66 (sub 1) OBJ File: 'mesh_Cross2.blend'
# www.blender.org
mtllib mesh_Cross2.mtl
o Plane.005_Plane.006
v 0.000000 -1.000000 -1.000000
v 0.000000 -1.000000 1.000000
v 0.000000 1.000000 -1.000000
v -0.000000 1.000000 1.000000
v 0.000000 -1.000000 1.000000
v -0.000000 -1.000000 -1.000000
v 0.000000 1.000000 1.000000
v 0.000000 1.000000 -1.000000
v -1.000000 0.000000 1.000000
v 1.000000 -0.000000 1.000000
v -1.000000 0.000000 -1.000000
v 1.000000 -0.000000 -1.000000
v -1.000000 -1.000000 0.000000
v 1.000000 -1.000000 -0.000000
v -1.000000 1.000000 0.000000
v 1.000000 1.000000 -0.000000
v 1.000000 -1.000000 0.000000
v -1.000000 -1.000000 0.000000
v 1.000000 1.000000 -0.000000
v -1.000000 1.000000 -0.000000
v 1.000000 0.000000 1.000000
v -1.000000 0.000000 1.000000
v 1.000000 0.000000 -1.000000
v -1.000000 0.000000 -1.000000
vt 0.000000 0.000000
vt 1.000000 0.000000
vt 1.000000 1.000000
vt 0.000000 1.000000
vn 1.000000 0.000000 0.000000
vn -1.000000 0.000000 0.000000
vn -0.000000 -1.000000 0.000000
vn -0.000000 0.000000 -1.000000
vn -0.000000 0.000000 1.000000
vn 0.000000 1.000000 -0.000000
usemtl None
s off
f 2/1/1 1/2/1 3/3/1
f 6/1/2 5/2/2 8/4/2
f 10/1/3 9/2/3 12/4/3
f 14/1/4 13/2/4 16/4/4
f 18/1/5 17/2/5 19/3/5
f 22/1/6 21/2/6 23/3/6
f 4/4/1 2/1/1 3/3/1
f 5/2/2 7/3/2 8/4/2
f 9/2/3 11/3/3 12/4/3
f 13/2/4 15/3/4 16/4/4
f 20/4/5 18/1/5 19/3/5
f 24/4/6 22/1/6 23/3/6
