# Blender v2.66 (sub 1) OBJ File: 'mesh_Cone_64sided.blend'
# www.blender.org
mtllib mesh_Cone_64sided.mtl
o Cone_Cone.012
v 0.000000 -1.000000 0.000000
v 0.000000 -1.000000 -1.000000
v 0.098017 -1.000000 -0.995185
v 0.195090 -1.000000 -0.980785
v 0.290285 -1.000000 -0.956940
v 0.382683 -1.000000 -0.923880
v 0.471397 -1.000000 -0.881921
v 0.555570 -1.000000 -0.831470
v 0.634393 -1.000000 -0.773010
v 0.707107 -1.000000 -0.707107
v 0.773010 -1.000000 -0.634393
v 0.831470 -1.000000 -0.555570
v 0.881921 -1.000000 -0.471397
v 0.923880 -1.000000 -0.382683
v 0.956940 -1.000000 -0.290285
v 0.980785 -1.000000 -0.195090
v 0.995185 -1.000000 -0.098017
v 1.000000 -1.000000 0.000000
v 0.995185 -1.000000 0.098017
v 0.980785 -1.000000 0.195091
v 0.956940 -1.000000 0.290285
v 0.923879 -1.000000 0.382684
v 0.881921 -1.000000 0.471397
v 0.831469 -1.000000 0.555571
v 0.773010 -1.000000 0.634394
v 0.707106 -1.000000 0.707107
v 0.634393 -1.000000 0.773011
v 0.555570 -1.000000 0.831470
v 0.471396 -1.000000 0.881922
v 0.382683 -1.000000 0.923880
v 0.290284 -1.000000 0.956941
v 0.195090 -1.000000 0.980785
v 0.098016 -1.000000 0.995185
v 0.000000 1.000000 0.000000
v -0.000001 -1.000000 1.000000
v -0.098018 -1.000000 0.995185
v -0.195091 -1.000000 0.980785
v -0.290286 -1.000000 0.956940
v -0.382684 -1.000000 0.923879
v -0.471398 -1.000000 0.881921
v -0.555571 -1.000000 0.831469
v -0.634394 -1.000000 0.773010
v -0.707108 -1.000000 0.707106
v -0.773011 -1.000000 0.634393
v -0.831470 -1.000000 0.555570
v -0.881922 -1.000000 0.471396
v -0.923880 -1.000000 0.382683
v -0.956940 -1.000000 0.290285
v -0.980785 -1.000000 0.195090
v -0.995185 -1.000000 0.098017
v -1.000000 -1.000000 0.000000
v -0.995185 -1.000000 -0.098016
v -0.980785 -1.000000 -0.195089
v -0.956941 -1.000000 -0.290284
v -0.923880 -1.000000 -0.382682
v -0.881922 -1.000000 -0.471395
v -0.831471 -1.000000 -0.555569
v -0.773012 -1.000000 -0.634392
v -0.707108 -1.000000 -0.707105
v -0.634395 -1.000000 -0.773009
v -0.555572 -1.000000 -0.831468
v -0.471399 -1.000000 -0.881920
v -0.382686 -1.000000 -0.923878
v -0.290288 -1.000000 -0.956939
v -0.195093 -1.000000 -0.980785
v -0.098021 -1.000000 -0.995184
vt 0.216117 0.216117
vt 0.042476 0.344899
vt 0.030689 0.327259
vt 0.020688 0.308549
vt 0.012569 0.288948
vt 0.006411 0.268646
vt 0.002272 0.247838
vt 0.000192 0.226725
vt 0.000192 0.205510
vt 0.002272 0.184397
vt 0.006411 0.163589
vt 0.012569 0.143287
vt 0.020688 0.123686
vt 0.030689 0.104976
vt 0.042476 0.087336
vt 0.055934 0.070936
vt 0.070936 0.055935
vt 0.087336 0.042476
vt 0.104976 0.030689
vt 0.123686 0.020688
vt 0.143287 0.012569
vt 0.163589 0.006411
vt 0.184396 0.002272
vt 0.205510 0.000192
vt 0.226725 0.000192
vt 0.247838 0.002272
vt 0.268646 0.006411
vt 0.288948 0.012569
vt 0.308549 0.020688
vt 0.327259 0.030689
vt 0.344899 0.042476
vt 0.361299 0.055935
vt 0.376300 0.070936
vt 0.389759 0.087336
vt 0.401546 0.104976
vt 0.411547 0.123686
vt 0.419666 0.143287
vt 0.425824 0.163589
vt 0.429963 0.184397
vt 0.432043 0.205510
vt 0.432043 0.226725
vt 0.429963 0.247839
vt 0.425824 0.268646
vt 0.419666 0.288948
vt 0.411547 0.308549
vt 0.401546 0.327259
vt 0.389759 0.344899
vt 0.376300 0.361299
vt 0.361299 0.376300
vt 0.344899 0.389759
vt 0.327259 0.401546
vt 0.308549 0.411547
vt 0.288948 0.419666
vt 0.268647 0.425824
vt 0.247839 0.429963
vt 0.226726 0.432043
vt 0.205510 0.432043
vt 0.184397 0.429963
vt 0.163589 0.425824
vt 0.143287 0.419666
vt 0.123687 0.411547
vt 0.104976 0.401546
vt 0.087336 0.389760
vt 0.070937 0.376301
vt 0.055935 0.361299
vt 0.859231 0.496834
vt 0.723444 0.960581
vt 0.838808 0.491393
vt 0.818382 0.486969
vt 0.798151 0.483607
vt 0.778310 0.481337
vt 0.759049 0.480182
vt 0.740554 0.480154
vt 0.723003 0.481251
vt 0.722618 0.482316
vt 0.721847 0.959730
vt 0.706115 0.480658
vt 0.688538 0.480154
vt 0.670054 0.480806
vt 0.650843 0.482610
vt 0.631089 0.485548
vt 0.610983 0.489592
vt 0.590719 0.494702
vt 0.570490 0.500829
vt 0.550493 0.507915
vt 0.530920 0.515891
vt 0.511959 0.524681
vt 0.493793 0.534199
vt 0.476597 0.544354
vt 0.460536 0.555049
vt 0.445765 0.566180
vt 0.432427 0.577639
vt 0.141851 0.909842
vt 0.142622 0.432427
vt 0.158354 0.911499
vt 0.175932 0.912004
vt 0.194416 0.911351
vt 0.213627 0.909547
vt 0.233380 0.906609
vt 0.253486 0.902566
vt 0.273751 0.897456
vt 0.293979 0.891328
vt 0.313977 0.884242
vt 0.333550 0.876266
vt 0.352511 0.867477
vt 0.370677 0.857958
vt 0.387873 0.847803
vt 0.403934 0.837109
vt 0.418704 0.825978
vt 0.432043 0.814518
vt 0.734395 0.002355
vt 0.733624 0.479769
vt 0.717892 0.000697
vt 0.700314 0.000192
vt 0.681831 0.000845
vt 0.662620 0.002649
vt 0.642866 0.005587
vt 0.622760 0.009630
vt 0.602496 0.014740
vt 0.582267 0.020868
vt 0.562270 0.027954
vt 0.542697 0.035930
vt 0.523736 0.044719
vt 0.505570 0.054238
vt 0.488374 0.064393
vt 0.472313 0.075087
vt 0.457543 0.086218
vt 0.444204 0.097678
vt 0.432427 0.109356
vt 0.999808 0.568943
vt 0.986090 0.557939
vt 0.970953 0.547313
vt 0.954540 0.537167
vt 0.937011 0.527598
vt 0.918535 0.518698
vt 0.899288 0.510553
vt 0.879457 0.503242
vn -0.000000 -1.000000 0.000000
vn 0.043898 0.446782 -0.893565
vn 0.131272 0.446782 -0.884959
vn 0.217380 0.446782 -0.867831
vn 0.301396 0.446782 -0.842345
vn 0.382509 0.446782 -0.808747
vn 0.459938 0.446782 -0.767361
vn 0.532938 0.446782 -0.718584
vn 0.600805 0.446782 -0.662887
vn 0.662887 0.446782 -0.600805
vn 0.718584 0.446782 -0.532938
vn 0.767361 0.446782 -0.459938
vn 0.808747 0.446782 -0.382509
vn 0.842345 0.446782 -0.301396
vn 0.867831 0.446782 -0.217380
vn 0.884960 0.446782 -0.131271
vn 0.893565 0.446782 -0.043898
vn 0.893565 0.446782 0.043898
vn 0.884959 0.446782 0.131271
vn 0.867831 0.446783 0.217381
vn 0.842345 0.446782 0.301396
vn 0.808747 0.446782 0.382509
vn 0.767360 0.446783 0.459938
vn 0.718584 0.446782 0.532938
vn 0.662886 0.446782 0.600806
vn 0.600805 0.446782 0.662887
vn 0.532938 0.446782 0.718584
vn 0.459937 0.446782 0.767361
vn 0.382509 0.446783 0.808747
vn 0.301395 0.446783 0.842346
vn 0.217380 0.446782 0.867831
vn 0.131270 0.446782 0.884960
vn 0.043898 0.446782 0.893565
vn -0.043899 0.446782 0.893565
vn -0.131272 0.446782 0.884959
vn -0.217382 0.446782 0.867831
vn -0.301397 0.446782 0.842345
vn -0.382510 0.446782 0.808747
vn -0.459939 0.446783 0.767360
vn -0.532939 0.446782 0.718583
vn -0.600806 0.446783 0.662886
vn -0.662887 0.446783 0.600804
vn -0.718584 0.446782 0.532938
vn -0.767361 0.446783 0.459938
vn -0.808747 0.446783 0.382509
vn -0.842346 0.446782 0.301395
vn -0.867831 0.446783 0.217380
vn -0.884959 0.446782 0.131272
vn -0.893565 0.446782 0.043898
vn -0.893565 0.446782 -0.043898
vn -0.884960 0.446782 -0.131271
vn -0.867832 0.446782 -0.217379
vn -0.842346 0.446782 -0.301395
vn -0.808748 0.446783 -0.382508
vn -0.767361 0.446783 -0.459937
vn -0.718584 0.446783 -0.532937
vn -0.662888 0.446782 -0.600804
vn -0.600806 0.446783 -0.662885
vn -0.532940 0.446782 -0.718582
vn -0.459940 0.446783 -0.767359
vn -0.382511 0.446783 -0.808746
vn -0.301399 0.446783 -0.842345
vn -0.217383 0.446782 -0.867831
vn -0.131274 0.446782 -0.884959
vn -0.043900 0.446782 -0.893565
usemtl None
s off
f 1/1/1 2/2/1 3/3/1
f 1/1/1 3/3/1 4/4/1
f 1/1/1 4/4/1 5/5/1
f 1/1/1 5/5/1 6/6/1
f 1/1/1 6/6/1 7/7/1
f 1/1/1 7/7/1 8/8/1
f 1/1/1 8/8/1 9/9/1
f 1/1/1 9/9/1 10/10/1
f 1/1/1 10/10/1 11/11/1
f 1/1/1 11/11/1 12/12/1
f 1/1/1 12/12/1 13/13/1
f 1/1/1 13/13/1 14/14/1
f 1/1/1 14/14/1 15/15/1
f 1/1/1 15/15/1 16/16/1
f 1/1/1 16/16/1 17/17/1
f 1/1/1 17/17/1 18/18/1
f 1/1/1 18/18/1 19/19/1
f 1/1/1 19/19/1 20/20/1
f 1/1/1 20/20/1 21/21/1
f 1/1/1 21/21/1 22/22/1
f 1/1/1 22/22/1 23/23/1
f 1/1/1 23/23/1 24/24/1
f 1/1/1 24/24/1 25/25/1
f 1/1/1 25/25/1 26/26/1
f 1/1/1 26/26/1 27/27/1
f 1/1/1 27/27/1 28/28/1
f 1/1/1 28/28/1 29/29/1
f 1/1/1 29/29/1 30/30/1
f 1/1/1 30/30/1 31/31/1
f 1/1/1 31/31/1 32/32/1
f 1/1/1 32/32/1 33/33/1
f 1/1/1 33/33/1 35/34/1
f 1/1/1 35/34/1 36/35/1
f 1/1/1 36/35/1 37/36/1
f 1/1/1 37/36/1 38/37/1
f 1/1/1 38/37/1 39/38/1
f 1/1/1 39/38/1 40/39/1
f 1/1/1 40/39/1 41/40/1
f 1/1/1 41/40/1 42/41/1
f 1/1/1 42/41/1 43/42/1
f 1/1/1 43/42/1 44/43/1
f 1/1/1 44/43/1 45/44/1
f 1/1/1 45/44/1 46/45/1
f 1/1/1 46/45/1 47/46/1
f 1/1/1 47/46/1 48/47/1
f 1/1/1 48/47/1 49/48/1
f 1/1/1 49/48/1 50/49/1
f 1/1/1 50/49/1 51/50/1
f 1/1/1 51/50/1 52/51/1
f 1/1/1 52/51/1 53/52/1
f 1/1/1 53/52/1 54/53/1
f 1/1/1 54/53/1 55/54/1
f 1/1/1 55/54/1 56/55/1
f 1/1/1 56/55/1 57/56/1
f 1/1/1 57/56/1 58/57/1
f 1/1/1 58/57/1 59/58/1
f 1/1/1 59/58/1 60/59/1
f 1/1/1 60/59/1 61/60/1
f 1/1/1 61/60/1 62/61/1
f 1/1/1 62/61/1 63/62/1
f 1/1/1 63/62/1 64/63/1
f 1/1/1 64/63/1 65/64/1
f 1/1/1 65/64/1 66/65/1
f 1/1/1 66/65/1 2/2/1
f 2/66/2 34/67/2 3/68/2
f 3/68/3 34/67/3 4/69/3
f 4/69/4 34/67/4 5/70/4
f 5/70/5 34/67/5 6/71/5
f 6/71/6 34/67/6 7/72/6
f 7/72/7 34/67/7 8/73/7
f 8/73/8 34/67/8 9/74/8
f 9/75/9 34/76/9 10/77/9
f 10/77/10 34/76/10 11/78/10
f 11/78/11 34/76/11 12/79/11
f 12/79/12 34/76/12 13/80/12
f 13/80/13 34/76/13 14/81/13
f 14/81/14 34/76/14 15/82/14
f 15/82/15 34/76/15 16/83/15
f 16/83/16 34/76/16 17/84/16
f 17/84/17 34/76/17 18/85/17
f 18/85/18 34/76/18 19/86/18
f 19/86/19 34/76/19 20/87/19
f 20/87/20 34/76/20 21/88/20
f 21/88/21 34/76/21 22/89/21
f 22/89/22 34/76/22 23/90/22
f 23/90/23 34/76/23 24/91/23
f 24/91/24 34/76/24 25/92/24
f 25/93/25 34/94/25 26/95/25
f 26/95/26 34/94/26 27/96/26
f 27/96/27 34/94/27 28/97/27
f 28/97/28 34/94/28 29/98/28
f 29/98/29 34/94/29 30/99/29
f 30/99/30 34/94/30 31/100/30
f 31/100/31 34/94/31 32/101/31
f 32/101/32 34/94/32 33/102/32
f 33/102/33 34/94/33 35/103/33
f 35/103/34 34/94/34 36/104/34
f 36/104/35 34/94/35 37/105/35
f 37/105/36 34/94/36 38/106/36
f 38/106/37 34/94/37 39/107/37
f 39/107/38 34/94/38 40/108/38
f 40/108/39 34/94/39 41/109/39
f 41/109/40 34/94/40 42/110/40
f 42/111/41 34/112/41 43/113/41
f 43/113/42 34/112/42 44/114/42
f 44/114/43 34/112/43 45/115/43
f 45/115/44 34/112/44 46/116/44
f 46/116/45 34/112/45 47/117/45
f 47/117/46 34/112/46 48/118/46
f 48/118/47 34/112/47 49/119/47
f 49/119/48 34/112/48 50/120/48
f 50/120/49 34/112/49 51/121/49
f 51/121/50 34/112/50 52/122/50
f 52/122/51 34/112/51 53/123/51
f 53/123/52 34/112/52 54/124/52
f 54/124/53 34/112/53 55/125/53
f 55/125/54 34/112/54 56/126/54
f 56/126/55 34/112/55 57/127/55
f 57/127/56 34/112/56 58/128/56
f 58/128/57 34/112/57 59/129/57
f 59/130/58 34/67/58 60/131/58
f 60/131/59 34/67/59 61/132/59
f 61/132/60 34/67/60 62/133/60
f 62/133/61 34/67/61 63/134/61
f 63/134/62 34/67/62 64/135/62
f 64/135/63 34/67/63 65/136/63
f 65/136/64 34/67/64 66/137/64
f 66/137/65 34/67/65 2/66/65
