# Blender v2.66 (sub 1) OBJ File: 'mesh_Frame6_quarter.blend'
# www.blender.org
mtllib mesh_Frame6_quarter.mtl
o Cylinder_Cylinder.005
v 0.000000 -0.100000 -1.000000
v 0.000000 0.100000 -1.000000
v -1.000000 -0.100000 -0.000000
v -1.000000 0.100000 -0.000000
v -0.923879 -0.100000 -0.382684
v -0.923879 0.100000 -0.382684
v -0.707107 -0.100000 -0.707107
v -0.707107 0.100000 -0.707107
v -0.382683 -0.100000 -0.923880
v -0.382683 0.100000 -0.923880
v 0.000000 -0.100000 -0.900000
v 0.000000 0.100000 -0.900000
v -0.900000 -0.100000 -0.000000
v -0.900000 0.100000 -0.000000
v -0.831492 -0.100000 -0.344415
v -0.831492 0.100000 -0.344415
v -0.636396 -0.100000 -0.636396
v -0.636396 0.100000 -0.636396
v -0.344415 -0.100000 -0.831492
v -0.344415 0.100000 -0.831492
vt 0.204524 0.224995
vt 0.204524 0.112498
vt 0.423996 0.224995
vt 0.204524 0.000000
vt 0.423996 0.112498
vt 0.204524 0.449990
vt 0.204524 0.337493
vt 0.423996 0.449990
vt 0.423996 0.337493
vt 0.000000 0.960225
vt 0.182489 0.838292
vt 0.204014 0.890260
vt 0.621520 0.112498
vt 0.621520 0.224995
vt 0.397746 0.795477
vt 0.612999 0.838296
vt 0.591473 0.890262
vt 0.042817 0.182486
vt 0.164747 0.000000
vt 0.204522 0.039774
vt 0.042818 0.612995
vt 0.000000 0.397740
vt 0.056249 0.397740
vt 0.397746 0.851726
vt 0.795477 0.960227
vt 0.755704 1.000000
vt 0.094784 0.204011
vt 0.164751 0.795477
vt 0.094784 0.591469
vt 0.402049 0.449990
vt 0.402049 0.562488
vt 0.204524 0.562488
vt 0.599573 0.449990
vt 0.599573 0.562488
vt 0.621520 0.337493
vt 0.621520 0.449990
vt 0.480245 0.337493
vt 0.423996 0.000000
vt 0.480245 0.000000
vt 0.480245 0.112498
vt 0.039774 1.000000
vt 0.204524 0.755703
vt 0.480245 0.224995
vn -0.980785 -0.000000 -0.195090
vn -0.831469 -0.000000 -0.555570
vn -0.195090 -0.000000 -0.980785
vn -0.555570 -0.000000 -0.831470
vn -0.000000 -1.000000 0.000000
vn 0.195090 0.000000 0.980785
vn 0.000000 1.000000 0.000000
vn 0.555570 0.000000 0.831470
vn 0.831469 0.000000 0.555571
vn 0.980785 0.000000 0.195090
vn -0.000000 0.000000 1.000000
vn 1.000000 0.000000 -0.000000
usemtl None
s off
f 3/1/1 4/2/1 5/3/1
f 5/2/2 6/4/2 7/5/2
f 9/6/3 10/7/3 1/8/3
f 7/7/4 8/1/4 9/9/4
f 3/10/5 5/11/5 15/12/5
f 11/13/6 12/14/6 20/3/6
f 7/15/5 9/16/5 19/17/5
f 6/18/7 4/19/7 14/20/7
f 10/21/7 8/22/7 18/23/7
f 5/11/5 7/15/5 17/24/5
f 9/16/5 1/25/5 11/26/5
f 8/22/7 6/18/7 16/27/7
f 2/28/7 10/21/7 20/29/7
f 19/30/8 20/31/8 18/32/8
f 17/33/9 18/34/9 16/31/9
f 15/35/10 16/36/10 14/8/10
f 14/37/11 4/9/11 3/3/11
f 11/38/12 1/39/12 2/40/12
f 4/2/1 6/5/1 5/3/1
f 6/4/2 8/38/2 7/5/2
f 10/7/3 2/9/3 1/8/3
f 8/1/4 10/3/4 9/9/4
f 13/41/5 3/10/5 15/12/5
f 19/5/6 11/13/6 20/3/6
f 17/24/5 7/15/5 19/17/5
f 16/27/7 6/18/7 14/20/7
f 20/29/7 10/21/7 18/23/7
f 15/12/5 5/11/5 17/24/5
f 19/17/5 9/16/5 11/26/5
f 18/23/7 8/22/7 16/27/7
f 12/42/7 2/28/7 20/29/7
f 17/6/8 19/30/8 18/32/8
f 15/30/9 17/33/9 16/31/9
f 13/9/10 15/35/10 14/8/10
f 13/43/11 14/37/11 3/3/11
f 12/5/12 11/38/12 2/40/12
