# Blender v2.66 (sub 1) OBJ File: 'mesh_Cylinder_6sides.blend'
# www.blender.org
mtllib mesh_Cylinder_6sides.mtl
o Cylinder_Cylinder.002
v 0.000000 -1.000000 0.000000
v 0.000000 1.000000 0.000000
v 0.000000 -1.000000 -1.000000
v 0.000000 1.000000 -1.000000
v 0.866025 -1.000000 -0.500000
v 0.866025 1.000000 -0.500000
v 0.866025 -1.000000 0.500000
v 0.866025 1.000000 0.500000
v -0.000000 -1.000000 1.000000
v -0.000000 1.000000 1.000000
v -0.866025 -1.000000 0.500000
v -0.866025 1.000000 0.500000
v -0.866025 -1.000000 -0.500000
v -0.866025 1.000000 -0.500000
vt 0.215999 0.749237
vt 0.000447 0.873980
vt 0.000193 0.624936
vt 0.715999 0.749237
vt 0.715744 0.500193
vt 0.931550 0.624494
vt 0.624714 0.001339
vt 0.626242 0.499425
vt 0.501721 0.499807
vt 0.215744 0.500193
vt 0.500193 0.624935
vt 0.499807 0.498279
vt 0.001721 0.499807
vt 0.001339 0.375286
vt 0.431550 0.624494
vt 0.500447 0.873980
vt 0.499425 0.373758
vt 0.000575 0.126242
vt 0.431805 0.873539
vt 0.716253 0.998281
vt 0.498661 0.124714
vt 0.498279 0.000193
vt 0.216253 0.998281
vt 0.931805 0.873539
vt 0.998279 0.000193
vt 0.999807 0.498279
vt 0.873758 0.000575
vt 0.875286 0.498661
vt 0.500193 0.001721
vt 0.000193 0.001721
vn -0.000000 -1.000000 0.000000
vn 0.000000 1.000000 -0.000000
vn 0.500000 0.000000 -0.866025
vn 1.000000 0.000000 0.000000
vn 0.500000 0.000000 0.866025
vn -0.500000 0.000000 0.866025
vn -1.000000 0.000000 0.000000
vn -0.500000 -0.000000 -0.866025
usemtl None
s off
f 1/1/1 3/2/1 5/3/1
f 2/4/2 6/5/2 4/6/2
f 3/7/3 4/8/3 6/9/3
f 1/1/1 5/3/1 7/10/1
f 2/4/2 8/11/2 6/5/2
f 5/12/4 6/13/4 8/14/4
f 1/1/1 7/10/1 9/15/1
f 2/4/2 10/16/2 8/11/2
f 7/17/5 8/14/5 10/18/5
f 1/1/1 9/15/1 11/19/1
f 2/4/2 12/20/2 10/16/2
f 9/21/6 10/18/6 11/22/6
f 1/1/1 11/19/1 13/23/1
f 2/4/2 14/24/2 12/20/2
f 11/25/7 12/26/7 13/27/7
f 1/1/1 13/23/1 3/2/1
f 2/4/2 4/6/2 14/24/2
f 13/27/8 14/28/8 3/7/8
f 5/29/3 3/7/3 6/9/3
f 7/17/4 5/12/4 8/14/4
f 9/21/5 7/17/5 10/18/5
f 10/18/6 12/30/6 11/22/6
f 12/26/7 14/28/7 13/27/7
f 14/28/8 4/8/8 3/7/8
