# Blender v2.66 (sub 1) OBJ File: 'mesh_RingHalf_internal.blend'
# www.blender.org
mtllib mesh_RingHalf_internal.mtl
o Cylinder_Cylinder.011
v 0.000000 -0.500000 -1.000000
v 0.000000 0.500000 -1.000000
v 0.098017 -0.500000 -0.995185
v 0.098017 0.500000 -0.995185
v 0.195090 -0.500000 -0.980785
v 0.195090 0.500000 -0.980785
v 0.290285 -0.500000 -0.956940
v 0.290285 0.500000 -0.956940
v 0.382683 -0.500000 -0.923880
v 0.382683 0.500000 -0.923880
v 0.471397 -0.500000 -0.881921
v 0.471397 0.500000 -0.881921
v 0.555570 -0.500000 -0.831470
v 0.555570 0.500000 -0.831470
v 0.634393 -0.500000 -0.773010
v 0.634393 0.500000 -0.773010
v 0.707107 -0.500000 -0.707107
v 0.707107 0.500000 -0.707107
v 0.773010 -0.500000 -0.634393
v 0.773010 0.500000 -0.634393
v 0.831470 -0.500000 -0.555570
v 0.831470 0.500000 -0.555570
v 0.881921 -0.500000 -0.471397
v 0.881921 0.500000 -0.471397
v 0.923880 -0.500000 -0.382683
v 0.923880 0.500000 -0.382683
v 0.956940 -0.500000 -0.290285
v 0.956940 0.500000 -0.290285
v 0.980785 -0.500000 -0.195090
v 0.980785 0.500000 -0.195090
v 0.995185 -0.500000 -0.098017
v 0.995185 0.500000 -0.098017
v 1.000000 -0.500000 0.000000
v 1.000000 0.500000 0.000000
v -1.000000 -0.500000 0.000000
v -1.000000 0.500000 0.000000
v -0.995185 -0.500000 -0.098016
v -0.995185 0.500000 -0.098016
v -0.980785 -0.500000 -0.195089
v -0.980785 0.500000 -0.195089
v -0.956941 -0.500000 -0.290284
v -0.956941 0.500000 -0.290284
v -0.923880 -0.500000 -0.382682
v -0.923880 0.500000 -0.382682
v -0.881922 -0.500000 -0.471395
v -0.881922 0.500000 -0.471395
v -0.831471 -0.500000 -0.555569
v -0.831471 0.500000 -0.555569
v -0.773012 -0.500000 -0.634392
v -0.773012 0.500000 -0.634392
v -0.707108 -0.500000 -0.707105
v -0.707108 0.500000 -0.707105
v -0.634395 -0.500000 -0.773009
v -0.634395 0.500000 -0.773009
v -0.555572 -0.500000 -0.831468
v -0.555572 0.500000 -0.831468
v -0.471399 -0.500000 -0.881920
v -0.471399 0.500000 -0.881920
v -0.382686 -0.500000 -0.923878
v -0.382686 0.500000 -0.923878
v -0.290288 -0.500000 -0.956939
v -0.290288 0.500000 -0.956939
v -0.195093 -0.500000 -0.980785
v -0.195093 0.500000 -0.980785
v -0.098021 -0.500000 -0.995184
v -0.098021 0.500000 -0.995184
vt 0.501691 0.986470
vt 0.532724 0.986470
vt 0.503407 0.000049
vt 0.563757 0.986470
vt 0.534441 0.000049
vt 0.594789 0.986471
vt 0.565475 0.000049
vt 0.625822 0.986471
vt 0.596509 0.000049
vt 0.656855 0.986472
vt 0.627543 0.000050
vt 0.687888 0.986473
vt 0.658577 0.000050
vt 0.718921 0.986474
vt 0.689611 0.000051
vt 0.749953 0.986476
vt 0.720645 0.000052
vt 0.780986 0.986477
vt 0.751679 0.000053
vt 0.812019 0.986479
vt 0.782713 0.000054
vt 0.843053 0.986481
vt 0.813747 0.000056
vt 0.874086 0.986483
vt 0.844782 0.000057
vt 0.905119 0.986485
vt 0.875816 0.000059
vt 0.936152 0.986487
vt 0.906850 0.000061
vt 0.967186 0.986489
vt 0.937884 0.000063
vt 0.998219 0.986492
vt 0.968917 0.000065
vt 0.005169 0.986492
vt 0.036201 0.986489
vt 0.037902 0.000068
vt 0.067234 0.986487
vt 0.068935 0.000066
vt 0.098267 0.986485
vt 0.099969 0.000064
vt 0.129300 0.986483
vt 0.131002 0.000062
vt 0.160332 0.986481
vt 0.162036 0.000060
vt 0.191365 0.986479
vt 0.193069 0.000058
vt 0.222398 0.986478
vt 0.224103 0.000057
vt 0.253430 0.986476
vt 0.255136 0.000055
vt 0.284463 0.986475
vt 0.286170 0.000054
vt 0.315496 0.986474
vt 0.317204 0.000052
vt 0.346528 0.986472
vt 0.348238 0.000051
vt 0.377561 0.986472
vt 0.379272 0.000050
vt 0.408594 0.986471
vt 0.410306 0.000050
vt 0.439626 0.986470
vt 0.441340 0.000049
vt 0.470659 0.986470
vt 0.472373 0.000049
vt 0.999951 0.000067
vt 0.006869 0.000071
vn -0.049068 0.000000 0.998795
vn -0.146731 0.000000 0.989177
vn -0.242980 0.000000 0.970031
vn -0.336890 0.000000 0.941544
vn -0.427555 0.000000 0.903989
vn -0.514103 0.000000 0.857729
vn -0.595699 0.000000 0.803208
vn -0.671559 0.000000 0.740951
vn -0.740951 0.000000 0.671559
vn -0.803207 0.000000 0.595699
vn -0.857729 0.000000 0.514103
vn -0.903989 0.000000 0.427555
vn -0.941544 0.000000 0.336890
vn -0.970031 0.000000 0.242980
vn -0.989177 0.000000 0.146730
vn -0.998795 0.000000 0.049068
vn 0.998795 0.000000 0.049067
vn 0.989177 0.000000 0.146730
vn 0.970032 0.000000 0.242979
vn 0.941544 0.000000 0.336889
vn 0.903990 0.000000 0.427554
vn 0.857729 0.000000 0.514101
vn 0.803208 0.000000 0.595698
vn 0.740953 0.000000 0.671557
vn 0.671560 0.000000 0.740950
vn 0.595701 0.000000 0.803206
vn 0.514105 0.000000 0.857727
vn 0.427557 0.000000 0.903988
vn 0.336893 0.000000 0.941543
vn 0.242983 0.000000 0.970030
vn 0.146733 0.000000 0.989176
vn 0.049070 0.000000 0.998795
usemtl None
s off
f 1/1/1 3/2/1 2/3/1
f 3/2/2 5/4/2 4/5/2
f 5/4/3 7/6/3 6/7/3
f 7/6/4 9/8/4 8/9/4
f 9/8/5 11/10/5 10/11/5
f 11/10/6 13/12/6 12/13/6
f 13/12/7 15/14/7 14/15/7
f 15/14/8 17/16/8 16/17/8
f 17/16/9 19/18/9 18/19/9
f 19/18/10 21/20/10 20/21/10
f 21/20/11 23/22/11 22/23/11
f 23/22/12 25/24/12 24/25/12
f 25/24/13 27/26/13 26/27/13
f 27/26/14 29/28/14 28/29/14
f 29/28/15 31/30/15 30/31/15
f 31/30/16 33/32/16 32/33/16
f 35/34/17 37/35/17 38/36/17
f 37/35/18 39/37/18 40/38/18
f 39/37/19 41/39/19 42/40/19
f 41/39/20 43/41/20 44/42/20
f 43/41/21 45/43/21 46/44/21
f 45/43/22 47/45/22 48/46/22
f 47/45/23 49/47/23 50/48/23
f 49/47/24 51/49/24 52/50/24
f 51/49/25 53/51/25 54/52/25
f 53/51/26 55/53/26 56/54/26
f 55/53/27 57/55/27 58/56/27
f 57/55/28 59/57/28 60/58/28
f 59/57/29 61/59/29 62/60/29
f 61/59/30 63/61/30 64/62/30
f 63/61/31 65/63/31 66/64/31
f 65/63/32 1/1/32 2/3/32
f 3/2/1 4/5/1 2/3/1
f 5/4/2 6/7/2 4/5/2
f 7/6/3 8/9/3 6/7/3
f 9/8/4 10/11/4 8/9/4
f 11/10/5 12/13/5 10/11/5
f 13/12/6 14/15/6 12/13/6
f 15/14/7 16/17/7 14/15/7
f 17/16/8 18/19/8 16/17/8
f 19/18/9 20/21/9 18/19/9
f 21/20/10 22/23/10 20/21/10
f 23/22/11 24/25/11 22/23/11
f 25/24/12 26/27/12 24/25/12
f 27/26/13 28/29/13 26/27/13
f 29/28/14 30/31/14 28/29/14
f 31/30/15 32/33/15 30/31/15
f 33/32/16 34/65/16 32/33/16
f 36/66/17 35/34/17 38/36/17
f 38/36/18 37/35/18 40/38/18
f 40/38/19 39/37/19 42/40/19
f 42/40/20 41/39/20 44/42/20
f 44/42/21 43/41/21 46/44/21
f 46/44/22 45/43/22 48/46/22
f 48/46/23 47/45/23 50/48/23
f 50/48/24 49/47/24 52/50/24
f 52/50/25 51/49/25 54/52/25
f 54/52/26 53/51/26 56/54/26
f 56/54/27 55/53/27 58/56/27
f 58/56/28 57/55/28 60/58/28
f 60/58/29 59/57/29 62/60/29
f 62/60/30 61/59/30 64/62/30
f 64/62/31 63/61/31 66/64/31
f 66/64/32 65/63/32 2/3/32
